<?xml version="1.0" encoding="UTF-8"?>
<!DOCTYPE svg PUBLIC "-//W3C//DTD SVG 1.1//EN" "http://www.w3.org/Graphics/SVG/1.1/DTD/svg11.dtd">
<svg xmlns="http://www.w3.org/2000/svg" xmlns:xlink="http://www.w3.org/1999/xlink" version="1.1" width="1240px" height="762px" viewBox="-0.5 -0.5 1240 762"><defs><style type="text/css">@import url(https://fonts.googleapis.com/css?family=Roboto);&#xa;</style></defs><g><path d="M 627.34 315.14 C 623.64 315.37 619.94 316.29 616.7 317.91 L 471.74 387.04 C 464.11 390.74 458.56 397.68 456.71 405.77 L 420.88 561.36 C 419.26 568.53 420.65 576.16 424.58 582.4 C 425.27 583.1 425.73 583.79 426.2 584.71 L 526.54 709.33 C 531.85 715.8 539.94 719.73 548.27 719.73 L 709.18 719.73 C 717.5 719.73 725.6 715.8 730.91 709.33 L 831.25 584.48 C 836.34 578.01 838.42 569.45 836.57 561.36 L 800.73 405.77 C 798.89 397.68 793.34 390.74 785.71 387.04 L 640.75 317.91 C 636.59 315.83 631.96 314.91 627.34 315.14 Z" fill="#ffffff" stroke="none" pointer-events="all"/><path d="M 627.43 327.27 C 623.95 327.49 620.47 328.36 617.43 329.88 L 481.17 394.86 C 474 398.33 468.78 404.85 467.04 412.46 L 433.36 558.72 C 431.83 565.46 433.14 572.63 436.83 578.5 C 437.49 579.15 437.92 579.8 438.35 580.67 L 532.67 697.81 C 537.67 703.89 545.28 707.59 553.1 707.59 L 704.36 707.59 C 712.18 707.59 719.79 703.89 724.79 697.81 L 819.11 580.45 C 823.89 574.37 825.85 566.33 824.11 558.72 L 790.42 412.46 C 788.68 404.85 783.47 398.33 776.3 394.86 L 640.03 329.88 C 636.12 327.92 631.77 327.05 627.43 327.27 Z" fill="#002882" stroke="none" pointer-events="all"/><path d="M 754.59 443.16 L 754.59 576.89 L 637.52 641.85 L 636.83 478.24 Z M 503.09 443.16 L 503.09 576.89 L 620.16 641.85 L 620.85 478.24 Z M 503.09 429.26 L 628.84 392.79 L 754.59 429.26 L 628.84 465.74 Z" fill="#ffffff" stroke="none" pointer-events="all"/><path d="M 976.29 0.26 C 972.09 0.53 967.89 1.58 964.21 3.42 L 799.49 81.96 C 790.82 86.17 784.52 94.05 782.41 103.24 L 741.7 280.05 C 739.86 288.19 741.43 296.86 745.9 303.95 C 746.69 304.74 747.21 305.53 747.74 306.58 L 861.75 448.18 C 867.79 455.53 876.99 460 886.45 460 L 1069.29 460 C 1078.75 460 1087.94 455.53 1093.99 448.18 L 1208 306.32 C 1213.78 298.96 1216.14 289.24 1214.04 280.05 L 1173.32 103.24 C 1171.22 94.05 1164.92 86.17 1156.25 81.96 L 991.53 3.42 C 986.8 1.05 981.55 0 976.29 0.26 Z" fill-opacity="0.5" fill="#ffffff" stroke="none" pointer-events="all"/><path d="M 976.39 14.05 C 972.44 14.29 968.49 15.28 965.04 17.01 L 810.2 90.85 C 802.05 94.8 796.13 102.21 794.15 110.85 L 755.87 277.04 C 754.14 284.7 755.63 292.85 759.82 299.51 C 760.57 300.26 761.06 301 761.55 301.98 L 868.73 435.09 C 874.41 442 883.05 446.2 891.94 446.2 L 1063.81 446.2 C 1072.7 446.2 1081.35 442 1087.03 435.09 L 1194.2 301.74 C 1199.63 294.82 1201.86 285.69 1199.88 277.04 L 1161.6 110.85 C 1159.63 102.21 1153.7 94.8 1145.55 90.85 L 990.72 17.01 C 986.27 14.79 981.33 13.8 976.39 14.05 Z" fill-opacity="0.5" fill="#00aaff" stroke="none" pointer-events="all"/><path d="M 1117.35 147.82 L 1117.35 296.02 L 987.62 368 L 986.85 186.69 Z M 838.65 147.82 L 838.65 296.02 L 968.38 368 L 969.15 186.69 Z M 838.65 132.42 L 978 92 L 1117.35 132.42 L 978 172.84 Z" fill-opacity="0.5" fill="#ffffff" stroke="none" pointer-events="all"/><path d="M 978.64 25.23 C 974.94 25.46 971.24 26.39 968 28.01 L 822.97 97.16 C 815.34 100.87 809.79 107.8 807.94 115.9 L 772.09 271.56 C 770.47 278.73 771.86 286.36 775.79 292.61 C 776.48 293.3 776.95 294 777.41 294.92 L 877.79 419.59 C 883.11 426.07 891.21 430 899.53 430 L 1060.52 430 C 1068.84 430 1076.94 426.07 1082.26 419.59 L 1182.64 294.69 C 1187.73 288.22 1189.81 279.66 1187.96 271.56 L 1152.11 115.9 C 1150.26 107.8 1144.71 100.87 1137.07 97.16 L 992.05 28.01 C 987.89 25.93 983.26 25 978.64 25.23 Z" fill="#ffffff" stroke="none" pointer-events="all"/><path d="M 978.73 37.37 C 975.25 37.58 971.77 38.45 968.73 39.98 L 832.4 104.98 C 825.23 108.46 820.01 114.99 818.27 122.6 L 784.57 268.92 C 783.05 275.66 784.35 282.83 788.05 288.7 C 788.7 289.36 789.14 290.01 789.57 290.88 L 883.93 408.07 C 888.93 414.15 896.54 417.85 904.37 417.85 L 1055.69 417.85 C 1063.52 417.85 1071.13 414.15 1076.13 408.07 L 1170.49 290.66 C 1175.27 284.57 1177.23 276.53 1175.49 268.92 L 1141.79 122.6 C 1140.05 114.99 1134.83 108.46 1127.66 104.98 L 991.34 39.98 C 987.42 38.02 983.08 37.15 978.73 37.37 Z" fill="#2875e2" stroke="none" pointer-events="all"/><path d="M 1102.83 155.14 L 1102.83 285.62 L 988.61 349 L 987.93 189.37 Z M 857.45 155.14 L 857.45 285.62 L 971.67 349 L 972.35 189.37 Z M 857.45 141.59 L 980.14 106 L 1102.83 141.59 L 980.14 177.17 Z" fill="#ffffff" stroke="none" pointer-events="all"/><path d="M 258.29 0.26 C 254.09 0.53 249.89 1.58 246.21 3.42 L 81.49 81.96 C 72.82 86.17 66.52 94.05 64.41 103.24 L 23.7 280.05 C 21.86 288.19 23.43 296.86 27.9 303.95 C 28.69 304.74 29.21 305.53 29.74 306.58 L 143.75 448.18 C 149.79 455.53 158.99 460 168.45 460 L 351.29 460 C 360.75 460 369.94 455.53 375.99 448.18 L 490 306.32 C 495.78 298.96 498.14 289.24 496.04 280.05 L 455.32 103.24 C 453.22 94.05 446.92 86.17 438.25 81.96 L 273.53 3.42 C 268.8 1.05 263.55 0 258.29 0.26 Z" fill-opacity="0.5" fill="#ffffff" stroke="none" pointer-events="all"/><path d="M 258.39 14.05 C 254.44 14.29 250.49 15.28 247.04 17.01 L 92.2 90.85 C 84.05 94.8 78.13 102.21 76.15 110.85 L 37.87 277.04 C 36.14 284.7 37.63 292.85 41.82 299.51 C 42.57 300.26 43.06 301 43.55 301.98 L 150.73 435.09 C 156.41 442 165.05 446.2 173.94 446.2 L 345.81 446.2 C 354.7 446.2 363.35 442 369.03 435.09 L 476.2 301.74 C 481.63 294.82 483.86 285.69 481.88 277.04 L 443.6 110.85 C 441.63 102.21 435.7 94.8 427.55 90.85 L 272.72 17.01 C 268.27 14.79 263.33 13.8 258.39 14.05 Z" fill-opacity="0.5" fill="#00aaff" stroke="none" pointer-events="all"/><path d="M 399.35 147.82 L 399.35 296.02 L 269.62 368 L 268.85 186.69 Z M 120.65 147.82 L 120.65 296.02 L 250.38 368 L 251.15 186.69 Z M 120.65 132.42 L 260 92 L 399.35 132.42 L 260 172.84 Z" fill-opacity="0.5" fill="#ffffff" stroke="none" pointer-events="all"/><path d="M 257.88 43.87 C 254.47 44.08 251.07 44.94 248.09 46.42 L 114.63 110.06 C 107.61 113.47 102.5 119.85 100.8 127.3 L 67.81 270.55 C 66.32 277.14 67.6 284.17 71.22 289.91 C 71.85 290.55 72.28 291.19 72.71 292.04 L 165.08 406.76 C 169.97 412.72 177.42 416.34 185.09 416.34 L 333.22 416.34 C 340.88 416.34 348.33 412.72 353.23 406.76 L 445.6 291.83 C 450.28 285.87 452.2 278 450.5 270.55 L 417.51 127.3 C 415.8 119.85 410.7 113.47 403.67 110.06 L 270.22 46.42 C 266.39 44.51 262.13 43.66 257.88 43.87 Z" fill="#ffffff" stroke="none" pointer-events="all"/><path d="M 257.96 55.04 C 254.76 55.24 251.56 56.04 248.76 57.44 L 123.31 117.26 C 116.71 120.46 111.91 126.46 110.31 133.47 L 79.3 268.11 C 77.9 274.32 79.1 280.92 82.5 286.32 C 83.1 286.92 83.5 287.52 83.9 288.32 L 170.73 396.16 C 175.33 401.76 182.33 405.16 189.54 405.16 L 328.78 405.16 C 335.99 405.16 342.99 401.76 347.59 396.16 L 434.42 288.12 C 438.82 282.52 440.62 275.12 439.02 268.11 L 408.01 133.47 C 406.41 126.46 401.61 120.46 395.01 117.26 L 269.56 57.44 C 265.96 55.64 261.96 54.84 257.96 55.04 Z" fill="#2875e2" stroke="none" pointer-events="all"/><path d="M 375.02 161.72 L 375.02 284.84 L 267.25 344.64 L 266.62 194.02 Z M 143.5 161.72 L 143.5 284.84 L 251.27 344.64 L 251.9 194.02 Z M 143.5 148.93 L 259.26 115.36 L 375.02 148.93 L 259.26 182.51 Z" fill="#ffffff" stroke="none" pointer-events="all"/><path d="M 258.96 460.16 C 256.4 460.32 253.84 460.96 251.6 462.08 L 151.34 509.89 C 146.06 512.45 142.23 517.24 140.95 522.84 L 116.16 630.46 C 115.04 635.41 116 640.69 118.72 645.01 C 119.2 645.49 119.52 645.97 119.84 646.61 L 189.24 732.79 C 192.92 737.27 198.51 739.99 204.27 739.99 L 315.56 739.99 C 321.32 739.99 326.91 737.27 330.59 732.79 L 399.99 646.45 C 403.51 641.97 404.95 636.05 403.67 630.46 L 378.88 522.84 C 377.6 517.24 373.76 512.45 368.49 509.89 L 268.23 462.08 C 265.35 460.64 262.15 460 258.96 460.16 Z" fill-opacity="0.5" fill="#ffffff" stroke="none" pointer-events="all"/><path d="M 259.02 468.55 C 256.61 468.7 254.21 469.3 252.1 470.35 L 157.86 515.3 C 152.9 517.7 149.29 522.21 148.09 527.47 L 124.79 628.63 C 123.74 633.29 124.64 638.25 127.2 642.31 C 127.65 642.76 127.95 643.21 128.25 643.81 L 193.48 724.83 C 196.94 729.03 202.2 731.59 207.61 731.59 L 312.23 731.59 C 317.64 731.59 322.9 729.03 326.36 724.83 L 391.59 643.66 C 394.9 639.45 396.25 633.89 395.05 628.63 L 371.75 527.47 C 370.55 522.21 366.94 517.7 361.98 515.3 L 267.74 470.35 C 265.03 469 262.02 468.4 259.02 468.55 Z" fill-opacity="0.5" fill="#00aaff" stroke="none" pointer-events="all"/><path d="M 344.81 549.97 L 344.81 640.18 L 265.85 683.99 L 265.38 573.64 Z M 175.18 549.97 L 175.18 640.18 L 254.14 683.99 L 254.61 573.64 Z M 175.18 540.6 L 259.99 516 L 344.81 540.6 L 259.99 565.2 Z" fill-opacity="0.5" fill="#ffffff" stroke="none" pointer-events="all"/><path d="M 259.1 479.04 C 256.89 479.18 254.68 479.73 252.74 480.7 L 166.02 522.05 C 161.45 524.27 158.14 528.41 157.03 533.26 L 135.59 626.34 C 134.62 630.63 135.45 635.19 137.8 638.92 C 138.22 639.34 138.5 639.75 138.77 640.31 L 198.8 714.86 C 201.98 718.73 206.82 721.08 211.8 721.08 L 308.06 721.08 C 313.04 721.08 317.88 718.73 321.06 714.86 L 381.09 640.17 C 384.13 636.3 385.38 631.18 384.27 626.34 L 362.83 533.26 C 361.73 528.41 358.41 524.27 353.84 522.05 L 267.12 480.7 C 264.63 479.45 261.87 478.9 259.1 479.04 Z" fill="#ffffff" stroke="none" pointer-events="all"/><path d="M 259.15 486.3 C 257.07 486.43 254.99 486.95 253.17 487.86 L 171.66 526.73 C 167.37 528.81 164.25 532.71 163.21 537.26 L 143.06 624.76 C 142.15 628.79 142.93 633.08 145.14 636.59 C 145.53 636.98 145.79 637.37 146.05 637.89 L 202.47 707.96 C 205.46 711.6 210.01 713.81 214.69 713.81 L 305.18 713.81 C 309.86 713.81 314.41 711.6 317.4 707.96 L 373.82 637.76 C 376.68 634.12 377.85 629.31 376.81 624.76 L 356.66 537.26 C 355.62 532.71 352.5 528.81 348.21 526.73 L 266.7 487.86 C 264.36 486.69 261.76 486.17 259.15 486.3 Z" fill="#2875e2" stroke="none" pointer-events="all"/><path d="M 333.36 556.72 L 333.36 634.75 L 265.07 672.64 L 264.66 577.19 Z M 186.64 556.72 L 186.64 634.75 L 254.93 672.64 L 255.34 577.19 Z M 186.64 548.62 L 260 527.34 L 333.36 548.62 L 260 569.89 Z" fill="#ffffff" stroke="none" pointer-events="all"/><path d="M 976.96 460.16 C 974.4 460.32 971.84 460.96 969.6 462.08 L 869.34 509.89 C 864.07 512.45 860.23 517.25 858.95 522.84 L 834.16 630.46 C 833.04 635.42 834 640.7 836.72 645.01 C 837.2 645.49 837.52 645.97 837.84 646.61 L 907.24 732.8 C 910.92 737.28 916.52 740 922.27 740 L 1033.57 740 C 1039.32 740 1044.92 737.28 1048.6 732.8 L 1118 646.45 C 1121.52 641.98 1122.96 636.06 1121.68 630.46 L 1096.89 522.84 C 1095.61 517.25 1091.77 512.45 1086.5 509.89 L 986.24 462.08 C 983.36 460.64 980.16 460 976.96 460.16 Z" fill-opacity="0.5" fill="#ffffff" stroke="none" pointer-events="all"/><path d="M 977.02 468.55 C 974.62 468.7 972.21 469.3 970.11 470.35 L 875.86 515.3 C 870.9 517.7 867.29 522.21 866.09 527.47 L 842.79 628.63 C 841.74 633.29 842.64 638.25 845.2 642.31 C 845.65 642.76 845.95 643.22 846.25 643.82 L 911.49 724.84 C 914.94 729.04 920.2 731.6 925.62 731.6 L 1030.23 731.6 C 1035.65 731.6 1040.91 729.04 1044.36 724.84 L 1109.6 643.67 C 1112.91 639.46 1114.26 633.9 1113.06 628.63 L 1089.76 527.47 C 1088.56 522.21 1084.95 517.7 1079.99 515.3 L 985.74 470.35 C 983.04 469 980.03 468.4 977.02 468.55 Z" fill-opacity="0.5" fill="#00aaff" stroke="none" pointer-events="all"/><path d="M 1062.82 549.97 L 1062.82 640.18 L 983.86 684 L 983.39 573.64 Z M 893.18 549.97 L 893.18 640.18 L 972.14 684 L 972.61 573.64 Z M 893.18 540.6 L 978 516 L 1062.82 540.6 L 978 565.21 Z" fill-opacity="0.5" fill="#ffffff" stroke="none" pointer-events="all"/><path d="M 977.08 476.62 C 974.83 476.77 972.57 477.33 970.59 478.32 L 882.14 520.5 C 877.49 522.75 874.1 526.99 872.97 531.92 L 851.11 626.86 C 850.12 631.24 850.97 635.89 853.36 639.7 C 853.79 640.12 854.07 640.55 854.35 641.11 L 915.58 717.15 C 918.82 721.1 923.76 723.5 928.84 723.5 L 1027.02 723.5 C 1032.1 723.5 1037.04 721.1 1040.28 717.15 L 1101.51 640.97 C 1104.61 637.02 1105.88 631.8 1104.75 626.86 L 1082.89 531.92 C 1081.76 526.99 1078.37 522.75 1073.72 520.5 L 985.27 478.32 C 982.73 477.05 979.9 476.48 977.08 476.62 Z" fill="#ffffff" stroke="none" pointer-events="all"/><path d="M 977.14 484.03 C 975.02 484.16 972.89 484.69 971.04 485.62 L 887.89 525.27 C 883.52 527.39 880.34 531.37 879.27 536.01 L 858.72 625.25 C 857.79 629.36 858.59 633.74 860.84 637.32 C 861.24 637.72 861.51 638.11 861.77 638.64 L 919.32 710.12 C 922.37 713.83 927.01 716.09 931.79 716.09 L 1024.08 716.09 C 1028.85 716.09 1033.5 713.83 1036.55 710.12 L 1094.1 638.51 C 1097.01 634.8 1098.21 629.89 1097.15 625.25 L 1076.59 536.01 C 1075.53 531.37 1072.35 527.39 1067.97 525.27 L 984.83 485.62 C 982.44 484.42 979.79 483.89 977.14 484.03 Z" fill="#2875e2" stroke="none" pointer-events="all"/><path d="M 1054.73 554.74 L 1054.73 636.34 L 983.3 675.98 L 982.87 576.14 Z M 901.27 554.74 L 901.27 636.34 L 972.7 675.98 L 973.13 576.14 Z M 901.27 546.26 L 978 524 L 1054.73 546.26 L 978 568.51 Z" fill="#ffffff" stroke="none" pointer-events="all"/><path d="M 1144.57 420.07 C 1143.52 420.13 1142.47 420.39 1141.55 420.85 L 1100.37 440.49 C 1098.21 441.54 1096.63 443.51 1096.1 445.81 L 1085.92 490.01 C 1085.46 492.05 1085.86 494.21 1086.97 495.99 C 1087.17 496.19 1087.3 496.38 1087.43 496.64 L 1115.94 532.04 C 1117.45 533.88 1119.75 535 1122.11 535 L 1167.82 535 C 1170.19 535 1172.49 533.88 1174 532.04 L 1202.5 496.58 C 1203.94 494.74 1204.54 492.31 1204.01 490.01 L 1193.83 445.81 C 1193.31 443.51 1191.73 441.54 1189.56 440.49 L 1148.38 420.85 C 1147.2 420.26 1145.89 420 1144.57 420.07 Z" fill-opacity="0.5" fill="#ffffff" stroke="none" pointer-events="all"/><path d="M 1144.6 423.51 C 1143.61 423.57 1142.62 423.82 1141.76 424.25 L 1103.05 442.71 C 1101.01 443.7 1099.53 445.55 1099.04 447.71 L 1089.47 489.26 C 1089.04 491.17 1089.41 493.21 1090.46 494.88 C 1090.64 495.06 1090.76 495.25 1090.89 495.5 L 1117.68 528.77 C 1119.1 530.5 1121.26 531.55 1123.48 531.55 L 1166.45 531.55 C 1168.68 531.55 1170.84 530.5 1172.26 528.77 L 1199.05 495.43 C 1200.41 493.71 1200.96 491.42 1200.47 489.26 L 1190.9 447.71 C 1190.41 445.55 1188.93 443.7 1186.89 442.71 L 1148.18 424.25 C 1147.07 423.7 1145.83 423.45 1144.6 423.51 Z" fill-opacity="0.5" fill="#00aaff" stroke="none" pointer-events="all"/><path d="M 1179.84 456.95 L 1179.84 494 L 1147.41 512 L 1147.21 466.67 Z M 1110.16 456.95 L 1110.16 494 L 1142.59 512 L 1142.79 466.67 Z M 1110.16 453.1 L 1145 443 L 1179.84 453.1 L 1145 463.21 Z" fill-opacity="0.5" fill="#ffffff" stroke="none" pointer-events="all"/><path d="M 1144.78 448.56 C 1144.26 448.59 1143.73 448.72 1143.26 448.96 L 1122.51 458.85 C 1121.42 459.38 1120.63 460.37 1120.36 461.53 L 1115.23 483.8 C 1115 484.83 1115.2 485.92 1115.76 486.82 C 1115.86 486.92 1115.93 487.01 1115.99 487.15 L 1130.36 504.98 C 1131.12 505.91 1132.28 506.47 1133.47 506.47 L 1156.5 506.47 C 1157.69 506.47 1158.85 505.91 1159.61 504.98 L 1173.97 487.11 C 1174.7 486.19 1175 484.96 1174.74 483.8 L 1169.61 461.53 C 1169.34 460.37 1168.55 459.38 1167.45 458.85 L 1146.7 448.96 C 1146.11 448.66 1145.45 448.53 1144.78 448.56 Z" fill="#ffffff" stroke="none" pointer-events="all"/><path d="M 1144.8 450.3 C 1144.3 450.33 1143.8 450.45 1143.37 450.67 L 1123.86 459.97 C 1122.84 460.47 1122.09 461.4 1121.84 462.49 L 1117.02 483.43 C 1116.8 484.39 1116.99 485.42 1117.52 486.26 C 1117.61 486.35 1117.67 486.44 1117.73 486.57 L 1131.23 503.34 C 1131.95 504.21 1133.04 504.74 1134.16 504.74 L 1155.81 504.74 C 1156.93 504.74 1158.02 504.21 1158.73 503.34 L 1172.24 486.54 C 1172.92 485.67 1173.2 484.52 1172.95 483.43 L 1168.13 462.49 C 1167.88 461.4 1167.13 460.47 1166.11 459.97 L 1146.6 450.67 C 1146.04 450.39 1145.42 450.26 1144.8 450.3 Z" fill="#2875e2" stroke="none" pointer-events="all"/><path d="M 1163 466.88 L 1163 486.03 L 1146.24 495.33 L 1146.14 471.91 Z M 1127 466.88 L 1127 486.03 L 1143.76 495.33 L 1143.86 471.91 Z M 1127 464.9 L 1145 459.67 L 1163 464.9 L 1145 470.12 Z" fill="#ffffff" stroke="none" pointer-events="all"/><path d="M 620.07 14.8 C 617.46 14.97 614.86 15.62 612.57 16.76 L 510.39 65.49 C 505.01 68.09 501.1 72.98 499.8 78.69 L 474.54 188.37 C 473.4 193.42 474.38 198.8 477.15 203.2 C 477.64 203.68 477.96 204.17 478.29 204.83 L 549.02 292.67 C 552.76 297.23 558.47 300 564.34 300 L 677.76 300 C 683.63 300 689.33 297.23 693.08 292.67 L 763.81 204.66 C 767.4 200.1 768.86 194.07 767.56 188.37 L 742.3 78.69 C 740.99 72.98 737.08 68.09 731.7 65.49 L 629.52 16.76 C 626.59 15.29 623.33 14.64 620.07 14.8 Z" fill="#ffffff" stroke="none" pointer-events="all"/><path d="M 620.13 23.35 C 617.68 23.51 615.23 24.12 613.09 25.19 L 517.04 71 C 511.98 73.45 508.3 78.04 507.08 83.41 L 483.33 186.5 C 482.26 191.25 483.18 196.31 485.79 200.44 C 486.24 200.9 486.55 201.36 486.86 201.98 L 553.34 284.55 C 556.87 288.83 562.23 291.44 567.74 291.44 L 674.36 291.44 C 679.88 291.44 685.24 288.83 688.76 284.55 L 755.25 201.82 C 758.62 197.53 760 191.86 758.77 186.5 L 735.03 83.41 C 733.8 78.04 730.13 73.45 725.07 71 L 629.02 25.19 C 626.26 23.81 623.2 23.2 620.13 23.35 Z" fill="#002882" stroke="none" pointer-events="all"/><path d="M 707.57 106.34 L 707.57 198.27 L 627.1 242.93 L 626.62 130.46 Z M 534.69 106.34 L 534.69 198.27 L 615.16 242.93 L 615.64 130.46 Z M 534.69 96.79 L 621.13 71.71 L 707.57 96.79 L 621.13 121.86 Z" fill="#ffffff" stroke="none" pointer-events="all"/></g></svg>