<?xml version="1.0" encoding="UTF-8"?>
<!DOCTYPE svg PUBLIC "-//W3C//DTD SVG 1.1//EN" "http://www.w3.org/Graphics/SVG/1.1/DTD/svg11.dtd">
<svg xmlns="http://www.w3.org/2000/svg" xmlns:xlink="http://www.w3.org/1999/xlink" version="1.1" width="1240px" height="743px" viewBox="-0.5 -0.5 1240 743"><defs><style type="text/css">@import url(https://fonts.googleapis.com/css?family=Roboto);&#xa;</style></defs><g><path d="M 624.59 0.23 C 620.93 0.46 617.28 1.37 614.08 2.97 L 470.86 71.27 C 463.32 74.92 457.84 81.78 456.01 89.77 L 420.6 243.5 C 419 250.58 420.37 258.12 424.26 264.29 C 424.94 264.97 425.4 265.66 425.86 266.57 L 524.99 389.69 C 530.25 396.09 538.24 399.97 546.47 399.97 L 705.45 399.97 C 713.67 399.97 721.67 396.09 726.92 389.69 L 826.06 266.34 C 831.08 259.95 833.14 251.5 831.31 243.5 L 795.91 89.77 C 794.08 81.78 788.6 74.92 781.06 71.27 L 637.84 2.97 C 633.72 0.91 629.16 0 624.59 0.23 Z" fill-opacity="0.5" fill="#ffffff" stroke="none" pointer-events="all"/><path d="M 624.68 12.21 C 621.24 12.43 617.81 13.29 614.8 14.79 L 480.17 78.99 C 473.08 82.43 467.93 88.87 466.21 96.38 L 432.93 240.89 C 431.43 247.55 432.72 254.63 436.37 260.43 C 437.01 261.07 437.44 261.72 437.87 262.58 L 531.06 378.31 C 536 384.32 543.51 387.97 551.24 387.97 L 700.69 387.97 C 708.42 387.97 715.93 384.32 720.87 378.31 L 814.06 262.36 C 818.78 256.35 820.72 248.41 819 240.89 L 785.72 96.38 C 784 88.87 778.85 82.43 771.76 78.99 L 637.13 14.79 C 633.27 12.86 628.97 12 624.68 12.21 Z" fill-opacity="0.5" fill="#00aaff" stroke="none" pointer-events="all"/><path d="M 747.24 128.53 L 747.24 257.39 L 634.44 319.98 L 633.77 162.33 Z M 504.91 128.53 L 504.91 257.39 L 617.7 319.98 L 618.37 162.33 Z M 504.91 115.14 L 626.07 79.99 L 747.24 115.14 L 626.07 150.28 Z" fill-opacity="0.5" fill="#ffffff" stroke="none" pointer-events="all"/><path d="M 625.51 487.82 C 624.09 487.91 622.68 488.27 621.45 488.88 L 566.11 515.27 C 563.2 516.68 561.08 519.33 560.38 522.42 L 546.7 581.81 C 546.08 584.55 546.61 587.46 548.11 589.84 C 548.37 590.11 548.55 590.37 548.73 590.73 L 587.03 638.29 C 589.06 640.76 592.15 642.26 595.32 642.26 L 656.75 642.26 C 659.92 642.26 663.01 640.76 665.04 638.29 L 703.34 590.64 C 705.29 588.17 706.08 584.9 705.37 581.81 L 691.7 522.42 C 690.99 519.33 688.87 516.68 685.96 515.27 L 630.62 488.88 C 629.04 488.09 627.27 487.74 625.51 487.82 Z" fill="#ffffff" stroke="none" pointer-events="all"/><path d="M 625.54 492.45 C 624.21 492.54 622.89 492.87 621.72 493.45 L 569.71 518.25 C 566.97 519.58 564.98 522.07 564.32 524.97 L 551.46 580.8 C 550.88 583.37 551.38 586.11 552.79 588.35 C 553.04 588.6 553.2 588.85 553.37 589.18 L 589.37 633.9 C 591.28 636.22 594.18 637.63 597.17 637.63 L 654.91 637.63 C 657.89 637.63 660.8 636.22 662.71 633.9 L 698.71 589.1 C 700.53 586.78 701.28 583.71 700.62 580.8 L 687.76 524.97 C 687.09 522.07 685.1 519.58 682.37 518.25 L 630.35 493.45 C 628.86 492.7 627.2 492.37 625.54 492.45 Z" fill="#002882" stroke="none" pointer-events="all"/><path d="M 674.08 536.69 L 674.08 587.74 L 629.39 612.54 L 629.13 550.08 Z M 578.08 536.69 L 578.08 587.74 L 622.77 612.54 L 623.03 550.08 Z M 578.08 531.39 L 626.08 517.46 L 674.08 531.39 L 626.08 545.31 Z" fill="#ffffff" stroke="none" pointer-events="all"/><path d="M 976.29 0.26 C 972.09 0.53 967.89 1.58 964.21 3.42 L 799.49 81.96 C 790.82 86.17 784.52 94.05 782.41 103.24 L 741.7 280.05 C 739.86 288.19 741.43 296.86 745.9 303.95 C 746.69 304.74 747.21 305.53 747.74 306.58 L 861.75 448.18 C 867.79 455.53 876.99 460 886.45 460 L 1069.29 460 C 1078.75 460 1087.94 455.53 1093.99 448.18 L 1208 306.32 C 1213.78 298.96 1216.14 289.24 1214.04 280.05 L 1173.32 103.24 C 1171.22 94.05 1164.92 86.17 1156.25 81.96 L 991.53 3.42 C 986.8 1.05 981.55 0 976.29 0.26 Z" fill-opacity="0.5" fill="#ffffff" stroke="none" pointer-events="all"/><path d="M 976.39 14.05 C 972.44 14.29 968.49 15.28 965.04 17.01 L 810.2 90.85 C 802.05 94.8 796.13 102.21 794.15 110.85 L 755.87 277.04 C 754.14 284.7 755.63 292.85 759.82 299.51 C 760.57 300.26 761.06 301 761.55 301.98 L 868.73 435.09 C 874.41 442 883.05 446.2 891.94 446.2 L 1063.81 446.2 C 1072.7 446.2 1081.35 442 1087.03 435.09 L 1194.2 301.74 C 1199.63 294.82 1201.86 285.69 1199.88 277.04 L 1161.6 110.85 C 1159.63 102.21 1153.7 94.8 1145.55 90.85 L 990.72 17.01 C 986.27 14.79 981.33 13.8 976.39 14.05 Z" fill-opacity="0.5" fill="#00aaff" stroke="none" pointer-events="all"/><path d="M 1117.35 147.82 L 1117.35 296.02 L 987.62 368 L 986.85 186.69 Z M 838.65 147.82 L 838.65 296.02 L 968.38 368 L 969.15 186.69 Z M 838.65 132.42 L 978 92 L 1117.35 132.42 L 978 172.84 Z" fill-opacity="0.5" fill="#ffffff" stroke="none" pointer-events="all"/><path d="M 977 95.15 C 974.53 95.31 972.06 95.93 969.9 97 L 873.22 143.11 C 868.13 145.58 864.43 150.2 863.2 155.6 L 839.3 259.37 C 838.22 264.15 839.15 269.24 841.77 273.41 C 842.23 273.87 842.54 274.33 842.85 274.95 L 909.77 358.06 C 913.31 362.38 918.71 365 924.26 365 L 1031.58 365 C 1037.13 365 1042.53 362.38 1046.08 358.06 L 1113 274.79 C 1116.39 270.48 1117.78 264.77 1116.55 259.37 L 1092.65 155.6 C 1091.41 150.2 1087.71 145.58 1082.62 143.11 L 985.94 97 C 983.17 95.62 980.08 95 977 95.15 Z" fill="#ffffff" stroke="none" pointer-events="all"/><path d="M 977.06 103.24 C 974.74 103.39 972.42 103.97 970.39 104.98 L 879.51 148.32 C 874.73 150.64 871.25 154.99 870.09 160.06 L 847.62 257.61 C 846.61 262.11 847.48 266.89 849.94 270.8 C 850.38 271.24 850.67 271.67 850.96 272.25 L 913.86 350.38 C 917.2 354.44 922.27 356.9 927.49 356.9 L 1028.37 356.9 C 1033.59 356.9 1038.66 354.44 1041.99 350.38 L 1104.9 272.11 C 1108.09 268.05 1109.39 262.69 1108.23 257.61 L 1085.77 160.06 C 1084.61 154.99 1081.13 150.64 1076.35 148.32 L 985.46 104.98 C 982.86 103.68 979.96 103.1 977.06 103.24 Z" fill="#2875e2" stroke="none" pointer-events="all"/><path d="M 1059.79 181.76 L 1059.79 268.75 L 983.65 311 L 983.2 204.58 Z M 896.21 181.76 L 896.21 268.75 L 972.35 311 L 972.8 204.58 Z M 896.21 172.72 L 978 149 L 1059.79 172.72 L 978 196.45 Z" fill="#ffffff" stroke="none" pointer-events="all"/><path d="M 258.29 0.26 C 254.09 0.53 249.89 1.58 246.21 3.42 L 81.49 81.96 C 72.82 86.17 66.52 94.05 64.41 103.24 L 23.7 280.05 C 21.86 288.19 23.43 296.86 27.9 303.95 C 28.69 304.74 29.21 305.53 29.74 306.58 L 143.75 448.18 C 149.79 455.53 158.99 460 168.45 460 L 351.29 460 C 360.75 460 369.94 455.53 375.99 448.18 L 490 306.32 C 495.78 298.96 498.14 289.24 496.04 280.05 L 455.32 103.24 C 453.22 94.05 446.92 86.17 438.25 81.96 L 273.53 3.42 C 268.8 1.05 263.55 0 258.29 0.26 Z" fill-opacity="0.5" fill="#ffffff" stroke="none" pointer-events="all"/><path d="M 258.39 14.05 C 254.44 14.29 250.49 15.28 247.04 17.01 L 92.2 90.85 C 84.05 94.8 78.13 102.21 76.15 110.85 L 37.87 277.04 C 36.14 284.7 37.63 292.85 41.82 299.51 C 42.57 300.26 43.06 301 43.55 301.98 L 150.73 435.09 C 156.41 442 165.05 446.2 173.94 446.2 L 345.81 446.2 C 354.7 446.2 363.35 442 369.03 435.09 L 476.2 301.74 C 481.63 294.82 483.86 285.69 481.88 277.04 L 443.6 110.85 C 441.63 102.21 435.7 94.8 427.55 90.85 L 272.72 17.01 C 268.27 14.79 263.33 13.8 258.39 14.05 Z" fill-opacity="0.5" fill="#00aaff" stroke="none" pointer-events="all"/><path d="M 399.35 147.82 L 399.35 296.02 L 269.62 368 L 268.85 186.69 Z M 120.65 147.82 L 120.65 296.02 L 250.38 368 L 251.15 186.69 Z M 120.65 132.42 L 260 92 L 399.35 132.42 L 260 172.84 Z" fill-opacity="0.5" fill="#ffffff" stroke="none" pointer-events="all"/><path d="M 259.43 152.82 C 258.01 152.91 256.6 153.27 255.37 153.88 L 200.03 180.27 C 197.12 181.68 195 184.33 194.3 187.42 L 180.62 246.81 C 180 249.55 180.53 252.46 182.03 254.84 C 182.29 255.11 182.47 255.37 182.65 255.73 L 220.95 303.29 C 222.98 305.76 226.07 307.26 229.24 307.26 L 290.67 307.26 C 293.84 307.26 296.93 305.76 298.96 303.29 L 337.26 255.64 C 339.21 253.17 340 249.9 339.29 246.81 L 325.62 187.42 C 324.91 184.33 322.79 181.68 319.88 180.27 L 264.54 153.88 C 262.96 153.09 261.19 152.74 259.43 152.82 Z" fill="#ffffff" stroke="none" pointer-events="all"/><path d="M 259.46 157.45 C 258.13 157.54 256.81 157.87 255.64 158.45 L 203.63 183.25 C 200.89 184.58 198.9 187.07 198.24 189.97 L 185.38 245.8 C 184.8 248.37 185.3 251.11 186.71 253.35 C 186.96 253.6 187.12 253.85 187.29 254.18 L 223.29 298.9 C 225.2 301.22 228.1 302.63 231.09 302.63 L 288.83 302.63 C 291.81 302.63 294.72 301.22 296.63 298.9 L 332.63 254.1 C 334.45 251.78 335.2 248.71 334.54 245.8 L 321.68 189.97 C 321.01 187.07 319.02 184.58 316.29 183.25 L 264.27 158.45 C 262.78 157.7 261.12 157.37 259.46 157.45 Z" fill="#2875e2" stroke="none" pointer-events="all"/><path d="M 308 201.69 L 308 252.74 L 263.31 277.54 L 263.05 215.08 Z M 212 201.69 L 212 252.74 L 256.69 277.54 L 256.95 215.08 Z M 212 196.39 L 260 182.46 L 308 196.39 L 260 210.31 Z" fill="#ffffff" stroke="none" pointer-events="all"/><path d="M 258.96 460.16 C 256.4 460.32 253.84 460.96 251.6 462.08 L 151.34 509.89 C 146.06 512.45 142.23 517.24 140.95 522.84 L 116.16 630.46 C 115.04 635.41 116 640.69 118.72 645.01 C 119.2 645.49 119.52 645.97 119.84 646.61 L 189.24 732.79 C 192.92 737.27 198.51 739.99 204.27 739.99 L 315.56 739.99 C 321.32 739.99 326.91 737.27 330.59 732.79 L 399.99 646.45 C 403.51 641.97 404.95 636.05 403.67 630.46 L 378.88 522.84 C 377.6 517.24 373.76 512.45 368.49 509.89 L 268.23 462.08 C 265.35 460.64 262.15 460 258.96 460.16 Z" fill-opacity="0.5" fill="#ffffff" stroke="none" pointer-events="all"/><path d="M 259.02 468.55 C 256.61 468.7 254.21 469.3 252.1 470.35 L 157.86 515.3 C 152.9 517.7 149.29 522.21 148.09 527.47 L 124.79 628.63 C 123.74 633.29 124.64 638.25 127.2 642.31 C 127.65 642.76 127.95 643.21 128.25 643.81 L 193.48 724.83 C 196.94 729.03 202.2 731.59 207.61 731.59 L 312.23 731.59 C 317.64 731.59 322.9 729.03 326.36 724.83 L 391.59 643.66 C 394.9 639.45 396.25 633.89 395.05 628.63 L 371.75 527.47 C 370.55 522.21 366.94 517.7 361.98 515.3 L 267.74 470.35 C 265.03 469 262.02 468.4 259.02 468.55 Z" fill-opacity="0.5" fill="#00aaff" stroke="none" pointer-events="all"/><path d="M 344.81 549.97 L 344.81 640.18 L 265.85 683.99 L 265.38 573.64 Z M 175.18 549.97 L 175.18 640.18 L 254.14 683.99 L 254.61 573.64 Z M 175.18 540.6 L 259.99 516 L 344.81 540.6 L 259.99 565.2 Z" fill-opacity="0.5" fill="#ffffff" stroke="none" pointer-events="all"/><path d="M 259.39 517.92 C 257.89 518.01 256.38 518.39 255.07 519.05 L 196.22 547.11 C 193.12 548.61 190.87 551.43 190.12 554.71 L 175.57 617.88 C 174.92 620.79 175.48 623.88 177.08 626.42 C 177.36 626.7 177.54 626.98 177.73 627.36 L 218.47 677.94 C 220.62 680.57 223.91 682.17 227.29 682.17 L 292.61 682.17 C 295.99 682.17 299.28 680.57 301.43 677.94 L 342.17 627.26 C 344.23 624.63 345.08 621.16 344.33 617.88 L 329.78 554.71 C 329.03 551.43 326.78 548.61 323.68 547.11 L 264.83 519.05 C 263.14 518.2 261.26 517.83 259.39 517.92 Z" fill="#ffffff" stroke="none" pointer-events="all"/><path d="M 259.42 522.84 C 258.01 522.93 256.6 523.29 255.37 523.9 L 200.05 550.28 C 197.14 551.69 195.02 554.34 194.31 557.43 L 180.64 616.8 C 180.02 619.54 180.55 622.45 182.05 624.83 C 182.32 625.1 182.49 625.36 182.67 625.71 L 220.96 673.27 C 222.99 675.74 226.07 677.24 229.25 677.24 L 290.65 677.24 C 293.83 677.24 296.92 675.74 298.95 673.27 L 337.24 625.63 C 339.18 623.16 339.97 619.89 339.27 616.8 L 325.59 557.43 C 324.89 554.34 322.77 551.69 319.86 550.28 L 264.54 523.9 C 262.95 523.11 261.19 522.76 259.42 522.84 Z" fill="#2875e2" stroke="none" pointer-events="all"/><path d="M 309.78 570.64 L 309.78 623.58 L 263.44 649.3 L 263.16 584.53 Z M 210.21 570.64 L 210.21 623.58 L 256.56 649.3 L 256.83 584.53 Z M 210.21 565.13 L 260 550.69 L 309.78 565.13 L 260 579.57 Z" fill="#ffffff" stroke="none" pointer-events="all"/><path d="M 976.96 460.16 C 974.4 460.32 971.84 460.96 969.6 462.08 L 869.34 509.89 C 864.07 512.45 860.23 517.25 858.95 522.84 L 834.16 630.46 C 833.04 635.42 834 640.7 836.72 645.01 C 837.2 645.49 837.52 645.97 837.84 646.61 L 907.24 732.8 C 910.92 737.28 916.52 740 922.27 740 L 1033.57 740 C 1039.32 740 1044.92 737.28 1048.6 732.8 L 1118 646.45 C 1121.52 641.98 1122.96 636.06 1121.68 630.46 L 1096.89 522.84 C 1095.61 517.25 1091.77 512.45 1086.5 509.89 L 986.24 462.08 C 983.36 460.64 980.16 460 976.96 460.16 Z" fill-opacity="0.5" fill="#ffffff" stroke="none" pointer-events="all"/><path d="M 977.02 468.55 C 974.62 468.7 972.21 469.3 970.11 470.35 L 875.86 515.3 C 870.9 517.7 867.29 522.21 866.09 527.47 L 842.79 628.63 C 841.74 633.29 842.64 638.25 845.2 642.31 C 845.65 642.76 845.95 643.22 846.25 643.82 L 911.49 724.84 C 914.94 729.04 920.2 731.6 925.62 731.6 L 1030.23 731.6 C 1035.65 731.6 1040.91 729.04 1044.36 724.84 L 1109.6 643.67 C 1112.91 639.46 1114.26 633.9 1113.06 628.63 L 1089.76 527.47 C 1088.56 522.21 1084.95 517.7 1079.99 515.3 L 985.74 470.35 C 983.04 469 980.03 468.4 977.02 468.55 Z" fill-opacity="0.5" fill="#00aaff" stroke="none" pointer-events="all"/><path d="M 1062.82 549.97 L 1062.82 640.18 L 983.86 684 L 983.39 573.64 Z M 893.18 549.97 L 893.18 640.18 L 972.14 684 L 972.61 573.64 Z M 893.18 540.6 L 978 516 L 1062.82 540.6 L 978 565.21 Z" fill-opacity="0.5" fill="#ffffff" stroke="none" pointer-events="all"/><path d="M 977.65 553.02 C 976.79 553.08 975.93 553.29 975.18 553.67 L 941.5 569.73 C 939.73 570.59 938.44 572.2 938.01 574.08 L 929.68 610.23 C 929.3 611.9 929.63 613.67 930.54 615.12 C 930.7 615.28 930.81 615.44 930.92 615.66 L 954.23 644.61 C 955.47 646.12 957.35 647.03 959.28 647.03 L 996.67 647.03 C 998.6 647.03 1000.48 646.12 1001.72 644.61 L 1025.03 615.61 C 1026.21 614.1 1026.7 612.11 1026.27 610.23 L 1017.94 574.08 C 1017.51 572.2 1016.22 570.59 1014.45 569.73 L 980.77 553.67 C 979.8 553.18 978.73 552.97 977.65 553.02 Z" fill="#ffffff" stroke="none" pointer-events="all"/><path d="M 977.67 555.84 C 976.86 555.89 976.06 556.09 975.35 556.45 L 943.69 571.55 C 942.02 572.35 940.81 573.87 940.41 575.64 L 932.58 609.62 C 932.23 611.18 932.53 612.85 933.39 614.21 C 933.54 614.37 933.64 614.52 933.74 614.72 L 955.66 641.94 C 956.82 643.35 958.58 644.21 960.4 644.21 L 995.55 644.21 C 997.36 644.21 999.13 643.35 1000.29 641.94 L 1022.21 614.67 C 1023.32 613.25 1023.77 611.39 1023.37 609.62 L 1015.54 575.64 C 1015.14 573.87 1013.93 572.35 1012.26 571.55 L 980.6 556.45 C 979.69 555.99 978.68 555.79 977.67 555.84 Z" fill="#2875e2" stroke="none" pointer-events="all"/><path d="M 1007.22 582.77 L 1007.22 613.84 L 980.02 628.93 L 979.86 590.92 Z M 948.78 582.77 L 948.78 613.84 L 975.98 628.93 L 976.14 590.92 Z M 948.78 579.54 L 978 571.07 L 1007.22 579.54 L 978 588.01 Z" fill="#ffffff" stroke="none" pointer-events="all"/><path d="M 1144.57 420.07 C 1143.52 420.13 1142.47 420.39 1141.55 420.85 L 1100.37 440.49 C 1098.21 441.54 1096.63 443.51 1096.1 445.81 L 1085.92 490.01 C 1085.46 492.05 1085.86 494.21 1086.97 495.99 C 1087.17 496.19 1087.3 496.38 1087.43 496.64 L 1115.94 532.04 C 1117.45 533.88 1119.75 535 1122.11 535 L 1167.82 535 C 1170.19 535 1172.49 533.88 1174 532.04 L 1202.5 496.58 C 1203.94 494.74 1204.54 492.31 1204.01 490.01 L 1193.83 445.81 C 1193.31 443.51 1191.73 441.54 1189.56 440.49 L 1148.38 420.85 C 1147.2 420.26 1145.89 420 1144.57 420.07 Z" fill-opacity="0.5" fill="#ffffff" stroke="none" pointer-events="all"/><path d="M 1144.6 423.51 C 1143.61 423.57 1142.62 423.82 1141.76 424.25 L 1103.05 442.71 C 1101.01 443.7 1099.53 445.55 1099.04 447.71 L 1089.47 489.26 C 1089.04 491.17 1089.41 493.21 1090.46 494.88 C 1090.64 495.06 1090.76 495.25 1090.89 495.5 L 1117.68 528.77 C 1119.1 530.5 1121.26 531.55 1123.48 531.55 L 1166.45 531.55 C 1168.68 531.55 1170.84 530.5 1172.26 528.77 L 1199.05 495.43 C 1200.41 493.71 1200.96 491.42 1200.47 489.26 L 1190.9 447.71 C 1190.41 445.55 1188.93 443.7 1186.89 442.71 L 1148.18 424.25 C 1147.07 423.7 1145.83 423.45 1144.6 423.51 Z" fill-opacity="0.5" fill="#00aaff" stroke="none" pointer-events="all"/><path d="M 1179.84 456.95 L 1179.84 494 L 1147.41 512 L 1147.21 466.67 Z M 1110.16 456.95 L 1110.16 494 L 1142.59 512 L 1142.79 466.67 Z M 1110.16 453.1 L 1145 443 L 1179.84 453.1 L 1145 463.21 Z" fill-opacity="0.5" fill="#ffffff" stroke="none" pointer-events="all"/><path d="M 1144.86 458.21 C 1144.5 458.23 1144.15 458.32 1143.84 458.47 L 1130.01 465.07 C 1129.28 465.42 1128.75 466.08 1128.57 466.85 L 1125.15 481.7 C 1125 482.39 1125.13 483.12 1125.51 483.71 C 1125.57 483.78 1125.62 483.84 1125.66 483.93 L 1135.24 495.82 C 1135.74 496.44 1136.52 496.82 1137.31 496.82 L 1152.67 496.82 C 1153.46 496.82 1154.23 496.44 1154.74 495.82 L 1164.32 483.91 C 1164.8 483.29 1165 482.48 1164.82 481.7 L 1161.4 466.85 C 1161.23 466.08 1160.7 465.42 1159.97 465.07 L 1146.14 458.47 C 1145.74 458.27 1145.3 458.18 1144.86 458.21 Z" fill="#ffffff" stroke="none" pointer-events="all"/><path d="M 1144.87 459.36 C 1144.53 459.38 1144.2 459.47 1143.91 459.61 L 1130.91 465.81 C 1130.22 466.15 1129.73 466.77 1129.56 467.49 L 1126.35 481.45 C 1126.2 482.09 1126.32 482.78 1126.68 483.34 C 1126.74 483.4 1126.78 483.46 1126.82 483.55 L 1135.82 494.72 C 1136.3 495.3 1137.03 495.66 1137.77 495.66 L 1152.21 495.66 C 1152.95 495.66 1153.68 495.3 1154.16 494.72 L 1163.16 483.52 C 1163.61 482.94 1163.8 482.18 1163.63 481.45 L 1160.42 467.49 C 1160.25 466.77 1159.76 466.15 1159.07 465.81 L 1146.07 459.61 C 1145.69 459.43 1145.28 459.34 1144.87 459.36 Z" fill="#2875e2" stroke="none" pointer-events="all"/><path d="M 1157 470.42 L 1157 483.19 L 1145.83 489.38 L 1145.76 473.77 Z M 1133 470.42 L 1133 483.19 L 1144.17 489.38 L 1144.24 473.77 Z M 1133 469.1 L 1145 465.62 L 1157 469.1 L 1145 472.58 Z" fill="#ffffff" stroke="none" pointer-events="all"/><path d="M 625.55 129.24 C 624.26 129.32 622.97 129.65 621.83 130.21 L 571.11 154.4 C 568.44 155.7 566.5 158.12 565.85 160.95 L 553.31 215.4 C 552.74 217.91 553.23 220.58 554.6 222.76 C 554.85 223.01 555.01 223.25 555.17 223.57 L 590.28 267.18 C 592.14 269.44 594.97 270.82 597.89 270.82 L 654.19 270.82 C 657.11 270.82 659.94 269.44 661.8 267.18 L 696.91 223.49 C 698.69 221.23 699.42 218.23 698.77 215.4 L 686.23 160.95 C 685.58 158.12 683.64 155.7 680.97 154.4 L 630.25 130.21 C 628.79 129.48 627.17 129.16 625.55 129.24 Z" fill="#ffffff" stroke="none" pointer-events="all"/><path d="M 625.59 133.49 C 624.37 133.56 623.15 133.87 622.09 134.4 L 574.41 157.14 C 571.9 158.35 570.07 160.64 569.46 163.3 L 557.67 214.48 C 557.14 216.83 557.6 219.34 558.89 221.4 C 559.12 221.63 559.27 221.85 559.42 222.16 L 592.43 263.15 C 594.18 265.28 596.84 266.57 599.58 266.57 L 652.51 266.57 C 655.24 266.57 657.91 265.28 659.66 263.15 L 692.66 222.08 C 694.33 219.95 695.02 217.14 694.41 214.48 L 682.62 163.3 C 682.01 160.64 680.19 158.35 677.68 157.14 L 630 134.4 C 628.63 133.71 627.11 133.41 625.59 133.49 Z" fill="#002882" stroke="none" pointer-events="all"/><path d="M 668.99 174.68 L 668.99 220.32 L 629.04 242.49 L 628.81 186.65 Z M 583.17 174.68 L 583.17 220.32 L 623.12 242.49 L 623.35 186.65 Z M 583.17 169.94 L 626.08 157.49 L 668.99 169.94 L 626.08 182.39 Z" fill="#ffffff" stroke="none" pointer-events="all"/></g></svg>