<?xml version="1.0" encoding="UTF-8"?>
<!DOCTYPE svg PUBLIC "-//W3C//DTD SVG 1.1//EN" "http://www.w3.org/Graphics/SVG/1.1/DTD/svg11.dtd">
<svg xmlns="http://www.w3.org/2000/svg" xmlns:xlink="http://www.w3.org/1999/xlink" version="1.1" width="1240px" height="762px" viewBox="-0.5 -0.5 1240 762"><defs><style type="text/css">@import url(https://fonts.googleapis.com/css?family=Roboto);&#xa;</style></defs><g><path d="M 627.84 315.14 C 624.14 315.37 620.44 316.29 617.2 317.91 L 472.24 387.04 C 464.61 390.74 459.06 397.68 457.21 405.77 L 421.38 561.36 C 419.76 568.53 421.15 576.16 425.08 582.4 C 425.77 583.1 426.23 583.79 426.7 584.71 L 527.04 709.33 C 532.35 715.8 540.44 719.73 548.77 719.73 L 709.68 719.73 C 718 719.73 726.1 715.8 731.41 709.33 L 831.75 584.48 C 836.84 578.01 838.92 569.45 837.07 561.36 L 801.23 405.77 C 799.39 397.68 793.84 390.74 786.21 387.04 L 641.25 317.91 C 637.09 315.83 632.46 314.91 627.84 315.14 Z" fill="#ffffff" stroke="none" pointer-events="all"/><path d="M 627.93 327.27 C 624.45 327.49 620.97 328.36 617.93 329.88 L 481.67 394.86 C 474.5 398.33 469.28 404.85 467.54 412.46 L 433.86 558.72 C 432.33 565.46 433.64 572.63 437.33 578.5 C 437.99 579.15 438.42 579.8 438.85 580.67 L 533.17 697.81 C 538.17 703.89 545.78 707.59 553.6 707.59 L 704.86 707.59 C 712.68 707.59 720.29 703.89 725.29 697.81 L 819.61 580.45 C 824.39 574.37 826.35 566.33 824.61 558.72 L 790.92 412.46 C 789.18 404.85 783.97 398.33 776.8 394.86 L 640.53 329.88 C 636.62 327.92 632.27 327.05 627.93 327.27 Z" fill="#002882" stroke="none" pointer-events="all"/><path d="M 755.09 443.16 L 755.09 576.89 L 638.02 641.85 L 637.33 478.24 Z M 503.59 443.16 L 503.59 576.89 L 620.66 641.85 L 621.35 478.24 Z M 503.59 429.26 L 629.34 392.79 L 755.09 429.26 L 629.34 465.74 Z" fill="#ffffff" stroke="none" pointer-events="all"/><path d="M 976.79 0.26 C 972.59 0.53 968.39 1.58 964.71 3.42 L 799.99 81.96 C 791.32 86.17 785.02 94.05 782.91 103.24 L 742.2 280.05 C 740.36 288.19 741.93 296.86 746.4 303.95 C 747.19 304.74 747.71 305.53 748.24 306.58 L 862.25 448.18 C 868.29 455.53 877.49 460 886.95 460 L 1069.79 460 C 1079.25 460 1088.44 455.53 1094.49 448.18 L 1208.5 306.32 C 1214.28 298.96 1216.64 289.24 1214.54 280.05 L 1173.82 103.24 C 1171.72 94.05 1165.42 86.17 1156.75 81.96 L 992.03 3.42 C 987.3 1.05 982.05 0 976.79 0.26 Z" fill-opacity="0.5" fill="#ffffff" stroke="none" pointer-events="all"/><path d="M 976.89 14.05 C 972.94 14.29 968.99 15.28 965.54 17.01 L 810.7 90.85 C 802.55 94.8 796.63 102.21 794.65 110.85 L 756.37 277.04 C 754.64 284.7 756.13 292.85 760.32 299.51 C 761.07 300.26 761.56 301 762.05 301.98 L 869.23 435.09 C 874.91 442 883.55 446.2 892.44 446.2 L 1064.31 446.2 C 1073.2 446.2 1081.85 442 1087.53 435.09 L 1194.7 301.74 C 1200.13 294.82 1202.36 285.69 1200.38 277.04 L 1162.1 110.85 C 1160.13 102.21 1154.2 94.8 1146.05 90.85 L 991.22 17.01 C 986.77 14.79 981.83 13.8 976.89 14.05 Z" fill-opacity="0.5" fill="#00aaff" stroke="none" pointer-events="all"/><path d="M 1117.85 147.82 L 1117.85 296.02 L 988.12 368 L 987.35 186.69 Z M 839.15 147.82 L 839.15 296.02 L 968.88 368 L 969.65 186.69 Z M 839.15 132.42 L 978.5 92 L 1117.85 132.42 L 978.5 172.84 Z" fill-opacity="0.5" fill="#ffffff" stroke="none" pointer-events="all"/><path d="M 979.14 25.23 C 975.44 25.46 971.74 26.39 968.5 28.01 L 823.47 97.16 C 815.84 100.87 810.29 107.8 808.44 115.9 L 772.59 271.56 C 770.97 278.73 772.36 286.36 776.29 292.61 C 776.98 293.3 777.45 294 777.91 294.92 L 878.29 419.59 C 883.61 426.07 891.71 430 900.03 430 L 1061.02 430 C 1069.34 430 1077.44 426.07 1082.76 419.59 L 1183.14 294.69 C 1188.23 288.22 1190.31 279.66 1188.46 271.56 L 1152.61 115.9 C 1150.76 107.8 1145.21 100.87 1137.57 97.16 L 992.55 28.01 C 988.39 25.93 983.76 25 979.14 25.23 Z" fill="#ffffff" stroke="none" pointer-events="all"/><path d="M 979.23 37.37 C 975.75 37.58 972.27 38.45 969.23 39.98 L 832.9 104.98 C 825.73 108.46 820.51 114.99 818.77 122.6 L 785.07 268.92 C 783.55 275.66 784.85 282.83 788.55 288.7 C 789.2 289.36 789.64 290.01 790.07 290.88 L 884.43 408.07 C 889.43 414.15 897.04 417.85 904.87 417.85 L 1056.19 417.85 C 1064.02 417.85 1071.63 414.15 1076.63 408.07 L 1170.99 290.66 C 1175.77 284.57 1177.73 276.53 1175.99 268.92 L 1142.29 122.6 C 1140.55 114.99 1135.33 108.46 1128.16 104.98 L 991.84 39.98 C 987.92 38.02 983.58 37.15 979.23 37.37 Z" fill="#2875e2" stroke="none" pointer-events="all"/><path d="M 1103.33 155.14 L 1103.33 285.62 L 989.11 349 L 988.43 189.37 Z M 857.95 155.14 L 857.95 285.62 L 972.17 349 L 972.85 189.37 Z M 857.95 141.59 L 980.64 106 L 1103.33 141.59 L 980.64 177.17 Z" fill="#ffffff" stroke="none" pointer-events="all"/><path d="M 258.79 0.26 C 254.59 0.53 250.39 1.58 246.71 3.42 L 81.99 81.96 C 73.32 86.17 67.02 94.05 64.91 103.24 L 24.2 280.05 C 22.36 288.19 23.93 296.86 28.4 303.95 C 29.19 304.74 29.71 305.53 30.24 306.58 L 144.25 448.18 C 150.29 455.53 159.49 460 168.95 460 L 351.79 460 C 361.25 460 370.44 455.53 376.49 448.18 L 490.5 306.32 C 496.28 298.96 498.64 289.24 496.54 280.05 L 455.82 103.24 C 453.72 94.05 447.42 86.17 438.75 81.96 L 274.03 3.42 C 269.3 1.05 264.05 0 258.79 0.26 Z" fill-opacity="0.5" fill="#ffffff" stroke="none" pointer-events="all"/><path d="M 258.89 14.05 C 254.94 14.29 250.99 15.28 247.54 17.01 L 92.7 90.85 C 84.55 94.8 78.63 102.21 76.65 110.85 L 38.37 277.04 C 36.64 284.7 38.13 292.85 42.32 299.51 C 43.07 300.26 43.56 301 44.05 301.98 L 151.23 435.09 C 156.91 442 165.55 446.2 174.44 446.2 L 346.31 446.2 C 355.2 446.2 363.85 442 369.53 435.09 L 476.7 301.74 C 482.13 294.82 484.36 285.69 482.38 277.04 L 444.1 110.85 C 442.13 102.21 436.2 94.8 428.05 90.85 L 273.22 17.01 C 268.77 14.79 263.83 13.8 258.89 14.05 Z" fill-opacity="0.5" fill="#00aaff" stroke="none" pointer-events="all"/><path d="M 399.85 147.82 L 399.85 296.02 L 270.12 368 L 269.35 186.69 Z M 121.15 147.82 L 121.15 296.02 L 250.88 368 L 251.65 186.69 Z M 121.15 132.42 L 260.5 92 L 399.85 132.42 L 260.5 172.84 Z" fill-opacity="0.5" fill="#ffffff" stroke="none" pointer-events="all"/><path d="M 258.38 43.87 C 254.97 44.08 251.57 44.94 248.59 46.42 L 115.13 110.06 C 108.11 113.47 103 119.85 101.3 127.3 L 68.31 270.55 C 66.82 277.14 68.1 284.17 71.72 289.91 C 72.35 290.55 72.78 291.19 73.21 292.04 L 165.58 406.76 C 170.47 412.72 177.92 416.34 185.59 416.34 L 333.72 416.34 C 341.38 416.34 348.83 412.72 353.73 406.76 L 446.1 291.83 C 450.78 285.87 452.7 278 451 270.55 L 418.01 127.3 C 416.3 119.85 411.2 113.47 404.17 110.06 L 270.72 46.42 C 266.89 44.51 262.63 43.66 258.38 43.87 Z" fill="#ffffff" stroke="none" pointer-events="all"/><path d="M 258.46 55.04 C 255.26 55.24 252.06 56.04 249.26 57.44 L 123.81 117.26 C 117.21 120.46 112.41 126.46 110.81 133.47 L 79.8 268.11 C 78.4 274.32 79.6 280.92 83 286.32 C 83.6 286.92 84 287.52 84.4 288.32 L 171.23 396.16 C 175.83 401.76 182.83 405.16 190.04 405.16 L 329.28 405.16 C 336.49 405.16 343.49 401.76 348.09 396.16 L 434.92 288.12 C 439.32 282.52 441.12 275.12 439.52 268.11 L 408.51 133.47 C 406.91 126.46 402.11 120.46 395.51 117.26 L 270.06 57.44 C 266.46 55.64 262.46 54.84 258.46 55.04 Z" fill="#2875e2" stroke="none" pointer-events="all"/><path d="M 375.52 161.72 L 375.52 284.84 L 267.75 344.64 L 267.12 194.02 Z M 144 161.72 L 144 284.84 L 251.77 344.64 L 252.4 194.02 Z M 144 148.93 L 259.76 115.36 L 375.52 148.93 L 259.76 182.51 Z" fill="#ffffff" stroke="none" pointer-events="all"/><path d="M 259.46 460.16 C 256.9 460.32 254.34 460.96 252.1 462.08 L 151.84 509.89 C 146.56 512.45 142.73 517.24 141.45 522.84 L 116.66 630.46 C 115.54 635.41 116.5 640.69 119.22 645.01 C 119.7 645.49 120.02 645.97 120.34 646.61 L 189.74 732.79 C 193.42 737.27 199.01 739.99 204.77 739.99 L 316.06 739.99 C 321.82 739.99 327.41 737.27 331.09 732.79 L 400.49 646.45 C 404.01 641.97 405.45 636.05 404.17 630.46 L 379.38 522.84 C 378.1 517.24 374.26 512.45 368.99 509.89 L 268.73 462.08 C 265.85 460.64 262.65 460 259.46 460.16 Z" fill-opacity="0.5" fill="#ffffff" stroke="none" pointer-events="all"/><path d="M 259.52 468.55 C 257.11 468.7 254.71 469.3 252.6 470.35 L 158.36 515.3 C 153.4 517.7 149.79 522.21 148.59 527.47 L 125.29 628.63 C 124.24 633.29 125.14 638.25 127.7 642.31 C 128.15 642.76 128.45 643.21 128.75 643.81 L 193.98 724.83 C 197.44 729.03 202.7 731.59 208.11 731.59 L 312.73 731.59 C 318.14 731.59 323.4 729.03 326.86 724.83 L 392.09 643.66 C 395.4 639.45 396.75 633.89 395.55 628.63 L 372.25 527.47 C 371.05 522.21 367.44 517.7 362.48 515.3 L 268.24 470.35 C 265.53 469 262.52 468.4 259.52 468.55 Z" fill-opacity="0.5" fill="#00aaff" stroke="none" pointer-events="all"/><path d="M 345.31 549.97 L 345.31 640.18 L 266.35 683.99 L 265.88 573.64 Z M 175.68 549.97 L 175.68 640.18 L 254.64 683.99 L 255.11 573.64 Z M 175.68 540.6 L 260.49 516 L 345.31 540.6 L 260.49 565.2 Z" fill-opacity="0.5" fill="#ffffff" stroke="none" pointer-events="all"/><path d="M 259.6 479.04 C 257.39 479.18 255.18 479.73 253.24 480.7 L 166.52 522.05 C 161.95 524.27 158.64 528.41 157.53 533.26 L 136.09 626.34 C 135.12 630.63 135.95 635.19 138.3 638.92 C 138.72 639.34 139 639.75 139.27 640.31 L 199.3 714.86 C 202.48 718.73 207.32 721.08 212.3 721.08 L 308.56 721.08 C 313.54 721.08 318.38 718.73 321.56 714.86 L 381.59 640.17 C 384.63 636.3 385.88 631.18 384.77 626.34 L 363.33 533.26 C 362.23 528.41 358.91 524.27 354.34 522.05 L 267.62 480.7 C 265.13 479.45 262.37 478.9 259.6 479.04 Z" fill="#ffffff" stroke="none" pointer-events="all"/><path d="M 259.65 486.3 C 257.57 486.43 255.49 486.95 253.67 487.86 L 172.16 526.73 C 167.87 528.81 164.75 532.71 163.71 537.26 L 143.56 624.76 C 142.65 628.79 143.43 633.08 145.64 636.59 C 146.03 636.98 146.29 637.37 146.55 637.89 L 202.97 707.96 C 205.96 711.6 210.51 713.81 215.19 713.81 L 305.68 713.81 C 310.36 713.81 314.91 711.6 317.9 707.96 L 374.32 637.76 C 377.18 634.12 378.35 629.31 377.31 624.76 L 357.16 537.26 C 356.12 532.71 353 528.81 348.71 526.73 L 267.2 487.86 C 264.86 486.69 262.26 486.17 259.65 486.3 Z" fill="#2875e2" stroke="none" pointer-events="all"/><path d="M 333.86 556.72 L 333.86 634.75 L 265.57 672.64 L 265.16 577.19 Z M 187.14 556.72 L 187.14 634.75 L 255.43 672.64 L 255.84 577.19 Z M 187.14 548.62 L 260.5 527.34 L 333.86 548.62 L 260.5 569.89 Z" fill="#ffffff" stroke="none" pointer-events="all"/><path d="M 977.46 460.16 C 974.9 460.32 972.34 460.96 970.1 462.08 L 869.84 509.89 C 864.57 512.45 860.73 517.25 859.45 522.84 L 834.66 630.46 C 833.54 635.42 834.5 640.7 837.22 645.01 C 837.7 645.49 838.02 645.97 838.34 646.61 L 907.74 732.8 C 911.42 737.28 917.02 740 922.77 740 L 1034.07 740 C 1039.82 740 1045.42 737.28 1049.1 732.8 L 1118.5 646.45 C 1122.02 641.98 1123.46 636.06 1122.18 630.46 L 1097.39 522.84 C 1096.11 517.25 1092.27 512.45 1087 509.89 L 986.74 462.08 C 983.86 460.64 980.66 460 977.46 460.16 Z" fill-opacity="0.5" fill="#ffffff" stroke="none" pointer-events="all"/><path d="M 977.52 468.55 C 975.12 468.7 972.71 469.3 970.61 470.35 L 876.36 515.3 C 871.4 517.7 867.79 522.21 866.59 527.47 L 843.29 628.63 C 842.24 633.29 843.14 638.25 845.7 642.31 C 846.15 642.76 846.45 643.22 846.75 643.82 L 911.99 724.84 C 915.44 729.04 920.7 731.6 926.12 731.6 L 1030.73 731.6 C 1036.15 731.6 1041.41 729.04 1044.86 724.84 L 1110.1 643.67 C 1113.41 639.46 1114.76 633.9 1113.56 628.63 L 1090.26 527.47 C 1089.06 522.21 1085.45 517.7 1080.49 515.3 L 986.24 470.35 C 983.54 469 980.53 468.4 977.52 468.55 Z" fill-opacity="0.5" fill="#00aaff" stroke="none" pointer-events="all"/><path d="M 1063.32 549.97 L 1063.32 640.18 L 984.36 684 L 983.89 573.64 Z M 893.68 549.97 L 893.68 640.18 L 972.64 684 L 973.11 573.64 Z M 893.68 540.6 L 978.5 516 L 1063.32 540.6 L 978.5 565.21 Z" fill-opacity="0.5" fill="#ffffff" stroke="none" pointer-events="all"/><path d="M 977.58 476.62 C 975.33 476.77 973.07 477.33 971.09 478.32 L 882.64 520.5 C 877.99 522.75 874.6 526.99 873.47 531.92 L 851.61 626.86 C 850.62 631.24 851.47 635.89 853.86 639.7 C 854.29 640.12 854.57 640.55 854.85 641.11 L 916.08 717.15 C 919.32 721.1 924.26 723.5 929.34 723.5 L 1027.52 723.5 C 1032.6 723.5 1037.54 721.1 1040.78 717.15 L 1102.01 640.97 C 1105.11 637.02 1106.38 631.8 1105.25 626.86 L 1083.39 531.92 C 1082.26 526.99 1078.87 522.75 1074.22 520.5 L 985.77 478.32 C 983.23 477.05 980.4 476.48 977.58 476.62 Z" fill="#ffffff" stroke="none" pointer-events="all"/><path d="M 977.64 484.03 C 975.52 484.16 973.39 484.69 971.54 485.62 L 888.39 525.27 C 884.02 527.39 880.84 531.37 879.77 536.01 L 859.22 625.25 C 858.29 629.36 859.09 633.74 861.34 637.32 C 861.74 637.72 862.01 638.11 862.27 638.64 L 919.82 710.12 C 922.87 713.83 927.51 716.09 932.29 716.09 L 1024.58 716.09 C 1029.35 716.09 1034 713.83 1037.05 710.12 L 1094.6 638.51 C 1097.51 634.8 1098.71 629.89 1097.65 625.25 L 1077.09 536.01 C 1076.03 531.37 1072.85 527.39 1068.47 525.27 L 985.33 485.62 C 982.94 484.42 980.29 483.89 977.64 484.03 Z" fill="#2875e2" stroke="none" pointer-events="all"/><path d="M 1055.23 554.74 L 1055.23 636.34 L 983.8 675.98 L 983.37 576.14 Z M 901.77 554.74 L 901.77 636.34 L 973.2 675.98 L 973.63 576.14 Z M 901.77 546.26 L 978.5 524 L 1055.23 546.26 L 978.5 568.51 Z" fill="#ffffff" stroke="none" pointer-events="all"/><path d="M 1145.07 420.07 C 1144.02 420.13 1142.97 420.39 1142.05 420.85 L 1100.87 440.49 C 1098.71 441.54 1097.13 443.51 1096.6 445.81 L 1086.42 490.01 C 1085.96 492.05 1086.36 494.21 1087.47 495.99 C 1087.67 496.19 1087.8 496.38 1087.93 496.64 L 1116.44 532.04 C 1117.95 533.88 1120.25 535 1122.61 535 L 1168.32 535 C 1170.69 535 1172.99 533.88 1174.5 532.04 L 1203 496.58 C 1204.44 494.74 1205.04 492.31 1204.51 490.01 L 1194.33 445.81 C 1193.81 443.51 1192.23 441.54 1190.06 440.49 L 1148.88 420.85 C 1147.7 420.26 1146.39 420 1145.07 420.07 Z" fill-opacity="0.5" fill="#ffffff" stroke="none" pointer-events="all"/><path d="M 1145.1 423.51 C 1144.11 423.57 1143.12 423.82 1142.26 424.25 L 1103.55 442.71 C 1101.51 443.7 1100.03 445.55 1099.54 447.71 L 1089.97 489.26 C 1089.54 491.17 1089.91 493.21 1090.96 494.88 C 1091.14 495.06 1091.26 495.25 1091.39 495.5 L 1118.18 528.77 C 1119.6 530.5 1121.76 531.55 1123.98 531.55 L 1166.95 531.55 C 1169.18 531.55 1171.34 530.5 1172.76 528.77 L 1199.55 495.43 C 1200.91 493.71 1201.46 491.42 1200.97 489.26 L 1191.4 447.71 C 1190.91 445.55 1189.43 443.7 1187.39 442.71 L 1148.68 424.25 C 1147.57 423.7 1146.33 423.45 1145.1 423.51 Z" fill-opacity="0.5" fill="#00aaff" stroke="none" pointer-events="all"/><path d="M 1180.34 456.95 L 1180.34 494 L 1147.91 512 L 1147.71 466.67 Z M 1110.66 456.95 L 1110.66 494 L 1143.09 512 L 1143.29 466.67 Z M 1110.66 453.1 L 1145.5 443 L 1180.34 453.1 L 1145.5 463.21 Z" fill-opacity="0.5" fill="#ffffff" stroke="none" pointer-events="all"/><path d="M 1145.28 448.56 C 1144.76 448.59 1144.23 448.72 1143.76 448.96 L 1123.01 458.85 C 1121.92 459.38 1121.13 460.37 1120.86 461.53 L 1115.73 483.8 C 1115.5 484.83 1115.7 485.92 1116.26 486.82 C 1116.36 486.92 1116.43 487.01 1116.49 487.15 L 1130.86 504.98 C 1131.62 505.91 1132.78 506.47 1133.97 506.47 L 1157 506.47 C 1158.19 506.47 1159.35 505.91 1160.11 504.98 L 1174.47 487.11 C 1175.2 486.19 1175.5 484.96 1175.24 483.8 L 1170.11 461.53 C 1169.84 460.37 1169.05 459.38 1167.95 458.85 L 1147.2 448.96 C 1146.61 448.66 1145.95 448.53 1145.28 448.56 Z" fill="#ffffff" stroke="none" pointer-events="all"/><path d="M 1145.3 450.3 C 1144.8 450.33 1144.3 450.45 1143.87 450.67 L 1124.36 459.97 C 1123.34 460.47 1122.59 461.4 1122.34 462.49 L 1117.52 483.43 C 1117.3 484.39 1117.49 485.42 1118.02 486.26 C 1118.11 486.35 1118.17 486.44 1118.23 486.57 L 1131.73 503.34 C 1132.45 504.21 1133.54 504.74 1134.66 504.74 L 1156.31 504.74 C 1157.43 504.74 1158.52 504.21 1159.23 503.34 L 1172.74 486.54 C 1173.42 485.67 1173.7 484.52 1173.45 483.43 L 1168.63 462.49 C 1168.38 461.4 1167.63 460.47 1166.61 459.97 L 1147.1 450.67 C 1146.54 450.39 1145.92 450.26 1145.3 450.3 Z" fill="#2875e2" stroke="none" pointer-events="all"/><path d="M 1163.5 466.88 L 1163.5 486.03 L 1146.74 495.33 L 1146.64 471.91 Z M 1127.5 466.88 L 1127.5 486.03 L 1144.26 495.33 L 1144.36 471.91 Z M 1127.5 464.9 L 1145.5 459.67 L 1163.5 464.9 L 1145.5 470.12 Z" fill="#ffffff" stroke="none" pointer-events="all"/><path d="M 618.91 14.85 C 615.58 15.06 612.24 15.89 609.32 17.35 L 478.49 79.74 C 471.6 83.08 466.59 89.34 464.92 96.64 L 432.58 237.07 C 431.12 243.54 432.37 250.42 435.92 256.06 C 436.55 256.68 436.96 257.31 437.38 258.14 L 527.94 370.61 C 532.74 376.45 540.04 380 547.55 380 L 692.78 380 C 700.29 380 707.59 376.45 712.39 370.61 L 802.95 257.94 C 807.54 252.09 809.42 244.37 807.75 237.07 L 775.41 96.64 C 773.74 89.34 768.73 83.08 761.84 79.74 L 631.02 17.35 C 627.26 15.47 623.09 14.64 618.91 14.85 Z" fill="#ffffff" stroke="none" pointer-events="all"/><path d="M 619 25.8 C 615.86 25.99 612.72 26.78 609.97 28.15 L 486.99 86.8 C 480.52 89.93 475.81 95.82 474.24 102.68 L 443.84 234.68 C 442.47 240.76 443.65 247.24 446.98 252.53 C 447.57 253.12 447.96 253.71 448.35 254.49 L 533.48 360.21 C 537.99 365.7 544.85 369.04 551.92 369.04 L 688.43 369.04 C 695.49 369.04 702.35 365.7 706.87 360.21 L 791.99 254.3 C 796.3 248.81 798.07 241.55 796.5 234.68 L 766.1 102.68 C 764.53 95.82 759.82 89.93 753.35 86.8 L 630.37 28.15 C 626.84 26.39 622.92 25.6 619 25.8 Z" fill="#ff6666" stroke="none" pointer-events="all"/><path d="M 730.95 132.04 L 730.95 249.75 L 627.91 306.93 L 627.3 162.92 Z M 509.59 132.04 L 509.59 249.75 L 612.63 306.93 L 613.24 162.92 Z M 509.59 119.81 L 620.27 87.71 L 730.95 119.81 L 620.27 151.92 Z" fill="#ffffff" stroke="none" pointer-events="all"/></g></svg>