<?xml version="1.0" encoding="UTF-8"?>
<!DOCTYPE svg PUBLIC "-//W3C//DTD SVG 1.1//EN" "http://www.w3.org/Graphics/SVG/1.1/DTD/svg11.dtd">
<svg xmlns="http://www.w3.org/2000/svg" xmlns:xlink="http://www.w3.org/1999/xlink" version="1.1" width="1980px" height="1296px" viewBox="-0.5 -0.5 1980 1296"><defs><linearGradient x1="0%" y1="0%" x2="0%" y2="100%" id="mx-gradient-00aaff-1-00aaff-1-s-0"><stop offset="0%" style="stop-color:#00AAFF"/><stop offset="100%" style="stop-color:#00AAFF"/></linearGradient><linearGradient x1="0%" y1="0%" x2="0%" y2="100%" id="mx-gradient-002882-1-002882-1-s-0"><stop offset="0%" style="stop-color:#002882"/><stop offset="100%" style="stop-color:#002882"/></linearGradient><linearGradient x1="100%" y1="0%" x2="0%" y2="0%" id="mx-gradient-002882-1-002882-1-e-0"><stop offset="0%" style="stop-color:#002882"/><stop offset="100%" style="stop-color:#002882"/></linearGradient><linearGradient x1="100%" y1="0%" x2="0%" y2="0%" id="mx-gradient-002882-1-00aaff-1-e-0"><stop offset="0%" style="stop-color:#00AAFF"/><stop offset="100%" style="stop-color:#002882"/></linearGradient><linearGradient x1="100%" y1="0%" x2="0%" y2="0%" id="mx-gradient-00aaff-1-00aaff-1-e-0"><stop offset="0%" style="stop-color:#00AAFF"/><stop offset="100%" style="stop-color:#00AAFF"/></linearGradient><style type="text/css">@import url(https://fonts.googleapis.com/css?family=Roboto);&#xa;</style></defs><g><rect x="192" y="300" width="366" height="120" fill="url(#mx-gradient-00aaff-1-00aaff-1-s-0)" stroke="#00aaff" stroke-width="3" pointer-events="all"/><path d="M 312 360.1 Q 12 360.1 12 720.1 Q 12 1080.1 242.46 1080.02" fill="none" stroke="#002882" stroke-width="30" stroke-miterlimit="10" pointer-events="stroke"/><path d="M 278.46 1080.01 L 230.47 1104.03 L 242.46 1080.02 L 230.45 1056.03 Z" fill="#002882" stroke="#002882" stroke-width="30" stroke-miterlimit="10" pointer-events="all"/><rect x="312" y="300" width="1116" height="120" fill="url(#mx-gradient-002882-1-002882-1-s-0)" stroke="#002882" stroke-width="3" pointer-events="all"/><rect x="1422" y="300" width="366" height="120" fill="url(#mx-gradient-00aaff-1-00aaff-1-s-0)" stroke="#00aaff" stroke-width="3" pointer-events="all"/><rect x="192" y="150" width="1596" height="120" fill="url(#mx-gradient-00aaff-1-00aaff-1-s-0)" stroke="#00aaff" stroke-width="3" pointer-events="all"/><rect x="192" y="450" width="1596" height="120" fill="url(#mx-gradient-00aaff-1-00aaff-1-s-0)" stroke="#00aaff" stroke-width="3" pointer-events="all"/><path d="M 1710 360.1 Q 1962 360.1 1962 720.1 Q 1962 1080.1 1767.54 1080.03" fill="none" stroke="#002882" stroke-width="30" stroke-miterlimit="10" pointer-events="stroke"/><path d="M 1731.54 1080.01 L 1779.55 1056.03 L 1767.54 1080.03 L 1779.53 1104.03 Z" fill="#002882" stroke="#002882" stroke-width="30" stroke-miterlimit="10" pointer-events="all"/><rect x="1482" y="300" width="228" height="120" fill="url(#mx-gradient-002882-1-002882-1-s-0)" stroke="#002882" stroke-width="3" pointer-events="all"/><rect x="1242" y="450" width="66" height="120" fill="url(#mx-gradient-002882-1-002882-1-s-0)" stroke="#002882" stroke-width="3" pointer-events="all"/><rect x="1422" y="450" width="66" height="120" fill="url(#mx-gradient-002882-1-002882-1-s-0)" stroke="#002882" stroke-width="3" pointer-events="all"/><rect x="1092" y="150" width="66" height="120" fill="url(#mx-gradient-002882-1-002882-1-s-0)" stroke="#002882" stroke-width="3" pointer-events="all"/><rect x="192" y="600" width="1596" height="120" fill="url(#mx-gradient-00aaff-1-00aaff-1-s-0)" stroke="#00aaff" stroke-width="3" pointer-events="all"/><rect x="774" y="600" width="66" height="120" fill="url(#mx-gradient-002882-1-002882-1-s-0)" stroke="#002882" stroke-width="3" pointer-events="all"/><rect x="192" y="0" width="1596" height="120" fill="url(#mx-gradient-00aaff-1-00aaff-1-s-0)" stroke="#00aaff" stroke-width="3" pointer-events="all"/><rect x="867" y="0" width="66" height="120" fill="url(#mx-gradient-002882-1-002882-1-s-0)" stroke="#002882" stroke-width="3" pointer-events="all"/><rect x="192" y="1230" width="1596" height="60" fill="url(#mx-gradient-002882-1-002882-1-e-0)" stroke="#00aaff" stroke-width="9" pointer-events="all"/><rect x="252" y="1170" width="936" height="60" fill="url(#mx-gradient-002882-1-002882-1-e-0)" stroke="#00aaff" stroke-width="9" pointer-events="all"/><rect x="1272" y="1170" width="486" height="60" fill="url(#mx-gradient-002882-1-002882-1-e-0)" stroke="#00aaff" stroke-width="9" pointer-events="all"/><rect x="282" y="1110" width="666" height="60" fill="url(#mx-gradient-002882-1-002882-1-e-0)" stroke="#00aaff" stroke-width="9" pointer-events="all"/><rect x="972" y="1110" width="186" height="60" fill="url(#mx-gradient-002882-1-00aaff-1-e-0)" stroke="#00aaff" stroke-width="9" pointer-events="all"/><rect x="1302" y="1110" width="426" height="60" fill="url(#mx-gradient-002882-1-00aaff-1-e-0)" stroke="#00aaff" stroke-width="9" pointer-events="all"/><rect x="312" y="1050" width="606" height="60" fill="url(#mx-gradient-002882-1-002882-1-e-0)" stroke="#00aaff" stroke-width="9" pointer-events="all"/><rect x="342" y="990" width="546" height="60" fill="url(#mx-gradient-002882-1-002882-1-e-0)" stroke="#00aaff" stroke-width="9" pointer-events="all"/><rect x="372" y="930" width="486" height="60" fill="url(#mx-gradient-002882-1-002882-1-e-0)" stroke="#00aaff" stroke-width="9" pointer-events="all"/><rect x="987" y="1050" width="156" height="60" fill="url(#mx-gradient-002882-1-00aaff-1-e-0)" stroke="#00aaff" stroke-width="9" pointer-events="all"/><rect x="994.5" y="990" width="141" height="60" fill="url(#mx-gradient-002882-1-00aaff-1-e-0)" stroke="#00aaff" stroke-width="9" pointer-events="all"/><rect x="1002" y="930" width="126" height="60" fill="url(#mx-gradient-002882-1-00aaff-1-e-0)" stroke="#00aaff" stroke-width="9" pointer-events="all"/><rect x="1011" y="870" width="111" height="60" fill="url(#mx-gradient-002882-1-00aaff-1-e-0)" stroke="#00aaff" stroke-width="9" pointer-events="all"/><rect x="1332" y="1050" width="81" height="60" fill="url(#mx-gradient-00aaff-1-00aaff-1-e-0)" stroke="#00aaff" stroke-width="9" pointer-events="all"/><rect x="1347" y="990" width="51" height="60" fill="url(#mx-gradient-00aaff-1-00aaff-1-e-0)" stroke="#00aaff" stroke-width="9" pointer-events="all"/><rect x="1356" y="930" width="36" height="60" fill="url(#mx-gradient-00aaff-1-00aaff-1-e-0)" stroke="#00aaff" stroke-width="9" pointer-events="all"/><rect x="1422" y="1050" width="276" height="60" fill="url(#mx-gradient-002882-1-00aaff-1-e-0)" stroke="#00aaff" stroke-width="9" pointer-events="all"/><rect x="1434" y="990" width="234" height="60" fill="url(#mx-gradient-002882-1-00aaff-1-e-0)" stroke="#00aaff" stroke-width="9" pointer-events="all"/><rect x="1464" y="930" width="174" height="60" fill="url(#mx-gradient-002882-1-00aaff-1-e-0)" stroke="#00aaff" stroke-width="9" pointer-events="all"/><rect x="1482" y="870" width="126" height="60" fill="url(#mx-gradient-002882-1-00aaff-1-e-0)" stroke="#00aaff" stroke-width="9" pointer-events="all"/></g></svg>