<?xml version="1.0" encoding="UTF-8"?>
<!DOCTYPE svg PUBLIC "-//W3C//DTD SVG 1.1//EN" "http://www.w3.org/Graphics/SVG/1.1/DTD/svg11.dtd">
<svg xmlns="http://www.w3.org/2000/svg" xmlns:xlink="http://www.w3.org/1999/xlink" version="1.1" width="1240px" height="742px" viewBox="-0.5 -0.5 1240 742"><defs><style type="text/css">@import url(https://fonts.googleapis.com/css?family=Roboto);&#xa;</style></defs><g><path d="M 617.23 280.62 C 613.03 280.89 608.83 281.94 605.15 283.78 L 440.43 362.32 C 431.76 366.53 425.46 374.41 423.35 383.6 L 382.64 560.41 C 380.8 568.55 382.37 577.22 386.84 584.31 C 387.63 585.1 388.15 585.89 388.68 586.94 L 502.69 728.54 C 508.73 735.89 517.93 740.36 527.39 740.36 L 710.23 740.36 C 719.69 740.36 728.88 735.89 734.93 728.54 L 848.94 586.68 C 854.72 579.32 857.08 569.6 854.98 560.41 L 814.26 383.6 C 812.16 374.41 805.86 366.53 797.19 362.32 L 632.47 283.78 C 627.74 281.41 622.49 280.36 617.23 280.62 Z" fill-opacity="0.5" fill="#ffffff" stroke="none" pointer-events="all"/><path d="M 617.33 294.41 C 613.38 294.65 609.43 295.64 605.98 297.37 L 451.14 371.21 C 442.99 375.16 437.07 382.57 435.09 391.21 L 396.81 557.4 C 395.08 565.06 396.57 573.21 400.76 579.87 C 401.51 580.62 402 581.36 402.49 582.34 L 509.67 715.45 C 515.35 722.36 523.99 726.56 532.88 726.56 L 704.75 726.56 C 713.64 726.56 722.29 722.36 727.97 715.45 L 835.14 582.1 C 840.57 575.18 842.8 566.05 840.82 557.4 L 802.54 391.21 C 800.57 382.57 794.64 375.16 786.49 371.21 L 631.66 297.37 C 627.21 295.15 622.27 294.16 617.33 294.41 Z" fill-opacity="0.5" fill="#00aaff" stroke="none" pointer-events="all"/><path d="M 758.29 428.18 L 758.29 576.38 L 628.56 648.36 L 627.79 467.05 Z M 479.59 428.18 L 479.59 576.38 L 609.32 648.36 L 610.09 467.05 Z M 479.59 412.78 L 618.94 372.36 L 758.29 412.78 L 618.94 453.2 Z" fill-opacity="0.5" fill="#ffffff" stroke="none" pointer-events="all"/><path d="M 617.63 335.59 C 614.43 335.79 611.24 336.58 608.44 337.98 L 483.13 397.74 C 476.53 400.94 471.74 406.93 470.14 413.93 L 439.16 548.43 C 437.76 554.63 438.96 561.22 442.36 566.62 C 442.96 567.22 443.36 567.82 443.76 568.62 L 530.49 676.34 C 535.09 681.94 542.09 685.33 549.28 685.33 L 688.38 685.33 C 695.58 685.33 702.57 681.94 707.17 676.34 L 793.9 568.42 C 798.3 562.82 800.1 555.43 798.5 548.43 L 767.52 413.93 C 765.92 406.93 761.13 400.94 754.53 397.74 L 629.22 337.98 C 625.63 336.18 621.63 335.39 617.63 335.59 Z" fill="#ffffff" stroke="none" pointer-events="all"/><path d="M 617.71 346.07 C 614.7 346.26 611.7 347.01 609.07 348.33 L 491.28 404.5 C 485.08 407.5 480.57 413.14 479.06 419.72 L 449.95 546.15 C 448.63 551.97 449.76 558.17 452.95 563.24 C 453.51 563.81 453.89 564.37 454.27 565.12 L 535.8 666.38 C 540.12 671.64 546.7 674.84 553.46 674.84 L 684.21 674.84 C 690.98 674.84 697.55 671.64 701.87 666.38 L 783.41 564.93 C 787.54 559.67 789.23 552.72 787.73 546.15 L 758.61 419.72 C 757.1 413.14 752.6 407.5 746.4 404.5 L 628.61 348.33 C 625.22 346.64 621.47 345.88 617.71 346.07 Z" fill="#002882" stroke="none" pointer-events="all"/><path d="M 727.63 446.25 L 727.63 561.86 L 626.44 618.01 L 625.84 476.58 Z M 510.23 446.25 L 510.23 561.86 L 611.42 618.01 L 612.02 476.58 Z M 510.23 434.24 L 618.93 402.71 L 727.63 434.24 L 618.93 465.77 Z" fill="#ffffff" stroke="none" pointer-events="all"/><path d="M 976.97 0.62 C 972.77 0.89 968.57 1.94 964.89 3.78 L 800.17 82.32 C 791.5 86.53 785.2 94.41 783.09 103.6 L 742.38 280.41 C 740.54 288.55 742.11 297.22 746.58 304.31 C 747.37 305.1 747.89 305.89 748.42 306.94 L 862.43 448.54 C 868.47 455.89 877.67 460.36 887.13 460.36 L 1069.97 460.36 C 1079.43 460.36 1088.62 455.89 1094.67 448.54 L 1208.68 306.68 C 1214.46 299.32 1216.82 289.6 1214.72 280.41 L 1174 103.6 C 1171.9 94.41 1165.6 86.53 1156.93 82.32 L 992.21 3.78 C 987.48 1.41 982.23 0.36 976.97 0.62 Z" fill-opacity="0.25" fill="#ffffff" stroke="none" pointer-events="all"/><path d="M 977.07 14.41 C 973.12 14.65 969.17 15.64 965.72 17.37 L 810.88 91.21 C 802.73 95.16 796.81 102.57 794.83 111.21 L 756.55 277.4 C 754.82 285.06 756.31 293.21 760.5 299.87 C 761.25 300.62 761.74 301.36 762.23 302.34 L 869.41 435.45 C 875.09 442.36 883.73 446.56 892.62 446.56 L 1064.49 446.56 C 1073.38 446.56 1082.03 442.36 1087.71 435.45 L 1194.88 302.1 C 1200.31 295.18 1202.54 286.05 1200.56 277.4 L 1162.28 111.21 C 1160.31 102.57 1154.38 95.16 1146.23 91.21 L 991.4 17.37 C 986.95 15.15 982.01 14.16 977.07 14.41 Z" fill-opacity="0.25" fill="#00aaff" stroke="none" pointer-events="all"/><path d="M 1118.03 148.18 L 1118.03 296.38 L 988.3 368.36 L 987.53 187.05 Z M 839.33 148.18 L 839.33 296.38 L 969.06 368.36 L 969.83 187.05 Z M 839.33 132.78 L 978.68 92.36 L 1118.03 132.78 L 978.68 173.2 Z" fill-opacity="0.25" fill="#ffffff" stroke="none" pointer-events="all"/><path d="M 979.14 58.06 C 975.99 58.25 972.83 59.04 970.08 60.42 L 846.54 119.33 C 840.04 122.49 835.31 128.4 833.73 135.29 L 803.19 267.89 C 801.81 274 802.99 280.5 806.34 285.82 C 806.93 286.42 807.33 287.01 807.72 287.79 L 893.23 393.99 C 897.77 399.51 904.66 402.86 911.75 402.86 L 1048.89 402.86 C 1055.98 402.86 1062.88 399.51 1067.41 393.99 L 1152.92 287.6 C 1157.25 282.08 1159.03 274.79 1157.45 267.89 L 1126.91 135.29 C 1125.34 128.4 1120.61 122.49 1114.11 119.33 L 990.57 60.42 C 987.02 58.65 983.08 57.86 979.14 58.06 Z" fill-opacity="0.5" fill="#ffffff" stroke="none" pointer-events="all"/><path d="M 979.22 68.4 C 976.25 68.58 973.29 69.32 970.7 70.62 L 854.57 126 C 848.46 128.96 844.01 134.51 842.53 141 L 813.82 265.64 C 812.53 271.38 813.64 277.5 816.79 282.5 C 817.34 283.05 817.71 283.61 818.08 284.35 L 898.47 384.18 C 902.73 389.36 909.21 392.51 915.87 392.51 L 1044.78 392.51 C 1051.45 392.51 1057.93 389.36 1062.19 384.18 L 1142.57 284.16 C 1146.64 278.98 1148.31 272.12 1146.83 265.64 L 1118.12 141 C 1116.64 134.51 1112.2 128.96 1106.08 126 L 989.96 70.62 C 986.62 68.95 982.92 68.21 979.22 68.4 Z" fill-opacity="0.5" fill="#2875e2" stroke="none" pointer-events="all"/><path d="M 1084.93 168.72 L 1084.93 279.87 L 987.64 333.86 L 987.06 197.88 Z M 875.91 168.72 L 875.91 279.87 L 973.2 333.86 L 973.78 197.88 Z M 875.91 157.17 L 980.42 126.86 L 1084.93 157.17 L 980.42 187.49 Z" fill-opacity="0.5" fill="#ffffff" stroke="none" pointer-events="all"/><path d="M 258.97 0.62 C 254.77 0.89 250.57 1.94 246.89 3.78 L 82.17 82.32 C 73.5 86.53 67.2 94.41 65.09 103.6 L 24.38 280.41 C 22.54 288.55 24.11 297.22 28.58 304.31 C 29.37 305.1 29.89 305.89 30.42 306.94 L 144.43 448.54 C 150.47 455.89 159.67 460.36 169.13 460.36 L 351.97 460.36 C 361.43 460.36 370.62 455.89 376.67 448.54 L 490.68 306.68 C 496.46 299.32 498.82 289.6 496.72 280.41 L 456 103.6 C 453.9 94.41 447.6 86.53 438.93 82.32 L 274.21 3.78 C 269.48 1.41 264.23 0.36 258.97 0.62 Z" fill-opacity="0.25" fill="#ffffff" stroke="none" pointer-events="all"/><path d="M 259.07 14.41 C 255.12 14.65 251.17 15.64 247.72 17.37 L 92.88 91.21 C 84.73 95.16 78.81 102.57 76.83 111.21 L 38.55 277.4 C 36.82 285.06 38.31 293.21 42.5 299.87 C 43.25 300.62 43.74 301.36 44.23 302.34 L 151.41 435.45 C 157.09 442.36 165.73 446.56 174.62 446.56 L 346.49 446.56 C 355.38 446.56 364.03 442.36 369.71 435.45 L 476.88 302.1 C 482.31 295.18 484.54 286.05 482.56 277.4 L 444.28 111.21 C 442.31 102.57 436.38 95.16 428.23 91.21 L 273.4 17.37 C 268.95 15.15 264.01 14.16 259.07 14.41 Z" fill-opacity="0.25" fill="#00aaff" stroke="none" pointer-events="all"/><path d="M 400.03 148.18 L 400.03 296.38 L 270.3 368.36 L 269.53 187.05 Z M 121.33 148.18 L 121.33 296.38 L 251.06 368.36 L 251.83 187.05 Z M 121.33 132.78 L 260.68 92.36 L 400.03 132.78 L 260.68 173.2 Z" fill-opacity="0.25" fill="#ffffff" stroke="none" pointer-events="all"/><path d="M 260.42 96.44 C 257.97 96.59 255.52 97.21 253.38 98.28 L 157.36 144.07 C 152.31 146.52 148.63 151.11 147.41 156.47 L 123.67 259.53 C 122.6 264.28 123.52 269.33 126.12 273.47 C 126.58 273.93 126.89 274.39 127.19 275 L 193.66 357.54 C 197.18 361.83 202.54 364.43 208.05 364.43 L 314.64 364.43 C 320.15 364.43 325.51 361.83 329.03 357.54 L 395.49 274.85 C 398.86 270.56 400.24 264.89 399.01 259.53 L 375.28 156.47 C 374.05 151.11 370.38 146.52 365.32 144.07 L 269.31 98.28 C 266.55 96.9 263.49 96.29 260.42 96.44 Z" fill-opacity="0.5" fill="#ffffff" stroke="none" pointer-events="all"/><path d="M 260.48 104.48 C 258.18 104.62 255.88 105.2 253.86 106.2 L 163.61 149.24 C 158.86 151.55 155.4 155.87 154.25 160.9 L 131.94 257.78 C 130.93 262.24 131.79 267 134.24 270.88 C 134.67 271.31 134.96 271.75 135.25 272.32 L 197.72 349.91 C 201.03 353.94 206.07 356.39 211.25 356.39 L 311.44 356.39 C 316.62 356.39 321.66 353.94 324.97 349.91 L 387.45 272.18 C 390.62 268.15 391.91 262.82 390.76 257.78 L 368.45 160.9 C 367.3 155.87 363.84 151.55 359.09 149.24 L 268.83 106.2 C 266.24 104.91 263.36 104.33 260.48 104.48 Z" fill-opacity="0.5" fill="#2875e2" stroke="none" pointer-events="all"/><path d="M 344.71 181.24 L 344.71 269.82 L 267.17 312.85 L 266.71 204.48 Z M 178.13 181.24 L 178.13 269.82 L 255.67 312.85 L 256.13 204.48 Z M 178.13 172.03 L 261.42 147.87 L 344.71 172.03 L 261.42 196.19 Z" fill-opacity="0.5" fill="#ffffff" stroke="none" pointer-events="all"/><path d="M 617.9 0.52 C 615.34 0.68 612.78 1.32 610.54 2.44 L 510.28 50.25 C 505 52.81 501.17 57.6 499.89 63.2 L 475.1 170.82 C 473.98 175.77 474.94 181.05 477.66 185.37 C 478.14 185.85 478.46 186.33 478.78 186.97 L 548.18 273.15 C 551.86 277.63 557.45 280.35 563.21 280.35 L 674.5 280.35 C 680.26 280.35 685.85 277.63 689.53 273.15 L 758.93 186.81 C 762.45 182.33 763.89 176.41 762.61 170.82 L 737.82 63.2 C 736.54 57.6 732.7 52.81 727.43 50.25 L 627.17 2.44 C 624.29 1 621.09 0.36 617.9 0.52 Z" fill="#ffffff" stroke="none" pointer-events="all"/><path d="M 617.96 8.91 C 615.55 9.06 613.15 9.66 611.04 10.71 L 516.8 55.66 C 511.84 58.06 508.23 62.57 507.03 67.83 L 483.73 168.99 C 482.68 173.65 483.58 178.61 486.14 182.67 C 486.59 183.12 486.89 183.57 487.19 184.17 L 552.42 265.19 C 555.88 269.39 561.14 271.95 566.55 271.95 L 671.17 271.95 C 676.58 271.95 681.84 269.39 685.3 265.19 L 750.53 184.02 C 753.84 179.81 755.19 174.25 753.99 168.99 L 730.69 67.83 C 729.49 62.57 725.88 58.06 720.92 55.66 L 626.68 10.71 C 623.97 9.36 620.96 8.76 617.96 8.91 Z" fill="#ff6666" stroke="none" pointer-events="all"/><path d="M 703.75 90.33 L 703.75 180.54 L 624.79 224.35 L 624.32 114 Z M 534.12 90.33 L 534.12 180.54 L 613.08 224.35 L 613.55 114 Z M 534.12 80.96 L 618.93 56.36 L 703.75 80.96 L 618.93 105.56 Z" fill="#ffffff" stroke="none" pointer-events="all"/><path d="M 618.04 20.86 C 615.86 20.99 613.67 21.54 611.76 22.5 L 526.07 63.36 C 521.56 65.54 518.28 69.64 517.19 74.42 L 496.01 166.39 C 495.05 170.63 495.87 175.14 498.2 178.83 C 498.61 179.24 498.88 179.65 499.15 180.19 L 558.46 253.85 C 561.6 257.68 566.39 260 571.31 260 L 666.42 260 C 671.34 260 676.12 257.68 679.26 253.85 L 738.57 180.06 C 741.58 176.23 742.81 171.18 741.71 166.39 L 720.53 74.42 C 719.44 69.64 716.16 65.54 711.65 63.36 L 625.97 22.5 C 623.51 21.27 620.77 20.72 618.04 20.86 Z" fill="#ffffff" stroke="none" pointer-events="all"/><path d="M 618.1 28.03 C 616.04 28.16 613.98 28.67 612.19 29.57 L 531.65 67.98 C 527.41 70.03 524.32 73.88 523.3 78.38 L 503.39 164.83 C 502.49 168.81 503.26 173.05 505.44 176.52 C 505.83 176.91 506.08 177.29 506.34 177.8 L 562.09 247.04 C 565.04 250.64 569.54 252.82 574.16 252.82 L 663.57 252.82 C 668.19 252.82 672.69 250.64 675.64 247.04 L 731.39 177.68 C 734.22 174.08 735.37 169.33 734.35 164.83 L 714.44 78.38 C 713.41 73.88 710.33 70.03 706.09 67.98 L 625.55 29.57 C 623.23 28.41 620.66 27.9 618.1 28.03 Z" fill="#002882" stroke="none" pointer-events="all"/><path d="M 691.41 97.61 L 691.41 174.7 L 623.94 212.14 L 623.54 117.83 Z M 546.45 97.61 L 546.45 174.7 L 613.92 212.14 L 614.32 117.83 Z M 546.45 89.6 L 618.93 68.58 L 691.41 89.6 L 618.93 110.63 Z" fill="#ffffff" stroke="none" pointer-events="all"/><path d="M 259.64 460.52 C 257.08 460.68 254.52 461.32 252.28 462.44 L 152.02 510.25 C 146.74 512.81 142.91 517.6 141.63 523.2 L 116.84 630.82 C 115.72 635.77 116.68 641.05 119.4 645.37 C 119.88 645.85 120.2 646.33 120.52 646.97 L 189.92 733.15 C 193.6 737.63 199.19 740.35 204.95 740.35 L 316.24 740.35 C 322 740.35 327.59 737.63 331.27 733.15 L 400.67 646.81 C 404.19 642.33 405.63 636.41 404.35 630.82 L 379.56 523.2 C 378.28 517.6 374.44 512.81 369.17 510.25 L 268.91 462.44 C 266.03 461 262.83 460.36 259.64 460.52 Z" fill-opacity="0.25" fill="#ffffff" stroke="none" pointer-events="all"/><path d="M 259.7 468.91 C 257.29 469.06 254.89 469.66 252.78 470.71 L 158.54 515.66 C 153.58 518.06 149.97 522.57 148.77 527.83 L 125.47 628.99 C 124.42 633.65 125.32 638.61 127.88 642.67 C 128.33 643.12 128.63 643.57 128.93 644.17 L 194.16 725.19 C 197.62 729.39 202.88 731.95 208.29 731.95 L 312.91 731.95 C 318.32 731.95 323.58 729.39 327.04 725.19 L 392.27 644.02 C 395.58 639.81 396.93 634.25 395.73 628.99 L 372.43 527.83 C 371.23 522.57 367.62 518.06 362.66 515.66 L 268.42 470.71 C 265.71 469.36 262.7 468.76 259.7 468.91 Z" fill-opacity="0.25" fill="#00aaff" stroke="none" pointer-events="all"/><path d="M 345.49 550.33 L 345.49 640.54 L 266.53 684.35 L 266.06 574 Z M 175.86 550.33 L 175.86 640.54 L 254.82 684.35 L 255.29 574 Z M 175.86 540.96 L 260.67 516.36 L 345.49 540.96 L 260.67 565.56 Z" fill-opacity="0.25" fill="#ffffff" stroke="none" pointer-events="all"/><path d="M 260.07 518.28 C 258.57 518.37 257.06 518.75 255.75 519.41 L 196.9 547.47 C 193.8 548.97 191.55 551.79 190.8 555.07 L 176.25 618.24 C 175.6 621.15 176.16 624.24 177.76 626.78 C 178.04 627.06 178.22 627.34 178.41 627.72 L 219.15 678.3 C 221.3 680.93 224.59 682.53 227.97 682.53 L 293.29 682.53 C 296.67 682.53 299.96 680.93 302.11 678.3 L 342.85 627.62 C 344.91 624.99 345.76 621.52 345.01 618.24 L 330.46 555.07 C 329.71 551.79 327.46 548.97 324.36 547.47 L 265.51 519.41 C 263.82 518.56 261.94 518.19 260.07 518.28 Z" fill-opacity="0.5" fill="#ffffff" stroke="none" pointer-events="all"/><path d="M 260.1 523.2 C 258.69 523.29 257.28 523.65 256.05 524.26 L 200.73 550.64 C 197.82 552.05 195.7 554.7 194.99 557.79 L 181.32 617.16 C 180.7 619.9 181.23 622.81 182.73 625.19 C 183 625.46 183.17 625.72 183.35 626.07 L 221.64 673.63 C 223.67 676.1 226.75 677.6 229.93 677.6 L 291.33 677.6 C 294.51 677.6 297.6 676.1 299.63 673.63 L 337.92 625.99 C 339.86 623.52 340.65 620.25 339.95 617.16 L 326.27 557.79 C 325.57 554.7 323.45 552.05 320.54 550.64 L 265.22 524.26 C 263.63 523.47 261.87 523.12 260.1 523.2 Z" fill-opacity="0.5" fill="#2875e2" stroke="none" pointer-events="all"/><path d="M 310.46 571 L 310.46 623.94 L 264.12 649.66 L 263.84 584.89 Z M 210.89 571 L 210.89 623.94 L 257.24 649.66 L 257.51 584.89 Z M 210.89 565.49 L 260.68 551.05 L 310.46 565.49 L 260.68 579.93 Z" fill-opacity="0.5" fill="#ffffff" stroke="none" pointer-events="all"/><path d="M 977.64 460.52 C 975.08 460.68 972.52 461.32 970.28 462.44 L 870.02 510.25 C 864.75 512.81 860.91 517.61 859.63 523.2 L 834.84 630.82 C 833.72 635.78 834.68 641.06 837.4 645.37 C 837.88 645.85 838.2 646.33 838.52 646.97 L 907.92 733.16 C 911.6 737.64 917.2 740.36 922.95 740.36 L 1034.25 740.36 C 1040 740.36 1045.6 737.64 1049.28 733.16 L 1118.68 646.81 C 1122.2 642.34 1123.64 636.42 1122.36 630.82 L 1097.57 523.2 C 1096.29 517.61 1092.45 512.81 1087.18 510.25 L 986.92 462.44 C 984.04 461 980.84 460.36 977.64 460.52 Z" fill-opacity="0.25" fill="#ffffff" stroke="none" pointer-events="all"/><path d="M 977.7 468.91 C 975.3 469.06 972.89 469.66 970.79 470.71 L 876.54 515.66 C 871.58 518.06 867.97 522.57 866.77 527.83 L 843.47 628.99 C 842.42 633.65 843.32 638.61 845.88 642.67 C 846.33 643.12 846.63 643.58 846.93 644.18 L 912.17 725.2 C 915.62 729.4 920.88 731.96 926.3 731.96 L 1030.91 731.96 C 1036.33 731.96 1041.59 729.4 1045.04 725.2 L 1110.28 644.03 C 1113.59 639.82 1114.94 634.26 1113.74 628.99 L 1090.44 527.83 C 1089.24 522.57 1085.63 518.06 1080.67 515.66 L 986.42 470.71 C 983.72 469.36 980.71 468.76 977.7 468.91 Z" fill-opacity="0.25" fill="#00aaff" stroke="none" pointer-events="all"/><path d="M 1063.5 550.33 L 1063.5 640.54 L 984.54 684.36 L 984.07 574 Z M 893.86 550.33 L 893.86 640.54 L 972.82 684.36 L 973.29 574 Z M 893.86 540.96 L 978.68 516.36 L 1063.5 540.96 L 978.68 565.57 Z" fill-opacity="0.25" fill="#ffffff" stroke="none" pointer-events="all"/><path d="M 978.33 553.38 C 977.47 553.44 976.61 553.65 975.86 554.03 L 942.18 570.09 C 940.41 570.95 939.12 572.56 938.69 574.44 L 930.36 610.59 C 929.98 612.26 930.31 614.03 931.22 615.48 C 931.38 615.64 931.49 615.8 931.6 616.02 L 954.91 644.97 C 956.15 646.48 958.03 647.39 959.96 647.39 L 997.35 647.39 C 999.28 647.39 1001.16 646.48 1002.4 644.97 L 1025.71 615.97 C 1026.89 614.46 1027.38 612.47 1026.95 610.59 L 1018.62 574.44 C 1018.19 572.56 1016.9 570.95 1015.13 570.09 L 981.45 554.03 C 980.48 553.54 979.41 553.33 978.33 553.38 Z" fill-opacity="0.5" fill="#ffffff" stroke="none" pointer-events="all"/><path d="M 978.35 556.2 C 977.54 556.25 976.74 556.45 976.03 556.81 L 944.37 571.91 C 942.7 572.71 941.49 574.23 941.09 576 L 933.26 609.98 C 932.91 611.54 933.21 613.21 934.07 614.57 C 934.22 614.73 934.32 614.88 934.42 615.08 L 956.34 642.3 C 957.5 643.71 959.26 644.57 961.08 644.57 L 996.23 644.57 C 998.04 644.57 999.81 643.71 1000.97 642.3 L 1022.89 615.03 C 1024 613.61 1024.45 611.75 1024.05 609.98 L 1016.22 576 C 1015.82 574.23 1014.61 572.71 1012.94 571.91 L 981.28 556.81 C 980.37 556.35 979.36 556.15 978.35 556.2 Z" fill-opacity="0.5" fill="#2875e2" stroke="none" pointer-events="all"/><path d="M 1007.9 583.13 L 1007.9 614.2 L 980.7 629.29 L 980.54 591.28 Z M 949.46 583.13 L 949.46 614.2 L 976.66 629.29 L 976.82 591.28 Z M 949.46 579.9 L 978.68 571.43 L 1007.9 579.9 L 978.68 588.37 Z" fill-opacity="0.5" fill="#ffffff" stroke="none" pointer-events="all"/><path d="M 1145.25 420.43 C 1144.2 420.49 1143.15 420.75 1142.23 421.21 L 1101.05 440.85 C 1098.89 441.9 1097.31 443.87 1096.78 446.17 L 1086.6 490.37 C 1086.14 492.41 1086.54 494.57 1087.65 496.35 C 1087.85 496.55 1087.98 496.74 1088.11 497 L 1116.62 532.4 C 1118.13 534.24 1120.43 535.36 1122.79 535.36 L 1168.5 535.36 C 1170.87 535.36 1173.17 534.24 1174.68 532.4 L 1203.18 496.94 C 1204.62 495.1 1205.22 492.67 1204.69 490.37 L 1194.51 446.17 C 1193.99 443.87 1192.41 441.9 1190.24 440.85 L 1149.06 421.21 C 1147.88 420.62 1146.57 420.36 1145.25 420.43 Z" fill-opacity="0.25" fill="#ffffff" stroke="none" pointer-events="all"/><path d="M 1145.28 423.87 C 1144.29 423.93 1143.3 424.18 1142.44 424.61 L 1103.73 443.07 C 1101.69 444.06 1100.21 445.91 1099.72 448.07 L 1090.15 489.62 C 1089.72 491.53 1090.09 493.57 1091.14 495.24 C 1091.32 495.42 1091.44 495.61 1091.57 495.86 L 1118.36 529.13 C 1119.78 530.86 1121.94 531.91 1124.16 531.91 L 1167.13 531.91 C 1169.36 531.91 1171.52 530.86 1172.94 529.13 L 1199.73 495.79 C 1201.09 494.07 1201.64 491.78 1201.15 489.62 L 1191.58 448.07 C 1191.09 445.91 1189.61 444.06 1187.57 443.07 L 1148.86 424.61 C 1147.75 424.06 1146.51 423.81 1145.28 423.87 Z" fill-opacity="0.25" fill="#00aaff" stroke="none" pointer-events="all"/><path d="M 1180.52 457.31 L 1180.52 494.36 L 1148.09 512.36 L 1147.89 467.03 Z M 1110.84 457.31 L 1110.84 494.36 L 1143.27 512.36 L 1143.47 467.03 Z M 1110.84 453.46 L 1145.68 443.36 L 1180.52 453.46 L 1145.68 463.57 Z" fill-opacity="0.25" fill="#ffffff" stroke="none" pointer-events="all"/><path d="M 1145.54 458.57 C 1145.18 458.59 1144.83 458.68 1144.52 458.83 L 1130.69 465.43 C 1129.96 465.78 1129.43 466.44 1129.25 467.21 L 1125.83 482.06 C 1125.68 482.75 1125.81 483.48 1126.19 484.07 C 1126.25 484.14 1126.3 484.2 1126.34 484.29 L 1135.92 496.18 C 1136.42 496.8 1137.2 497.18 1137.99 497.18 L 1153.35 497.18 C 1154.14 497.18 1154.91 496.8 1155.42 496.18 L 1165 484.27 C 1165.48 483.65 1165.68 482.84 1165.5 482.06 L 1162.08 467.21 C 1161.91 466.44 1161.38 465.78 1160.65 465.43 L 1146.82 458.83 C 1146.42 458.63 1145.98 458.54 1145.54 458.57 Z" fill-opacity="0.5" fill="#ffffff" stroke="none" pointer-events="all"/><path d="M 1145.55 459.72 C 1145.21 459.74 1144.88 459.83 1144.59 459.97 L 1131.59 466.17 C 1130.9 466.51 1130.41 467.13 1130.24 467.85 L 1127.03 481.81 C 1126.88 482.45 1127 483.14 1127.36 483.7 C 1127.42 483.76 1127.46 483.82 1127.5 483.91 L 1136.5 495.08 C 1136.98 495.66 1137.71 496.02 1138.45 496.02 L 1152.89 496.02 C 1153.63 496.02 1154.36 495.66 1154.84 495.08 L 1163.84 483.88 C 1164.29 483.3 1164.48 482.54 1164.31 481.81 L 1161.1 467.85 C 1160.93 467.13 1160.44 466.51 1159.75 466.17 L 1146.75 459.97 C 1146.37 459.79 1145.96 459.7 1145.55 459.72 Z" fill-opacity="0.5" fill="#2875e2" stroke="none" pointer-events="all"/><path d="M 1157.68 470.78 L 1157.68 483.55 L 1146.51 489.74 L 1146.44 474.13 Z M 1133.68 470.78 L 1133.68 483.55 L 1144.85 489.74 L 1144.92 474.13 Z M 1133.68 469.46 L 1145.68 465.98 L 1157.68 469.46 L 1145.68 472.94 Z" fill-opacity="0.5" fill="#ffffff" stroke="none" pointer-events="all"/></g></svg>