<?xml version="1.0" encoding="UTF-8"?>
<!DOCTYPE svg PUBLIC "-//W3C//DTD SVG 1.1//EN" "http://www.w3.org/Graphics/SVG/1.1/DTD/svg11.dtd">
<svg xmlns="http://www.w3.org/2000/svg" xmlns:xlink="http://www.w3.org/1999/xlink" version="1.1" width="951px" height="462px" viewBox="-0.5 -0.5 951 462"><defs><style type="text/css">@import url(https://fonts.googleapis.com/css?family=Roboto);&#xa;</style></defs><g><path d="M 686.63 0.26 C 682.43 0.53 678.23 1.58 674.55 3.42 L 509.83 81.96 C 501.16 86.17 494.86 94.05 492.75 103.24 L 452.04 280.05 C 450.2 288.19 451.77 296.86 456.24 303.95 C 457.03 304.74 457.55 305.53 458.08 306.58 L 572.09 448.18 C 578.13 455.53 587.33 460 596.79 460 L 779.63 460 C 789.09 460 798.28 455.53 804.33 448.18 L 918.34 306.32 C 924.12 298.96 926.48 289.24 924.38 280.05 L 883.66 103.24 C 881.56 94.05 875.26 86.17 866.59 81.96 L 701.87 3.42 C 697.14 1.05 691.89 0 686.63 0.26 Z" fill-opacity="0.5" fill="#ffffff" stroke="none" pointer-events="all"/><path d="M 686.73 14.05 C 682.78 14.29 678.83 15.28 675.38 17.01 L 520.54 90.85 C 512.39 94.8 506.47 102.21 504.49 110.85 L 466.21 277.04 C 464.48 284.7 465.97 292.85 470.16 299.51 C 470.91 300.26 471.4 301 471.89 301.98 L 579.07 435.09 C 584.75 442 593.39 446.2 602.28 446.2 L 774.15 446.2 C 783.04 446.2 791.69 442 797.37 435.09 L 904.54 301.74 C 909.97 294.82 912.2 285.69 910.22 277.04 L 871.94 110.85 C 869.97 102.21 864.04 94.8 855.89 90.85 L 701.06 17.01 C 696.61 14.79 691.67 13.8 686.73 14.05 Z" fill-opacity="0.5" fill="#00aaff" stroke="none" pointer-events="all"/><path d="M 827.69 147.82 L 827.69 296.02 L 697.96 368 L 697.19 186.69 Z M 548.99 147.82 L 548.99 296.02 L 678.72 368 L 679.49 186.69 Z M 548.99 132.42 L 688.34 92 L 827.69 132.42 L 688.34 172.84 Z" fill-opacity="0.5" fill="#ffffff" stroke="none" pointer-events="all"/><path d="M 687.34 95.15 C 684.87 95.31 682.4 95.93 680.24 97 L 583.56 143.11 C 578.47 145.58 574.77 150.2 573.54 155.6 L 549.64 259.37 C 548.56 264.15 549.49 269.24 552.11 273.41 C 552.57 273.87 552.88 274.33 553.19 274.95 L 620.11 358.06 C 623.65 362.38 629.05 365 634.6 365 L 741.92 365 C 747.47 365 752.87 362.38 756.42 358.06 L 823.34 274.79 C 826.73 270.48 828.12 264.77 826.89 259.37 L 802.99 155.6 C 801.75 150.2 798.05 145.58 792.96 143.11 L 696.28 97 C 693.51 95.62 690.42 95 687.34 95.15 Z" fill="#ffffff" stroke="none" pointer-events="all"/><path d="M 687.4 103.24 C 685.08 103.39 682.76 103.97 680.73 104.98 L 589.85 148.32 C 585.07 150.64 581.59 154.99 580.43 160.06 L 557.96 257.61 C 556.95 262.11 557.82 266.89 560.28 270.8 C 560.72 271.24 561.01 271.67 561.3 272.25 L 624.2 350.38 C 627.54 354.44 632.61 356.9 637.83 356.9 L 738.71 356.9 C 743.93 356.9 749 354.44 752.33 350.38 L 815.24 272.11 C 818.43 268.05 819.73 262.69 818.57 257.61 L 796.11 160.06 C 794.95 154.99 791.47 150.64 786.69 148.32 L 695.8 104.98 C 693.2 103.68 690.3 103.1 687.4 103.24 Z" fill="#2875e2" stroke="none" pointer-events="all"/><path d="M 770.13 181.76 L 770.13 268.75 L 693.99 311 L 693.54 204.58 Z M 606.55 181.76 L 606.55 268.75 L 682.69 311 L 683.14 204.58 Z M 606.55 172.72 L 688.34 149 L 770.13 172.72 L 688.34 196.45 Z" fill="#ffffff" stroke="none" pointer-events="all"/><path d="M 202.14 60.21 C 198.85 60.41 195.56 61.23 192.68 62.67 L 63.77 124.15 C 56.99 127.44 52.06 133.6 50.41 140.8 L 18.54 279.17 C 17.1 285.54 18.34 292.32 21.83 297.87 C 22.45 298.49 22.86 299.11 23.27 299.93 L 112.5 410.75 C 117.23 416.5 124.43 420 131.83 420 L 274.92 420 C 282.32 420 289.52 416.5 294.25 410.75 L 383.48 299.72 C 388 293.97 389.85 286.36 388.21 279.17 L 356.34 140.8 C 354.69 133.6 349.76 127.44 342.97 124.15 L 214.07 62.67 C 210.36 60.82 206.25 60 202.14 60.21 Z" fill-opacity="0.5" fill="#ffffff" stroke="none" pointer-events="all"/><path d="M 202.22 70.99 C 199.13 71.19 196.04 71.96 193.33 73.31 L 72.16 131.1 C 65.78 134.19 61.14 139.99 59.6 146.75 L 29.64 276.82 C 28.29 282.81 29.45 289.18 32.73 294.4 C 33.31 294.98 33.7 295.56 34.08 296.33 L 117.96 400.5 C 122.4 405.91 129.17 409.2 136.13 409.2 L 270.64 409.2 C 277.59 409.2 284.36 405.91 288.8 400.5 L 372.68 296.14 C 376.93 290.73 378.67 283.58 377.12 276.82 L 347.17 146.75 C 345.62 139.99 340.98 134.19 334.6 131.1 L 213.43 73.31 C 209.95 71.57 206.09 70.8 202.22 70.99 Z" fill-opacity="0.5" fill="#00aaff" stroke="none" pointer-events="all"/><path d="M 312.53 175.68 L 312.53 291.66 L 211.01 348 L 210.41 206.11 Z M 94.42 175.68 L 94.42 291.66 L 195.95 348 L 196.55 206.11 Z M 94.42 163.63 L 203.48 132 L 312.53 163.63 L 203.48 195.26 Z" fill-opacity="0.5" fill="#ffffff" stroke="none" pointer-events="all"/><path d="M 202.69 134.47 C 200.76 134.59 198.83 135.07 197.14 135.92 L 121.48 172 C 117.5 173.93 114.6 177.55 113.64 181.77 L 94.93 262.99 C 94.09 266.73 94.81 270.71 96.86 273.97 C 97.22 274.33 97.46 274.69 97.71 275.18 L 150.08 340.22 C 152.85 343.6 157.08 345.65 161.42 345.65 L 245.41 345.65 C 249.76 345.65 253.98 343.6 256.76 340.22 L 309.13 275.06 C 311.78 271.68 312.87 267.21 311.91 262.99 L 293.2 181.77 C 292.24 177.55 289.34 173.93 285.36 172 L 209.69 135.92 C 207.52 134.83 205.11 134.35 202.69 134.47 Z" fill="#ffffff" stroke="none" pointer-events="all"/><path d="M 202.74 140.8 C 200.93 140.91 199.11 141.37 197.52 142.16 L 126.4 176.08 C 122.66 177.89 119.93 181.3 119.03 185.27 L 101.44 261.61 C 100.65 265.13 101.33 268.87 103.26 271.93 C 103.6 272.27 103.83 272.61 104.05 273.07 L 153.28 334.21 C 155.89 337.38 159.86 339.31 163.95 339.31 L 242.9 339.31 C 246.98 339.31 250.95 337.38 253.56 334.21 L 302.79 272.95 C 305.29 269.78 306.31 265.58 305.4 261.61 L 287.82 185.27 C 286.91 181.3 284.19 177.89 280.44 176.08 L 209.32 142.16 C 207.28 141.14 205.01 140.69 202.74 140.8 Z" fill="#2875e2" stroke="none" pointer-events="all"/><path d="M 267.49 202.25 L 267.49 270.32 L 207.9 303.39 L 207.55 220.11 Z M 139.47 202.25 L 139.47 270.32 L 199.06 303.39 L 199.41 220.11 Z M 139.47 195.17 L 203.48 176.61 L 267.49 195.17 L 203.48 213.74 Z" fill="#ffffff" stroke="none" pointer-events="all"/></g></svg>