<?xml version="1.0" encoding="UTF-8"?>
<!DOCTYPE svg PUBLIC "-//W3C//DTD SVG 1.1//EN" "http://www.w3.org/Graphics/SVG/1.1/DTD/svg11.dtd">
<svg xmlns="http://www.w3.org/2000/svg" xmlns:xlink="http://www.w3.org/1999/xlink" version="1.1" width="1240px" height="755px" viewBox="-0.5 -0.5 1240 755"><defs><style type="text/css">@import url(https://fonts.googleapis.com/css?family=Roboto);&#xa;</style></defs><g><path d="M 616.73 252.25 C 613.07 252.48 609.42 253.39 606.22 254.99 L 463 323.29 C 455.46 326.94 449.98 333.8 448.15 341.79 L 412.74 495.52 C 411.14 502.6 412.51 510.14 416.4 516.31 C 417.08 516.99 417.54 517.68 418 518.59 L 517.13 641.71 C 522.39 648.11 530.38 651.99 538.61 651.99 L 697.59 651.99 C 705.81 651.99 713.81 648.11 719.06 641.71 L 818.2 518.36 C 823.22 511.97 825.28 503.52 823.45 495.52 L 788.05 341.79 C 786.22 333.8 780.74 326.94 773.2 323.29 L 629.98 254.99 C 625.86 252.93 621.3 252.02 616.73 252.25 Z" fill-opacity="0.5" fill="#ffffff" stroke="none" pointer-events="all"/><path d="M 616.82 264.23 C 613.38 264.45 609.95 265.31 606.94 266.81 L 472.31 331.01 C 465.22 334.45 460.07 340.89 458.35 348.4 L 425.07 492.91 C 423.57 499.57 424.86 506.65 428.51 512.45 C 429.15 513.09 429.58 513.74 430.01 514.6 L 523.2 630.33 C 528.14 636.34 535.65 639.99 543.38 639.99 L 692.83 639.99 C 700.56 639.99 708.07 636.34 713.01 630.33 L 806.2 514.38 C 810.92 508.37 812.86 500.43 811.14 492.91 L 777.86 348.4 C 776.14 340.89 770.99 334.45 763.9 331.01 L 629.27 266.81 C 625.41 264.88 621.11 264.02 616.82 264.23 Z" fill-opacity="0.5" fill="#00aaff" stroke="none" pointer-events="all"/><path d="M 739.38 380.55 L 739.38 509.41 L 626.58 572 L 625.91 414.35 Z M 497.05 380.55 L 497.05 509.41 L 609.84 572 L 610.51 414.35 Z M 497.05 367.16 L 618.21 332.01 L 739.38 367.16 L 618.21 402.3 Z" fill-opacity="0.5" fill="#ffffff" stroke="none" pointer-events="all"/><path d="M 975.51 -0.5 C 971.31 -0.23 967.11 0.82 963.43 2.66 L 798.71 81.2 C 790.04 85.41 783.74 93.29 781.63 102.48 L 740.92 279.29 C 739.08 287.43 740.65 296.1 745.12 303.19 C 745.91 303.98 746.43 304.77 746.96 305.82 L 860.97 447.42 C 867.01 454.77 876.21 459.24 885.67 459.24 L 1068.51 459.24 C 1077.97 459.24 1087.16 454.77 1093.21 447.42 L 1207.22 305.56 C 1213 298.2 1215.36 288.48 1213.26 279.29 L 1172.54 102.48 C 1170.44 93.29 1164.14 85.41 1155.47 81.2 L 990.75 2.66 C 986.02 0.29 980.77 -0.76 975.51 -0.5 Z" fill-opacity="0.5" fill="#ffffff" stroke="none" pointer-events="all"/><path d="M 975.61 13.29 C 971.66 13.53 967.71 14.52 964.26 16.25 L 809.42 90.09 C 801.27 94.04 795.35 101.45 793.37 110.09 L 755.09 276.28 C 753.36 283.94 754.85 292.09 759.04 298.75 C 759.79 299.5 760.28 300.24 760.77 301.22 L 867.95 434.33 C 873.63 441.24 882.27 445.44 891.16 445.44 L 1063.03 445.44 C 1071.92 445.44 1080.57 441.24 1086.25 434.33 L 1193.42 300.98 C 1198.85 294.06 1201.08 284.93 1199.1 276.28 L 1160.82 110.09 C 1158.85 101.45 1152.92 94.04 1144.77 90.09 L 989.94 16.25 C 985.49 14.03 980.55 13.04 975.61 13.29 Z" fill-opacity="0.5" fill="#00aaff" stroke="none" pointer-events="all"/><path d="M 1116.57 147.06 L 1116.57 295.26 L 986.84 367.24 L 986.07 185.93 Z M 837.87 147.06 L 837.87 295.26 L 967.6 367.24 L 968.37 185.93 Z M 837.87 131.66 L 977.22 91.24 L 1116.57 131.66 L 977.22 172.08 Z" fill-opacity="0.5" fill="#ffffff" stroke="none" pointer-events="all"/><path d="M 975.96 60.4 C 972.88 60.59 969.79 61.36 967.08 62.72 L 846.01 120.45 C 839.64 123.54 835.01 129.33 833.46 136.09 L 803.53 266.04 C 802.18 272.03 803.34 278.4 806.62 283.62 C 807.2 284.2 807.59 284.77 807.97 285.55 L 891.78 389.62 C 896.22 395.03 902.98 398.31 909.93 398.31 L 1044.32 398.31 C 1051.27 398.31 1058.03 395.03 1062.47 389.62 L 1146.27 285.35 C 1150.52 279.95 1152.26 272.8 1150.72 266.04 L 1120.79 136.09 C 1119.24 129.33 1114.61 123.54 1108.23 120.45 L 987.16 62.72 C 983.69 60.98 979.83 60.21 975.96 60.4 Z" fill="#ffffff" stroke="none" pointer-events="all"/><path d="M 976.04 70.53 C 973.14 70.71 970.23 71.44 967.69 72.71 L 853.88 126.98 C 847.9 129.88 843.54 135.33 842.09 141.68 L 813.95 263.84 C 812.68 269.46 813.77 275.45 816.86 280.35 C 817.4 280.9 817.76 281.44 818.13 282.17 L 896.9 380 C 901.08 385.09 907.43 388.17 913.96 388.17 L 1040.29 388.17 C 1046.83 388.17 1053.18 385.09 1057.36 380 L 1136.13 281.99 C 1140.12 276.91 1141.76 270.19 1140.31 263.84 L 1112.17 141.68 C 1110.72 135.33 1106.36 129.88 1100.37 126.98 L 986.57 72.71 C 983.3 71.08 979.67 70.35 976.04 70.53 Z" fill="#2875e2" stroke="none" pointer-events="all"/><path d="M 1081.73 167.62 L 1081.73 278.77 L 984.44 332.76 L 983.86 196.78 Z M 872.71 167.62 L 872.71 278.77 L 970 332.76 L 970.58 196.78 Z M 872.71 156.07 L 977.22 125.76 L 1081.73 156.07 L 977.22 186.39 Z" fill="#ffffff" stroke="none" pointer-events="all"/><path d="M 257.51 -0.5 C 253.31 -0.23 249.11 0.82 245.43 2.66 L 80.71 81.2 C 72.04 85.41 65.74 93.29 63.63 102.48 L 22.92 279.29 C 21.08 287.43 22.65 296.1 27.12 303.19 C 27.91 303.98 28.43 304.77 28.96 305.82 L 142.97 447.42 C 149.01 454.77 158.21 459.24 167.67 459.24 L 350.51 459.24 C 359.97 459.24 369.16 454.77 375.21 447.42 L 489.22 305.56 C 495 298.2 497.36 288.48 495.26 279.29 L 454.54 102.48 C 452.44 93.29 446.14 85.41 437.47 81.2 L 272.75 2.66 C 268.02 0.29 262.77 -0.76 257.51 -0.5 Z" fill-opacity="0.5" fill="#ffffff" stroke="none" pointer-events="all"/><path d="M 257.61 13.29 C 253.66 13.53 249.71 14.52 246.26 16.25 L 91.42 90.09 C 83.27 94.04 77.35 101.45 75.37 110.09 L 37.09 276.28 C 35.36 283.94 36.85 292.09 41.04 298.75 C 41.79 299.5 42.28 300.24 42.77 301.22 L 149.95 434.33 C 155.63 441.24 164.27 445.44 173.16 445.44 L 345.03 445.44 C 353.92 445.44 362.57 441.24 368.25 434.33 L 475.42 300.98 C 480.85 294.06 483.08 284.93 481.1 276.28 L 442.82 110.09 C 440.85 101.45 434.92 94.04 426.77 90.09 L 271.94 16.25 C 267.49 14.03 262.55 13.04 257.61 13.29 Z" fill-opacity="0.5" fill="#00aaff" stroke="none" pointer-events="all"/><path d="M 398.57 147.06 L 398.57 295.26 L 268.84 367.24 L 268.07 185.93 Z M 119.87 147.06 L 119.87 295.26 L 249.6 367.24 L 250.37 185.93 Z M 119.87 131.66 L 259.22 91.24 L 398.57 131.66 L 259.22 172.08 Z" fill-opacity="0.5" fill="#ffffff" stroke="none" pointer-events="all"/><path d="M 257.94 58.78 C 254.82 58.97 251.7 59.75 248.98 61.12 L 126.75 119.4 C 120.32 122.52 115.64 128.37 114.08 135.19 L 83.86 266.39 C 82.5 272.43 83.67 278.86 86.98 284.12 C 87.57 284.71 87.96 285.29 88.35 286.07 L 172.95 391.14 C 177.43 396.6 184.26 399.92 191.27 399.92 L 326.95 399.92 C 333.97 399.92 340.79 396.6 345.27 391.14 L 429.88 285.88 C 434.17 280.42 435.92 273.21 434.36 266.39 L 404.15 135.19 C 402.59 128.37 397.91 122.52 391.47 119.4 L 269.25 61.12 C 265.74 59.36 261.84 58.58 257.94 58.78 Z" fill="#ffffff" stroke="none" pointer-events="all"/><path d="M 258.02 69.01 C 255.09 69.19 252.16 69.92 249.59 71.21 L 134.7 125.99 C 128.65 128.93 124.25 134.42 122.79 140.84 L 94.39 264.16 C 93.1 269.84 94.2 275.88 97.32 280.83 C 97.87 281.38 98.23 281.93 98.6 282.66 L 178.13 381.43 C 182.34 386.56 188.75 389.68 195.35 389.68 L 322.89 389.68 C 329.48 389.68 335.9 386.56 340.11 381.43 L 419.64 282.48 C 423.67 277.35 425.32 270.57 423.85 264.16 L 395.45 140.84 C 393.98 134.42 389.59 128.93 383.54 125.99 L 268.65 71.21 C 265.35 69.56 261.68 68.82 258.02 69.01 Z" fill="#2875e2" stroke="none" pointer-events="all"/><path d="M 365.24 166.72 L 365.24 279.48 L 266.53 334.25 L 265.95 196.3 Z M 153.18 166.72 L 153.18 279.48 L 251.89 334.25 L 252.47 196.3 Z M 153.18 155 L 259.21 124.25 L 365.24 155 L 259.21 185.76 Z" fill="#ffffff" stroke="none" pointer-events="all"/><path d="M 280.63 419.42 C 277.71 419.61 274.79 420.34 272.23 421.62 L 157.65 476.26 C 151.62 479.18 147.23 484.66 145.77 491.06 L 117.44 614.05 C 116.16 619.71 117.26 625.74 120.37 630.68 C 120.91 631.22 121.28 631.77 121.65 632.5 L 200.96 731 C 205.16 736.12 211.56 739.23 218.14 739.23 L 345.33 739.23 C 351.91 739.23 358.3 736.12 362.5 731 L 441.82 632.32 C 445.84 627.2 447.48 620.44 446.02 614.05 L 417.69 491.06 C 416.23 484.66 411.85 479.18 405.82 476.26 L 291.23 421.62 C 287.94 419.97 284.29 419.24 280.63 419.42 Z" fill-opacity="0.5" fill="#ffffff" stroke="none" pointer-events="all"/><path d="M 280.71 429.01 C 277.96 429.18 275.21 429.87 272.8 431.07 L 165.1 482.44 C 159.43 485.18 155.31 490.34 153.93 496.35 L 127.31 611.96 C 126.1 617.28 127.13 622.95 130.05 627.59 C 130.57 628.11 130.91 628.62 131.26 629.31 L 205.81 721.9 C 209.76 726.71 215.77 729.63 221.96 729.63 L 341.52 729.63 C 347.7 729.63 353.71 726.71 357.66 721.9 L 432.22 629.14 C 436 624.33 437.54 617.97 436.17 611.96 L 409.54 496.35 C 408.17 490.34 404.04 485.18 398.38 482.44 L 290.67 431.07 C 287.58 429.53 284.14 428.84 280.71 429.01 Z" fill-opacity="0.5" fill="#00aaff" stroke="none" pointer-events="all"/><path d="M 378.76 522.06 L 378.76 625.16 L 288.52 675.23 L 287.98 549.11 Z M 184.89 522.06 L 184.89 625.16 L 275.13 675.23 L 275.66 549.11 Z M 184.89 511.35 L 281.82 483.24 L 378.76 511.35 L 281.82 539.47 Z" fill-opacity="0.5" fill="#ffffff" stroke="none" pointer-events="all"/><path d="M 280.88 452.43 C 278.56 452.57 276.24 453.15 274.21 454.17 L 183.28 497.52 C 178.5 499.84 175.02 504.2 173.86 509.27 L 151.38 606.87 C 150.36 611.36 151.23 616.15 153.7 620.06 C 154.13 620.5 154.42 620.93 154.71 621.51 L 217.65 699.67 C 220.99 703.73 226.06 706.2 231.28 706.2 L 332.21 706.2 C 337.43 706.2 342.51 703.73 345.84 699.67 L 408.78 621.37 C 411.97 617.31 413.28 611.94 412.12 606.87 L 389.64 509.27 C 388.48 504.2 385 499.84 380.21 497.52 L 289.29 454.17 C 286.68 452.86 283.78 452.28 280.88 452.43 Z" fill="#ffffff" stroke="none" pointer-events="all"/><path d="M 280.93 460.03 C 278.75 460.17 276.57 460.72 274.66 461.67 L 189.2 502.43 C 184.7 504.61 181.43 508.7 180.33 513.47 L 159.21 605.21 C 158.25 609.43 159.07 613.93 161.39 617.61 C 161.8 618.02 162.07 618.43 162.34 618.98 L 221.5 692.45 C 224.64 696.27 229.41 698.58 234.31 698.58 L 329.19 698.58 C 334.1 698.58 338.87 696.27 342 692.45 L 401.16 618.84 C 404.16 615.02 405.39 609.98 404.3 605.21 L 383.17 513.47 C 382.08 508.7 378.81 504.61 374.31 502.43 L 288.84 461.67 C 286.39 460.44 283.66 459.9 280.93 460.03 Z" fill="#2875e2" stroke="none" pointer-events="all"/><path d="M 358.74 533.87 L 358.74 615.68 L 287.13 655.42 L 286.71 555.34 Z M 204.9 533.87 L 204.9 615.68 L 276.51 655.42 L 276.93 555.34 Z M 204.9 525.37 L 281.82 503.06 L 358.74 525.37 L 281.82 547.69 Z" fill="#ffffff" stroke="none" pointer-events="all"/><path d="M 956.18 424.26 C 953.3 424.44 950.42 425.16 947.9 426.42 L 835.05 480.24 C 829.11 483.12 824.79 488.52 823.35 494.82 L 795.45 615.95 C 794.19 621.53 795.27 627.47 798.33 632.33 C 798.87 632.87 799.23 633.41 799.59 634.13 L 877.71 731.14 C 881.84 736.18 888.14 739.24 894.62 739.24 L 1019.9 739.24 C 1026.38 739.24 1032.68 736.18 1036.81 731.14 L 1114.93 633.95 C 1118.89 628.91 1120.51 622.25 1119.07 615.95 L 1091.17 494.82 C 1089.73 488.52 1085.41 483.12 1079.47 480.24 L 966.62 426.42 C 963.38 424.8 959.78 424.08 956.18 424.26 Z" fill-opacity="0.5" fill="#ffffff" stroke="none" pointer-events="all"/><path d="M 956.25 433.7 C 953.54 433.87 950.84 434.55 948.47 435.73 L 842.39 486.32 C 836.8 489.03 832.74 494.1 831.39 500.03 L 805.16 613.89 C 803.98 619.14 805 624.72 807.87 629.29 C 808.38 629.79 808.72 630.3 809.06 630.98 L 882.48 722.17 C 886.38 726.91 892.3 729.79 898.39 729.79 L 1016.14 729.79 C 1022.23 729.79 1028.16 726.91 1032.05 722.17 L 1105.48 630.81 C 1109.2 626.07 1110.72 619.81 1109.37 613.89 L 1083.14 500.03 C 1081.79 494.1 1077.73 489.03 1072.14 486.32 L 966.06 435.73 C 963.02 434.21 959.63 433.53 956.25 433.7 Z" fill-opacity="0.5" fill="#00aaff" stroke="none" pointer-events="all"/><path d="M 1052.82 525.35 L 1052.82 626.89 L 963.94 676.21 L 963.42 551.99 Z M 861.88 525.35 L 861.88 626.89 L 950.76 676.21 L 951.28 551.99 Z M 861.88 514.8 L 957.35 487.11 L 1052.82 514.8 L 957.35 542.5 Z" fill-opacity="0.5" fill="#ffffff" stroke="none" pointer-events="all"/><path d="M 956.28 438.57 C 953.66 438.73 951.04 439.38 948.75 440.53 L 846.15 489.46 C 840.75 492.08 836.82 496.99 835.51 502.71 L 810.15 612.84 C 809 617.92 809.98 623.32 812.76 627.73 C 813.25 628.23 813.58 628.72 813.91 629.37 L 884.93 717.57 C 888.69 722.16 894.42 724.94 900.31 724.94 L 1014.21 724.94 C 1020.1 724.94 1025.82 722.16 1029.59 717.57 L 1100.61 629.21 C 1104.21 624.63 1105.68 618.57 1104.37 612.84 L 1079.01 502.71 C 1077.7 496.99 1073.77 492.08 1068.37 489.46 L 965.77 440.53 C 962.82 439.06 959.55 438.4 956.28 438.57 Z" fill="#ffffff" stroke="none" pointer-events="all"/><path d="M 956.34 447.15 C 953.88 447.31 951.42 447.92 949.26 449 L 852.82 494.99 C 847.74 497.45 844.05 502.07 842.82 507.45 L 818.98 610.97 C 817.9 615.74 818.82 620.82 821.44 624.97 C 821.9 625.43 822.21 625.89 822.52 626.51 L 889.27 709.42 C 892.81 713.73 898.2 716.34 903.73 716.34 L 1010.79 716.34 C 1016.33 716.34 1021.71 713.73 1025.25 709.42 L 1092.01 626.36 C 1095.4 622.05 1096.78 616.36 1095.55 610.97 L 1071.71 507.45 C 1070.48 502.07 1066.78 497.45 1061.71 494.99 L 965.26 449 C 962.49 447.61 959.42 447 956.34 447.15 Z" fill="#2875e2" stroke="none" pointer-events="all"/><path d="M 1046.34 529.18 L 1046.34 623.84 L 963.49 669.81 L 962.99 554.01 Z M 868.34 529.18 L 868.34 623.84 L 951.19 669.81 L 951.69 554.01 Z M 868.34 519.34 L 957.34 493.53 L 1046.34 519.34 L 957.34 545.16 Z" fill="#ffffff" stroke="none" pointer-events="all"/><path d="M 1143.79 419.31 C 1142.74 419.37 1141.69 419.63 1140.77 420.09 L 1099.59 439.73 C 1097.43 440.78 1095.85 442.75 1095.32 445.05 L 1085.14 489.25 C 1084.68 491.29 1085.08 493.45 1086.19 495.23 C 1086.39 495.43 1086.52 495.62 1086.65 495.88 L 1115.16 531.28 C 1116.67 533.12 1118.97 534.24 1121.33 534.24 L 1167.04 534.24 C 1169.41 534.24 1171.71 533.12 1173.22 531.28 L 1201.72 495.82 C 1203.16 493.98 1203.76 491.55 1203.23 489.25 L 1193.05 445.05 C 1192.53 442.75 1190.95 440.78 1188.78 439.73 L 1147.6 420.09 C 1146.42 419.5 1145.11 419.24 1143.79 419.31 Z" fill-opacity="0.5" fill="#ffffff" stroke="none" pointer-events="all"/><path d="M 1143.82 422.75 C 1142.83 422.81 1141.84 423.06 1140.98 423.49 L 1102.27 441.95 C 1100.23 442.94 1098.75 444.79 1098.26 446.95 L 1088.69 488.5 C 1088.26 490.41 1088.63 492.45 1089.68 494.12 C 1089.86 494.3 1089.98 494.49 1090.11 494.74 L 1116.9 528.01 C 1118.32 529.74 1120.48 530.79 1122.7 530.79 L 1165.67 530.79 C 1167.9 530.79 1170.06 529.74 1171.48 528.01 L 1198.27 494.67 C 1199.63 492.95 1200.18 490.66 1199.69 488.5 L 1190.12 446.95 C 1189.63 444.79 1188.15 442.94 1186.11 441.95 L 1147.4 423.49 C 1146.29 422.94 1145.05 422.69 1143.82 422.75 Z" fill-opacity="0.5" fill="#00aaff" stroke="none" pointer-events="all"/><path d="M 1179.06 456.19 L 1179.06 493.24 L 1146.63 511.24 L 1146.43 465.91 Z M 1109.38 456.19 L 1109.38 493.24 L 1141.81 511.24 L 1142.01 465.91 Z M 1109.38 452.34 L 1144.22 442.24 L 1179.06 452.34 L 1144.22 462.45 Z" fill-opacity="0.5" fill="#ffffff" stroke="none" pointer-events="all"/><path d="M 1144.08 457.45 C 1143.72 457.47 1143.37 457.56 1143.06 457.71 L 1129.23 464.31 C 1128.5 464.66 1127.97 465.32 1127.79 466.09 L 1124.37 480.94 C 1124.22 481.63 1124.35 482.36 1124.73 482.95 C 1124.79 483.02 1124.84 483.08 1124.88 483.17 L 1134.46 495.06 C 1134.96 495.68 1135.74 496.06 1136.53 496.06 L 1151.89 496.06 C 1152.68 496.06 1153.45 495.68 1153.96 495.06 L 1163.54 483.15 C 1164.02 482.53 1164.22 481.72 1164.04 480.94 L 1160.62 466.09 C 1160.45 465.32 1159.92 464.66 1159.19 464.31 L 1145.36 457.71 C 1144.96 457.51 1144.52 457.42 1144.08 457.45 Z" fill="#ffffff" stroke="none" pointer-events="all"/><path d="M 1144.09 458.6 C 1143.75 458.62 1143.42 458.71 1143.13 458.85 L 1130.13 465.05 C 1129.44 465.39 1128.95 466.01 1128.78 466.73 L 1125.57 480.69 C 1125.42 481.33 1125.54 482.02 1125.9 482.58 C 1125.96 482.64 1126 482.7 1126.04 482.79 L 1135.04 493.96 C 1135.52 494.54 1136.25 494.9 1136.99 494.9 L 1151.43 494.9 C 1152.17 494.9 1152.9 494.54 1153.38 493.96 L 1162.38 482.76 C 1162.83 482.18 1163.02 481.42 1162.85 480.69 L 1159.64 466.73 C 1159.47 466.01 1158.98 465.39 1158.29 465.05 L 1145.29 458.85 C 1144.91 458.67 1144.5 458.58 1144.09 458.6 Z" fill="#2875e2" stroke="none" pointer-events="all"/><path d="M 1156.22 469.66 L 1156.22 482.43 L 1145.05 488.62 L 1144.98 473.01 Z M 1132.22 469.66 L 1132.22 482.43 L 1143.39 488.62 L 1143.46 473.01 Z M 1132.22 468.34 L 1144.22 464.86 L 1156.22 468.34 L 1144.22 471.82 Z" fill="#ffffff" stroke="none" pointer-events="all"/><path d="M 617.11 302.27 C 614.37 302.44 611.63 303.13 609.23 304.33 L 501.88 355.52 C 496.23 358.26 492.12 363.4 490.75 369.39 L 464.21 484.62 C 463.01 489.92 464.04 495.57 466.95 500.2 C 467.46 500.71 467.81 501.22 468.15 501.91 L 542.46 594.2 C 546.39 598.99 552.39 601.9 558.55 601.9 L 677.72 601.9 C 683.88 601.9 689.87 598.99 693.81 594.2 L 768.12 501.74 C 771.89 496.94 773.43 490.61 772.06 484.62 L 745.52 369.39 C 744.15 363.4 740.04 358.26 734.39 355.52 L 627.04 304.33 C 623.96 302.78 620.53 302.1 617.11 302.27 Z" fill="#ffffff" stroke="none" pointer-events="all"/><path d="M 617.17 311.25 C 614.6 311.42 612.02 312.06 609.77 313.19 L 508.86 361.31 C 503.55 363.88 499.69 368.71 498.4 374.34 L 473.45 482.66 C 472.32 487.65 473.29 492.96 476.03 497.31 C 476.51 497.79 476.83 498.27 477.15 498.92 L 547 585.66 C 550.7 590.17 556.34 592.91 562.13 592.91 L 674.15 592.91 C 679.94 592.91 685.57 590.17 689.28 585.66 L 759.13 498.75 C 762.67 494.25 764.12 488.29 762.83 482.66 L 737.88 374.34 C 736.59 368.71 732.73 363.88 727.42 361.31 L 626.51 313.19 C 623.61 311.74 620.39 311.09 617.17 311.25 Z" fill="#002882" stroke="none" pointer-events="all"/><path d="M 709.04 398.44 L 709.04 495.03 L 624.49 541.94 L 623.99 423.78 Z M 527.4 398.44 L 527.4 495.03 L 611.95 541.94 L 612.45 423.78 Z M 527.4 388.4 L 618.22 362.06 L 709.04 388.4 L 618.22 414.74 Z" fill="#ffffff" stroke="none" pointer-events="all"/></g></svg>