<?xml version="1.0" encoding="UTF-8"?>
<!DOCTYPE svg PUBLIC "-//W3C//DTD SVG 1.1//EN" "http://www.w3.org/Graphics/SVG/1.1/DTD/svg11.dtd">
<svg xmlns="http://www.w3.org/2000/svg" xmlns:xlink="http://www.w3.org/1999/xlink" version="1.1" width="1240px" height="822px" viewBox="-0.5 -0.5 1240 822"><defs><style type="text/css">@import url(https://fonts.googleapis.com/css?family=Roboto);&#xa;</style></defs><g><path d="M 627.68 315.14 C 623.98 315.37 620.28 316.29 617.04 317.91 L 472.08 387.04 C 464.45 390.74 458.9 397.68 457.05 405.77 L 421.22 561.36 C 419.6 568.53 420.99 576.16 424.92 582.4 C 425.61 583.1 426.07 583.79 426.54 584.71 L 526.88 709.33 C 532.19 715.8 540.28 719.73 548.61 719.73 L 709.52 719.73 C 717.84 719.73 725.94 715.8 731.25 709.33 L 831.59 584.48 C 836.68 578.01 838.76 569.45 836.91 561.36 L 801.07 405.77 C 799.23 397.68 793.68 390.74 786.05 387.04 L 641.09 317.91 C 636.93 315.83 632.3 314.91 627.68 315.14 Z" fill="#ffffff" stroke="none" pointer-events="all"/><path d="M 627.77 327.27 C 624.29 327.49 620.81 328.36 617.77 329.88 L 481.51 394.86 C 474.34 398.33 469.12 404.85 467.38 412.46 L 433.7 558.72 C 432.17 565.46 433.48 572.63 437.17 578.5 C 437.83 579.15 438.26 579.8 438.69 580.67 L 533.01 697.81 C 538.01 703.89 545.62 707.59 553.44 707.59 L 704.7 707.59 C 712.52 707.59 720.13 703.89 725.13 697.81 L 819.45 580.45 C 824.23 574.37 826.19 566.33 824.45 558.72 L 790.76 412.46 C 789.02 404.85 783.81 398.33 776.64 394.86 L 640.37 329.88 C 636.46 327.92 632.11 327.05 627.77 327.27 Z" fill="#002882" stroke="none" pointer-events="all"/><path d="M 754.93 443.16 L 754.93 576.89 L 637.86 641.85 L 637.17 478.24 Z M 503.43 443.16 L 503.43 576.89 L 620.5 641.85 L 621.19 478.24 Z M 503.43 429.26 L 629.18 392.79 L 754.93 429.26 L 629.18 465.74 Z" fill="#ffffff" stroke="none" pointer-events="all"/><path d="M 976.63 0.26 C 972.43 0.53 968.23 1.58 964.55 3.42 L 799.83 81.96 C 791.16 86.17 784.86 94.05 782.75 103.24 L 742.04 280.05 C 740.2 288.19 741.77 296.86 746.24 303.95 C 747.03 304.74 747.55 305.53 748.08 306.58 L 862.09 448.18 C 868.13 455.53 877.33 460 886.79 460 L 1069.63 460 C 1079.09 460 1088.28 455.53 1094.33 448.18 L 1208.34 306.32 C 1214.12 298.96 1216.48 289.24 1214.38 280.05 L 1173.66 103.24 C 1171.56 94.05 1165.26 86.17 1156.59 81.96 L 991.87 3.42 C 987.14 1.05 981.89 0 976.63 0.26 Z" fill-opacity="0.5" fill="#ffffff" stroke="none" pointer-events="all"/><path d="M 976.73 14.05 C 972.78 14.29 968.83 15.28 965.38 17.01 L 810.54 90.85 C 802.39 94.8 796.47 102.21 794.49 110.85 L 756.21 277.04 C 754.48 284.7 755.97 292.85 760.16 299.51 C 760.91 300.26 761.4 301 761.89 301.98 L 869.07 435.09 C 874.75 442 883.39 446.2 892.28 446.2 L 1064.15 446.2 C 1073.04 446.2 1081.69 442 1087.37 435.09 L 1194.54 301.74 C 1199.97 294.82 1202.2 285.69 1200.22 277.04 L 1161.94 110.85 C 1159.97 102.21 1154.04 94.8 1145.89 90.85 L 991.06 17.01 C 986.61 14.79 981.67 13.8 976.73 14.05 Z" fill-opacity="0.5" fill="#00aaff" stroke="none" pointer-events="all"/><path d="M 1117.69 147.82 L 1117.69 296.02 L 987.96 368 L 987.19 186.69 Z M 838.99 147.82 L 838.99 296.02 L 968.72 368 L 969.49 186.69 Z M 838.99 132.42 L 978.34 92 L 1117.69 132.42 L 978.34 172.84 Z" fill-opacity="0.5" fill="#ffffff" stroke="none" pointer-events="all"/><path d="M 978.98 25.23 C 975.28 25.46 971.58 26.39 968.34 28.01 L 823.31 97.16 C 815.68 100.87 810.13 107.8 808.28 115.9 L 772.43 271.56 C 770.81 278.73 772.2 286.36 776.13 292.61 C 776.82 293.3 777.29 294 777.75 294.92 L 878.13 419.59 C 883.45 426.07 891.55 430 899.87 430 L 1060.86 430 C 1069.18 430 1077.28 426.07 1082.6 419.59 L 1182.98 294.69 C 1188.07 288.22 1190.15 279.66 1188.3 271.56 L 1152.45 115.9 C 1150.6 107.8 1145.05 100.87 1137.41 97.16 L 992.39 28.01 C 988.23 25.93 983.6 25 978.98 25.23 Z" fill="#ffffff" stroke="none" pointer-events="all"/><path d="M 979.07 37.37 C 975.59 37.58 972.11 38.45 969.07 39.98 L 832.74 104.98 C 825.57 108.46 820.35 114.99 818.61 122.6 L 784.91 268.92 C 783.39 275.66 784.69 282.83 788.39 288.7 C 789.04 289.36 789.48 290.01 789.91 290.88 L 884.27 408.07 C 889.27 414.15 896.88 417.85 904.71 417.85 L 1056.03 417.85 C 1063.86 417.85 1071.47 414.15 1076.47 408.07 L 1170.83 290.66 C 1175.61 284.57 1177.57 276.53 1175.83 268.92 L 1142.13 122.6 C 1140.39 114.99 1135.17 108.46 1128 104.98 L 991.68 39.98 C 987.76 38.02 983.42 37.15 979.07 37.37 Z" fill="#2875e2" stroke="none" pointer-events="all"/><path d="M 1103.17 155.14 L 1103.17 285.62 L 988.95 349 L 988.27 189.37 Z M 857.79 155.14 L 857.79 285.62 L 972.01 349 L 972.69 189.37 Z M 857.79 141.59 L 980.48 106 L 1103.17 141.59 L 980.48 177.17 Z" fill="#ffffff" stroke="none" pointer-events="all"/><path d="M 258.63 0.26 C 254.43 0.53 250.23 1.58 246.55 3.42 L 81.83 81.96 C 73.16 86.17 66.86 94.05 64.75 103.24 L 24.04 280.05 C 22.2 288.19 23.77 296.86 28.24 303.95 C 29.03 304.74 29.55 305.53 30.08 306.58 L 144.09 448.18 C 150.13 455.53 159.33 460 168.79 460 L 351.63 460 C 361.09 460 370.28 455.53 376.33 448.18 L 490.34 306.32 C 496.12 298.96 498.48 289.24 496.38 280.05 L 455.66 103.24 C 453.56 94.05 447.26 86.17 438.59 81.96 L 273.87 3.42 C 269.14 1.05 263.89 0 258.63 0.26 Z" fill-opacity="0.5" fill="#ffffff" stroke="none" pointer-events="all"/><path d="M 258.73 14.05 C 254.78 14.29 250.83 15.28 247.38 17.01 L 92.54 90.85 C 84.39 94.8 78.47 102.21 76.49 110.85 L 38.21 277.04 C 36.48 284.7 37.97 292.85 42.16 299.51 C 42.91 300.26 43.4 301 43.89 301.98 L 151.07 435.09 C 156.75 442 165.39 446.2 174.28 446.2 L 346.15 446.2 C 355.04 446.2 363.69 442 369.37 435.09 L 476.54 301.74 C 481.97 294.82 484.2 285.69 482.22 277.04 L 443.94 110.85 C 441.97 102.21 436.04 94.8 427.89 90.85 L 273.06 17.01 C 268.61 14.79 263.67 13.8 258.73 14.05 Z" fill-opacity="0.5" fill="#00aaff" stroke="none" pointer-events="all"/><path d="M 399.69 147.82 L 399.69 296.02 L 269.96 368 L 269.19 186.69 Z M 120.99 147.82 L 120.99 296.02 L 250.72 368 L 251.49 186.69 Z M 120.99 132.42 L 260.34 92 L 399.69 132.42 L 260.34 172.84 Z" fill-opacity="0.5" fill="#ffffff" stroke="none" pointer-events="all"/><path d="M 258.22 43.87 C 254.81 44.08 251.41 44.94 248.43 46.42 L 114.97 110.06 C 107.95 113.47 102.84 119.85 101.14 127.3 L 68.15 270.55 C 66.66 277.14 67.94 284.17 71.56 289.91 C 72.19 290.55 72.62 291.19 73.05 292.04 L 165.42 406.76 C 170.31 412.72 177.76 416.34 185.43 416.34 L 333.56 416.34 C 341.22 416.34 348.67 412.72 353.57 406.76 L 445.94 291.83 C 450.62 285.87 452.54 278 450.84 270.55 L 417.85 127.3 C 416.14 119.85 411.04 113.47 404.01 110.06 L 270.56 46.42 C 266.73 44.51 262.47 43.66 258.22 43.87 Z" fill="#ffffff" stroke="none" pointer-events="all"/><path d="M 258.3 55.04 C 255.1 55.24 251.9 56.04 249.1 57.44 L 123.65 117.26 C 117.05 120.46 112.25 126.46 110.65 133.47 L 79.64 268.11 C 78.24 274.32 79.44 280.92 82.84 286.32 C 83.44 286.92 83.84 287.52 84.24 288.32 L 171.07 396.16 C 175.67 401.76 182.67 405.16 189.88 405.16 L 329.12 405.16 C 336.33 405.16 343.33 401.76 347.93 396.16 L 434.76 288.12 C 439.16 282.52 440.96 275.12 439.36 268.11 L 408.35 133.47 C 406.75 126.46 401.95 120.46 395.35 117.26 L 269.9 57.44 C 266.3 55.64 262.3 54.84 258.3 55.04 Z" fill="#2875e2" stroke="none" pointer-events="all"/><path d="M 375.36 161.72 L 375.36 284.84 L 267.59 344.64 L 266.96 194.02 Z M 143.84 161.72 L 143.84 284.84 L 251.61 344.64 L 252.24 194.02 Z M 143.84 148.93 L 259.6 115.36 L 375.36 148.93 L 259.6 182.51 Z" fill="#ffffff" stroke="none" pointer-events="all"/><path d="M 259.3 460.16 C 256.74 460.32 254.18 460.96 251.94 462.08 L 151.68 509.89 C 146.4 512.45 142.57 517.24 141.29 522.84 L 116.5 630.46 C 115.38 635.41 116.34 640.69 119.06 645.01 C 119.54 645.49 119.86 645.97 120.18 646.61 L 189.58 732.79 C 193.26 737.27 198.85 739.99 204.61 739.99 L 315.9 739.99 C 321.66 739.99 327.25 737.27 330.93 732.79 L 400.33 646.45 C 403.85 641.97 405.29 636.05 404.01 630.46 L 379.22 522.84 C 377.94 517.24 374.1 512.45 368.83 509.89 L 268.57 462.08 C 265.69 460.64 262.49 460 259.3 460.16 Z" fill-opacity="0.5" fill="#ffffff" stroke="none" pointer-events="all"/><path d="M 259.36 468.55 C 256.95 468.7 254.55 469.3 252.44 470.35 L 158.2 515.3 C 153.24 517.7 149.63 522.21 148.43 527.47 L 125.13 628.63 C 124.08 633.29 124.98 638.25 127.54 642.31 C 127.99 642.76 128.29 643.21 128.59 643.81 L 193.82 724.83 C 197.28 729.03 202.54 731.59 207.95 731.59 L 312.57 731.59 C 317.98 731.59 323.24 729.03 326.7 724.83 L 391.93 643.66 C 395.24 639.45 396.59 633.89 395.39 628.63 L 372.09 527.47 C 370.89 522.21 367.28 517.7 362.32 515.3 L 268.08 470.35 C 265.37 469 262.36 468.4 259.36 468.55 Z" fill-opacity="0.5" fill="#00aaff" stroke="none" pointer-events="all"/><path d="M 345.15 549.97 L 345.15 640.18 L 266.19 683.99 L 265.72 573.64 Z M 175.52 549.97 L 175.52 640.18 L 254.48 683.99 L 254.95 573.64 Z M 175.52 540.6 L 260.33 516 L 345.15 540.6 L 260.33 565.2 Z" fill-opacity="0.5" fill="#ffffff" stroke="none" pointer-events="all"/><path d="M 259.44 479.04 C 257.23 479.18 255.02 479.73 253.08 480.7 L 166.36 522.05 C 161.79 524.27 158.48 528.41 157.37 533.26 L 135.93 626.34 C 134.96 630.63 135.79 635.19 138.14 638.92 C 138.56 639.34 138.84 639.75 139.11 640.31 L 199.14 714.86 C 202.32 718.73 207.16 721.08 212.14 721.08 L 308.4 721.08 C 313.38 721.08 318.22 718.73 321.4 714.86 L 381.43 640.17 C 384.47 636.3 385.72 631.18 384.61 626.34 L 363.17 533.26 C 362.07 528.41 358.75 524.27 354.18 522.05 L 267.46 480.7 C 264.97 479.45 262.21 478.9 259.44 479.04 Z" fill="#ffffff" stroke="none" pointer-events="all"/><path d="M 259.49 486.3 C 257.41 486.43 255.33 486.95 253.51 487.86 L 172 526.73 C 167.71 528.81 164.59 532.71 163.55 537.26 L 143.4 624.76 C 142.49 628.79 143.27 633.08 145.48 636.59 C 145.87 636.98 146.13 637.37 146.39 637.89 L 202.81 707.96 C 205.8 711.6 210.35 713.81 215.03 713.81 L 305.52 713.81 C 310.2 713.81 314.75 711.6 317.74 707.96 L 374.16 637.76 C 377.02 634.12 378.19 629.31 377.15 624.76 L 357 537.26 C 355.96 532.71 352.84 528.81 348.55 526.73 L 267.04 487.86 C 264.7 486.69 262.1 486.17 259.49 486.3 Z" fill="#2875e2" stroke="none" pointer-events="all"/><path d="M 333.7 556.72 L 333.7 634.75 L 265.41 672.64 L 265 577.19 Z M 186.98 556.72 L 186.98 634.75 L 255.27 672.64 L 255.68 577.19 Z M 186.98 548.62 L 260.34 527.34 L 333.7 548.62 L 260.34 569.89 Z" fill="#ffffff" stroke="none" pointer-events="all"/><path d="M 977.3 460.16 C 974.74 460.32 972.18 460.96 969.94 462.08 L 869.68 509.89 C 864.41 512.45 860.57 517.25 859.29 522.84 L 834.5 630.46 C 833.38 635.42 834.34 640.7 837.06 645.01 C 837.54 645.49 837.86 645.97 838.18 646.61 L 907.58 732.8 C 911.26 737.28 916.86 740 922.61 740 L 1033.91 740 C 1039.66 740 1045.26 737.28 1048.94 732.8 L 1118.34 646.45 C 1121.86 641.98 1123.3 636.06 1122.02 630.46 L 1097.23 522.84 C 1095.95 517.25 1092.11 512.45 1086.84 509.89 L 986.58 462.08 C 983.7 460.64 980.5 460 977.3 460.16 Z" fill-opacity="0.5" fill="#ffffff" stroke="none" pointer-events="all"/><path d="M 977.36 468.55 C 974.96 468.7 972.55 469.3 970.45 470.35 L 876.2 515.3 C 871.24 517.7 867.63 522.21 866.43 527.47 L 843.13 628.63 C 842.08 633.29 842.98 638.25 845.54 642.31 C 845.99 642.76 846.29 643.22 846.59 643.82 L 911.83 724.84 C 915.28 729.04 920.54 731.6 925.96 731.6 L 1030.57 731.6 C 1035.99 731.6 1041.25 729.04 1044.7 724.84 L 1109.94 643.67 C 1113.25 639.46 1114.6 633.9 1113.4 628.63 L 1090.1 527.47 C 1088.9 522.21 1085.29 517.7 1080.33 515.3 L 986.08 470.35 C 983.38 469 980.37 468.4 977.36 468.55 Z" fill-opacity="0.5" fill="#00aaff" stroke="none" pointer-events="all"/><path d="M 1063.16 549.97 L 1063.16 640.18 L 984.2 684 L 983.73 573.64 Z M 893.52 549.97 L 893.52 640.18 L 972.48 684 L 972.95 573.64 Z M 893.52 540.6 L 978.34 516 L 1063.16 540.6 L 978.34 565.21 Z" fill-opacity="0.5" fill="#ffffff" stroke="none" pointer-events="all"/><path d="M 977.42 476.62 C 975.17 476.77 972.91 477.33 970.93 478.32 L 882.48 520.5 C 877.83 522.75 874.44 526.99 873.31 531.92 L 851.45 626.86 C 850.46 631.24 851.31 635.89 853.7 639.7 C 854.13 640.12 854.41 640.55 854.69 641.11 L 915.92 717.15 C 919.16 721.1 924.1 723.5 929.18 723.5 L 1027.36 723.5 C 1032.44 723.5 1037.38 721.1 1040.62 717.15 L 1101.85 640.97 C 1104.95 637.02 1106.22 631.8 1105.09 626.86 L 1083.23 531.92 C 1082.1 526.99 1078.71 522.75 1074.06 520.5 L 985.61 478.32 C 983.07 477.05 980.24 476.48 977.42 476.62 Z" fill="#ffffff" stroke="none" pointer-events="all"/><path d="M 977.48 484.03 C 975.36 484.16 973.23 484.69 971.38 485.62 L 888.23 525.27 C 883.86 527.39 880.68 531.37 879.61 536.01 L 859.06 625.25 C 858.13 629.36 858.93 633.74 861.18 637.32 C 861.58 637.72 861.85 638.11 862.11 638.64 L 919.66 710.12 C 922.71 713.83 927.35 716.09 932.13 716.09 L 1024.42 716.09 C 1029.19 716.09 1033.84 713.83 1036.89 710.12 L 1094.44 638.51 C 1097.35 634.8 1098.55 629.89 1097.49 625.25 L 1076.93 536.01 C 1075.87 531.37 1072.69 527.39 1068.31 525.27 L 985.17 485.62 C 982.78 484.42 980.13 483.89 977.48 484.03 Z" fill="#2875e2" stroke="none" pointer-events="all"/><path d="M 1055.07 554.74 L 1055.07 636.34 L 983.64 675.98 L 983.21 576.14 Z M 901.61 554.74 L 901.61 636.34 L 973.04 675.98 L 973.47 576.14 Z M 901.61 546.26 L 978.34 524 L 1055.07 546.26 L 978.34 568.51 Z" fill="#ffffff" stroke="none" pointer-events="all"/><path d="M 1144.91 420.07 C 1143.86 420.13 1142.81 420.39 1141.89 420.85 L 1100.71 440.49 C 1098.55 441.54 1096.97 443.51 1096.44 445.81 L 1086.26 490.01 C 1085.8 492.05 1086.2 494.21 1087.31 495.99 C 1087.51 496.19 1087.64 496.38 1087.77 496.64 L 1116.28 532.04 C 1117.79 533.88 1120.09 535 1122.45 535 L 1168.16 535 C 1170.53 535 1172.83 533.88 1174.34 532.04 L 1202.84 496.58 C 1204.28 494.74 1204.88 492.31 1204.35 490.01 L 1194.17 445.81 C 1193.65 443.51 1192.07 441.54 1189.9 440.49 L 1148.72 420.85 C 1147.54 420.26 1146.23 420 1144.91 420.07 Z" fill-opacity="0.5" fill="#ffffff" stroke="none" pointer-events="all"/><path d="M 1144.94 423.51 C 1143.95 423.57 1142.96 423.82 1142.1 424.25 L 1103.39 442.71 C 1101.35 443.7 1099.87 445.55 1099.38 447.71 L 1089.81 489.26 C 1089.38 491.17 1089.75 493.21 1090.8 494.88 C 1090.98 495.06 1091.1 495.25 1091.23 495.5 L 1118.02 528.77 C 1119.44 530.5 1121.6 531.55 1123.82 531.55 L 1166.79 531.55 C 1169.02 531.55 1171.18 530.5 1172.6 528.77 L 1199.39 495.43 C 1200.75 493.71 1201.3 491.42 1200.81 489.26 L 1191.24 447.71 C 1190.75 445.55 1189.27 443.7 1187.23 442.71 L 1148.52 424.25 C 1147.41 423.7 1146.17 423.45 1144.94 423.51 Z" fill-opacity="0.5" fill="#00aaff" stroke="none" pointer-events="all"/><path d="M 1180.18 456.95 L 1180.18 494 L 1147.75 512 L 1147.55 466.67 Z M 1110.5 456.95 L 1110.5 494 L 1142.93 512 L 1143.13 466.67 Z M 1110.5 453.1 L 1145.34 443 L 1180.18 453.1 L 1145.34 463.21 Z" fill-opacity="0.5" fill="#ffffff" stroke="none" pointer-events="all"/><path d="M 1145.12 448.56 C 1144.6 448.59 1144.07 448.72 1143.6 448.96 L 1122.85 458.85 C 1121.76 459.38 1120.97 460.37 1120.7 461.53 L 1115.57 483.8 C 1115.34 484.83 1115.54 485.92 1116.1 486.82 C 1116.2 486.92 1116.27 487.01 1116.33 487.15 L 1130.7 504.98 C 1131.46 505.91 1132.62 506.47 1133.81 506.47 L 1156.84 506.47 C 1158.03 506.47 1159.19 505.91 1159.95 504.98 L 1174.31 487.11 C 1175.04 486.19 1175.34 484.96 1175.08 483.8 L 1169.95 461.53 C 1169.68 460.37 1168.89 459.38 1167.79 458.85 L 1147.04 448.96 C 1146.45 448.66 1145.79 448.53 1145.12 448.56 Z" fill="#ffffff" stroke="none" pointer-events="all"/><path d="M 1145.14 450.3 C 1144.64 450.33 1144.14 450.45 1143.71 450.67 L 1124.2 459.97 C 1123.18 460.47 1122.43 461.4 1122.18 462.49 L 1117.36 483.43 C 1117.14 484.39 1117.33 485.42 1117.86 486.26 C 1117.95 486.35 1118.01 486.44 1118.07 486.57 L 1131.57 503.34 C 1132.29 504.21 1133.38 504.74 1134.5 504.74 L 1156.15 504.74 C 1157.27 504.74 1158.36 504.21 1159.07 503.34 L 1172.58 486.54 C 1173.26 485.67 1173.54 484.52 1173.29 483.43 L 1168.47 462.49 C 1168.22 461.4 1167.47 460.47 1166.45 459.97 L 1146.94 450.67 C 1146.38 450.39 1145.76 450.26 1145.14 450.3 Z" fill="#2875e2" stroke="none" pointer-events="all"/><path d="M 1163.34 466.88 L 1163.34 486.03 L 1146.58 495.33 L 1146.48 471.91 Z M 1127.34 466.88 L 1127.34 486.03 L 1144.1 495.33 L 1144.2 471.91 Z M 1127.34 464.9 L 1145.34 459.67 L 1163.34 464.9 L 1145.34 470.12 Z" fill="#ffffff" stroke="none" pointer-events="all"/></g></svg>