<?xml version="1.0" encoding="UTF-8"?>
<!DOCTYPE svg PUBLIC "-//W3C//DTD SVG 1.1//EN" "http://www.w3.org/Graphics/SVG/1.1/DTD/svg11.dtd">
<svg xmlns="http://www.w3.org/2000/svg" xmlns:xlink="http://www.w3.org/1999/xlink" version="1.1" width="1240px" height="742px" viewBox="-0.5 -0.5 1240 742"><defs><style type="text/css">@import url(https://fonts.googleapis.com/css?family=Roboto);&#xa;</style></defs><g><path d="M 624.59 0.23 C 620.93 0.46 617.28 1.37 614.08 2.97 L 470.86 71.27 C 463.32 74.92 457.84 81.78 456.01 89.77 L 420.6 243.5 C 419 250.58 420.37 258.12 424.26 264.29 C 424.94 264.97 425.4 265.66 425.86 266.57 L 524.99 389.69 C 530.25 396.09 538.24 399.97 546.47 399.97 L 705.45 399.97 C 713.67 399.97 721.67 396.09 726.92 389.69 L 826.06 266.34 C 831.08 259.95 833.14 251.5 831.31 243.5 L 795.91 89.77 C 794.08 81.78 788.6 74.92 781.06 71.27 L 637.84 2.97 C 633.72 0.91 629.16 0 624.59 0.23 Z" fill-opacity="0.5" fill="#ffffff" stroke="none" pointer-events="all"/><path d="M 624.68 12.21 C 621.24 12.43 617.81 13.29 614.8 14.79 L 480.17 78.99 C 473.08 82.43 467.93 88.87 466.21 96.38 L 432.93 240.89 C 431.43 247.55 432.72 254.63 436.37 260.43 C 437.01 261.07 437.44 261.72 437.87 262.58 L 531.06 378.31 C 536 384.32 543.51 387.97 551.24 387.97 L 700.69 387.97 C 708.42 387.97 715.93 384.32 720.87 378.31 L 814.06 262.36 C 818.78 256.35 820.72 248.41 819 240.89 L 785.72 96.38 C 784 88.87 778.85 82.43 771.76 78.99 L 637.13 14.79 C 633.27 12.86 628.97 12 624.68 12.21 Z" fill-opacity="0.5" fill="#00aaff" stroke="none" pointer-events="all"/><path d="M 747.24 128.53 L 747.24 257.39 L 634.44 319.98 L 633.77 162.33 Z M 504.91 128.53 L 504.91 257.39 L 617.7 319.98 L 618.37 162.33 Z M 504.91 115.14 L 626.07 79.99 L 747.24 115.14 L 626.07 150.28 Z" fill-opacity="0.5" fill="#ffffff" stroke="none" pointer-events="all"/><path d="M 625.51 487.82 C 624.09 487.91 622.68 488.27 621.45 488.88 L 566.11 515.27 C 563.2 516.68 561.08 519.33 560.38 522.42 L 546.7 581.81 C 546.08 584.55 546.61 587.46 548.11 589.84 C 548.37 590.11 548.55 590.37 548.73 590.73 L 587.03 638.29 C 589.06 640.76 592.15 642.26 595.32 642.26 L 656.75 642.26 C 659.92 642.26 663.01 640.76 665.04 638.29 L 703.34 590.64 C 705.29 588.17 706.08 584.9 705.37 581.81 L 691.7 522.42 C 690.99 519.33 688.87 516.68 685.96 515.27 L 630.62 488.88 C 629.04 488.09 627.27 487.74 625.51 487.82 Z" fill="#ffffff" stroke="none" pointer-events="all"/><path d="M 625.54 492.45 C 624.21 492.54 622.89 492.87 621.72 493.45 L 569.71 518.25 C 566.97 519.58 564.98 522.07 564.32 524.97 L 551.46 580.8 C 550.88 583.37 551.38 586.11 552.79 588.35 C 553.04 588.6 553.2 588.85 553.37 589.18 L 589.37 633.9 C 591.28 636.22 594.18 637.63 597.17 637.63 L 654.91 637.63 C 657.89 637.63 660.8 636.22 662.71 633.9 L 698.71 589.1 C 700.53 586.78 701.28 583.71 700.62 580.8 L 687.76 524.97 C 687.09 522.07 685.1 519.58 682.37 518.25 L 630.35 493.45 C 628.86 492.7 627.2 492.37 625.54 492.45 Z" fill="#002882" stroke="none" pointer-events="all"/><path d="M 674.08 536.69 L 674.08 587.74 L 629.39 612.54 L 629.13 550.08 Z M 578.08 536.69 L 578.08 587.74 L 622.77 612.54 L 623.03 550.08 Z M 578.08 531.39 L 626.08 517.46 L 674.08 531.39 L 626.08 545.31 Z" fill="#ffffff" stroke="none" pointer-events="all"/><path d="M 976.29 0.26 C 972.09 0.53 967.89 1.58 964.21 3.42 L 799.49 81.96 C 790.82 86.17 784.52 94.05 782.41 103.24 L 741.7 280.05 C 739.86 288.19 741.43 296.86 745.9 303.95 C 746.69 304.74 747.21 305.53 747.74 306.58 L 861.75 448.18 C 867.79 455.53 876.99 460 886.45 460 L 1069.29 460 C 1078.75 460 1087.94 455.53 1093.99 448.18 L 1208 306.32 C 1213.78 298.96 1216.14 289.24 1214.04 280.05 L 1173.32 103.24 C 1171.22 94.05 1164.92 86.17 1156.25 81.96 L 991.53 3.42 C 986.8 1.05 981.55 0 976.29 0.26 Z" fill-opacity="0.5" fill="#ffffff" stroke="none" pointer-events="all"/><path d="M 976.39 14.05 C 972.44 14.29 968.49 15.28 965.04 17.01 L 810.2 90.85 C 802.05 94.8 796.13 102.21 794.15 110.85 L 755.87 277.04 C 754.14 284.7 755.63 292.85 759.82 299.51 C 760.57 300.26 761.06 301 761.55 301.98 L 868.73 435.09 C 874.41 442 883.05 446.2 891.94 446.2 L 1063.81 446.2 C 1072.7 446.2 1081.35 442 1087.03 435.09 L 1194.2 301.74 C 1199.63 294.82 1201.86 285.69 1199.88 277.04 L 1161.6 110.85 C 1159.63 102.21 1153.7 94.8 1145.55 90.85 L 990.72 17.01 C 986.27 14.79 981.33 13.8 976.39 14.05 Z" fill-opacity="0.5" fill="#00aaff" stroke="none" pointer-events="all"/><path d="M 1117.35 147.82 L 1117.35 296.02 L 987.62 368 L 986.85 186.69 Z M 838.65 147.82 L 838.65 296.02 L 968.38 368 L 969.15 186.69 Z M 838.65 132.42 L 978 92 L 1117.35 132.42 L 978 172.84 Z" fill-opacity="0.5" fill="#ffffff" stroke="none" pointer-events="all"/><path d="M 977 95.15 C 974.53 95.31 972.06 95.93 969.9 97 L 873.22 143.11 C 868.13 145.58 864.43 150.2 863.2 155.6 L 839.3 259.37 C 838.22 264.15 839.15 269.24 841.77 273.41 C 842.23 273.87 842.54 274.33 842.85 274.95 L 909.77 358.06 C 913.31 362.38 918.71 365 924.26 365 L 1031.58 365 C 1037.13 365 1042.53 362.38 1046.08 358.06 L 1113 274.79 C 1116.39 270.48 1117.78 264.77 1116.55 259.37 L 1092.65 155.6 C 1091.41 150.2 1087.71 145.58 1082.62 143.11 L 985.94 97 C 983.17 95.62 980.08 95 977 95.15 Z" fill="#ffffff" stroke="none" pointer-events="all"/><path d="M 977.06 103.24 C 974.74 103.39 972.42 103.97 970.39 104.98 L 879.51 148.32 C 874.73 150.64 871.25 154.99 870.09 160.06 L 847.62 257.61 C 846.61 262.11 847.48 266.89 849.94 270.8 C 850.38 271.24 850.67 271.67 850.96 272.25 L 913.86 350.38 C 917.2 354.44 922.27 356.9 927.49 356.9 L 1028.37 356.9 C 1033.59 356.9 1038.66 354.44 1041.99 350.38 L 1104.9 272.11 C 1108.09 268.05 1109.39 262.69 1108.23 257.61 L 1085.77 160.06 C 1084.61 154.99 1081.13 150.64 1076.35 148.32 L 985.46 104.98 C 982.86 103.68 979.96 103.1 977.06 103.24 Z" fill="#2875e2" stroke="none" pointer-events="all"/><path d="M 1059.79 181.76 L 1059.79 268.75 L 983.65 311 L 983.2 204.58 Z M 896.21 181.76 L 896.21 268.75 L 972.35 311 L 972.8 204.58 Z M 896.21 172.72 L 978 149 L 1059.79 172.72 L 978 196.45 Z" fill="#ffffff" stroke="none" pointer-events="all"/><path d="M 258.29 0.26 C 254.09 0.53 249.89 1.58 246.21 3.42 L 81.49 81.96 C 72.82 86.17 66.52 94.05 64.41 103.24 L 23.7 280.05 C 21.86 288.19 23.43 296.86 27.9 303.95 C 28.69 304.74 29.21 305.53 29.74 306.58 L 143.75 448.18 C 149.79 455.53 158.99 460 168.45 460 L 351.29 460 C 360.75 460 369.94 455.53 375.99 448.18 L 490 306.32 C 495.78 298.96 498.14 289.24 496.04 280.05 L 455.32 103.24 C 453.22 94.05 446.92 86.17 438.25 81.96 L 273.53 3.42 C 268.8 1.05 263.55 0 258.29 0.26 Z" fill-opacity="0.5" fill="#ffffff" stroke="none" pointer-events="all"/><path d="M 258.39 14.05 C 254.44 14.29 250.49 15.28 247.04 17.01 L 92.2 90.85 C 84.05 94.8 78.13 102.21 76.15 110.85 L 37.87 277.04 C 36.14 284.7 37.63 292.85 41.82 299.51 C 42.57 300.26 43.06 301 43.55 301.98 L 150.73 435.09 C 156.41 442 165.05 446.2 173.94 446.2 L 345.81 446.2 C 354.7 446.2 363.35 442 369.03 435.09 L 476.2 301.74 C 481.63 294.82 483.86 285.69 481.88 277.04 L 443.6 110.85 C 441.63 102.21 435.7 94.8 427.55 90.85 L 272.72 17.01 C 268.27 14.79 263.33 13.8 258.39 14.05 Z" fill-opacity="0.5" fill="#00aaff" stroke="none" pointer-events="all"/><path d="M 399.35 147.82 L 399.35 296.02 L 269.62 368 L 268.85 186.69 Z M 120.65 147.82 L 120.65 296.02 L 250.38 368 L 251.15 186.69 Z M 120.65 132.42 L 260 92 L 399.35 132.42 L 260 172.84 Z" fill-opacity="0.5" fill="#ffffff" stroke="none" pointer-events="all"/><path d="M 259.43 152.82 C 258.01 152.91 256.6 153.27 255.37 153.88 L 200.03 180.27 C 197.12 181.68 195 184.33 194.3 187.42 L 180.62 246.81 C 180 249.55 180.53 252.46 182.03 254.84 C 182.29 255.11 182.47 255.37 182.65 255.73 L 220.95 303.29 C 222.98 305.76 226.07 307.26 229.24 307.26 L 290.67 307.26 C 293.84 307.26 296.93 305.76 298.96 303.29 L 337.26 255.64 C 339.21 253.17 340 249.9 339.29 246.81 L 325.62 187.42 C 324.91 184.33 322.79 181.68 319.88 180.27 L 264.54 153.88 C 262.96 153.09 261.19 152.74 259.43 152.82 Z" fill="#ffffff" stroke="none" pointer-events="all"/><path d="M 259.46 157.45 C 258.13 157.54 256.81 157.87 255.64 158.45 L 203.63 183.25 C 200.89 184.58 198.9 187.07 198.24 189.97 L 185.38 245.8 C 184.8 248.37 185.3 251.11 186.71 253.35 C 186.96 253.6 187.12 253.85 187.29 254.18 L 223.29 298.9 C 225.2 301.22 228.1 302.63 231.09 302.63 L 288.83 302.63 C 291.81 302.63 294.72 301.22 296.63 298.9 L 332.63 254.1 C 334.45 251.78 335.2 248.71 334.54 245.8 L 321.68 189.97 C 321.01 187.07 319.02 184.58 316.29 183.25 L 264.27 158.45 C 262.78 157.7 261.12 157.37 259.46 157.45 Z" fill="#2875e2" stroke="none" pointer-events="all"/><path d="M 308 201.69 L 308 252.74 L 263.31 277.54 L 263.05 215.08 Z M 212 201.69 L 212 252.74 L 256.69 277.54 L 256.95 215.08 Z M 212 196.39 L 260 182.46 L 308 196.39 L 260 210.31 Z" fill="#ffffff" stroke="none" pointer-events="all"/><path d="M 281.41 420.18 C 278.49 420.37 275.57 421.1 273.01 422.38 L 158.43 477.02 C 152.4 479.94 148.01 485.42 146.55 491.82 L 118.22 614.81 C 116.94 620.47 118.04 626.5 121.15 631.44 C 121.69 631.98 122.06 632.53 122.43 633.26 L 201.74 731.76 C 205.94 736.88 212.34 739.99 218.92 739.99 L 346.11 739.99 C 352.69 739.99 359.08 736.88 363.28 731.76 L 442.6 633.08 C 446.62 627.96 448.26 621.2 446.8 614.81 L 418.47 491.82 C 417.01 485.42 412.63 479.94 406.6 477.02 L 292.01 422.38 C 288.72 420.73 285.07 420 281.41 420.18 Z" fill-opacity="0.5" fill="#ffffff" stroke="none" pointer-events="all"/><path d="M 281.49 429.77 C 278.74 429.94 275.99 430.63 273.58 431.83 L 165.88 483.2 C 160.21 485.94 156.09 491.1 154.71 497.11 L 128.09 612.72 C 126.88 618.04 127.91 623.71 130.83 628.35 C 131.35 628.87 131.69 629.38 132.04 630.07 L 206.59 722.66 C 210.54 727.47 216.55 730.39 222.74 730.39 L 342.3 730.39 C 348.48 730.39 354.49 727.47 358.44 722.66 L 433 629.9 C 436.78 625.09 438.32 618.73 436.95 612.72 L 410.32 497.11 C 408.95 491.1 404.82 485.94 399.16 483.2 L 291.45 431.83 C 288.36 430.29 284.92 429.6 281.49 429.77 Z" fill-opacity="0.5" fill="#00aaff" stroke="none" pointer-events="all"/><path d="M 379.54 522.82 L 379.54 625.92 L 289.3 675.99 L 288.76 549.87 Z M 185.67 522.82 L 185.67 625.92 L 275.91 675.99 L 276.44 549.87 Z M 185.67 512.11 L 282.6 484 L 379.54 512.11 L 282.6 540.23 Z" fill-opacity="0.5" fill="#ffffff" stroke="none" pointer-events="all"/><path d="M 281.91 486.19 C 280.19 486.3 278.48 486.73 276.97 487.48 L 209.72 519.55 C 206.18 521.27 203.61 524.49 202.75 528.24 L 186.12 600.43 C 185.37 603.76 186.01 607.29 187.84 610.19 C 188.16 610.51 188.37 610.83 188.59 611.26 L 235.14 669.08 C 237.61 672.08 241.36 673.91 245.22 673.91 L 319.88 673.91 C 323.74 673.91 327.5 672.08 329.96 669.08 L 376.51 611.16 C 378.87 608.15 379.84 604.18 378.98 600.43 L 362.36 528.24 C 361.5 524.49 358.92 521.27 355.38 519.55 L 288.13 487.48 C 286.2 486.52 284.05 486.09 281.91 486.19 Z" fill="#ffffff" stroke="none" pointer-events="all"/><path d="M 281.95 491.82 C 280.34 491.92 278.72 492.33 277.31 493.03 L 214.09 523.18 C 210.77 524.79 208.35 527.82 207.54 531.35 L 191.91 599.2 C 191.21 602.33 191.81 605.66 193.52 608.38 C 193.83 608.68 194.03 608.98 194.23 609.39 L 237.99 663.73 C 240.31 666.56 243.84 668.27 247.47 668.27 L 317.64 668.27 C 321.27 668.27 324.8 666.56 327.12 663.73 L 370.88 609.29 C 373.1 606.46 374.01 602.73 373.2 599.2 L 357.57 531.35 C 356.76 527.82 354.34 524.79 351.02 523.18 L 287.8 493.03 C 285.98 492.12 283.97 491.72 281.95 491.82 Z" fill="#2875e2" stroke="none" pointer-events="all"/><path d="M 339.5 546.44 L 339.5 606.95 L 286.53 636.34 L 286.22 562.31 Z M 225.71 546.44 L 225.71 606.95 L 278.68 636.34 L 278.99 562.31 Z M 225.71 540.15 L 282.61 523.65 L 339.5 540.15 L 282.61 556.66 Z" fill="#ffffff" stroke="none" pointer-events="all"/><path d="M 956.96 425.02 C 954.08 425.2 951.2 425.92 948.68 427.18 L 835.83 481 C 829.89 483.88 825.57 489.28 824.13 495.58 L 796.23 616.71 C 794.97 622.29 796.05 628.23 799.11 633.09 C 799.65 633.63 800.01 634.17 800.37 634.89 L 878.49 731.9 C 882.62 736.94 888.92 740 895.4 740 L 1020.68 740 C 1027.16 740 1033.46 736.94 1037.59 731.9 L 1115.71 634.71 C 1119.67 629.67 1121.29 623.01 1119.85 616.71 L 1091.95 495.58 C 1090.51 489.28 1086.19 483.88 1080.25 481 L 967.4 427.18 C 964.16 425.56 960.56 424.84 956.96 425.02 Z" fill-opacity="0.5" fill="#ffffff" stroke="none" pointer-events="all"/><path d="M 957.03 434.46 C 954.32 434.63 951.62 435.31 949.25 436.49 L 843.17 487.08 C 837.58 489.79 833.52 494.86 832.17 500.79 L 805.94 614.65 C 804.76 619.9 805.78 625.48 808.65 630.05 C 809.16 630.55 809.5 631.06 809.84 631.74 L 883.26 722.93 C 887.16 727.67 893.08 730.55 899.17 730.55 L 1016.92 730.55 C 1023.01 730.55 1028.94 727.67 1032.83 722.93 L 1106.26 631.57 C 1109.98 626.83 1111.5 620.57 1110.15 614.65 L 1083.92 500.79 C 1082.57 494.86 1078.51 489.79 1072.92 487.08 L 966.84 436.49 C 963.8 434.97 960.41 434.29 957.03 434.46 Z" fill-opacity="0.5" fill="#00aaff" stroke="none" pointer-events="all"/><path d="M 1053.6 526.11 L 1053.6 627.65 L 964.72 676.97 L 964.2 552.75 Z M 862.66 526.11 L 862.66 627.65 L 951.54 676.97 L 952.06 552.75 Z M 862.66 515.56 L 958.13 487.87 L 1053.6 515.56 L 958.13 543.26 Z" fill-opacity="0.5" fill="#ffffff" stroke="none" pointer-events="all"/><path d="M 957.74 529.55 C 956.77 529.61 955.8 529.85 954.96 530.27 L 917.05 548.35 C 915.05 549.32 913.6 551.13 913.12 553.25 L 903.74 593.94 C 903.32 595.81 903.68 597.81 904.71 599.44 C 904.89 599.62 905.01 599.8 905.13 600.04 L 931.38 632.63 C 932.77 634.33 934.88 635.35 937.06 635.35 L 979.14 635.35 C 981.32 635.35 983.43 634.33 984.82 632.63 L 1011.06 599.98 C 1012.4 598.29 1012.94 596.05 1012.46 593.94 L 1003.08 553.25 C 1002.6 551.13 1001.15 549.32 999.15 548.35 L 961.24 530.27 C 960.16 529.73 958.95 529.49 957.74 529.55 Z" fill="#ffffff" stroke="none" pointer-events="all"/><path d="M 957.76 532.72 C 956.85 532.77 955.94 533 955.15 533.4 L 919.51 550.39 C 917.64 551.3 916.27 553.01 915.82 555 L 907.01 593.25 C 906.61 595.01 906.95 596.88 907.92 598.42 C 908.09 598.59 908.2 598.76 908.31 598.99 L 932.98 629.62 C 934.29 631.21 936.28 632.18 938.32 632.18 L 977.88 632.18 C 979.93 632.18 981.92 631.21 983.22 629.62 L 1007.89 598.93 C 1009.14 597.34 1009.65 595.24 1009.2 593.25 L 1000.39 555 C 999.93 553.01 998.57 551.3 996.69 550.39 L 961.06 533.4 C 960.03 532.89 958.9 532.66 957.76 532.72 Z" fill="#2875e2" stroke="none" pointer-events="all"/><path d="M 991.02 563.02 L 991.02 598 L 960.4 614.99 L 960.22 572.2 Z M 925.24 563.02 L 925.24 598 L 955.86 614.99 L 956.04 572.2 Z M 925.24 559.39 L 958.13 549.85 L 991.02 559.39 L 958.13 568.93 Z" fill="#ffffff" stroke="none" pointer-events="all"/><path d="M 1144.57 420.07 C 1143.52 420.13 1142.47 420.39 1141.55 420.85 L 1100.37 440.49 C 1098.21 441.54 1096.63 443.51 1096.1 445.81 L 1085.92 490.01 C 1085.46 492.05 1085.86 494.21 1086.97 495.99 C 1087.17 496.19 1087.3 496.38 1087.43 496.64 L 1115.94 532.04 C 1117.45 533.88 1119.75 535 1122.11 535 L 1167.82 535 C 1170.19 535 1172.49 533.88 1174 532.04 L 1202.5 496.58 C 1203.94 494.74 1204.54 492.31 1204.01 490.01 L 1193.83 445.81 C 1193.31 443.51 1191.73 441.54 1189.56 440.49 L 1148.38 420.85 C 1147.2 420.26 1145.89 420 1144.57 420.07 Z" fill-opacity="0.5" fill="#ffffff" stroke="none" pointer-events="all"/><path d="M 1144.6 423.51 C 1143.61 423.57 1142.62 423.82 1141.76 424.25 L 1103.05 442.71 C 1101.01 443.7 1099.53 445.55 1099.04 447.71 L 1089.47 489.26 C 1089.04 491.17 1089.41 493.21 1090.46 494.88 C 1090.64 495.06 1090.76 495.25 1090.89 495.5 L 1117.68 528.77 C 1119.1 530.5 1121.26 531.55 1123.48 531.55 L 1166.45 531.55 C 1168.68 531.55 1170.84 530.5 1172.26 528.77 L 1199.05 495.43 C 1200.41 493.71 1200.96 491.42 1200.47 489.26 L 1190.9 447.71 C 1190.41 445.55 1188.93 443.7 1186.89 442.71 L 1148.18 424.25 C 1147.07 423.7 1145.83 423.45 1144.6 423.51 Z" fill-opacity="0.5" fill="#00aaff" stroke="none" pointer-events="all"/><path d="M 1179.84 456.95 L 1179.84 494 L 1147.41 512 L 1147.21 466.67 Z M 1110.16 456.95 L 1110.16 494 L 1142.59 512 L 1142.79 466.67 Z M 1110.16 453.1 L 1145 443 L 1179.84 453.1 L 1145 463.21 Z" fill-opacity="0.5" fill="#ffffff" stroke="none" pointer-events="all"/><path d="M 1144.86 458.21 C 1144.5 458.23 1144.15 458.32 1143.84 458.47 L 1130.01 465.07 C 1129.28 465.42 1128.75 466.08 1128.57 466.85 L 1125.15 481.7 C 1125 482.39 1125.13 483.12 1125.51 483.71 C 1125.57 483.78 1125.62 483.84 1125.66 483.93 L 1135.24 495.82 C 1135.74 496.44 1136.52 496.82 1137.31 496.82 L 1152.67 496.82 C 1153.46 496.82 1154.23 496.44 1154.74 495.82 L 1164.32 483.91 C 1164.8 483.29 1165 482.48 1164.82 481.7 L 1161.4 466.85 C 1161.23 466.08 1160.7 465.42 1159.97 465.07 L 1146.14 458.47 C 1145.74 458.27 1145.3 458.18 1144.86 458.21 Z" fill="#ffffff" stroke="none" pointer-events="all"/><path d="M 1144.87 459.36 C 1144.53 459.38 1144.2 459.47 1143.91 459.61 L 1130.91 465.81 C 1130.22 466.15 1129.73 466.77 1129.56 467.49 L 1126.35 481.45 C 1126.2 482.09 1126.32 482.78 1126.68 483.34 C 1126.74 483.4 1126.78 483.46 1126.82 483.55 L 1135.82 494.72 C 1136.3 495.3 1137.03 495.66 1137.77 495.66 L 1152.21 495.66 C 1152.95 495.66 1153.68 495.3 1154.16 494.72 L 1163.16 483.52 C 1163.61 482.94 1163.8 482.18 1163.63 481.45 L 1160.42 467.49 C 1160.25 466.77 1159.76 466.15 1159.07 465.81 L 1146.07 459.61 C 1145.69 459.43 1145.28 459.34 1144.87 459.36 Z" fill="#2875e2" stroke="none" pointer-events="all"/><path d="M 1157 470.42 L 1157 483.19 L 1145.83 489.38 L 1145.76 473.77 Z M 1133 470.42 L 1133 483.19 L 1144.17 489.38 L 1144.24 473.77 Z M 1133 469.1 L 1145 465.62 L 1157 469.1 L 1145 472.58 Z" fill="#ffffff" stroke="none" pointer-events="all"/><path d="M 625.55 129.24 C 624.26 129.32 622.97 129.65 621.83 130.21 L 571.11 154.4 C 568.44 155.7 566.5 158.12 565.85 160.95 L 553.31 215.4 C 552.74 217.91 553.23 220.58 554.6 222.76 C 554.85 223.01 555.01 223.25 555.17 223.57 L 590.28 267.18 C 592.14 269.44 594.97 270.82 597.89 270.82 L 654.19 270.82 C 657.11 270.82 659.94 269.44 661.8 267.18 L 696.91 223.49 C 698.69 221.23 699.42 218.23 698.77 215.4 L 686.23 160.95 C 685.58 158.12 683.64 155.7 680.97 154.4 L 630.25 130.21 C 628.79 129.48 627.17 129.16 625.55 129.24 Z" fill="#ffffff" stroke="none" pointer-events="all"/><path d="M 625.59 133.49 C 624.37 133.56 623.15 133.87 622.09 134.4 L 574.41 157.14 C 571.9 158.35 570.07 160.64 569.46 163.3 L 557.67 214.48 C 557.14 216.83 557.6 219.34 558.89 221.4 C 559.12 221.63 559.27 221.85 559.42 222.16 L 592.43 263.15 C 594.18 265.28 596.84 266.57 599.58 266.57 L 652.51 266.57 C 655.24 266.57 657.91 265.28 659.66 263.15 L 692.66 222.08 C 694.33 219.95 695.02 217.14 694.41 214.48 L 682.62 163.3 C 682.01 160.64 680.19 158.35 677.68 157.14 L 630 134.4 C 628.63 133.71 627.11 133.41 625.59 133.49 Z" fill="#002882" stroke="none" pointer-events="all"/><path d="M 668.99 174.68 L 668.99 220.32 L 629.04 242.49 L 628.81 186.65 Z M 583.17 174.68 L 583.17 220.32 L 623.12 242.49 L 623.35 186.65 Z M 583.17 169.94 L 626.08 157.49 L 668.99 169.94 L 626.08 182.39 Z" fill="#ffffff" stroke="none" pointer-events="all"/></g></svg>