<?xml version="1.0" encoding="UTF-8"?>
<!DOCTYPE svg PUBLIC "-//W3C//DTD SVG 1.1//EN" "http://www.w3.org/Graphics/SVG/1.1/DTD/svg11.dtd">
<svg xmlns="http://www.w3.org/2000/svg" xmlns:xlink="http://www.w3.org/1999/xlink" version="1.1" width="1240px" height="742px" viewBox="-0.5 -0.5 1240 742"><defs><style type="text/css">@import url(https://fonts.googleapis.com/css?family=Roboto);&#xa;</style></defs><g><path d="M 627.46 315.14 C 623.76 315.37 620.06 316.29 616.82 317.91 L 471.86 387.04 C 464.23 390.74 458.68 397.68 456.83 405.77 L 421 561.36 C 419.38 568.53 420.77 576.16 424.7 582.4 C 425.39 583.1 425.85 583.79 426.32 584.71 L 526.66 709.33 C 531.97 715.8 540.06 719.73 548.39 719.73 L 709.3 719.73 C 717.62 719.73 725.72 715.8 731.03 709.33 L 831.37 584.48 C 836.46 578.01 838.54 569.45 836.69 561.36 L 800.85 405.77 C 799.01 397.68 793.46 390.74 785.83 387.04 L 640.87 317.91 C 636.71 315.83 632.08 314.91 627.46 315.14 Z" fill="#ffffff" stroke="none" pointer-events="all"/><path d="M 627.55 327.27 C 624.07 327.49 620.59 328.36 617.55 329.88 L 481.29 394.86 C 474.12 398.33 468.9 404.85 467.16 412.46 L 433.48 558.72 C 431.95 565.46 433.26 572.63 436.95 578.5 C 437.61 579.15 438.04 579.8 438.47 580.67 L 532.79 697.81 C 537.79 703.89 545.4 707.59 553.22 707.59 L 704.48 707.59 C 712.3 707.59 719.91 703.89 724.91 697.81 L 819.23 580.45 C 824.01 574.37 825.97 566.33 824.23 558.72 L 790.54 412.46 C 788.8 404.85 783.59 398.33 776.42 394.86 L 640.15 329.88 C 636.24 327.92 631.89 327.05 627.55 327.27 Z" fill="#002882" stroke="none" pointer-events="all"/><path d="M 754.71 443.16 L 754.71 576.89 L 637.64 641.85 L 636.95 478.24 Z M 503.21 443.16 L 503.21 576.89 L 620.28 641.85 L 620.97 478.24 Z M 503.21 429.26 L 628.96 392.79 L 754.71 429.26 L 628.96 465.74 Z" fill="#ffffff" stroke="none" pointer-events="all"/><path d="M 976.41 0.26 C 972.21 0.53 968.01 1.58 964.33 3.42 L 799.61 81.96 C 790.94 86.17 784.64 94.05 782.53 103.24 L 741.82 280.05 C 739.98 288.19 741.55 296.86 746.02 303.95 C 746.81 304.74 747.33 305.53 747.86 306.58 L 861.87 448.18 C 867.91 455.53 877.11 460 886.57 460 L 1069.41 460 C 1078.87 460 1088.06 455.53 1094.11 448.18 L 1208.12 306.32 C 1213.9 298.96 1216.26 289.24 1214.16 280.05 L 1173.44 103.24 C 1171.34 94.05 1165.04 86.17 1156.37 81.96 L 991.65 3.42 C 986.92 1.05 981.67 0 976.41 0.26 Z" fill-opacity="0.5" fill="#ffffff" stroke="none" pointer-events="all"/><path d="M 976.51 14.05 C 972.56 14.29 968.61 15.28 965.16 17.01 L 810.32 90.85 C 802.17 94.8 796.25 102.21 794.27 110.85 L 755.99 277.04 C 754.26 284.7 755.75 292.85 759.94 299.51 C 760.69 300.26 761.18 301 761.67 301.98 L 868.85 435.09 C 874.53 442 883.17 446.2 892.06 446.2 L 1063.93 446.2 C 1072.82 446.2 1081.47 442 1087.15 435.09 L 1194.32 301.74 C 1199.75 294.82 1201.98 285.69 1200 277.04 L 1161.72 110.85 C 1159.75 102.21 1153.82 94.8 1145.67 90.85 L 990.84 17.01 C 986.39 14.79 981.45 13.8 976.51 14.05 Z" fill-opacity="0.5" fill="#00aaff" stroke="none" pointer-events="all"/><path d="M 1117.47 147.82 L 1117.47 296.02 L 987.74 368 L 986.97 186.69 Z M 838.77 147.82 L 838.77 296.02 L 968.5 368 L 969.27 186.69 Z M 838.77 132.42 L 978.12 92 L 1117.47 132.42 L 978.12 172.84 Z" fill-opacity="0.5" fill="#ffffff" stroke="none" pointer-events="all"/><path d="M 977.12 95.15 C 974.65 95.31 972.18 95.93 970.02 97 L 873.34 143.11 C 868.25 145.58 864.55 150.2 863.32 155.6 L 839.42 259.37 C 838.34 264.15 839.27 269.24 841.89 273.41 C 842.35 273.87 842.66 274.33 842.97 274.95 L 909.89 358.06 C 913.43 362.38 918.83 365 924.38 365 L 1031.7 365 C 1037.25 365 1042.65 362.38 1046.2 358.06 L 1113.12 274.79 C 1116.51 270.48 1117.9 264.77 1116.67 259.37 L 1092.77 155.6 C 1091.53 150.2 1087.83 145.58 1082.74 143.11 L 986.06 97 C 983.29 95.62 980.2 95 977.12 95.15 Z" fill="#ffffff" stroke="none" pointer-events="all"/><path d="M 977.18 103.24 C 974.86 103.39 972.54 103.97 970.51 104.98 L 879.63 148.32 C 874.85 150.64 871.37 154.99 870.21 160.06 L 847.74 257.61 C 846.73 262.11 847.6 266.89 850.06 270.8 C 850.5 271.24 850.79 271.67 851.08 272.25 L 913.98 350.38 C 917.32 354.44 922.39 356.9 927.61 356.9 L 1028.49 356.9 C 1033.71 356.9 1038.78 354.44 1042.11 350.38 L 1105.02 272.11 C 1108.21 268.05 1109.51 262.69 1108.35 257.61 L 1085.89 160.06 C 1084.73 154.99 1081.25 150.64 1076.47 148.32 L 985.58 104.98 C 982.98 103.68 980.08 103.1 977.18 103.24 Z" fill="#2875e2" stroke="none" pointer-events="all"/><path d="M 1059.91 181.76 L 1059.91 268.75 L 983.77 311 L 983.32 204.58 Z M 896.33 181.76 L 896.33 268.75 L 972.47 311 L 972.92 204.58 Z M 896.33 172.72 L 978.12 149 L 1059.91 172.72 L 978.12 196.45 Z" fill="#ffffff" stroke="none" pointer-events="all"/><path d="M 258.41 0.26 C 254.21 0.53 250.01 1.58 246.33 3.42 L 81.61 81.96 C 72.94 86.17 66.64 94.05 64.53 103.24 L 23.82 280.05 C 21.98 288.19 23.55 296.86 28.02 303.95 C 28.81 304.74 29.33 305.53 29.86 306.58 L 143.87 448.18 C 149.91 455.53 159.11 460 168.57 460 L 351.41 460 C 360.87 460 370.06 455.53 376.11 448.18 L 490.12 306.32 C 495.9 298.96 498.26 289.24 496.16 280.05 L 455.44 103.24 C 453.34 94.05 447.04 86.17 438.37 81.96 L 273.65 3.42 C 268.92 1.05 263.67 0 258.41 0.26 Z" fill-opacity="0.5" fill="#ffffff" stroke="none" pointer-events="all"/><path d="M 258.51 14.05 C 254.56 14.29 250.61 15.28 247.16 17.01 L 92.32 90.85 C 84.17 94.8 78.25 102.21 76.27 110.85 L 37.99 277.04 C 36.26 284.7 37.75 292.85 41.94 299.51 C 42.69 300.26 43.18 301 43.67 301.98 L 150.85 435.09 C 156.53 442 165.17 446.2 174.06 446.2 L 345.93 446.2 C 354.82 446.2 363.47 442 369.15 435.09 L 476.32 301.74 C 481.75 294.82 483.98 285.69 482 277.04 L 443.72 110.85 C 441.75 102.21 435.82 94.8 427.67 90.85 L 272.84 17.01 C 268.39 14.79 263.45 13.8 258.51 14.05 Z" fill-opacity="0.5" fill="#00aaff" stroke="none" pointer-events="all"/><path d="M 399.47 147.82 L 399.47 296.02 L 269.74 368 L 268.97 186.69 Z M 120.77 147.82 L 120.77 296.02 L 250.5 368 L 251.27 186.69 Z M 120.77 132.42 L 260.12 92 L 399.47 132.42 L 260.12 172.84 Z" fill-opacity="0.5" fill="#ffffff" stroke="none" pointer-events="all"/><path d="M 259.55 152.82 C 258.13 152.91 256.72 153.27 255.49 153.88 L 200.15 180.27 C 197.24 181.68 195.12 184.33 194.42 187.42 L 180.74 246.81 C 180.12 249.55 180.65 252.46 182.15 254.84 C 182.41 255.11 182.59 255.37 182.77 255.73 L 221.07 303.29 C 223.1 305.76 226.19 307.26 229.36 307.26 L 290.79 307.26 C 293.96 307.26 297.05 305.76 299.08 303.29 L 337.38 255.64 C 339.33 253.17 340.12 249.9 339.41 246.81 L 325.74 187.42 C 325.03 184.33 322.91 181.68 320 180.27 L 264.66 153.88 C 263.08 153.09 261.31 152.74 259.55 152.82 Z" fill="#ffffff" stroke="none" pointer-events="all"/><path d="M 259.58 157.45 C 258.25 157.54 256.93 157.87 255.76 158.45 L 203.75 183.25 C 201.01 184.58 199.02 187.07 198.36 189.97 L 185.5 245.8 C 184.92 248.37 185.42 251.11 186.83 253.35 C 187.08 253.6 187.24 253.85 187.41 254.18 L 223.41 298.9 C 225.32 301.22 228.22 302.63 231.21 302.63 L 288.95 302.63 C 291.93 302.63 294.84 301.22 296.75 298.9 L 332.75 254.1 C 334.57 251.78 335.32 248.71 334.66 245.8 L 321.8 189.97 C 321.13 187.07 319.14 184.58 316.41 183.25 L 264.39 158.45 C 262.9 157.7 261.24 157.37 259.58 157.45 Z" fill="#2875e2" stroke="none" pointer-events="all"/><path d="M 308.12 201.69 L 308.12 252.74 L 263.43 277.54 L 263.17 215.08 Z M 212.12 201.69 L 212.12 252.74 L 256.81 277.54 L 257.07 215.08 Z M 212.12 196.39 L 260.12 182.46 L 308.12 196.39 L 260.12 210.31 Z" fill="#ffffff" stroke="none" pointer-events="all"/><path d="M 259.08 460.16 C 256.52 460.32 253.96 460.96 251.72 462.08 L 151.46 509.89 C 146.18 512.45 142.35 517.24 141.07 522.84 L 116.28 630.46 C 115.16 635.41 116.12 640.69 118.84 645.01 C 119.32 645.49 119.64 645.97 119.96 646.61 L 189.36 732.79 C 193.04 737.27 198.63 739.99 204.39 739.99 L 315.68 739.99 C 321.44 739.99 327.03 737.27 330.71 732.79 L 400.11 646.45 C 403.63 641.97 405.07 636.05 403.79 630.46 L 379 522.84 C 377.72 517.24 373.88 512.45 368.61 509.89 L 268.35 462.08 C 265.47 460.64 262.27 460 259.08 460.16 Z" fill-opacity="0.5" fill="#ffffff" stroke="none" pointer-events="all"/><path d="M 259.14 468.55 C 256.73 468.7 254.33 469.3 252.22 470.35 L 157.98 515.3 C 153.02 517.7 149.41 522.21 148.21 527.47 L 124.91 628.63 C 123.86 633.29 124.76 638.25 127.32 642.31 C 127.77 642.76 128.07 643.21 128.37 643.81 L 193.6 724.83 C 197.06 729.03 202.32 731.59 207.73 731.59 L 312.35 731.59 C 317.76 731.59 323.02 729.03 326.48 724.83 L 391.71 643.66 C 395.02 639.45 396.37 633.89 395.17 628.63 L 371.87 527.47 C 370.67 522.21 367.06 517.7 362.1 515.3 L 267.86 470.35 C 265.15 469 262.14 468.4 259.14 468.55 Z" fill-opacity="0.5" fill="#00aaff" stroke="none" pointer-events="all"/><path d="M 344.93 549.97 L 344.93 640.18 L 265.97 683.99 L 265.5 573.64 Z M 175.3 549.97 L 175.3 640.18 L 254.26 683.99 L 254.73 573.64 Z M 175.3 540.6 L 260.11 516 L 344.93 540.6 L 260.11 565.2 Z" fill-opacity="0.5" fill="#ffffff" stroke="none" pointer-events="all"/><path d="M 259.51 517.92 C 258.01 518.01 256.5 518.39 255.19 519.05 L 196.34 547.11 C 193.24 548.61 190.99 551.43 190.24 554.71 L 175.69 617.88 C 175.04 620.79 175.6 623.88 177.2 626.42 C 177.48 626.7 177.66 626.98 177.85 627.36 L 218.59 677.94 C 220.74 680.57 224.03 682.17 227.41 682.17 L 292.73 682.17 C 296.11 682.17 299.4 680.57 301.55 677.94 L 342.29 627.26 C 344.35 624.63 345.2 621.16 344.45 617.88 L 329.9 554.71 C 329.15 551.43 326.9 548.61 323.8 547.11 L 264.95 519.05 C 263.26 518.2 261.38 517.83 259.51 517.92 Z" fill="#ffffff" stroke="none" pointer-events="all"/><path d="M 259.54 522.84 C 258.13 522.93 256.72 523.29 255.49 523.9 L 200.17 550.28 C 197.26 551.69 195.14 554.34 194.43 557.43 L 180.76 616.8 C 180.14 619.54 180.67 622.45 182.17 624.83 C 182.44 625.1 182.61 625.36 182.79 625.71 L 221.08 673.27 C 223.11 675.74 226.19 677.24 229.37 677.24 L 290.77 677.24 C 293.95 677.24 297.04 675.74 299.07 673.27 L 337.36 625.63 C 339.3 623.16 340.09 619.89 339.39 616.8 L 325.71 557.43 C 325.01 554.34 322.89 551.69 319.98 550.28 L 264.66 523.9 C 263.07 523.11 261.31 522.76 259.54 522.84 Z" fill="#2875e2" stroke="none" pointer-events="all"/><path d="M 309.9 570.64 L 309.9 623.58 L 263.56 649.3 L 263.28 584.53 Z M 210.33 570.64 L 210.33 623.58 L 256.68 649.3 L 256.95 584.53 Z M 210.33 565.13 L 260.12 550.69 L 309.9 565.13 L 260.12 579.57 Z" fill="#ffffff" stroke="none" pointer-events="all"/><path d="M 977.08 460.16 C 974.52 460.32 971.96 460.96 969.72 462.08 L 869.46 509.89 C 864.19 512.45 860.35 517.25 859.07 522.84 L 834.28 630.46 C 833.16 635.42 834.12 640.7 836.84 645.01 C 837.32 645.49 837.64 645.97 837.96 646.61 L 907.36 732.8 C 911.04 737.28 916.64 740 922.39 740 L 1033.69 740 C 1039.44 740 1045.04 737.28 1048.72 732.8 L 1118.12 646.45 C 1121.64 641.98 1123.08 636.06 1121.8 630.46 L 1097.01 522.84 C 1095.73 517.25 1091.89 512.45 1086.62 509.89 L 986.36 462.08 C 983.48 460.64 980.28 460 977.08 460.16 Z" fill-opacity="0.5" fill="#ffffff" stroke="none" pointer-events="all"/><path d="M 977.14 468.55 C 974.74 468.7 972.33 469.3 970.23 470.35 L 875.98 515.3 C 871.02 517.7 867.41 522.21 866.21 527.47 L 842.91 628.63 C 841.86 633.29 842.76 638.25 845.32 642.31 C 845.77 642.76 846.07 643.22 846.37 643.82 L 911.61 724.84 C 915.06 729.04 920.32 731.6 925.74 731.6 L 1030.35 731.6 C 1035.77 731.6 1041.03 729.04 1044.48 724.84 L 1109.72 643.67 C 1113.03 639.46 1114.38 633.9 1113.18 628.63 L 1089.88 527.47 C 1088.68 522.21 1085.07 517.7 1080.11 515.3 L 985.86 470.35 C 983.16 469 980.15 468.4 977.14 468.55 Z" fill-opacity="0.5" fill="#00aaff" stroke="none" pointer-events="all"/><path d="M 1062.94 549.97 L 1062.94 640.18 L 983.98 684 L 983.51 573.64 Z M 893.3 549.97 L 893.3 640.18 L 972.26 684 L 972.73 573.64 Z M 893.3 540.6 L 978.12 516 L 1062.94 540.6 L 978.12 565.21 Z" fill-opacity="0.5" fill="#ffffff" stroke="none" pointer-events="all"/><path d="M 977.77 553.02 C 976.91 553.08 976.05 553.29 975.3 553.67 L 941.62 569.73 C 939.85 570.59 938.56 572.2 938.13 574.08 L 929.8 610.23 C 929.42 611.9 929.75 613.67 930.66 615.12 C 930.82 615.28 930.93 615.44 931.04 615.66 L 954.35 644.61 C 955.59 646.12 957.47 647.03 959.4 647.03 L 996.79 647.03 C 998.72 647.03 1000.6 646.12 1001.84 644.61 L 1025.15 615.61 C 1026.33 614.1 1026.82 612.11 1026.39 610.23 L 1018.06 574.08 C 1017.63 572.2 1016.34 570.59 1014.57 569.73 L 980.89 553.67 C 979.92 553.18 978.85 552.97 977.77 553.02 Z" fill="#ffffff" stroke="none" pointer-events="all"/><path d="M 977.79 555.84 C 976.98 555.89 976.18 556.09 975.47 556.45 L 943.81 571.55 C 942.14 572.35 940.93 573.87 940.53 575.64 L 932.7 609.62 C 932.35 611.18 932.65 612.85 933.51 614.21 C 933.66 614.37 933.76 614.52 933.86 614.72 L 955.78 641.94 C 956.94 643.35 958.7 644.21 960.52 644.21 L 995.67 644.21 C 997.48 644.21 999.25 643.35 1000.41 641.94 L 1022.33 614.67 C 1023.44 613.25 1023.89 611.39 1023.49 609.62 L 1015.66 575.64 C 1015.26 573.87 1014.05 572.35 1012.38 571.55 L 980.72 556.45 C 979.81 555.99 978.8 555.79 977.79 555.84 Z" fill="#2875e2" stroke="none" pointer-events="all"/><path d="M 1007.34 582.77 L 1007.34 613.84 L 980.14 628.93 L 979.98 590.92 Z M 948.9 582.77 L 948.9 613.84 L 976.1 628.93 L 976.26 590.92 Z M 948.9 579.54 L 978.12 571.07 L 1007.34 579.54 L 978.12 588.01 Z" fill="#ffffff" stroke="none" pointer-events="all"/><path d="M 1144.69 420.07 C 1143.64 420.13 1142.59 420.39 1141.67 420.85 L 1100.49 440.49 C 1098.33 441.54 1096.75 443.51 1096.22 445.81 L 1086.04 490.01 C 1085.58 492.05 1085.98 494.21 1087.09 495.99 C 1087.29 496.19 1087.42 496.38 1087.55 496.64 L 1116.06 532.04 C 1117.57 533.88 1119.87 535 1122.23 535 L 1167.94 535 C 1170.31 535 1172.61 533.88 1174.12 532.04 L 1202.62 496.58 C 1204.06 494.74 1204.66 492.31 1204.13 490.01 L 1193.95 445.81 C 1193.43 443.51 1191.85 441.54 1189.68 440.49 L 1148.5 420.85 C 1147.32 420.26 1146.01 420 1144.69 420.07 Z" fill-opacity="0.5" fill="#ffffff" stroke="none" pointer-events="all"/><path d="M 1144.72 423.51 C 1143.73 423.57 1142.74 423.82 1141.88 424.25 L 1103.17 442.71 C 1101.13 443.7 1099.65 445.55 1099.16 447.71 L 1089.59 489.26 C 1089.16 491.17 1089.53 493.21 1090.58 494.88 C 1090.76 495.06 1090.88 495.25 1091.01 495.5 L 1117.8 528.77 C 1119.22 530.5 1121.38 531.55 1123.6 531.55 L 1166.57 531.55 C 1168.8 531.55 1170.96 530.5 1172.38 528.77 L 1199.17 495.43 C 1200.53 493.71 1201.08 491.42 1200.59 489.26 L 1191.02 447.71 C 1190.53 445.55 1189.05 443.7 1187.01 442.71 L 1148.3 424.25 C 1147.19 423.7 1145.95 423.45 1144.72 423.51 Z" fill-opacity="0.5" fill="#00aaff" stroke="none" pointer-events="all"/><path d="M 1179.96 456.95 L 1179.96 494 L 1147.53 512 L 1147.33 466.67 Z M 1110.28 456.95 L 1110.28 494 L 1142.71 512 L 1142.91 466.67 Z M 1110.28 453.1 L 1145.12 443 L 1179.96 453.1 L 1145.12 463.21 Z" fill-opacity="0.5" fill="#ffffff" stroke="none" pointer-events="all"/><path d="M 1144.98 458.21 C 1144.62 458.23 1144.27 458.32 1143.96 458.47 L 1130.13 465.07 C 1129.4 465.42 1128.87 466.08 1128.69 466.85 L 1125.27 481.7 C 1125.12 482.39 1125.25 483.12 1125.63 483.71 C 1125.69 483.78 1125.74 483.84 1125.78 483.93 L 1135.36 495.82 C 1135.86 496.44 1136.64 496.82 1137.43 496.82 L 1152.79 496.82 C 1153.58 496.82 1154.35 496.44 1154.86 495.82 L 1164.44 483.91 C 1164.92 483.29 1165.12 482.48 1164.94 481.7 L 1161.52 466.85 C 1161.35 466.08 1160.82 465.42 1160.09 465.07 L 1146.26 458.47 C 1145.86 458.27 1145.42 458.18 1144.98 458.21 Z" fill="#ffffff" stroke="none" pointer-events="all"/><path d="M 1144.99 459.36 C 1144.65 459.38 1144.32 459.47 1144.03 459.61 L 1131.03 465.81 C 1130.34 466.15 1129.85 466.77 1129.68 467.49 L 1126.47 481.45 C 1126.32 482.09 1126.44 482.78 1126.8 483.34 C 1126.86 483.4 1126.9 483.46 1126.94 483.55 L 1135.94 494.72 C 1136.42 495.3 1137.15 495.66 1137.89 495.66 L 1152.33 495.66 C 1153.07 495.66 1153.8 495.3 1154.28 494.72 L 1163.28 483.52 C 1163.73 482.94 1163.92 482.18 1163.75 481.45 L 1160.54 467.49 C 1160.37 466.77 1159.88 466.15 1159.19 465.81 L 1146.19 459.61 C 1145.81 459.43 1145.4 459.34 1144.99 459.36 Z" fill="#2875e2" stroke="none" pointer-events="all"/><path d="M 1157.12 470.42 L 1157.12 483.19 L 1145.95 489.38 L 1145.88 473.77 Z M 1133.12 470.42 L 1133.12 483.19 L 1144.29 489.38 L 1144.36 473.77 Z M 1133.12 469.1 L 1145.12 465.62 L 1157.12 469.1 L 1145.12 472.58 Z" fill="#ffffff" stroke="none" pointer-events="all"/><path d="M 617.79 14.84 C 614.53 15.05 611.26 15.86 608.41 17.29 L 480.44 78.32 C 473.71 81.58 468.81 87.7 467.18 94.85 L 435.54 232.2 C 434.11 238.53 435.34 245.26 438.81 250.77 C 439.42 251.38 439.83 252 440.24 252.81 L 528.81 362.82 C 533.5 368.53 540.65 372 547.99 372 L 690.04 372 C 697.39 372 704.53 368.53 709.23 362.82 L 797.8 252.61 C 802.29 246.89 804.13 239.34 802.49 232.2 L 770.86 94.85 C 769.23 87.7 764.33 81.58 757.59 78.32 L 629.63 17.29 C 625.96 15.46 621.88 14.64 617.79 14.84 Z" fill="#ffffff" stroke="none" pointer-events="all"/><path d="M 617.87 25.55 C 614.8 25.74 611.73 26.51 609.05 27.85 L 488.76 85.22 C 482.43 88.29 477.83 94.04 476.29 100.76 L 446.56 229.87 C 445.21 235.81 446.36 242.14 449.63 247.32 C 450.2 247.9 450.59 248.48 450.97 249.24 L 534.23 352.65 C 538.64 358.02 545.36 361.28 552.26 361.28 L 685.79 361.28 C 692.69 361.28 699.41 358.02 703.82 352.65 L 787.08 249.05 C 791.3 243.68 793.03 236.58 791.49 229.87 L 761.76 100.76 C 760.22 94.04 755.62 88.29 749.29 85.22 L 629 27.85 C 625.55 26.13 621.71 25.36 617.87 25.55 Z" fill="#ff6666" stroke="none" pointer-events="all"/><path d="M 727.37 129.47 L 727.37 244.61 L 626.6 300.53 L 626 159.68 Z M 510.87 129.47 L 510.87 244.61 L 611.64 300.53 L 612.24 159.68 Z M 510.87 117.51 L 619.12 86.11 L 727.37 117.51 L 619.12 148.91 Z" fill="#ffffff" stroke="none" pointer-events="all"/></g></svg>