<?xml version="1.0" encoding="UTF-8"?>
<!DOCTYPE svg PUBLIC "-//W3C//DTD SVG 1.1//EN" "http://www.w3.org/Graphics/SVG/1.1/DTD/svg11.dtd">
<svg xmlns="http://www.w3.org/2000/svg" xmlns:xlink="http://www.w3.org/1999/xlink" version="1.1" width="1240px" height="742px" viewBox="-0.5 -0.5 1240 742"><defs><style type="text/css">@import url(https://fonts.googleapis.com/css?family=Roboto);&#xa;</style></defs><g><path d="M 627.48 315.14 C 623.78 315.37 620.08 316.29 616.84 317.91 L 471.88 387.04 C 464.25 390.74 458.7 397.68 456.85 405.77 L 421.02 561.36 C 419.4 568.53 420.79 576.16 424.72 582.4 C 425.41 583.1 425.87 583.79 426.34 584.71 L 526.68 709.33 C 531.99 715.8 540.08 719.73 548.41 719.73 L 709.32 719.73 C 717.64 719.73 725.74 715.8 731.05 709.33 L 831.39 584.48 C 836.48 578.01 838.56 569.45 836.71 561.36 L 800.87 405.77 C 799.03 397.68 793.48 390.74 785.85 387.04 L 640.89 317.91 C 636.73 315.83 632.1 314.91 627.48 315.14 Z" fill="#ffffff" stroke="none" pointer-events="all"/><path d="M 627.57 327.27 C 624.09 327.49 620.61 328.36 617.57 329.88 L 481.31 394.86 C 474.14 398.33 468.92 404.85 467.18 412.46 L 433.5 558.72 C 431.97 565.46 433.28 572.63 436.97 578.5 C 437.63 579.15 438.06 579.8 438.49 580.67 L 532.81 697.81 C 537.81 703.89 545.42 707.59 553.24 707.59 L 704.5 707.59 C 712.32 707.59 719.93 703.89 724.93 697.81 L 819.25 580.45 C 824.03 574.37 825.99 566.33 824.25 558.72 L 790.56 412.46 C 788.82 404.85 783.61 398.33 776.44 394.86 L 640.17 329.88 C 636.26 327.92 631.91 327.05 627.57 327.27 Z" fill="#002882" stroke="none" pointer-events="all"/><path d="M 754.73 443.16 L 754.73 576.89 L 637.66 641.85 L 636.97 478.24 Z M 503.23 443.16 L 503.23 576.89 L 620.3 641.85 L 620.99 478.24 Z M 503.23 429.26 L 628.98 392.79 L 754.73 429.26 L 628.98 465.74 Z" fill="#ffffff" stroke="none" pointer-events="all"/><path d="M 976.43 0.26 C 972.23 0.53 968.03 1.58 964.35 3.42 L 799.63 81.96 C 790.96 86.17 784.66 94.05 782.55 103.24 L 741.84 280.05 C 740 288.19 741.57 296.86 746.04 303.95 C 746.83 304.74 747.35 305.53 747.88 306.58 L 861.89 448.18 C 867.93 455.53 877.13 460 886.59 460 L 1069.43 460 C 1078.89 460 1088.08 455.53 1094.13 448.18 L 1208.14 306.32 C 1213.92 298.96 1216.28 289.24 1214.18 280.05 L 1173.46 103.24 C 1171.36 94.05 1165.06 86.17 1156.39 81.96 L 991.67 3.42 C 986.94 1.05 981.69 0 976.43 0.26 Z" fill-opacity="0.5" fill="#ffffff" stroke="none" pointer-events="all"/><path d="M 976.53 14.05 C 972.58 14.29 968.63 15.28 965.18 17.01 L 810.34 90.85 C 802.19 94.8 796.27 102.21 794.29 110.85 L 756.01 277.04 C 754.28 284.7 755.77 292.85 759.96 299.51 C 760.71 300.26 761.2 301 761.69 301.98 L 868.87 435.09 C 874.55 442 883.19 446.2 892.08 446.2 L 1063.95 446.2 C 1072.84 446.2 1081.49 442 1087.17 435.09 L 1194.34 301.74 C 1199.77 294.82 1202 285.69 1200.02 277.04 L 1161.74 110.85 C 1159.77 102.21 1153.84 94.8 1145.69 90.85 L 990.86 17.01 C 986.41 14.79 981.47 13.8 976.53 14.05 Z" fill-opacity="0.5" fill="#00aaff" stroke="none" pointer-events="all"/><path d="M 1117.49 147.82 L 1117.49 296.02 L 987.76 368 L 986.99 186.69 Z M 838.79 147.82 L 838.79 296.02 L 968.52 368 L 969.29 186.69 Z M 838.79 132.42 L 978.14 92 L 1117.49 132.42 L 978.14 172.84 Z" fill-opacity="0.5" fill="#ffffff" stroke="none" pointer-events="all"/><path d="M 977.14 95.15 C 974.67 95.31 972.2 95.93 970.04 97 L 873.36 143.11 C 868.27 145.58 864.57 150.2 863.34 155.6 L 839.44 259.37 C 838.36 264.15 839.29 269.24 841.91 273.41 C 842.37 273.87 842.68 274.33 842.99 274.95 L 909.91 358.06 C 913.45 362.38 918.85 365 924.4 365 L 1031.72 365 C 1037.27 365 1042.67 362.38 1046.22 358.06 L 1113.14 274.79 C 1116.53 270.48 1117.92 264.77 1116.69 259.37 L 1092.79 155.6 C 1091.55 150.2 1087.85 145.58 1082.76 143.11 L 986.08 97 C 983.31 95.62 980.22 95 977.14 95.15 Z" fill="#ffffff" stroke="none" pointer-events="all"/><path d="M 977.2 103.24 C 974.88 103.39 972.56 103.97 970.53 104.98 L 879.65 148.32 C 874.87 150.64 871.39 154.99 870.23 160.06 L 847.76 257.61 C 846.75 262.11 847.62 266.89 850.08 270.8 C 850.52 271.24 850.81 271.67 851.1 272.25 L 914 350.38 C 917.34 354.44 922.41 356.9 927.63 356.9 L 1028.51 356.9 C 1033.73 356.9 1038.8 354.44 1042.13 350.38 L 1105.04 272.11 C 1108.23 268.05 1109.53 262.69 1108.37 257.61 L 1085.91 160.06 C 1084.75 154.99 1081.27 150.64 1076.49 148.32 L 985.6 104.98 C 983 103.68 980.1 103.1 977.2 103.24 Z" fill="#2875e2" stroke="none" pointer-events="all"/><path d="M 1059.93 181.76 L 1059.93 268.75 L 983.79 311 L 983.34 204.58 Z M 896.35 181.76 L 896.35 268.75 L 972.49 311 L 972.94 204.58 Z M 896.35 172.72 L 978.14 149 L 1059.93 172.72 L 978.14 196.45 Z" fill="#ffffff" stroke="none" pointer-events="all"/><path d="M 258.43 0.26 C 254.23 0.53 250.03 1.58 246.35 3.42 L 81.63 81.96 C 72.96 86.17 66.66 94.05 64.55 103.24 L 23.84 280.05 C 22 288.19 23.57 296.86 28.04 303.95 C 28.83 304.74 29.35 305.53 29.88 306.58 L 143.89 448.18 C 149.93 455.53 159.13 460 168.59 460 L 351.43 460 C 360.89 460 370.08 455.53 376.13 448.18 L 490.14 306.32 C 495.92 298.96 498.28 289.24 496.18 280.05 L 455.46 103.24 C 453.36 94.05 447.06 86.17 438.39 81.96 L 273.67 3.42 C 268.94 1.05 263.69 0 258.43 0.26 Z" fill-opacity="0.5" fill="#ffffff" stroke="none" pointer-events="all"/><path d="M 258.53 14.05 C 254.58 14.29 250.63 15.28 247.18 17.01 L 92.34 90.85 C 84.19 94.8 78.27 102.21 76.29 110.85 L 38.01 277.04 C 36.28 284.7 37.77 292.85 41.96 299.51 C 42.71 300.26 43.2 301 43.69 301.98 L 150.87 435.09 C 156.55 442 165.19 446.2 174.08 446.2 L 345.95 446.2 C 354.84 446.2 363.49 442 369.17 435.09 L 476.34 301.74 C 481.77 294.82 484 285.69 482.02 277.04 L 443.74 110.85 C 441.77 102.21 435.84 94.8 427.69 90.85 L 272.86 17.01 C 268.41 14.79 263.47 13.8 258.53 14.05 Z" fill-opacity="0.5" fill="#00aaff" stroke="none" pointer-events="all"/><path d="M 399.49 147.82 L 399.49 296.02 L 269.76 368 L 268.99 186.69 Z M 120.79 147.82 L 120.79 296.02 L 250.52 368 L 251.29 186.69 Z M 120.79 132.42 L 260.14 92 L 399.49 132.42 L 260.14 172.84 Z" fill-opacity="0.5" fill="#ffffff" stroke="none" pointer-events="all"/><path d="M 259.57 152.82 C 258.15 152.91 256.74 153.27 255.51 153.88 L 200.17 180.27 C 197.26 181.68 195.14 184.33 194.44 187.42 L 180.76 246.81 C 180.14 249.55 180.67 252.46 182.17 254.84 C 182.43 255.11 182.61 255.37 182.79 255.73 L 221.09 303.29 C 223.12 305.76 226.21 307.26 229.38 307.26 L 290.81 307.26 C 293.98 307.26 297.07 305.76 299.1 303.29 L 337.4 255.64 C 339.35 253.17 340.14 249.9 339.43 246.81 L 325.76 187.42 C 325.05 184.33 322.93 181.68 320.02 180.27 L 264.68 153.88 C 263.1 153.09 261.33 152.74 259.57 152.82 Z" fill="#ffffff" stroke="none" pointer-events="all"/><path d="M 259.6 157.45 C 258.27 157.54 256.95 157.87 255.78 158.45 L 203.77 183.25 C 201.03 184.58 199.04 187.07 198.38 189.97 L 185.52 245.8 C 184.94 248.37 185.44 251.11 186.85 253.35 C 187.1 253.6 187.26 253.85 187.43 254.18 L 223.43 298.9 C 225.34 301.22 228.24 302.63 231.23 302.63 L 288.97 302.63 C 291.95 302.63 294.86 301.22 296.77 298.9 L 332.77 254.1 C 334.59 251.78 335.34 248.71 334.68 245.8 L 321.82 189.97 C 321.15 187.07 319.16 184.58 316.43 183.25 L 264.41 158.45 C 262.92 157.7 261.26 157.37 259.6 157.45 Z" fill="#2875e2" stroke="none" pointer-events="all"/><path d="M 308.14 201.69 L 308.14 252.74 L 263.45 277.54 L 263.19 215.08 Z M 212.14 201.69 L 212.14 252.74 L 256.83 277.54 L 257.09 215.08 Z M 212.14 196.39 L 260.14 182.46 L 308.14 196.39 L 260.14 210.31 Z" fill="#ffffff" stroke="none" pointer-events="all"/><path d="M 259.1 460.16 C 256.54 460.32 253.98 460.96 251.74 462.08 L 151.48 509.89 C 146.2 512.45 142.37 517.24 141.09 522.84 L 116.3 630.46 C 115.18 635.41 116.14 640.69 118.86 645.01 C 119.34 645.49 119.66 645.97 119.98 646.61 L 189.38 732.79 C 193.06 737.27 198.65 739.99 204.41 739.99 L 315.7 739.99 C 321.46 739.99 327.05 737.27 330.73 732.79 L 400.13 646.45 C 403.65 641.97 405.09 636.05 403.81 630.46 L 379.02 522.84 C 377.74 517.24 373.9 512.45 368.63 509.89 L 268.37 462.08 C 265.49 460.64 262.29 460 259.1 460.16 Z" fill-opacity="0.5" fill="#ffffff" stroke="none" pointer-events="all"/><path d="M 259.16 468.55 C 256.75 468.7 254.35 469.3 252.24 470.35 L 158 515.3 C 153.04 517.7 149.43 522.21 148.23 527.47 L 124.93 628.63 C 123.88 633.29 124.78 638.25 127.34 642.31 C 127.79 642.76 128.09 643.21 128.39 643.81 L 193.62 724.83 C 197.08 729.03 202.34 731.59 207.75 731.59 L 312.37 731.59 C 317.78 731.59 323.04 729.03 326.5 724.83 L 391.73 643.66 C 395.04 639.45 396.39 633.89 395.19 628.63 L 371.89 527.47 C 370.69 522.21 367.08 517.7 362.12 515.3 L 267.88 470.35 C 265.17 469 262.16 468.4 259.16 468.55 Z" fill-opacity="0.5" fill="#00aaff" stroke="none" pointer-events="all"/><path d="M 344.95 549.97 L 344.95 640.18 L 265.99 683.99 L 265.52 573.64 Z M 175.32 549.97 L 175.32 640.18 L 254.28 683.99 L 254.75 573.64 Z M 175.32 540.6 L 260.13 516 L 344.95 540.6 L 260.13 565.2 Z" fill-opacity="0.5" fill="#ffffff" stroke="none" pointer-events="all"/><path d="M 259.53 517.92 C 258.03 518.01 256.52 518.39 255.21 519.05 L 196.36 547.11 C 193.26 548.61 191.01 551.43 190.26 554.71 L 175.71 617.88 C 175.06 620.79 175.62 623.88 177.22 626.42 C 177.5 626.7 177.68 626.98 177.87 627.36 L 218.61 677.94 C 220.76 680.57 224.05 682.17 227.43 682.17 L 292.75 682.17 C 296.13 682.17 299.42 680.57 301.57 677.94 L 342.31 627.26 C 344.37 624.63 345.22 621.16 344.47 617.88 L 329.92 554.71 C 329.17 551.43 326.92 548.61 323.82 547.11 L 264.97 519.05 C 263.28 518.2 261.4 517.83 259.53 517.92 Z" fill="#ffffff" stroke="none" pointer-events="all"/><path d="M 259.56 522.84 C 258.15 522.93 256.74 523.29 255.51 523.9 L 200.19 550.28 C 197.28 551.69 195.16 554.34 194.45 557.43 L 180.78 616.8 C 180.16 619.54 180.69 622.45 182.19 624.83 C 182.46 625.1 182.63 625.36 182.81 625.71 L 221.1 673.27 C 223.13 675.74 226.21 677.24 229.39 677.24 L 290.79 677.24 C 293.97 677.24 297.06 675.74 299.09 673.27 L 337.38 625.63 C 339.32 623.16 340.11 619.89 339.41 616.8 L 325.73 557.43 C 325.03 554.34 322.91 551.69 320 550.28 L 264.68 523.9 C 263.09 523.11 261.33 522.76 259.56 522.84 Z" fill="#2875e2" stroke="none" pointer-events="all"/><path d="M 309.92 570.64 L 309.92 623.58 L 263.58 649.3 L 263.3 584.53 Z M 210.35 570.64 L 210.35 623.58 L 256.7 649.3 L 256.97 584.53 Z M 210.35 565.13 L 260.14 550.69 L 309.92 565.13 L 260.14 579.57 Z" fill="#ffffff" stroke="none" pointer-events="all"/><path d="M 977.1 460.16 C 974.54 460.32 971.98 460.96 969.74 462.08 L 869.48 509.89 C 864.21 512.45 860.37 517.25 859.09 522.84 L 834.3 630.46 C 833.18 635.42 834.14 640.7 836.86 645.01 C 837.34 645.49 837.66 645.97 837.98 646.61 L 907.38 732.8 C 911.06 737.28 916.66 740 922.41 740 L 1033.71 740 C 1039.46 740 1045.06 737.28 1048.74 732.8 L 1118.14 646.45 C 1121.66 641.98 1123.1 636.06 1121.82 630.46 L 1097.03 522.84 C 1095.75 517.25 1091.91 512.45 1086.64 509.89 L 986.38 462.08 C 983.5 460.64 980.3 460 977.1 460.16 Z" fill-opacity="0.5" fill="#ffffff" stroke="none" pointer-events="all"/><path d="M 977.16 468.55 C 974.76 468.7 972.35 469.3 970.25 470.35 L 876 515.3 C 871.04 517.7 867.43 522.21 866.23 527.47 L 842.93 628.63 C 841.88 633.29 842.78 638.25 845.34 642.31 C 845.79 642.76 846.09 643.22 846.39 643.82 L 911.63 724.84 C 915.08 729.04 920.34 731.6 925.76 731.6 L 1030.37 731.6 C 1035.79 731.6 1041.05 729.04 1044.5 724.84 L 1109.74 643.67 C 1113.05 639.46 1114.4 633.9 1113.2 628.63 L 1089.9 527.47 C 1088.7 522.21 1085.09 517.7 1080.13 515.3 L 985.88 470.35 C 983.18 469 980.17 468.4 977.16 468.55 Z" fill-opacity="0.5" fill="#00aaff" stroke="none" pointer-events="all"/><path d="M 1062.96 549.97 L 1062.96 640.18 L 984 684 L 983.53 573.64 Z M 893.32 549.97 L 893.32 640.18 L 972.28 684 L 972.75 573.64 Z M 893.32 540.6 L 978.14 516 L 1062.96 540.6 L 978.14 565.21 Z" fill-opacity="0.5" fill="#ffffff" stroke="none" pointer-events="all"/><path d="M 977.79 553.02 C 976.93 553.08 976.07 553.29 975.32 553.67 L 941.64 569.73 C 939.87 570.59 938.58 572.2 938.15 574.08 L 929.82 610.23 C 929.44 611.9 929.77 613.67 930.68 615.12 C 930.84 615.28 930.95 615.44 931.06 615.66 L 954.37 644.61 C 955.61 646.12 957.49 647.03 959.42 647.03 L 996.81 647.03 C 998.74 647.03 1000.62 646.12 1001.86 644.61 L 1025.17 615.61 C 1026.35 614.1 1026.84 612.11 1026.41 610.23 L 1018.08 574.08 C 1017.65 572.2 1016.36 570.59 1014.59 569.73 L 980.91 553.67 C 979.94 553.18 978.87 552.97 977.79 553.02 Z" fill="#ffffff" stroke="none" pointer-events="all"/><path d="M 977.81 555.84 C 977 555.89 976.2 556.09 975.49 556.45 L 943.83 571.55 C 942.16 572.35 940.95 573.87 940.55 575.64 L 932.72 609.62 C 932.37 611.18 932.67 612.85 933.53 614.21 C 933.68 614.37 933.78 614.52 933.88 614.72 L 955.8 641.94 C 956.96 643.35 958.72 644.21 960.54 644.21 L 995.69 644.21 C 997.5 644.21 999.27 643.35 1000.43 641.94 L 1022.35 614.67 C 1023.46 613.25 1023.91 611.39 1023.51 609.62 L 1015.68 575.64 C 1015.28 573.87 1014.07 572.35 1012.4 571.55 L 980.74 556.45 C 979.83 555.99 978.82 555.79 977.81 555.84 Z" fill="#2875e2" stroke="none" pointer-events="all"/><path d="M 1007.36 582.77 L 1007.36 613.84 L 980.16 628.93 L 980 590.92 Z M 948.92 582.77 L 948.92 613.84 L 976.12 628.93 L 976.28 590.92 Z M 948.92 579.54 L 978.14 571.07 L 1007.36 579.54 L 978.14 588.01 Z" fill="#ffffff" stroke="none" pointer-events="all"/><path d="M 1144.71 420.07 C 1143.66 420.13 1142.61 420.39 1141.69 420.85 L 1100.51 440.49 C 1098.35 441.54 1096.77 443.51 1096.24 445.81 L 1086.06 490.01 C 1085.6 492.05 1086 494.21 1087.11 495.99 C 1087.31 496.19 1087.44 496.38 1087.57 496.64 L 1116.08 532.04 C 1117.59 533.88 1119.89 535 1122.25 535 L 1167.96 535 C 1170.33 535 1172.63 533.88 1174.14 532.04 L 1202.64 496.58 C 1204.08 494.74 1204.68 492.31 1204.15 490.01 L 1193.97 445.81 C 1193.45 443.51 1191.87 441.54 1189.7 440.49 L 1148.52 420.85 C 1147.34 420.26 1146.03 420 1144.71 420.07 Z" fill-opacity="0.5" fill="#ffffff" stroke="none" pointer-events="all"/><path d="M 1144.74 423.51 C 1143.75 423.57 1142.76 423.82 1141.9 424.25 L 1103.19 442.71 C 1101.15 443.7 1099.67 445.55 1099.18 447.71 L 1089.61 489.26 C 1089.18 491.17 1089.55 493.21 1090.6 494.88 C 1090.78 495.06 1090.9 495.25 1091.03 495.5 L 1117.82 528.77 C 1119.24 530.5 1121.4 531.55 1123.62 531.55 L 1166.59 531.55 C 1168.82 531.55 1170.98 530.5 1172.4 528.77 L 1199.19 495.43 C 1200.55 493.71 1201.1 491.42 1200.61 489.26 L 1191.04 447.71 C 1190.55 445.55 1189.07 443.7 1187.03 442.71 L 1148.32 424.25 C 1147.21 423.7 1145.97 423.45 1144.74 423.51 Z" fill-opacity="0.5" fill="#00aaff" stroke="none" pointer-events="all"/><path d="M 1179.98 456.95 L 1179.98 494 L 1147.55 512 L 1147.35 466.67 Z M 1110.3 456.95 L 1110.3 494 L 1142.73 512 L 1142.93 466.67 Z M 1110.3 453.1 L 1145.14 443 L 1179.98 453.1 L 1145.14 463.21 Z" fill-opacity="0.5" fill="#ffffff" stroke="none" pointer-events="all"/><path d="M 1145 458.21 C 1144.64 458.23 1144.29 458.32 1143.98 458.47 L 1130.15 465.07 C 1129.42 465.42 1128.89 466.08 1128.71 466.85 L 1125.29 481.7 C 1125.14 482.39 1125.27 483.12 1125.65 483.71 C 1125.71 483.78 1125.76 483.84 1125.8 483.93 L 1135.38 495.82 C 1135.88 496.44 1136.66 496.82 1137.45 496.82 L 1152.81 496.82 C 1153.6 496.82 1154.37 496.44 1154.88 495.82 L 1164.46 483.91 C 1164.94 483.29 1165.14 482.48 1164.96 481.7 L 1161.54 466.85 C 1161.37 466.08 1160.84 465.42 1160.11 465.07 L 1146.28 458.47 C 1145.88 458.27 1145.44 458.18 1145 458.21 Z" fill="#ffffff" stroke="none" pointer-events="all"/><path d="M 1145.01 459.36 C 1144.67 459.38 1144.34 459.47 1144.05 459.61 L 1131.05 465.81 C 1130.36 466.15 1129.87 466.77 1129.7 467.49 L 1126.49 481.45 C 1126.34 482.09 1126.46 482.78 1126.82 483.34 C 1126.88 483.4 1126.92 483.46 1126.96 483.55 L 1135.96 494.72 C 1136.44 495.3 1137.17 495.66 1137.91 495.66 L 1152.35 495.66 C 1153.09 495.66 1153.82 495.3 1154.3 494.72 L 1163.3 483.52 C 1163.75 482.94 1163.94 482.18 1163.77 481.45 L 1160.56 467.49 C 1160.39 466.77 1159.9 466.15 1159.21 465.81 L 1146.21 459.61 C 1145.83 459.43 1145.42 459.34 1145.01 459.36 Z" fill="#2875e2" stroke="none" pointer-events="all"/><path d="M 1157.14 470.42 L 1157.14 483.19 L 1145.97 489.38 L 1145.9 473.77 Z M 1133.14 470.42 L 1133.14 483.19 L 1144.31 489.38 L 1144.38 473.77 Z M 1133.14 469.1 L 1145.14 465.62 L 1157.14 469.1 L 1145.14 472.58 Z" fill="#ffffff" stroke="none" pointer-events="all"/></g></svg>