<?xml version="1.0" encoding="UTF-8"?>
<!DOCTYPE svg PUBLIC "-//W3C//DTD SVG 1.1//EN" "http://www.w3.org/Graphics/SVG/1.1/DTD/svg11.dtd">
<svg xmlns="http://www.w3.org/2000/svg" xmlns:xlink="http://www.w3.org/1999/xlink" version="1.1" width="1588px" height="462px" viewBox="-0.5 -0.5 1588 462"><defs><style type="text/css">@import url(https://fonts.googleapis.com/css?family=Roboto);&#xa;</style></defs><g><path d="M 448.29 0.26 C 444.09 0.53 439.89 1.58 436.21 3.42 L 271.49 81.96 C 262.82 86.17 256.52 94.05 254.41 103.24 L 213.7 280.05 C 211.86 288.19 213.43 296.86 217.9 303.95 C 218.69 304.74 219.21 305.53 219.74 306.58 L 333.75 448.18 C 339.79 455.53 348.99 460 358.45 460 L 541.29 460 C 550.75 460 559.94 455.53 565.99 448.18 L 680 306.32 C 685.78 298.96 688.14 289.24 686.04 280.05 L 645.32 103.24 C 643.22 94.05 636.92 86.17 628.25 81.96 L 463.53 3.42 C 458.8 1.05 453.55 0 448.29 0.26 Z" fill-opacity="0.5" fill="#ffffff" stroke="none" pointer-events="all"/><path d="M 448.39 14.05 C 444.44 14.29 440.49 15.28 437.04 17.01 L 282.2 90.85 C 274.05 94.8 268.13 102.21 266.15 110.85 L 227.87 277.04 C 226.14 284.7 227.63 292.85 231.82 299.51 C 232.57 300.26 233.06 301 233.55 301.98 L 340.73 435.09 C 346.41 442 355.05 446.2 363.94 446.2 L 535.81 446.2 C 544.7 446.2 553.35 442 559.03 435.09 L 666.2 301.74 C 671.63 294.82 673.86 285.69 671.88 277.04 L 633.6 110.85 C 631.63 102.21 625.7 94.8 617.55 90.85 L 462.72 17.01 C 458.27 14.79 453.33 13.8 448.39 14.05 Z" fill-opacity="0.5" fill="#00aaff" stroke="none" pointer-events="all"/><path d="M 589.35 147.82 L 589.35 296.02 L 459.62 368 L 458.85 186.69 Z M 310.65 147.82 L 310.65 296.02 L 440.38 368 L 441.15 186.69 Z M 310.65 132.42 L 450 92 L 589.35 132.42 L 450 172.84 Z" fill-opacity="0.5" fill="#ffffff" stroke="none" pointer-events="all"/><path d="M 449.43 152.82 C 448.01 152.91 446.6 153.27 445.37 153.88 L 390.03 180.27 C 387.12 181.68 385 184.33 384.3 187.42 L 370.62 246.81 C 370 249.55 370.53 252.46 372.03 254.84 C 372.29 255.11 372.47 255.37 372.65 255.73 L 410.95 303.29 C 412.98 305.76 416.07 307.26 419.24 307.26 L 480.67 307.26 C 483.84 307.26 486.93 305.76 488.96 303.29 L 527.26 255.64 C 529.21 253.17 530 249.9 529.29 246.81 L 515.62 187.42 C 514.91 184.33 512.79 181.68 509.88 180.27 L 454.54 153.88 C 452.96 153.09 451.19 152.74 449.43 152.82 Z" fill="#ffffff" stroke="none" pointer-events="all"/><path d="M 449.46 157.45 C 448.13 157.54 446.81 157.87 445.64 158.45 L 393.63 183.25 C 390.89 184.58 388.9 187.07 388.24 189.97 L 375.38 245.8 C 374.8 248.37 375.3 251.11 376.71 253.35 C 376.96 253.6 377.12 253.85 377.29 254.18 L 413.29 298.9 C 415.2 301.22 418.1 302.63 421.09 302.63 L 478.83 302.63 C 481.81 302.63 484.72 301.22 486.63 298.9 L 522.63 254.1 C 524.45 251.78 525.2 248.71 524.54 245.8 L 511.68 189.97 C 511.01 187.07 509.02 184.58 506.29 183.25 L 454.27 158.45 C 452.78 157.7 451.12 157.37 449.46 157.45 Z" fill="#2875e2" stroke="none" pointer-events="all"/><path d="M 498 201.69 L 498 252.74 L 453.31 277.54 L 453.05 215.08 Z M 402 201.69 L 402 252.74 L 446.69 277.54 L 446.95 215.08 Z M 402 196.39 L 450 182.46 L 498 196.39 L 450 210.31 Z" fill="#ffffff" stroke="none" pointer-events="all"/><path d="M 938.29 0.26 C 934.09 0.53 929.89 1.58 926.21 3.42 L 761.49 81.96 C 752.82 86.17 746.52 94.05 744.41 103.24 L 703.7 280.05 C 701.86 288.19 703.43 296.86 707.9 303.95 C 708.69 304.74 709.21 305.53 709.74 306.58 L 823.75 448.18 C 829.79 455.53 838.99 460 848.45 460 L 1031.29 460 C 1040.75 460 1049.94 455.53 1055.99 448.18 L 1170 306.32 C 1175.78 298.96 1178.14 289.24 1176.04 280.05 L 1135.32 103.24 C 1133.22 94.05 1126.92 86.17 1118.25 81.96 L 953.53 3.42 C 948.8 1.05 943.55 0 938.29 0.26 Z" fill-opacity="0.5" fill="#ffffff" stroke="none" pointer-events="all"/><path d="M 938.39 14.05 C 934.44 14.29 930.49 15.28 927.04 17.01 L 772.2 90.85 C 764.05 94.8 758.13 102.21 756.15 110.85 L 717.87 277.04 C 716.14 284.7 717.63 292.85 721.82 299.51 C 722.57 300.26 723.06 301 723.55 301.98 L 830.73 435.09 C 836.41 442 845.05 446.2 853.94 446.2 L 1025.81 446.2 C 1034.7 446.2 1043.35 442 1049.03 435.09 L 1156.2 301.74 C 1161.63 294.82 1163.86 285.69 1161.88 277.04 L 1123.6 110.85 C 1121.63 102.21 1115.7 94.8 1107.55 90.85 L 952.72 17.01 C 948.27 14.79 943.33 13.8 938.39 14.05 Z" fill-opacity="0.5" fill="#00aaff" stroke="none" pointer-events="all"/><path d="M 1079.35 147.82 L 1079.35 296.02 L 949.62 368 L 948.85 186.69 Z M 800.65 147.82 L 800.65 296.02 L 930.38 368 L 931.15 186.69 Z M 800.65 132.42 L 940 92 L 1079.35 132.42 L 940 172.84 Z" fill-opacity="0.5" fill="#ffffff" stroke="none" pointer-events="all"/><path d="M 938.61 41.48 C 935.16 41.69 931.71 42.55 928.69 44.06 L 793.52 108.52 C 786.4 111.97 781.23 118.44 779.5 125.99 L 746.09 271.08 C 744.58 277.76 745.87 284.88 749.54 290.7 C 750.18 291.35 750.61 291.99 751.04 292.85 L 844.61 409.06 C 849.57 415.09 857.12 418.76 864.88 418.76 L 1014.93 418.76 C 1022.69 418.76 1030.23 415.09 1035.19 409.06 L 1128.76 292.64 C 1133.5 286.6 1135.44 278.63 1133.72 271.08 L 1100.3 125.99 C 1098.58 118.44 1093.4 111.97 1086.29 108.52 L 951.11 44.06 C 947.23 42.12 942.92 41.26 938.61 41.48 Z" fill="#ffffff" stroke="none" pointer-events="all"/><path d="M 938.69 52.79 C 935.45 52.99 932.21 53.8 929.37 55.22 L 802.31 115.81 C 795.62 119.06 790.75 125.14 789.13 132.23 L 757.72 268.62 C 756.3 274.9 757.52 281.59 760.96 287.06 C 761.57 287.67 761.98 288.27 762.38 289.08 L 850.33 398.32 C 855 403.99 862.09 407.44 869.38 407.44 L 1010.43 407.44 C 1017.73 407.44 1024.82 403.99 1029.48 398.32 L 1117.43 288.88 C 1121.89 283.21 1123.72 275.71 1122.1 268.62 L 1090.68 132.23 C 1089.06 125.14 1084.2 119.06 1077.51 115.81 L 950.45 55.22 C 946.8 53.4 942.75 52.59 938.69 52.79 Z" fill="#2875e2" stroke="none" pointer-events="all"/><path d="M 1054.37 162.57 L 1054.37 284.19 L 947.91 343.26 L 947.28 194.47 Z M 825.65 162.57 L 825.65 284.19 L 932.11 343.26 L 932.74 194.47 Z M 825.65 149.93 L 940.01 116.76 L 1054.37 149.93 L 940.01 183.1 Z" fill="#ffffff" stroke="none" pointer-events="all"/><path d="M 79.43 152.84 C 78.01 152.93 76.6 153.29 75.37 153.9 L 20.03 180.29 C 17.12 181.7 15 184.35 14.3 187.44 L 0.62 246.83 C 0 249.57 0.53 252.48 2.03 254.86 C 2.29 255.13 2.47 255.39 2.65 255.75 L 40.95 303.31 C 42.98 305.78 46.07 307.28 49.24 307.28 L 110.67 307.28 C 113.84 307.28 116.93 305.78 118.96 303.31 L 157.26 255.66 C 159.21 253.19 160 249.92 159.29 246.83 L 145.62 187.44 C 144.91 184.35 142.79 181.7 139.88 180.29 L 84.54 153.9 C 82.96 153.11 81.19 152.76 79.43 152.84 Z" fill="#ffffff" stroke="none" pointer-events="all"/><path d="M 79.46 157.47 C 78.13 157.56 76.81 157.89 75.64 158.47 L 23.63 183.27 C 20.89 184.6 18.9 187.09 18.24 189.99 L 5.38 245.82 C 4.8 248.39 5.3 251.13 6.71 253.37 C 6.96 253.62 7.12 253.87 7.29 254.2 L 43.29 298.92 C 45.2 301.24 48.1 302.65 51.09 302.65 L 108.83 302.65 C 111.81 302.65 114.72 301.24 116.63 298.92 L 152.63 254.12 C 154.45 251.8 155.2 248.73 154.54 245.82 L 141.68 189.99 C 141.01 187.09 139.02 184.6 136.29 183.27 L 84.27 158.47 C 82.78 157.72 81.12 157.39 79.46 157.47 Z" fill="#2875e2" stroke="none" pointer-events="all"/><path d="M 128 201.71 L 128 252.76 L 83.31 277.56 L 83.05 215.1 Z M 32 201.71 L 32 252.76 L 76.69 277.56 L 76.95 215.1 Z M 32 196.41 L 80 182.48 L 128 196.41 L 80 210.33 Z" fill="#ffffff" stroke="none" pointer-events="all"/><path d="M 1381.33 41.5 C 1377.88 41.71 1374.43 42.57 1371.41 44.08 L 1236.24 108.54 C 1229.12 111.99 1223.95 118.46 1222.22 126.01 L 1188.81 271.1 C 1187.3 277.78 1188.59 284.9 1192.26 290.72 C 1192.9 291.37 1193.33 292.01 1193.76 292.87 L 1287.33 409.08 C 1292.29 415.11 1299.84 418.78 1307.6 418.78 L 1457.65 418.78 C 1465.41 418.78 1472.95 415.11 1477.91 409.08 L 1571.48 292.66 C 1576.22 286.62 1578.16 278.65 1576.44 271.1 L 1543.02 126.01 C 1541.3 118.46 1536.12 111.99 1529.01 108.54 L 1393.83 44.08 C 1389.95 42.14 1385.64 41.28 1381.33 41.5 Z" fill="#ffffff" stroke="none" pointer-events="all"/><path d="M 1381.41 52.81 C 1378.17 53.01 1374.93 53.82 1372.09 55.24 L 1245.03 115.83 C 1238.34 119.08 1233.47 125.16 1231.85 132.25 L 1200.44 268.64 C 1199.02 274.92 1200.24 281.61 1203.68 287.08 C 1204.29 287.69 1204.7 288.29 1205.1 289.1 L 1293.05 398.34 C 1297.72 404.01 1304.81 407.45 1312.1 407.45 L 1453.15 407.45 C 1460.45 407.45 1467.54 404.01 1472.2 398.34 L 1560.15 288.9 C 1564.61 283.23 1566.44 275.73 1564.82 268.64 L 1533.4 132.25 C 1531.78 125.16 1526.92 119.08 1520.23 115.83 L 1393.17 55.24 C 1389.52 53.42 1385.47 52.6 1381.41 52.81 Z" fill="#2875e2" stroke="none" pointer-events="all"/><path d="M 1497.09 162.59 L 1497.09 284.21 L 1390.63 343.28 L 1390 194.49 Z M 1268.37 162.59 L 1268.37 284.21 L 1374.83 343.28 L 1375.46 194.49 Z M 1268.37 149.95 L 1382.73 116.78 L 1497.09 149.95 L 1382.73 183.12 Z" fill="#ffffff" stroke="none" pointer-events="all"/></g></svg>