<?xml version="1.0" encoding="UTF-8"?>
<!DOCTYPE svg PUBLIC "-//W3C//DTD SVG 1.1//EN" "http://www.w3.org/Graphics/SVG/1.1/DTD/svg11.dtd">
<svg xmlns="http://www.w3.org/2000/svg" xmlns:xlink="http://www.w3.org/1999/xlink" version="1.1" width="1240px" height="755px" viewBox="-0.5 -0.5 1240 755"><defs><style type="text/css">@import url(https://fonts.googleapis.com/css?family=Roboto);&#xa;</style></defs><g><path d="M 623.67 0.23 C 620.01 0.46 616.36 1.37 613.16 2.97 L 469.94 71.27 C 462.4 74.92 456.92 81.78 455.09 89.77 L 419.68 243.5 C 418.08 250.58 419.45 258.12 423.34 264.29 C 424.02 264.97 424.48 265.66 424.94 266.57 L 524.07 389.69 C 529.33 396.09 537.32 399.97 545.55 399.97 L 704.53 399.97 C 712.75 399.97 720.75 396.09 726 389.69 L 825.14 266.34 C 830.16 259.95 832.22 251.5 830.39 243.5 L 794.99 89.77 C 793.16 81.78 787.68 74.92 780.14 71.27 L 636.92 2.97 C 632.8 0.91 628.24 0 623.67 0.23 Z" fill-opacity="0.5" fill="#ffffff" stroke="none" pointer-events="all"/><path d="M 623.76 12.21 C 620.32 12.43 616.89 13.29 613.88 14.79 L 479.25 78.99 C 472.16 82.43 467.01 88.87 465.29 96.38 L 432.01 240.89 C 430.51 247.55 431.8 254.63 435.45 260.43 C 436.09 261.07 436.52 261.72 436.95 262.58 L 530.14 378.31 C 535.08 384.32 542.59 387.97 550.32 387.97 L 699.77 387.97 C 707.5 387.97 715.01 384.32 719.95 378.31 L 813.14 262.36 C 817.86 256.35 819.8 248.41 818.08 240.89 L 784.8 96.38 C 783.08 88.87 777.93 82.43 770.84 78.99 L 636.21 14.79 C 632.35 12.86 628.05 12 623.76 12.21 Z" fill-opacity="0.5" fill="#00aaff" stroke="none" pointer-events="all"/><path d="M 746.32 128.53 L 746.32 257.39 L 633.52 319.98 L 632.85 162.33 Z M 503.99 128.53 L 503.99 257.39 L 616.78 319.98 L 617.45 162.33 Z M 503.99 115.14 L 625.15 79.99 L 746.32 115.14 L 625.15 150.28 Z" fill-opacity="0.5" fill="#ffffff" stroke="none" pointer-events="all"/><path d="M 624.27 462.11 C 622.12 462.25 619.96 462.79 618.07 463.73 L 533.56 504.03 C 529.11 506.19 525.87 510.23 524.8 514.95 L 503.9 605.67 C 502.96 609.85 503.77 614.29 506.06 617.93 C 506.46 618.34 506.73 618.74 507 619.28 L 565.5 691.94 C 568.6 695.71 573.32 698 578.17 698 L 671.99 698 C 676.84 698 681.56 695.71 684.66 691.94 L 743.16 619.15 C 746.13 615.37 747.34 610.39 746.26 605.67 L 725.37 514.95 C 724.29 510.23 721.06 506.19 716.61 504.03 L 632.09 463.73 C 629.67 462.52 626.97 461.98 624.27 462.11 Z" fill="#ffffff" stroke="none" pointer-events="all"/><path d="M 624.33 469.19 C 622.3 469.31 620.27 469.82 618.5 470.71 L 539.05 508.59 C 534.87 510.62 531.83 514.42 530.82 518.85 L 511.18 604.13 C 510.29 608.06 511.05 612.24 513.21 615.66 C 513.59 616.04 513.84 616.42 514.09 616.92 L 569.08 685.22 C 572 688.77 576.43 690.92 580.99 690.92 L 669.18 690.92 C 673.74 690.92 678.18 688.77 681.09 685.22 L 736.08 616.8 C 738.87 613.25 740.01 608.56 738.99 604.13 L 719.36 518.85 C 718.34 514.42 715.3 510.62 711.12 508.59 L 631.68 470.71 C 629.39 469.57 626.86 469.06 624.33 469.19 Z" fill="#ff6666" stroke="none" pointer-events="all"/><path d="M 698.46 536.75 L 698.46 614.72 L 630.21 652.6 L 629.81 557.21 Z M 551.84 536.75 L 551.84 614.72 L 620.09 652.6 L 620.49 557.21 Z M 551.84 528.65 L 625.15 507.38 L 698.46 528.65 L 625.15 549.92 Z" fill="#ffffff" stroke="none" pointer-events="all"/><path d="M 975.37 0.26 C 971.17 0.53 966.97 1.58 963.29 3.42 L 798.57 81.96 C 789.9 86.17 783.6 94.05 781.49 103.24 L 740.78 280.05 C 738.94 288.19 740.51 296.86 744.98 303.95 C 745.77 304.74 746.29 305.53 746.82 306.58 L 860.83 448.18 C 866.87 455.53 876.07 460 885.53 460 L 1068.37 460 C 1077.83 460 1087.02 455.53 1093.07 448.18 L 1207.08 306.32 C 1212.86 298.96 1215.22 289.24 1213.12 280.05 L 1172.4 103.24 C 1170.3 94.05 1164 86.17 1155.33 81.96 L 990.61 3.42 C 985.88 1.05 980.63 0 975.37 0.26 Z" fill-opacity="0.5" fill="#ffffff" stroke="none" pointer-events="all"/><path d="M 975.47 14.05 C 971.52 14.29 967.57 15.28 964.12 17.01 L 809.28 90.85 C 801.13 94.8 795.21 102.21 793.23 110.85 L 754.95 277.04 C 753.22 284.7 754.71 292.85 758.9 299.51 C 759.65 300.26 760.14 301 760.63 301.98 L 867.81 435.09 C 873.49 442 882.13 446.2 891.02 446.2 L 1062.89 446.2 C 1071.78 446.2 1080.43 442 1086.11 435.09 L 1193.28 301.74 C 1198.71 294.82 1200.94 285.69 1198.96 277.04 L 1160.68 110.85 C 1158.71 102.21 1152.78 94.8 1144.63 90.85 L 989.8 17.01 C 985.35 14.79 980.41 13.8 975.47 14.05 Z" fill-opacity="0.5" fill="#00aaff" stroke="none" pointer-events="all"/><path d="M 1116.43 147.82 L 1116.43 296.02 L 986.7 368 L 985.93 186.69 Z M 837.73 147.82 L 837.73 296.02 L 967.46 368 L 968.23 186.69 Z M 837.73 132.42 L 977.08 92 L 1116.43 132.42 L 977.08 172.84 Z" fill-opacity="0.5" fill="#ffffff" stroke="none" pointer-events="all"/><path d="M 975.82 61.16 C 972.74 61.35 969.65 62.12 966.94 63.48 L 845.87 121.21 C 839.5 124.3 834.87 130.09 833.32 136.85 L 803.39 266.8 C 802.04 272.79 803.2 279.16 806.48 284.38 C 807.06 284.96 807.45 285.53 807.83 286.31 L 891.64 390.38 C 896.08 395.79 902.84 399.07 909.79 399.07 L 1044.18 399.07 C 1051.13 399.07 1057.89 395.79 1062.33 390.38 L 1146.13 286.11 C 1150.38 280.71 1152.12 273.56 1150.58 266.8 L 1120.65 136.85 C 1119.1 130.09 1114.47 124.3 1108.09 121.21 L 987.02 63.48 C 983.55 61.74 979.69 60.97 975.82 61.16 Z" fill="#ffffff" stroke="none" pointer-events="all"/><path d="M 975.9 71.29 C 973 71.47 970.09 72.2 967.55 73.47 L 853.74 127.74 C 847.76 130.64 843.4 136.09 841.95 142.44 L 813.81 264.6 C 812.54 270.22 813.63 276.21 816.72 281.11 C 817.26 281.66 817.62 282.2 817.99 282.93 L 896.76 380.76 C 900.94 385.85 907.29 388.93 913.82 388.93 L 1040.15 388.93 C 1046.69 388.93 1053.04 385.85 1057.22 380.76 L 1135.99 282.75 C 1139.98 277.67 1141.62 270.95 1140.17 264.6 L 1112.03 142.44 C 1110.58 136.09 1106.22 130.64 1100.23 127.74 L 986.43 73.47 C 983.16 71.84 979.53 71.11 975.9 71.29 Z" fill="#2875e2" stroke="none" pointer-events="all"/><path d="M 1081.59 168.38 L 1081.59 279.53 L 984.3 333.52 L 983.72 197.54 Z M 872.57 168.38 L 872.57 279.53 L 969.86 333.52 L 970.44 197.54 Z M 872.57 156.83 L 977.08 126.52 L 1081.59 156.83 L 977.08 187.15 Z" fill="#ffffff" stroke="none" pointer-events="all"/><path d="M 257.37 0.26 C 253.17 0.53 248.97 1.58 245.29 3.42 L 80.57 81.96 C 71.9 86.17 65.6 94.05 63.49 103.24 L 22.78 280.05 C 20.94 288.19 22.51 296.86 26.98 303.95 C 27.77 304.74 28.29 305.53 28.82 306.58 L 142.83 448.18 C 148.87 455.53 158.07 460 167.53 460 L 350.37 460 C 359.83 460 369.02 455.53 375.07 448.18 L 489.08 306.32 C 494.86 298.96 497.22 289.24 495.12 280.05 L 454.4 103.24 C 452.3 94.05 446 86.17 437.33 81.96 L 272.61 3.42 C 267.88 1.05 262.63 0 257.37 0.26 Z" fill-opacity="0.5" fill="#ffffff" stroke="none" pointer-events="all"/><path d="M 257.47 14.05 C 253.52 14.29 249.57 15.28 246.12 17.01 L 91.28 90.85 C 83.13 94.8 77.21 102.21 75.23 110.85 L 36.95 277.04 C 35.22 284.7 36.71 292.85 40.9 299.51 C 41.65 300.26 42.14 301 42.63 301.98 L 149.81 435.09 C 155.49 442 164.13 446.2 173.02 446.2 L 344.89 446.2 C 353.78 446.2 362.43 442 368.11 435.09 L 475.28 301.74 C 480.71 294.82 482.94 285.69 480.96 277.04 L 442.68 110.85 C 440.71 102.21 434.78 94.8 426.63 90.85 L 271.8 17.01 C 267.35 14.79 262.41 13.8 257.47 14.05 Z" fill-opacity="0.5" fill="#00aaff" stroke="none" pointer-events="all"/><path d="M 398.43 147.82 L 398.43 296.02 L 268.7 368 L 267.93 186.69 Z M 119.73 147.82 L 119.73 296.02 L 249.46 368 L 250.23 186.69 Z M 119.73 132.42 L 259.08 92 L 398.43 132.42 L 259.08 172.84 Z" fill-opacity="0.5" fill="#ffffff" stroke="none" pointer-events="all"/><path d="M 257.8 59.54 C 254.68 59.73 251.56 60.51 248.84 61.88 L 126.61 120.16 C 120.18 123.28 115.5 129.13 113.94 135.95 L 83.72 267.15 C 82.36 273.19 83.53 279.62 86.84 284.88 C 87.43 285.47 87.82 286.05 88.21 286.83 L 172.81 391.9 C 177.29 397.36 184.12 400.68 191.13 400.68 L 326.81 400.68 C 333.83 400.68 340.65 397.36 345.13 391.9 L 429.74 286.64 C 434.03 281.18 435.78 273.97 434.22 267.15 L 404.01 135.95 C 402.45 129.13 397.77 123.28 391.33 120.16 L 269.11 61.88 C 265.6 60.12 261.7 59.34 257.8 59.54 Z" fill="#ffffff" stroke="none" pointer-events="all"/><path d="M 257.88 69.77 C 254.95 69.95 252.02 70.68 249.45 71.97 L 134.56 126.75 C 128.51 129.69 124.11 135.18 122.65 141.6 L 94.25 264.92 C 92.96 270.6 94.06 276.64 97.18 281.59 C 97.73 282.14 98.09 282.69 98.46 283.42 L 177.99 382.19 C 182.2 387.32 188.61 390.44 195.21 390.44 L 322.75 390.44 C 329.34 390.44 335.76 387.32 339.97 382.19 L 419.5 283.24 C 423.53 278.11 425.18 271.33 423.71 264.92 L 395.31 141.6 C 393.84 135.18 389.45 129.69 383.4 126.75 L 268.51 71.97 C 265.21 70.32 261.54 69.58 257.88 69.77 Z" fill="#2875e2" stroke="none" pointer-events="all"/><path d="M 365.1 167.48 L 365.1 280.24 L 266.39 335.01 L 265.81 197.06 Z M 153.04 167.48 L 153.04 280.24 L 251.75 335.01 L 252.33 197.06 Z M 153.04 155.76 L 259.07 125.01 L 365.1 155.76 L 259.07 186.52 Z" fill="#ffffff" stroke="none" pointer-events="all"/><path d="M 280.49 420.18 C 277.57 420.37 274.65 421.1 272.09 422.38 L 157.51 477.02 C 151.48 479.94 147.09 485.42 145.63 491.82 L 117.3 614.81 C 116.02 620.47 117.12 626.5 120.23 631.44 C 120.77 631.98 121.14 632.53 121.51 633.26 L 200.82 731.76 C 205.02 736.88 211.42 739.99 218 739.99 L 345.19 739.99 C 351.77 739.99 358.16 736.88 362.36 731.76 L 441.68 633.08 C 445.7 627.96 447.34 621.2 445.88 614.81 L 417.55 491.82 C 416.09 485.42 411.71 479.94 405.68 477.02 L 291.09 422.38 C 287.8 420.73 284.15 420 280.49 420.18 Z" fill-opacity="0.5" fill="#ffffff" stroke="none" pointer-events="all"/><path d="M 280.57 429.77 C 277.82 429.94 275.07 430.63 272.66 431.83 L 164.96 483.2 C 159.29 485.94 155.17 491.1 153.79 497.11 L 127.17 612.72 C 125.96 618.04 126.99 623.71 129.91 628.35 C 130.43 628.87 130.77 629.38 131.12 630.07 L 205.67 722.66 C 209.62 727.47 215.63 730.39 221.82 730.39 L 341.38 730.39 C 347.56 730.39 353.57 727.47 357.52 722.66 L 432.08 629.9 C 435.86 625.09 437.4 618.73 436.03 612.72 L 409.4 497.11 C 408.03 491.1 403.9 485.94 398.24 483.2 L 290.53 431.83 C 287.44 430.29 284 429.6 280.57 429.77 Z" fill-opacity="0.5" fill="#00aaff" stroke="none" pointer-events="all"/><path d="M 378.62 522.82 L 378.62 625.92 L 288.38 675.99 L 287.84 549.87 Z M 184.75 522.82 L 184.75 625.92 L 274.99 675.99 L 275.52 549.87 Z M 184.75 512.11 L 281.68 484 L 378.62 512.11 L 281.68 540.23 Z" fill-opacity="0.5" fill="#ffffff" stroke="none" pointer-events="all"/><path d="M 280.74 453.19 C 278.42 453.33 276.1 453.91 274.07 454.93 L 183.14 498.28 C 178.36 500.6 174.88 504.96 173.72 510.03 L 151.24 607.63 C 150.22 612.12 151.09 616.91 153.56 620.82 C 153.99 621.26 154.28 621.69 154.57 622.27 L 217.51 700.43 C 220.85 704.49 225.92 706.96 231.14 706.96 L 332.07 706.96 C 337.29 706.96 342.37 704.49 345.7 700.43 L 408.64 622.13 C 411.83 618.07 413.14 612.7 411.98 607.63 L 389.5 510.03 C 388.34 504.96 384.86 500.6 380.07 498.28 L 289.15 454.93 C 286.54 453.62 283.64 453.04 280.74 453.19 Z" fill="#ffffff" stroke="none" pointer-events="all"/><path d="M 280.79 460.79 C 278.61 460.93 276.43 461.48 274.52 462.43 L 189.06 503.19 C 184.56 505.37 181.29 509.46 180.19 514.23 L 159.07 605.97 C 158.11 610.19 158.93 614.69 161.25 618.37 C 161.66 618.78 161.93 619.19 162.2 619.74 L 221.36 693.21 C 224.5 697.03 229.27 699.34 234.17 699.34 L 329.05 699.34 C 333.96 699.34 338.73 697.03 341.86 693.21 L 401.02 619.6 C 404.02 615.78 405.25 610.74 404.16 605.97 L 383.03 514.23 C 381.94 509.46 378.67 505.37 374.17 503.19 L 288.7 462.43 C 286.25 461.2 283.52 460.66 280.79 460.79 Z" fill="#2875e2" stroke="none" pointer-events="all"/><path d="M 358.6 534.63 L 358.6 616.44 L 286.99 656.18 L 286.57 556.1 Z M 204.76 534.63 L 204.76 616.44 L 276.37 656.18 L 276.79 556.1 Z M 204.76 526.13 L 281.68 503.82 L 358.6 526.13 L 281.68 548.45 Z" fill="#ffffff" stroke="none" pointer-events="all"/><path d="M 956.04 425.02 C 953.16 425.2 950.28 425.92 947.76 427.18 L 834.91 481 C 828.97 483.88 824.65 489.28 823.21 495.58 L 795.31 616.71 C 794.05 622.29 795.13 628.23 798.19 633.09 C 798.73 633.63 799.09 634.17 799.45 634.89 L 877.57 731.9 C 881.7 736.94 888 740 894.48 740 L 1019.76 740 C 1026.24 740 1032.54 736.94 1036.67 731.9 L 1114.79 634.71 C 1118.75 629.67 1120.37 623.01 1118.93 616.71 L 1091.03 495.58 C 1089.59 489.28 1085.27 483.88 1079.33 481 L 966.48 427.18 C 963.24 425.56 959.64 424.84 956.04 425.02 Z" fill-opacity="0.5" fill="#ffffff" stroke="none" pointer-events="all"/><path d="M 956.11 434.46 C 953.4 434.63 950.7 435.31 948.33 436.49 L 842.25 487.08 C 836.66 489.79 832.6 494.86 831.25 500.79 L 805.02 614.65 C 803.84 619.9 804.86 625.48 807.73 630.05 C 808.24 630.55 808.58 631.06 808.92 631.74 L 882.34 722.93 C 886.24 727.67 892.16 730.55 898.25 730.55 L 1016 730.55 C 1022.09 730.55 1028.02 727.67 1031.91 722.93 L 1105.34 631.57 C 1109.06 626.83 1110.58 620.57 1109.23 614.65 L 1083 500.79 C 1081.65 494.86 1077.59 489.79 1072 487.08 L 965.92 436.49 C 962.88 434.97 959.49 434.29 956.11 434.46 Z" fill-opacity="0.5" fill="#00aaff" stroke="none" pointer-events="all"/><path d="M 1052.68 526.11 L 1052.68 627.65 L 963.8 676.97 L 963.28 552.75 Z M 861.74 526.11 L 861.74 627.65 L 950.62 676.97 L 951.14 552.75 Z M 861.74 515.56 L 957.21 487.87 L 1052.68 515.56 L 957.21 543.26 Z" fill-opacity="0.5" fill="#ffffff" stroke="none" pointer-events="all"/><path d="M 956.14 439.33 C 953.52 439.49 950.9 440.14 948.61 441.29 L 846.01 490.22 C 840.61 492.84 836.68 497.75 835.37 503.47 L 810.01 613.6 C 808.86 618.68 809.84 624.08 812.62 628.49 C 813.11 628.99 813.44 629.48 813.77 630.13 L 884.79 718.33 C 888.55 722.92 894.28 725.7 900.17 725.7 L 1014.07 725.7 C 1019.96 725.7 1025.68 722.92 1029.45 718.33 L 1100.47 629.97 C 1104.07 625.39 1105.54 619.33 1104.23 613.6 L 1078.87 503.47 C 1077.56 497.75 1073.63 492.84 1068.23 490.22 L 965.63 441.29 C 962.68 439.82 959.41 439.16 956.14 439.33 Z" fill="#ffffff" stroke="none" pointer-events="all"/><path d="M 956.2 447.91 C 953.74 448.07 951.28 448.68 949.12 449.76 L 852.68 495.75 C 847.6 498.21 843.91 502.83 842.68 508.21 L 818.84 611.73 C 817.76 616.5 818.68 621.58 821.3 625.73 C 821.76 626.19 822.07 626.65 822.38 627.27 L 889.13 710.18 C 892.67 714.49 898.06 717.1 903.59 717.1 L 1010.65 717.1 C 1016.19 717.1 1021.57 714.49 1025.11 710.18 L 1091.87 627.12 C 1095.26 622.81 1096.64 617.12 1095.41 611.73 L 1071.57 508.21 C 1070.34 502.83 1066.64 498.21 1061.57 495.75 L 965.12 449.76 C 962.35 448.37 959.28 447.76 956.2 447.91 Z" fill="#2875e2" stroke="none" pointer-events="all"/><path d="M 1046.2 529.94 L 1046.2 624.6 L 963.35 670.57 L 962.85 554.77 Z M 868.2 529.94 L 868.2 624.6 L 951.05 670.57 L 951.55 554.77 Z M 868.2 520.1 L 957.2 494.29 L 1046.2 520.1 L 957.2 545.92 Z" fill="#ffffff" stroke="none" pointer-events="all"/><path d="M 1143.65 420.07 C 1142.6 420.13 1141.55 420.39 1140.63 420.85 L 1099.45 440.49 C 1097.29 441.54 1095.71 443.51 1095.18 445.81 L 1085 490.01 C 1084.54 492.05 1084.94 494.21 1086.05 495.99 C 1086.25 496.19 1086.38 496.38 1086.51 496.64 L 1115.02 532.04 C 1116.53 533.88 1118.83 535 1121.19 535 L 1166.9 535 C 1169.27 535 1171.57 533.88 1173.08 532.04 L 1201.58 496.58 C 1203.02 494.74 1203.62 492.31 1203.09 490.01 L 1192.91 445.81 C 1192.39 443.51 1190.81 441.54 1188.64 440.49 L 1147.46 420.85 C 1146.28 420.26 1144.97 420 1143.65 420.07 Z" fill-opacity="0.5" fill="#ffffff" stroke="none" pointer-events="all"/><path d="M 1143.68 423.51 C 1142.69 423.57 1141.7 423.82 1140.84 424.25 L 1102.13 442.71 C 1100.09 443.7 1098.61 445.55 1098.12 447.71 L 1088.55 489.26 C 1088.12 491.17 1088.49 493.21 1089.54 494.88 C 1089.72 495.06 1089.84 495.25 1089.97 495.5 L 1116.76 528.77 C 1118.18 530.5 1120.34 531.55 1122.56 531.55 L 1165.53 531.55 C 1167.76 531.55 1169.92 530.5 1171.34 528.77 L 1198.13 495.43 C 1199.49 493.71 1200.04 491.42 1199.55 489.26 L 1189.98 447.71 C 1189.49 445.55 1188.01 443.7 1185.97 442.71 L 1147.26 424.25 C 1146.15 423.7 1144.91 423.45 1143.68 423.51 Z" fill-opacity="0.5" fill="#00aaff" stroke="none" pointer-events="all"/><path d="M 1178.92 456.95 L 1178.92 494 L 1146.49 512 L 1146.29 466.67 Z M 1109.24 456.95 L 1109.24 494 L 1141.67 512 L 1141.87 466.67 Z M 1109.24 453.1 L 1144.08 443 L 1178.92 453.1 L 1144.08 463.21 Z" fill-opacity="0.5" fill="#ffffff" stroke="none" pointer-events="all"/><path d="M 1143.94 458.21 C 1143.58 458.23 1143.23 458.32 1142.92 458.47 L 1129.09 465.07 C 1128.36 465.42 1127.83 466.08 1127.65 466.85 L 1124.23 481.7 C 1124.08 482.39 1124.21 483.12 1124.59 483.71 C 1124.65 483.78 1124.7 483.84 1124.74 483.93 L 1134.32 495.82 C 1134.82 496.44 1135.6 496.82 1136.39 496.82 L 1151.75 496.82 C 1152.54 496.82 1153.31 496.44 1153.82 495.82 L 1163.4 483.91 C 1163.88 483.29 1164.08 482.48 1163.9 481.7 L 1160.48 466.85 C 1160.31 466.08 1159.78 465.42 1159.05 465.07 L 1145.22 458.47 C 1144.82 458.27 1144.38 458.18 1143.94 458.21 Z" fill="#ffffff" stroke="none" pointer-events="all"/><path d="M 1143.95 459.36 C 1143.61 459.38 1143.28 459.47 1142.99 459.61 L 1129.99 465.81 C 1129.3 466.15 1128.81 466.77 1128.64 467.49 L 1125.43 481.45 C 1125.28 482.09 1125.4 482.78 1125.76 483.34 C 1125.82 483.4 1125.86 483.46 1125.9 483.55 L 1134.9 494.72 C 1135.38 495.3 1136.11 495.66 1136.85 495.66 L 1151.29 495.66 C 1152.03 495.66 1152.76 495.3 1153.24 494.72 L 1162.24 483.52 C 1162.69 482.94 1162.88 482.18 1162.71 481.45 L 1159.5 467.49 C 1159.33 466.77 1158.84 466.15 1158.15 465.81 L 1145.15 459.61 C 1144.77 459.43 1144.36 459.34 1143.95 459.36 Z" fill="#2875e2" stroke="none" pointer-events="all"/><path d="M 1156.08 470.42 L 1156.08 483.19 L 1144.91 489.38 L 1144.84 473.77 Z M 1132.08 470.42 L 1132.08 483.19 L 1143.25 489.38 L 1143.32 473.77 Z M 1132.08 469.1 L 1144.08 465.62 L 1156.08 469.1 L 1144.08 472.58 Z" fill="#ffffff" stroke="none" pointer-events="all"/><path d="M 624.05 50.25 C 621.31 50.42 618.57 51.11 616.17 52.31 L 508.82 103.5 C 503.17 106.24 499.06 111.38 497.69 117.37 L 471.15 232.6 C 469.95 237.9 470.98 243.55 473.89 248.18 C 474.4 248.69 474.75 249.2 475.09 249.89 L 549.4 342.18 C 553.33 346.97 559.33 349.88 565.49 349.88 L 684.66 349.88 C 690.82 349.88 696.81 346.97 700.75 342.18 L 775.06 249.72 C 778.83 244.92 780.37 238.59 779 232.6 L 752.46 117.37 C 751.09 111.38 746.98 106.24 741.33 103.5 L 633.98 52.31 C 630.9 50.76 627.47 50.08 624.05 50.25 Z" fill="#ffffff" stroke="none" pointer-events="all"/><path d="M 624.11 59.23 C 621.54 59.4 618.96 60.04 616.71 61.17 L 515.8 109.29 C 510.49 111.86 506.63 116.69 505.34 122.32 L 480.39 230.64 C 479.26 235.63 480.23 240.94 482.97 245.29 C 483.45 245.77 483.77 246.25 484.09 246.9 L 553.94 333.64 C 557.64 338.15 563.28 340.89 569.07 340.89 L 681.09 340.89 C 686.88 340.89 692.51 338.15 696.22 333.64 L 766.07 246.73 C 769.61 242.23 771.06 236.27 769.77 230.64 L 744.82 122.32 C 743.53 116.69 739.67 111.86 734.36 109.29 L 633.45 61.17 C 630.55 59.72 627.33 59.07 624.11 59.23 Z" fill="#002882" stroke="none" pointer-events="all"/><path d="M 715.98 146.42 L 715.98 243.01 L 631.43 289.92 L 630.93 171.76 Z M 534.34 146.42 L 534.34 243.01 L 618.89 289.92 L 619.39 171.76 Z M 534.34 136.38 L 625.16 110.04 L 715.98 136.38 L 625.16 162.72 Z" fill="#ffffff" stroke="none" pointer-events="all"/></g></svg>