<?xml version="1.0" encoding="UTF-8"?>
<!DOCTYPE svg PUBLIC "-//W3C//DTD SVG 1.1//EN" "http://www.w3.org/Graphics/SVG/1.1/DTD/svg11.dtd">
<svg xmlns="http://www.w3.org/2000/svg" xmlns:xlink="http://www.w3.org/1999/xlink" version="1.1" width="1241px" height="743px" viewBox="-0.5 -0.5 1241 743"><defs><style type="text/css">@import url(https://fonts.googleapis.com/css?family=Roboto);&#xa;</style></defs><g><path d="M 616.39 280.26 C 612.19 280.53 607.99 281.58 604.31 283.42 L 439.59 361.96 C 430.92 366.17 424.62 374.05 422.51 383.24 L 381.8 560.05 C 379.96 568.19 381.53 576.86 386 583.95 C 386.79 584.74 387.31 585.53 387.84 586.58 L 501.85 728.18 C 507.89 735.53 517.09 740 526.55 740 L 709.39 740 C 718.85 740 728.04 735.53 734.09 728.18 L 848.1 586.32 C 853.88 578.96 856.24 569.24 854.14 560.05 L 813.42 383.24 C 811.32 374.05 805.02 366.17 796.35 361.96 L 631.63 283.42 C 626.9 281.05 621.65 280 616.39 280.26 Z" fill-opacity="0.5" fill="#ffffff" stroke="none" pointer-events="all"/><path d="M 616.49 294.05 C 612.54 294.29 608.59 295.28 605.14 297.01 L 450.3 370.85 C 442.15 374.8 436.23 382.21 434.25 390.85 L 395.97 557.04 C 394.24 564.7 395.73 572.85 399.92 579.51 C 400.67 580.26 401.16 581 401.65 581.98 L 508.83 715.09 C 514.51 722 523.15 726.2 532.04 726.2 L 703.91 726.2 C 712.8 726.2 721.45 722 727.13 715.09 L 834.3 581.74 C 839.73 574.82 841.96 565.69 839.98 557.04 L 801.7 390.85 C 799.73 382.21 793.8 374.8 785.65 370.85 L 630.82 297.01 C 626.37 294.79 621.43 293.8 616.49 294.05 Z" fill-opacity="0.5" fill="#00aaff" stroke="none" pointer-events="all"/><path d="M 757.45 427.82 L 757.45 576.02 L 627.72 648 L 626.95 466.69 Z M 478.75 427.82 L 478.75 576.02 L 608.48 648 L 609.25 466.69 Z M 478.75 412.42 L 618.1 372 L 757.45 412.42 L 618.1 452.84 Z" fill-opacity="0.5" fill="#ffffff" stroke="none" pointer-events="all"/><path d="M 616.79 335.23 C 613.59 335.43 610.4 336.22 607.6 337.62 L 482.29 397.38 C 475.69 400.58 470.9 406.57 469.3 413.57 L 438.32 548.07 C 436.92 554.27 438.12 560.86 441.52 566.26 C 442.12 566.86 442.52 567.46 442.92 568.26 L 529.65 675.98 C 534.25 681.58 541.25 684.97 548.44 684.97 L 687.54 684.97 C 694.74 684.97 701.73 681.58 706.33 675.98 L 793.06 568.06 C 797.46 562.46 799.26 555.07 797.66 548.07 L 766.68 413.57 C 765.08 406.57 760.29 400.58 753.69 397.38 L 628.38 337.62 C 624.79 335.82 620.79 335.03 616.79 335.23 Z" fill="#ffffff" stroke="none" pointer-events="all"/><path d="M 616.87 345.71 C 613.86 345.9 610.86 346.65 608.23 347.97 L 490.44 404.14 C 484.24 407.14 479.73 412.78 478.22 419.36 L 449.11 545.79 C 447.79 551.61 448.92 557.81 452.11 562.88 C 452.67 563.45 453.05 564.01 453.43 564.76 L 534.96 666.02 C 539.28 671.28 545.86 674.48 552.62 674.48 L 683.37 674.48 C 690.14 674.48 696.71 671.28 701.03 666.02 L 782.57 564.57 C 786.7 559.31 788.39 552.36 786.89 545.79 L 757.77 419.36 C 756.26 412.78 751.76 407.14 745.56 404.14 L 627.77 347.97 C 624.38 346.28 620.63 345.52 616.87 345.71 Z" fill="#002882" stroke="none" pointer-events="all"/><path d="M 726.79 445.89 L 726.79 561.5 L 625.6 617.65 L 625 476.22 Z M 509.39 445.89 L 509.39 561.5 L 610.58 617.65 L 611.18 476.22 Z M 509.39 433.88 L 618.09 402.35 L 726.79 433.88 L 618.09 465.41 Z" fill="#ffffff" stroke="none" pointer-events="all"/><path d="M 976.13 0.26 C 971.93 0.53 967.73 1.58 964.05 3.42 L 799.33 81.96 C 790.66 86.17 784.36 94.05 782.25 103.24 L 741.54 280.05 C 739.7 288.19 741.27 296.86 745.74 303.95 C 746.53 304.74 747.05 305.53 747.58 306.58 L 861.59 448.18 C 867.63 455.53 876.83 460 886.29 460 L 1069.13 460 C 1078.59 460 1087.78 455.53 1093.83 448.18 L 1207.84 306.32 C 1213.62 298.96 1215.98 289.24 1213.88 280.05 L 1173.16 103.24 C 1171.06 94.05 1164.76 86.17 1156.09 81.96 L 991.37 3.42 C 986.64 1.05 981.39 0 976.13 0.26 Z" fill-opacity="0.5" fill="#ffffff" stroke="none" pointer-events="all"/><path d="M 976.23 14.05 C 972.28 14.29 968.33 15.28 964.88 17.01 L 810.04 90.85 C 801.89 94.8 795.97 102.21 793.99 110.85 L 755.71 277.04 C 753.98 284.7 755.47 292.85 759.66 299.51 C 760.41 300.26 760.9 301 761.39 301.98 L 868.57 435.09 C 874.25 442 882.89 446.2 891.78 446.2 L 1063.65 446.2 C 1072.54 446.2 1081.19 442 1086.87 435.09 L 1194.04 301.74 C 1199.47 294.82 1201.7 285.69 1199.72 277.04 L 1161.44 110.85 C 1159.47 102.21 1153.54 94.8 1145.39 90.85 L 990.56 17.01 C 986.11 14.79 981.17 13.8 976.23 14.05 Z" fill-opacity="0.5" fill="#00aaff" stroke="none" pointer-events="all"/><path d="M 1117.19 147.82 L 1117.19 296.02 L 987.46 368 L 986.69 186.69 Z M 838.49 147.82 L 838.49 296.02 L 968.22 368 L 968.99 186.69 Z M 838.49 132.42 L 977.84 92 L 1117.19 132.42 L 977.84 172.84 Z" fill-opacity="0.5" fill="#ffffff" stroke="none" pointer-events="all"/><path d="M 976.56 57.7 C 973.41 57.89 970.25 58.68 967.5 60.06 L 843.96 118.97 C 837.46 122.13 832.73 128.04 831.15 134.93 L 800.61 267.53 C 799.23 273.64 800.41 280.14 803.76 285.46 C 804.35 286.06 804.75 286.65 805.14 287.43 L 890.65 393.63 C 895.19 399.15 902.08 402.5 909.17 402.5 L 1046.31 402.5 C 1053.4 402.5 1060.3 399.15 1064.83 393.63 L 1150.34 287.24 C 1154.67 281.72 1156.45 274.43 1154.87 267.53 L 1124.33 134.93 C 1122.76 128.04 1118.03 122.13 1111.53 118.97 L 987.99 60.06 C 984.44 58.29 980.5 57.5 976.56 57.7 Z" fill="#ffffff" stroke="none" pointer-events="all"/><path d="M 976.64 68.04 C 973.67 68.22 970.71 68.96 968.12 70.26 L 851.99 125.64 C 845.88 128.6 841.43 134.15 839.95 140.64 L 811.24 265.28 C 809.95 271.02 811.06 277.14 814.21 282.14 C 814.76 282.69 815.13 283.25 815.5 283.99 L 895.89 383.82 C 900.15 389 906.63 392.15 913.29 392.15 L 1042.2 392.15 C 1048.87 392.15 1055.35 389 1059.61 383.82 L 1139.99 283.8 C 1144.06 278.62 1145.73 271.76 1144.25 265.28 L 1115.54 140.64 C 1114.06 134.15 1109.62 128.6 1103.5 125.64 L 987.38 70.26 C 984.04 68.59 980.34 67.85 976.64 68.04 Z" fill="#2875e2" stroke="none" pointer-events="all"/><path d="M 1082.35 168.36 L 1082.35 279.51 L 985.06 333.5 L 984.48 197.52 Z M 873.33 168.36 L 873.33 279.51 L 970.62 333.5 L 971.2 197.52 Z M 873.33 156.81 L 977.84 126.5 L 1082.35 156.81 L 977.84 187.13 Z" fill="#ffffff" stroke="none" pointer-events="all"/><path d="M 258.13 0.26 C 253.93 0.53 249.73 1.58 246.05 3.42 L 81.33 81.96 C 72.66 86.17 66.36 94.05 64.25 103.24 L 23.54 280.05 C 21.7 288.19 23.27 296.86 27.74 303.95 C 28.53 304.74 29.05 305.53 29.58 306.58 L 143.59 448.18 C 149.63 455.53 158.83 460 168.29 460 L 351.13 460 C 360.59 460 369.78 455.53 375.83 448.18 L 489.84 306.32 C 495.62 298.96 497.98 289.24 495.88 280.05 L 455.16 103.24 C 453.06 94.05 446.76 86.17 438.09 81.96 L 273.37 3.42 C 268.64 1.05 263.39 0 258.13 0.26 Z" fill-opacity="0.5" fill="#ffffff" stroke="none" pointer-events="all"/><path d="M 258.23 14.05 C 254.28 14.29 250.33 15.28 246.88 17.01 L 92.04 90.85 C 83.89 94.8 77.97 102.21 75.99 110.85 L 37.71 277.04 C 35.98 284.7 37.47 292.85 41.66 299.51 C 42.41 300.26 42.9 301 43.39 301.98 L 150.57 435.09 C 156.25 442 164.89 446.2 173.78 446.2 L 345.65 446.2 C 354.54 446.2 363.19 442 368.87 435.09 L 476.04 301.74 C 481.47 294.82 483.7 285.69 481.72 277.04 L 443.44 110.85 C 441.47 102.21 435.54 94.8 427.39 90.85 L 272.56 17.01 C 268.11 14.79 263.17 13.8 258.23 14.05 Z" fill-opacity="0.5" fill="#00aaff" stroke="none" pointer-events="all"/><path d="M 399.19 147.82 L 399.19 296.02 L 269.46 368 L 268.69 186.69 Z M 120.49 147.82 L 120.49 296.02 L 250.22 368 L 250.99 186.69 Z M 120.49 132.42 L 259.84 92 L 399.19 132.42 L 259.84 172.84 Z" fill-opacity="0.5" fill="#ffffff" stroke="none" pointer-events="all"/><path d="M 258.84 96.08 C 256.39 96.23 253.94 96.85 251.8 97.92 L 155.78 143.71 C 150.73 146.16 147.05 150.75 145.83 156.11 L 122.09 259.17 C 121.02 263.92 121.94 268.97 124.54 273.11 C 125 273.57 125.31 274.03 125.61 274.64 L 192.08 357.18 C 195.6 361.47 200.96 364.07 206.47 364.07 L 313.06 364.07 C 318.57 364.07 323.93 361.47 327.45 357.18 L 393.91 274.49 C 397.28 270.2 398.66 264.53 397.43 259.17 L 373.7 156.11 C 372.47 150.75 368.8 146.16 363.74 143.71 L 267.73 97.92 C 264.97 96.54 261.91 95.93 258.84 96.08 Z" fill="#ffffff" stroke="none" pointer-events="all"/><path d="M 258.9 104.12 C 256.6 104.26 254.3 104.84 252.28 105.84 L 162.03 148.88 C 157.28 151.19 153.82 155.51 152.67 160.54 L 130.36 257.42 C 129.35 261.88 130.21 266.64 132.66 270.52 C 133.09 270.95 133.38 271.39 133.67 271.96 L 196.14 349.55 C 199.45 353.58 204.49 356.03 209.67 356.03 L 309.86 356.03 C 315.04 356.03 320.08 353.58 323.39 349.55 L 385.87 271.82 C 389.04 267.79 390.33 262.46 389.18 257.42 L 366.87 160.54 C 365.72 155.51 362.26 151.19 357.51 148.88 L 267.25 105.84 C 264.66 104.55 261.78 103.97 258.9 104.12 Z" fill="#2875e2" stroke="none" pointer-events="all"/><path d="M 343.13 180.88 L 343.13 269.46 L 265.59 312.49 L 265.13 204.12 Z M 176.55 180.88 L 176.55 269.46 L 254.09 312.49 L 254.55 204.12 Z M 176.55 171.67 L 259.84 147.51 L 343.13 171.67 L 259.84 195.83 Z" fill="#ffffff" stroke="none" pointer-events="all"/><path d="M 617.06 0.16 C 614.5 0.32 611.94 0.96 609.7 2.08 L 509.44 49.89 C 504.16 52.45 500.33 57.24 499.05 62.84 L 474.26 170.46 C 473.14 175.41 474.1 180.69 476.82 185.01 C 477.3 185.49 477.62 185.97 477.94 186.61 L 547.34 272.79 C 551.02 277.27 556.61 279.99 562.37 279.99 L 673.66 279.99 C 679.42 279.99 685.01 277.27 688.69 272.79 L 758.09 186.45 C 761.61 181.97 763.05 176.05 761.77 170.46 L 736.98 62.84 C 735.7 57.24 731.86 52.45 726.59 49.89 L 626.33 2.08 C 623.45 0.64 620.25 0 617.06 0.16 Z" fill-opacity="0.5" fill="#ffffff" stroke="none" pointer-events="all"/><path d="M 617.12 8.55 C 614.71 8.7 612.31 9.3 610.2 10.35 L 515.96 55.3 C 511 57.7 507.39 62.21 506.19 67.47 L 482.89 168.63 C 481.84 173.29 482.74 178.25 485.3 182.31 C 485.75 182.76 486.05 183.21 486.35 183.81 L 551.58 264.83 C 555.04 269.03 560.3 271.59 565.71 271.59 L 670.33 271.59 C 675.74 271.59 681 269.03 684.46 264.83 L 749.69 183.66 C 753 179.45 754.35 173.89 753.15 168.63 L 729.85 67.47 C 728.65 62.21 725.04 57.7 720.08 55.3 L 625.84 10.35 C 623.13 9 620.12 8.4 617.12 8.55 Z" fill-opacity="0.5" fill="#00aaff" stroke="none" pointer-events="all"/><path d="M 702.91 89.97 L 702.91 180.18 L 623.95 223.99 L 623.48 113.64 Z M 533.28 89.97 L 533.28 180.18 L 612.24 223.99 L 612.71 113.64 Z M 533.28 80.6 L 618.09 56 L 702.91 80.6 L 618.09 105.2 Z" fill-opacity="0.5" fill="#ffffff" stroke="none" pointer-events="all"/><path d="M 617.2 20.5 C 615.02 20.63 612.83 21.18 610.92 22.14 L 525.23 63 C 520.72 65.18 517.44 69.28 516.35 74.06 L 495.17 166.03 C 494.21 170.27 495.03 174.78 497.36 178.47 C 497.77 178.88 498.04 179.29 498.31 179.83 L 557.62 253.49 C 560.76 257.32 565.55 259.64 570.47 259.64 L 665.58 259.64 C 670.5 259.64 675.28 257.32 678.42 253.49 L 737.73 179.7 C 740.74 175.87 741.97 170.82 740.87 166.03 L 719.69 74.06 C 718.6 69.28 715.32 65.18 710.81 63 L 625.13 22.14 C 622.67 20.91 619.93 20.36 617.2 20.5 Z" fill="#ffffff" stroke="none" pointer-events="all"/><path d="M 617.26 27.67 C 615.2 27.8 613.14 28.31 611.35 29.21 L 530.81 67.62 C 526.57 69.67 523.48 73.52 522.46 78.02 L 502.55 164.47 C 501.65 168.45 502.42 172.69 504.6 176.16 C 504.99 176.55 505.24 176.93 505.5 177.44 L 561.25 246.68 C 564.2 250.28 568.7 252.46 573.32 252.46 L 662.73 252.46 C 667.35 252.46 671.85 250.28 674.8 246.68 L 730.55 177.32 C 733.38 173.72 734.53 168.97 733.51 164.47 L 713.6 78.02 C 712.57 73.52 709.49 69.67 705.25 67.62 L 624.71 29.21 C 622.39 28.05 619.82 27.54 617.26 27.67 Z" fill="#002882" stroke="none" pointer-events="all"/><path d="M 690.57 97.25 L 690.57 174.34 L 623.1 211.78 L 622.7 117.47 Z M 545.61 97.25 L 545.61 174.34 L 613.08 211.78 L 613.48 117.47 Z M 545.61 89.24 L 618.09 68.22 L 690.57 89.24 L 618.09 110.27 Z" fill="#ffffff" stroke="none" pointer-events="all"/><path d="M 258.8 460.16 C 256.24 460.32 253.68 460.96 251.44 462.08 L 151.18 509.89 C 145.9 512.45 142.07 517.24 140.79 522.84 L 116 630.46 C 114.88 635.41 115.84 640.69 118.56 645.01 C 119.04 645.49 119.36 645.97 119.68 646.61 L 189.08 732.79 C 192.76 737.27 198.35 739.99 204.11 739.99 L 315.4 739.99 C 321.16 739.99 326.75 737.27 330.43 732.79 L 399.83 646.45 C 403.35 641.97 404.79 636.05 403.51 630.46 L 378.72 522.84 C 377.44 517.24 373.6 512.45 368.33 509.89 L 268.07 462.08 C 265.19 460.64 261.99 460 258.8 460.16 Z" fill-opacity="0.5" fill="#ffffff" stroke="none" pointer-events="all"/><path d="M 258.86 468.55 C 256.45 468.7 254.05 469.3 251.94 470.35 L 157.7 515.3 C 152.74 517.7 149.13 522.21 147.93 527.47 L 124.63 628.63 C 123.58 633.29 124.48 638.25 127.04 642.31 C 127.49 642.76 127.79 643.21 128.09 643.81 L 193.32 724.83 C 196.78 729.03 202.04 731.59 207.45 731.59 L 312.07 731.59 C 317.48 731.59 322.74 729.03 326.2 724.83 L 391.43 643.66 C 394.74 639.45 396.09 633.89 394.89 628.63 L 371.59 527.47 C 370.39 522.21 366.78 517.7 361.82 515.3 L 267.58 470.35 C 264.87 469 261.86 468.4 258.86 468.55 Z" fill-opacity="0.5" fill="#00aaff" stroke="none" pointer-events="all"/><path d="M 344.65 549.97 L 344.65 640.18 L 265.69 683.99 L 265.22 573.64 Z M 175.02 549.97 L 175.02 640.18 L 253.98 683.99 L 254.45 573.64 Z M 175.02 540.6 L 259.83 516 L 344.65 540.6 L 259.83 565.2 Z" fill-opacity="0.5" fill="#ffffff" stroke="none" pointer-events="all"/><path d="M 259.23 517.92 C 257.73 518.01 256.22 518.39 254.91 519.05 L 196.06 547.11 C 192.96 548.61 190.71 551.43 189.96 554.71 L 175.41 617.88 C 174.76 620.79 175.32 623.88 176.92 626.42 C 177.2 626.7 177.38 626.98 177.57 627.36 L 218.31 677.94 C 220.46 680.57 223.75 682.17 227.13 682.17 L 292.45 682.17 C 295.83 682.17 299.12 680.57 301.27 677.94 L 342.01 627.26 C 344.07 624.63 344.92 621.16 344.17 617.88 L 329.62 554.71 C 328.87 551.43 326.62 548.61 323.52 547.11 L 264.67 519.05 C 262.98 518.2 261.1 517.83 259.23 517.92 Z" fill="#ffffff" stroke="none" pointer-events="all"/><path d="M 259.26 522.84 C 257.85 522.93 256.44 523.29 255.21 523.9 L 199.89 550.28 C 196.98 551.69 194.86 554.34 194.15 557.43 L 180.48 616.8 C 179.86 619.54 180.39 622.45 181.89 624.83 C 182.16 625.1 182.33 625.36 182.51 625.71 L 220.8 673.27 C 222.83 675.74 225.91 677.24 229.09 677.24 L 290.49 677.24 C 293.67 677.24 296.76 675.74 298.79 673.27 L 337.08 625.63 C 339.02 623.16 339.81 619.89 339.11 616.8 L 325.43 557.43 C 324.73 554.34 322.61 551.69 319.7 550.28 L 264.38 523.9 C 262.79 523.11 261.03 522.76 259.26 522.84 Z" fill="#2875e2" stroke="none" pointer-events="all"/><path d="M 309.62 570.64 L 309.62 623.58 L 263.28 649.3 L 263 584.53 Z M 210.05 570.64 L 210.05 623.58 L 256.4 649.3 L 256.67 584.53 Z M 210.05 565.13 L 259.84 550.69 L 309.62 565.13 L 259.84 579.57 Z" fill="#ffffff" stroke="none" pointer-events="all"/><path d="M 976.8 460.16 C 974.24 460.32 971.68 460.96 969.44 462.08 L 869.18 509.89 C 863.91 512.45 860.07 517.25 858.79 522.84 L 834 630.46 C 832.88 635.42 833.84 640.7 836.56 645.01 C 837.04 645.49 837.36 645.97 837.68 646.61 L 907.08 732.8 C 910.76 737.28 916.36 740 922.11 740 L 1033.41 740 C 1039.16 740 1044.76 737.28 1048.44 732.8 L 1117.84 646.45 C 1121.36 641.98 1122.8 636.06 1121.52 630.46 L 1096.73 522.84 C 1095.45 517.25 1091.61 512.45 1086.34 509.89 L 986.08 462.08 C 983.2 460.64 980 460 976.8 460.16 Z" fill-opacity="0.5" fill="#ffffff" stroke="none" pointer-events="all"/><path d="M 976.86 468.55 C 974.46 468.7 972.05 469.3 969.95 470.35 L 875.7 515.3 C 870.74 517.7 867.13 522.21 865.93 527.47 L 842.63 628.63 C 841.58 633.29 842.48 638.25 845.04 642.31 C 845.49 642.76 845.79 643.22 846.09 643.82 L 911.33 724.84 C 914.78 729.04 920.04 731.6 925.46 731.6 L 1030.07 731.6 C 1035.49 731.6 1040.75 729.04 1044.2 724.84 L 1109.44 643.67 C 1112.75 639.46 1114.1 633.9 1112.9 628.63 L 1089.6 527.47 C 1088.4 522.21 1084.79 517.7 1079.83 515.3 L 985.58 470.35 C 982.88 469 979.87 468.4 976.86 468.55 Z" fill-opacity="0.5" fill="#00aaff" stroke="none" pointer-events="all"/><path d="M 1062.66 549.97 L 1062.66 640.18 L 983.7 684 L 983.23 573.64 Z M 893.02 549.97 L 893.02 640.18 L 971.98 684 L 972.45 573.64 Z M 893.02 540.6 L 977.84 516 L 1062.66 540.6 L 977.84 565.21 Z" fill-opacity="0.5" fill="#ffffff" stroke="none" pointer-events="all"/><path d="M 977.49 553.02 C 976.63 553.08 975.77 553.29 975.02 553.67 L 941.34 569.73 C 939.57 570.59 938.28 572.2 937.85 574.08 L 929.52 610.23 C 929.14 611.9 929.47 613.67 930.38 615.12 C 930.54 615.28 930.65 615.44 930.76 615.66 L 954.07 644.61 C 955.31 646.12 957.19 647.03 959.12 647.03 L 996.51 647.03 C 998.44 647.03 1000.32 646.12 1001.56 644.61 L 1024.87 615.61 C 1026.05 614.1 1026.54 612.11 1026.11 610.23 L 1017.78 574.08 C 1017.35 572.2 1016.06 570.59 1014.29 569.73 L 980.61 553.67 C 979.64 553.18 978.57 552.97 977.49 553.02 Z" fill="#ffffff" stroke="none" pointer-events="all"/><path d="M 977.51 555.84 C 976.7 555.89 975.9 556.09 975.19 556.45 L 943.53 571.55 C 941.86 572.35 940.65 573.87 940.25 575.64 L 932.42 609.62 C 932.07 611.18 932.37 612.85 933.23 614.21 C 933.38 614.37 933.48 614.52 933.58 614.72 L 955.5 641.94 C 956.66 643.35 958.42 644.21 960.24 644.21 L 995.39 644.21 C 997.2 644.21 998.97 643.35 1000.13 641.94 L 1022.05 614.67 C 1023.16 613.25 1023.61 611.39 1023.21 609.62 L 1015.38 575.64 C 1014.98 573.87 1013.77 572.35 1012.1 571.55 L 980.44 556.45 C 979.53 555.99 978.52 555.79 977.51 555.84 Z" fill="#2875e2" stroke="none" pointer-events="all"/><path d="M 1007.06 582.77 L 1007.06 613.84 L 979.86 628.93 L 979.7 590.92 Z M 948.62 582.77 L 948.62 613.84 L 975.82 628.93 L 975.98 590.92 Z M 948.62 579.54 L 977.84 571.07 L 1007.06 579.54 L 977.84 588.01 Z" fill="#ffffff" stroke="none" pointer-events="all"/><path d="M 1144.41 420.07 C 1143.36 420.13 1142.31 420.39 1141.39 420.85 L 1100.21 440.49 C 1098.05 441.54 1096.47 443.51 1095.94 445.81 L 1085.76 490.01 C 1085.3 492.05 1085.7 494.21 1086.81 495.99 C 1087.01 496.19 1087.14 496.38 1087.27 496.64 L 1115.78 532.04 C 1117.29 533.88 1119.59 535 1121.95 535 L 1167.66 535 C 1170.03 535 1172.33 533.88 1173.84 532.04 L 1202.34 496.58 C 1203.78 494.74 1204.38 492.31 1203.85 490.01 L 1193.67 445.81 C 1193.15 443.51 1191.57 441.54 1189.4 440.49 L 1148.22 420.85 C 1147.04 420.26 1145.73 420 1144.41 420.07 Z" fill-opacity="0.5" fill="#ffffff" stroke="none" pointer-events="all"/><path d="M 1144.44 423.51 C 1143.45 423.57 1142.46 423.82 1141.6 424.25 L 1102.89 442.71 C 1100.85 443.7 1099.37 445.55 1098.88 447.71 L 1089.31 489.26 C 1088.88 491.17 1089.25 493.21 1090.3 494.88 C 1090.48 495.06 1090.6 495.25 1090.73 495.5 L 1117.52 528.77 C 1118.94 530.5 1121.1 531.55 1123.32 531.55 L 1166.29 531.55 C 1168.52 531.55 1170.68 530.5 1172.1 528.77 L 1198.89 495.43 C 1200.25 493.71 1200.8 491.42 1200.31 489.26 L 1190.74 447.71 C 1190.25 445.55 1188.77 443.7 1186.73 442.71 L 1148.02 424.25 C 1146.91 423.7 1145.67 423.45 1144.44 423.51 Z" fill-opacity="0.5" fill="#00aaff" stroke="none" pointer-events="all"/><path d="M 1179.68 456.95 L 1179.68 494 L 1147.25 512 L 1147.05 466.67 Z M 1110 456.95 L 1110 494 L 1142.43 512 L 1142.63 466.67 Z M 1110 453.1 L 1144.84 443 L 1179.68 453.1 L 1144.84 463.21 Z" fill-opacity="0.5" fill="#ffffff" stroke="none" pointer-events="all"/><path d="M 1144.7 458.21 C 1144.34 458.23 1143.99 458.32 1143.68 458.47 L 1129.85 465.07 C 1129.12 465.42 1128.59 466.08 1128.41 466.85 L 1124.99 481.7 C 1124.84 482.39 1124.97 483.12 1125.35 483.71 C 1125.41 483.78 1125.46 483.84 1125.5 483.93 L 1135.08 495.82 C 1135.58 496.44 1136.36 496.82 1137.15 496.82 L 1152.51 496.82 C 1153.3 496.82 1154.07 496.44 1154.58 495.82 L 1164.16 483.91 C 1164.64 483.29 1164.84 482.48 1164.66 481.7 L 1161.24 466.85 C 1161.07 466.08 1160.54 465.42 1159.81 465.07 L 1145.98 458.47 C 1145.58 458.27 1145.14 458.18 1144.7 458.21 Z" fill="#ffffff" stroke="none" pointer-events="all"/><path d="M 1144.71 459.36 C 1144.37 459.38 1144.04 459.47 1143.75 459.61 L 1130.75 465.81 C 1130.06 466.15 1129.57 466.77 1129.4 467.49 L 1126.19 481.45 C 1126.04 482.09 1126.16 482.78 1126.52 483.34 C 1126.58 483.4 1126.62 483.46 1126.66 483.55 L 1135.66 494.72 C 1136.14 495.3 1136.87 495.66 1137.61 495.66 L 1152.05 495.66 C 1152.79 495.66 1153.52 495.3 1154 494.72 L 1163 483.52 C 1163.45 482.94 1163.64 482.18 1163.47 481.45 L 1160.26 467.49 C 1160.09 466.77 1159.6 466.15 1158.91 465.81 L 1145.91 459.61 C 1145.53 459.43 1145.12 459.34 1144.71 459.36 Z" fill="#2875e2" stroke="none" pointer-events="all"/><path d="M 1156.84 470.42 L 1156.84 483.19 L 1145.67 489.38 L 1145.6 473.77 Z M 1132.84 470.42 L 1132.84 483.19 L 1144.01 489.38 L 1144.08 473.77 Z M 1132.84 469.1 L 1144.84 465.62 L 1156.84 469.1 L 1144.84 472.58 Z" fill="#ffffff" stroke="none" pointer-events="all"/></g></svg>