<?xml version="1.0" encoding="UTF-8"?>
<!DOCTYPE svg PUBLIC "-//W3C//DTD SVG 1.1//EN" "http://www.w3.org/Graphics/SVG/1.1/DTD/svg11.dtd">
<svg xmlns="http://www.w3.org/2000/svg" xmlns:xlink="http://www.w3.org/1999/xlink" version="1.1" width="1240px" height="742px" viewBox="-0.5 -0.5 1240 742"><defs><style type="text/css">@import url(https://fonts.googleapis.com/css?family=Roboto);&#xa;</style></defs><g><path d="M 616.55 280.26 C 612.35 280.53 608.15 281.58 604.47 283.42 L 439.75 361.96 C 431.08 366.17 424.78 374.05 422.67 383.24 L 381.96 560.05 C 380.12 568.19 381.69 576.86 386.16 583.95 C 386.95 584.74 387.47 585.53 388 586.58 L 502.01 728.18 C 508.05 735.53 517.25 740 526.71 740 L 709.55 740 C 719.01 740 728.2 735.53 734.25 728.18 L 848.26 586.32 C 854.04 578.96 856.4 569.24 854.3 560.05 L 813.58 383.24 C 811.48 374.05 805.18 366.17 796.51 361.96 L 631.79 283.42 C 627.06 281.05 621.81 280 616.55 280.26 Z" fill-opacity="0.5" fill="#ffffff" stroke="none" pointer-events="all"/><path d="M 616.65 294.05 C 612.7 294.29 608.75 295.28 605.3 297.01 L 450.46 370.85 C 442.31 374.8 436.39 382.21 434.41 390.85 L 396.13 557.04 C 394.4 564.7 395.89 572.85 400.08 579.51 C 400.83 580.26 401.32 581 401.81 581.98 L 508.99 715.09 C 514.67 722 523.31 726.2 532.2 726.2 L 704.07 726.2 C 712.96 726.2 721.61 722 727.29 715.09 L 834.46 581.74 C 839.89 574.82 842.12 565.69 840.14 557.04 L 801.86 390.85 C 799.89 382.21 793.96 374.8 785.81 370.85 L 630.98 297.01 C 626.53 294.79 621.59 293.8 616.65 294.05 Z" fill-opacity="0.5" fill="#00aaff" stroke="none" pointer-events="all"/><path d="M 757.61 427.82 L 757.61 576.02 L 627.88 648 L 627.11 466.69 Z M 478.91 427.82 L 478.91 576.02 L 608.64 648 L 609.41 466.69 Z M 478.91 412.42 L 618.26 372 L 757.61 412.42 L 618.26 452.84 Z" fill-opacity="0.5" fill="#ffffff" stroke="none" pointer-events="all"/><path d="M 619.43 412.82 C 618.01 412.91 616.6 413.27 615.37 413.88 L 560.03 440.27 C 557.12 441.68 555 444.33 554.3 447.42 L 540.62 506.81 C 540 509.55 540.53 512.46 542.03 514.84 C 542.29 515.11 542.47 515.37 542.65 515.73 L 580.95 563.29 C 582.98 565.76 586.07 567.26 589.24 567.26 L 650.67 567.26 C 653.84 567.26 656.93 565.76 658.96 563.29 L 697.26 515.64 C 699.21 513.17 700 509.9 699.29 506.81 L 685.62 447.42 C 684.91 444.33 682.79 441.68 679.88 440.27 L 624.54 413.88 C 622.96 413.09 621.19 412.74 619.43 412.82 Z" fill="#ffffff" stroke="none" pointer-events="all"/><path d="M 619.46 417.45 C 618.13 417.54 616.81 417.87 615.64 418.45 L 563.63 443.25 C 560.89 444.58 558.9 447.07 558.24 449.97 L 545.38 505.8 C 544.8 508.37 545.3 511.11 546.71 513.35 C 546.96 513.6 547.12 513.85 547.29 514.18 L 583.29 558.9 C 585.2 561.22 588.1 562.63 591.09 562.63 L 648.83 562.63 C 651.81 562.63 654.72 561.22 656.63 558.9 L 692.63 514.1 C 694.45 511.78 695.2 508.71 694.54 505.8 L 681.68 449.97 C 681.01 447.07 679.02 444.58 676.29 443.25 L 624.27 418.45 C 622.78 417.7 621.12 417.37 619.46 417.45 Z" fill="#2875e2" stroke="none" pointer-events="all"/><path d="M 668 461.69 L 668 512.74 L 623.31 537.54 L 623.05 475.08 Z M 572 461.69 L 572 512.74 L 616.69 537.54 L 616.95 475.08 Z M 572 456.39 L 620 442.46 L 668 456.39 L 620 470.31 Z" fill="#ffffff" stroke="none" pointer-events="all"/><path d="M 976.29 0.26 C 972.09 0.53 967.89 1.58 964.21 3.42 L 799.49 81.96 C 790.82 86.17 784.52 94.05 782.41 103.24 L 741.7 280.05 C 739.86 288.19 741.43 296.86 745.9 303.95 C 746.69 304.74 747.21 305.53 747.74 306.58 L 861.75 448.18 C 867.79 455.53 876.99 460 886.45 460 L 1069.29 460 C 1078.75 460 1087.94 455.53 1093.99 448.18 L 1208 306.32 C 1213.78 298.96 1216.14 289.24 1214.04 280.05 L 1173.32 103.24 C 1171.22 94.05 1164.92 86.17 1156.25 81.96 L 991.53 3.42 C 986.8 1.05 981.55 0 976.29 0.26 Z" fill-opacity="0.5" fill="#ffffff" stroke="none" pointer-events="all"/><path d="M 976.39 14.05 C 972.44 14.29 968.49 15.28 965.04 17.01 L 810.2 90.85 C 802.05 94.8 796.13 102.21 794.15 110.85 L 755.87 277.04 C 754.14 284.7 755.63 292.85 759.82 299.51 C 760.57 300.26 761.06 301 761.55 301.98 L 868.73 435.09 C 874.41 442 883.05 446.2 891.94 446.2 L 1063.81 446.2 C 1072.7 446.2 1081.35 442 1087.03 435.09 L 1194.2 301.74 C 1199.63 294.82 1201.86 285.69 1199.88 277.04 L 1161.6 110.85 C 1159.63 102.21 1153.7 94.8 1145.55 90.85 L 990.72 17.01 C 986.27 14.79 981.33 13.8 976.39 14.05 Z" fill-opacity="0.5" fill="#00aaff" stroke="none" pointer-events="all"/><path d="M 1117.35 147.82 L 1117.35 296.02 L 987.62 368 L 986.85 186.69 Z M 838.65 147.82 L 838.65 296.02 L 968.38 368 L 969.15 186.69 Z M 838.65 132.42 L 978 92 L 1117.35 132.42 L 978 172.84 Z" fill-opacity="0.5" fill="#ffffff" stroke="none" pointer-events="all"/><path d="M 977 95.15 C 974.53 95.31 972.06 95.93 969.9 97 L 873.22 143.11 C 868.13 145.58 864.43 150.2 863.2 155.6 L 839.3 259.37 C 838.22 264.15 839.15 269.24 841.77 273.41 C 842.23 273.87 842.54 274.33 842.85 274.95 L 909.77 358.06 C 913.31 362.38 918.71 365 924.26 365 L 1031.58 365 C 1037.13 365 1042.53 362.38 1046.08 358.06 L 1113 274.79 C 1116.39 270.48 1117.78 264.77 1116.55 259.37 L 1092.65 155.6 C 1091.41 150.2 1087.71 145.58 1082.62 143.11 L 985.94 97 C 983.17 95.62 980.08 95 977 95.15 Z" fill="#ffffff" stroke="none" pointer-events="all"/><path d="M 977.06 103.24 C 974.74 103.39 972.42 103.97 970.39 104.98 L 879.51 148.32 C 874.73 150.64 871.25 154.99 870.09 160.06 L 847.62 257.61 C 846.61 262.11 847.48 266.89 849.94 270.8 C 850.38 271.24 850.67 271.67 850.96 272.25 L 913.86 350.38 C 917.2 354.44 922.27 356.9 927.49 356.9 L 1028.37 356.9 C 1033.59 356.9 1038.66 354.44 1041.99 350.38 L 1104.9 272.11 C 1108.09 268.05 1109.39 262.69 1108.23 257.61 L 1085.77 160.06 C 1084.61 154.99 1081.13 150.64 1076.35 148.32 L 985.46 104.98 C 982.86 103.68 979.96 103.1 977.06 103.24 Z" fill="#2875e2" stroke="none" pointer-events="all"/><path d="M 1059.79 181.76 L 1059.79 268.75 L 983.65 311 L 983.2 204.58 Z M 896.21 181.76 L 896.21 268.75 L 972.35 311 L 972.8 204.58 Z M 896.21 172.72 L 978 149 L 1059.79 172.72 L 978 196.45 Z" fill="#ffffff" stroke="none" pointer-events="all"/><path d="M 258.29 0.26 C 254.09 0.53 249.89 1.58 246.21 3.42 L 81.49 81.96 C 72.82 86.17 66.52 94.05 64.41 103.24 L 23.7 280.05 C 21.86 288.19 23.43 296.86 27.9 303.95 C 28.69 304.74 29.21 305.53 29.74 306.58 L 143.75 448.18 C 149.79 455.53 158.99 460 168.45 460 L 351.29 460 C 360.75 460 369.94 455.53 375.99 448.18 L 490 306.32 C 495.78 298.96 498.14 289.24 496.04 280.05 L 455.32 103.24 C 453.22 94.05 446.92 86.17 438.25 81.96 L 273.53 3.42 C 268.8 1.05 263.55 0 258.29 0.26 Z" fill-opacity="0.5" fill="#ffffff" stroke="none" pointer-events="all"/><path d="M 258.39 14.05 C 254.44 14.29 250.49 15.28 247.04 17.01 L 92.2 90.85 C 84.05 94.8 78.13 102.21 76.15 110.85 L 37.87 277.04 C 36.14 284.7 37.63 292.85 41.82 299.51 C 42.57 300.26 43.06 301 43.55 301.98 L 150.73 435.09 C 156.41 442 165.05 446.2 173.94 446.2 L 345.81 446.2 C 354.7 446.2 363.35 442 369.03 435.09 L 476.2 301.74 C 481.63 294.82 483.86 285.69 481.88 277.04 L 443.6 110.85 C 441.63 102.21 435.7 94.8 427.55 90.85 L 272.72 17.01 C 268.27 14.79 263.33 13.8 258.39 14.05 Z" fill-opacity="0.5" fill="#00aaff" stroke="none" pointer-events="all"/><path d="M 399.35 147.82 L 399.35 296.02 L 269.62 368 L 268.85 186.69 Z M 120.65 147.82 L 120.65 296.02 L 250.38 368 L 251.15 186.69 Z M 120.65 132.42 L 260 92 L 399.35 132.42 L 260 172.84 Z" fill-opacity="0.5" fill="#ffffff" stroke="none" pointer-events="all"/><path d="M 259.43 152.82 C 258.01 152.91 256.6 153.27 255.37 153.88 L 200.03 180.27 C 197.12 181.68 195 184.33 194.3 187.42 L 180.62 246.81 C 180 249.55 180.53 252.46 182.03 254.84 C 182.29 255.11 182.47 255.37 182.65 255.73 L 220.95 303.29 C 222.98 305.76 226.07 307.26 229.24 307.26 L 290.67 307.26 C 293.84 307.26 296.93 305.76 298.96 303.29 L 337.26 255.64 C 339.21 253.17 340 249.9 339.29 246.81 L 325.62 187.42 C 324.91 184.33 322.79 181.68 319.88 180.27 L 264.54 153.88 C 262.96 153.09 261.19 152.74 259.43 152.82 Z" fill="#ffffff" stroke="none" pointer-events="all"/><path d="M 259.46 157.45 C 258.13 157.54 256.81 157.87 255.64 158.45 L 203.63 183.25 C 200.89 184.58 198.9 187.07 198.24 189.97 L 185.38 245.8 C 184.8 248.37 185.3 251.11 186.71 253.35 C 186.96 253.6 187.12 253.85 187.29 254.18 L 223.29 298.9 C 225.2 301.22 228.1 302.63 231.09 302.63 L 288.83 302.63 C 291.81 302.63 294.72 301.22 296.63 298.9 L 332.63 254.1 C 334.45 251.78 335.2 248.71 334.54 245.8 L 321.68 189.97 C 321.01 187.07 319.02 184.58 316.29 183.25 L 264.27 158.45 C 262.78 157.7 261.12 157.37 259.46 157.45 Z" fill="#2875e2" stroke="none" pointer-events="all"/><path d="M 308 201.69 L 308 252.74 L 263.31 277.54 L 263.05 215.08 Z M 212 201.69 L 212 252.74 L 256.69 277.54 L 256.95 215.08 Z M 212 196.39 L 260 182.46 L 308 196.39 L 260 210.31 Z" fill="#ffffff" stroke="none" pointer-events="all"/><path d="M 617.22 0.16 C 614.66 0.32 612.1 0.96 609.86 2.08 L 509.6 49.89 C 504.32 52.45 500.49 57.24 499.21 62.84 L 474.42 170.46 C 473.3 175.41 474.26 180.69 476.98 185.01 C 477.46 185.49 477.78 185.97 478.1 186.61 L 547.5 272.79 C 551.18 277.27 556.77 279.99 562.53 279.99 L 673.82 279.99 C 679.58 279.99 685.17 277.27 688.85 272.79 L 758.25 186.45 C 761.77 181.97 763.21 176.05 761.93 170.46 L 737.14 62.84 C 735.86 57.24 732.02 52.45 726.75 49.89 L 626.49 2.08 C 623.61 0.64 620.41 0 617.22 0.16 Z" fill-opacity="0.5" fill="#ffffff" stroke="none" pointer-events="all"/><path d="M 617.28 8.55 C 614.87 8.7 612.47 9.3 610.36 10.35 L 516.12 55.3 C 511.16 57.7 507.55 62.21 506.35 67.47 L 483.05 168.63 C 482 173.29 482.9 178.25 485.46 182.31 C 485.91 182.76 486.21 183.21 486.51 183.81 L 551.74 264.83 C 555.2 269.03 560.46 271.59 565.87 271.59 L 670.49 271.59 C 675.9 271.59 681.16 269.03 684.62 264.83 L 749.85 183.66 C 753.16 179.45 754.51 173.89 753.31 168.63 L 730.01 67.47 C 728.81 62.21 725.2 57.7 720.24 55.3 L 626 10.35 C 623.29 9 620.28 8.4 617.28 8.55 Z" fill-opacity="0.5" fill="#00aaff" stroke="none" pointer-events="all"/><path d="M 703.07 89.97 L 703.07 180.18 L 624.11 223.99 L 623.64 113.64 Z M 533.44 89.97 L 533.44 180.18 L 612.4 223.99 L 612.87 113.64 Z M 533.44 80.6 L 618.25 56 L 703.07 80.6 L 618.25 105.2 Z" fill-opacity="0.5" fill="#ffffff" stroke="none" pointer-events="all"/><path d="M 617.65 57.92 C 616.15 58.01 614.64 58.39 613.33 59.05 L 554.48 87.11 C 551.38 88.61 549.13 91.43 548.38 94.71 L 533.83 157.88 C 533.18 160.79 533.74 163.88 535.34 166.42 C 535.62 166.7 535.8 166.98 535.99 167.36 L 576.73 217.94 C 578.88 220.57 582.17 222.17 585.55 222.17 L 650.87 222.17 C 654.25 222.17 657.54 220.57 659.69 217.94 L 700.43 167.26 C 702.49 164.63 703.34 161.16 702.59 157.88 L 688.04 94.71 C 687.29 91.43 685.04 88.61 681.94 87.11 L 623.09 59.05 C 621.4 58.2 619.52 57.83 617.65 57.92 Z" fill="#ffffff" stroke="none" pointer-events="all"/><path d="M 617.68 62.84 C 616.27 62.93 614.86 63.29 613.63 63.9 L 558.31 90.28 C 555.4 91.69 553.28 94.34 552.57 97.43 L 538.9 156.8 C 538.28 159.54 538.81 162.45 540.31 164.83 C 540.58 165.1 540.75 165.36 540.93 165.71 L 579.22 213.27 C 581.25 215.74 584.33 217.24 587.51 217.24 L 648.91 217.24 C 652.09 217.24 655.18 215.74 657.21 213.27 L 695.5 165.63 C 697.44 163.16 698.23 159.89 697.53 156.8 L 683.85 97.43 C 683.15 94.34 681.03 91.69 678.12 90.28 L 622.8 63.9 C 621.21 63.11 619.45 62.76 617.68 62.84 Z" fill="#2875e2" stroke="none" pointer-events="all"/><path d="M 668.04 110.64 L 668.04 163.58 L 621.7 189.3 L 621.42 124.53 Z M 568.47 110.64 L 568.47 163.58 L 614.82 189.3 L 615.09 124.53 Z M 568.47 105.13 L 618.26 90.69 L 668.04 105.13 L 618.26 119.57 Z" fill="#ffffff" stroke="none" pointer-events="all"/><path d="M 258.96 460.16 C 256.4 460.32 253.84 460.96 251.6 462.08 L 151.34 509.89 C 146.06 512.45 142.23 517.24 140.95 522.84 L 116.16 630.46 C 115.04 635.41 116 640.69 118.72 645.01 C 119.2 645.49 119.52 645.97 119.84 646.61 L 189.24 732.79 C 192.92 737.27 198.51 739.99 204.27 739.99 L 315.56 739.99 C 321.32 739.99 326.91 737.27 330.59 732.79 L 399.99 646.45 C 403.51 641.97 404.95 636.05 403.67 630.46 L 378.88 522.84 C 377.6 517.24 373.76 512.45 368.49 509.89 L 268.23 462.08 C 265.35 460.64 262.15 460 258.96 460.16 Z" fill-opacity="0.5" fill="#ffffff" stroke="none" pointer-events="all"/><path d="M 259.02 468.55 C 256.61 468.7 254.21 469.3 252.1 470.35 L 157.86 515.3 C 152.9 517.7 149.29 522.21 148.09 527.47 L 124.79 628.63 C 123.74 633.29 124.64 638.25 127.2 642.31 C 127.65 642.76 127.95 643.21 128.25 643.81 L 193.48 724.83 C 196.94 729.03 202.2 731.59 207.61 731.59 L 312.23 731.59 C 317.64 731.59 322.9 729.03 326.36 724.83 L 391.59 643.66 C 394.9 639.45 396.25 633.89 395.05 628.63 L 371.75 527.47 C 370.55 522.21 366.94 517.7 361.98 515.3 L 267.74 470.35 C 265.03 469 262.02 468.4 259.02 468.55 Z" fill-opacity="0.5" fill="#00aaff" stroke="none" pointer-events="all"/><path d="M 344.81 549.97 L 344.81 640.18 L 265.85 683.99 L 265.38 573.64 Z M 175.18 549.97 L 175.18 640.18 L 254.14 683.99 L 254.61 573.64 Z M 175.18 540.6 L 259.99 516 L 344.81 540.6 L 259.99 565.2 Z" fill-opacity="0.5" fill="#ffffff" stroke="none" pointer-events="all"/><path d="M 259.39 517.92 C 257.89 518.01 256.38 518.39 255.07 519.05 L 196.22 547.11 C 193.12 548.61 190.87 551.43 190.12 554.71 L 175.57 617.88 C 174.92 620.79 175.48 623.88 177.08 626.42 C 177.36 626.7 177.54 626.98 177.73 627.36 L 218.47 677.94 C 220.62 680.57 223.91 682.17 227.29 682.17 L 292.61 682.17 C 295.99 682.17 299.28 680.57 301.43 677.94 L 342.17 627.26 C 344.23 624.63 345.08 621.16 344.33 617.88 L 329.78 554.71 C 329.03 551.43 326.78 548.61 323.68 547.11 L 264.83 519.05 C 263.14 518.2 261.26 517.83 259.39 517.92 Z" fill="#ffffff" stroke="none" pointer-events="all"/><path d="M 259.42 522.84 C 258.01 522.93 256.6 523.29 255.37 523.9 L 200.05 550.28 C 197.14 551.69 195.02 554.34 194.31 557.43 L 180.64 616.8 C 180.02 619.54 180.55 622.45 182.05 624.83 C 182.32 625.1 182.49 625.36 182.67 625.71 L 220.96 673.27 C 222.99 675.74 226.07 677.24 229.25 677.24 L 290.65 677.24 C 293.83 677.24 296.92 675.74 298.95 673.27 L 337.24 625.63 C 339.18 623.16 339.97 619.89 339.27 616.8 L 325.59 557.43 C 324.89 554.34 322.77 551.69 319.86 550.28 L 264.54 523.9 C 262.95 523.11 261.19 522.76 259.42 522.84 Z" fill="#2875e2" stroke="none" pointer-events="all"/><path d="M 309.78 570.64 L 309.78 623.58 L 263.44 649.3 L 263.16 584.53 Z M 210.21 570.64 L 210.21 623.58 L 256.56 649.3 L 256.83 584.53 Z M 210.21 565.13 L 260 550.69 L 309.78 565.13 L 260 579.57 Z" fill="#ffffff" stroke="none" pointer-events="all"/><path d="M 976.96 460.16 C 974.4 460.32 971.84 460.96 969.6 462.08 L 869.34 509.89 C 864.07 512.45 860.23 517.25 858.95 522.84 L 834.16 630.46 C 833.04 635.42 834 640.7 836.72 645.01 C 837.2 645.49 837.52 645.97 837.84 646.61 L 907.24 732.8 C 910.92 737.28 916.52 740 922.27 740 L 1033.57 740 C 1039.32 740 1044.92 737.28 1048.6 732.8 L 1118 646.45 C 1121.52 641.98 1122.96 636.06 1121.68 630.46 L 1096.89 522.84 C 1095.61 517.25 1091.77 512.45 1086.5 509.89 L 986.24 462.08 C 983.36 460.64 980.16 460 976.96 460.16 Z" fill-opacity="0.5" fill="#ffffff" stroke="none" pointer-events="all"/><path d="M 977.02 468.55 C 974.62 468.7 972.21 469.3 970.11 470.35 L 875.86 515.3 C 870.9 517.7 867.29 522.21 866.09 527.47 L 842.79 628.63 C 841.74 633.29 842.64 638.25 845.2 642.31 C 845.65 642.76 845.95 643.22 846.25 643.82 L 911.49 724.84 C 914.94 729.04 920.2 731.6 925.62 731.6 L 1030.23 731.6 C 1035.65 731.6 1040.91 729.04 1044.36 724.84 L 1109.6 643.67 C 1112.91 639.46 1114.26 633.9 1113.06 628.63 L 1089.76 527.47 C 1088.56 522.21 1084.95 517.7 1079.99 515.3 L 985.74 470.35 C 983.04 469 980.03 468.4 977.02 468.55 Z" fill-opacity="0.5" fill="#00aaff" stroke="none" pointer-events="all"/><path d="M 1062.82 549.97 L 1062.82 640.18 L 983.86 684 L 983.39 573.64 Z M 893.18 549.97 L 893.18 640.18 L 972.14 684 L 972.61 573.64 Z M 893.18 540.6 L 978 516 L 1062.82 540.6 L 978 565.21 Z" fill-opacity="0.5" fill="#ffffff" stroke="none" pointer-events="all"/><path d="M 977.65 553.02 C 976.79 553.08 975.93 553.29 975.18 553.67 L 941.5 569.73 C 939.73 570.59 938.44 572.2 938.01 574.08 L 929.68 610.23 C 929.3 611.9 929.63 613.67 930.54 615.12 C 930.7 615.28 930.81 615.44 930.92 615.66 L 954.23 644.61 C 955.47 646.12 957.35 647.03 959.28 647.03 L 996.67 647.03 C 998.6 647.03 1000.48 646.12 1001.72 644.61 L 1025.03 615.61 C 1026.21 614.1 1026.7 612.11 1026.27 610.23 L 1017.94 574.08 C 1017.51 572.2 1016.22 570.59 1014.45 569.73 L 980.77 553.67 C 979.8 553.18 978.73 552.97 977.65 553.02 Z" fill="#ffffff" stroke="none" pointer-events="all"/><path d="M 977.67 555.84 C 976.86 555.89 976.06 556.09 975.35 556.45 L 943.69 571.55 C 942.02 572.35 940.81 573.87 940.41 575.64 L 932.58 609.62 C 932.23 611.18 932.53 612.85 933.39 614.21 C 933.54 614.37 933.64 614.52 933.74 614.72 L 955.66 641.94 C 956.82 643.35 958.58 644.21 960.4 644.21 L 995.55 644.21 C 997.36 644.21 999.13 643.35 1000.29 641.94 L 1022.21 614.67 C 1023.32 613.25 1023.77 611.39 1023.37 609.62 L 1015.54 575.64 C 1015.14 573.87 1013.93 572.35 1012.26 571.55 L 980.6 556.45 C 979.69 555.99 978.68 555.79 977.67 555.84 Z" fill="#2875e2" stroke="none" pointer-events="all"/><path d="M 1007.22 582.77 L 1007.22 613.84 L 980.02 628.93 L 979.86 590.92 Z M 948.78 582.77 L 948.78 613.84 L 975.98 628.93 L 976.14 590.92 Z M 948.78 579.54 L 978 571.07 L 1007.22 579.54 L 978 588.01 Z" fill="#ffffff" stroke="none" pointer-events="all"/><path d="M 1144.57 420.07 C 1143.52 420.13 1142.47 420.39 1141.55 420.85 L 1100.37 440.49 C 1098.21 441.54 1096.63 443.51 1096.1 445.81 L 1085.92 490.01 C 1085.46 492.05 1085.86 494.21 1086.97 495.99 C 1087.17 496.19 1087.3 496.38 1087.43 496.64 L 1115.94 532.04 C 1117.45 533.88 1119.75 535 1122.11 535 L 1167.82 535 C 1170.19 535 1172.49 533.88 1174 532.04 L 1202.5 496.58 C 1203.94 494.74 1204.54 492.31 1204.01 490.01 L 1193.83 445.81 C 1193.31 443.51 1191.73 441.54 1189.56 440.49 L 1148.38 420.85 C 1147.2 420.26 1145.89 420 1144.57 420.07 Z" fill-opacity="0.5" fill="#ffffff" stroke="none" pointer-events="all"/><path d="M 1144.6 423.51 C 1143.61 423.57 1142.62 423.82 1141.76 424.25 L 1103.05 442.71 C 1101.01 443.7 1099.53 445.55 1099.04 447.71 L 1089.47 489.26 C 1089.04 491.17 1089.41 493.21 1090.46 494.88 C 1090.64 495.06 1090.76 495.25 1090.89 495.5 L 1117.68 528.77 C 1119.1 530.5 1121.26 531.55 1123.48 531.55 L 1166.45 531.55 C 1168.68 531.55 1170.84 530.5 1172.26 528.77 L 1199.05 495.43 C 1200.41 493.71 1200.96 491.42 1200.47 489.26 L 1190.9 447.71 C 1190.41 445.55 1188.93 443.7 1186.89 442.71 L 1148.18 424.25 C 1147.07 423.7 1145.83 423.45 1144.6 423.51 Z" fill-opacity="0.5" fill="#00aaff" stroke="none" pointer-events="all"/><path d="M 1179.84 456.95 L 1179.84 494 L 1147.41 512 L 1147.21 466.67 Z M 1110.16 456.95 L 1110.16 494 L 1142.59 512 L 1142.79 466.67 Z M 1110.16 453.1 L 1145 443 L 1179.84 453.1 L 1145 463.21 Z" fill-opacity="0.5" fill="#ffffff" stroke="none" pointer-events="all"/><path d="M 1144.86 458.21 C 1144.5 458.23 1144.15 458.32 1143.84 458.47 L 1130.01 465.07 C 1129.28 465.42 1128.75 466.08 1128.57 466.85 L 1125.15 481.7 C 1125 482.39 1125.13 483.12 1125.51 483.71 C 1125.57 483.78 1125.62 483.84 1125.66 483.93 L 1135.24 495.82 C 1135.74 496.44 1136.52 496.82 1137.31 496.82 L 1152.67 496.82 C 1153.46 496.82 1154.23 496.44 1154.74 495.82 L 1164.32 483.91 C 1164.8 483.29 1165 482.48 1164.82 481.7 L 1161.4 466.85 C 1161.23 466.08 1160.7 465.42 1159.97 465.07 L 1146.14 458.47 C 1145.74 458.27 1145.3 458.18 1144.86 458.21 Z" fill="#ffffff" stroke="none" pointer-events="all"/><path d="M 1144.87 459.36 C 1144.53 459.38 1144.2 459.47 1143.91 459.61 L 1130.91 465.81 C 1130.22 466.15 1129.73 466.77 1129.56 467.49 L 1126.35 481.45 C 1126.2 482.09 1126.32 482.78 1126.68 483.34 C 1126.74 483.4 1126.78 483.46 1126.82 483.55 L 1135.82 494.72 C 1136.3 495.3 1137.03 495.66 1137.77 495.66 L 1152.21 495.66 C 1152.95 495.66 1153.68 495.3 1154.16 494.72 L 1163.16 483.52 C 1163.61 482.94 1163.8 482.18 1163.63 481.45 L 1160.42 467.49 C 1160.25 466.77 1159.76 466.15 1159.07 465.81 L 1146.07 459.61 C 1145.69 459.43 1145.28 459.34 1144.87 459.36 Z" fill="#2875e2" stroke="none" pointer-events="all"/><path d="M 1157 470.42 L 1157 483.19 L 1145.83 489.38 L 1145.76 473.77 Z M 1133 470.42 L 1133 483.19 L 1144.17 489.38 L 1144.24 473.77 Z M 1133 469.1 L 1145 465.62 L 1157 469.1 L 1145 472.58 Z" fill="#ffffff" stroke="none" pointer-events="all"/></g></svg>