<?xml version="1.0" encoding="UTF-8"?>
<!DOCTYPE svg PUBLIC "-//W3C//DTD SVG 1.1//EN" "http://www.w3.org/Graphics/SVG/1.1/DTD/svg11.dtd">
<svg xmlns="http://www.w3.org/2000/svg" xmlns:xlink="http://www.w3.org/1999/xlink" version="1.1" width="1240px" height="755px" viewBox="-0.5 -0.5 1240 755"><defs><style type="text/css">@import url(https://fonts.googleapis.com/css?family=Roboto);&#xa;</style></defs><g><path d="M 624.73 -0.53 C 621.07 -0.3 617.42 0.61 614.22 2.21 L 471 70.51 C 463.46 74.16 457.98 81.02 456.15 89.01 L 420.74 242.74 C 419.14 249.82 420.51 257.36 424.4 263.53 C 425.08 264.21 425.54 264.9 426 265.81 L 525.13 388.93 C 530.39 395.33 538.38 399.21 546.61 399.21 L 705.59 399.21 C 713.81 399.21 721.81 395.33 727.06 388.93 L 826.2 265.58 C 831.22 259.19 833.28 250.74 831.45 242.74 L 796.05 89.01 C 794.22 81.02 788.74 74.16 781.2 70.51 L 637.98 2.21 C 633.86 0.15 629.3 -0.76 624.73 -0.53 Z" fill-opacity="0.5" fill="#ffffff" stroke="none" pointer-events="all"/><path d="M 624.82 11.45 C 621.38 11.67 617.95 12.53 614.94 14.03 L 480.31 78.23 C 473.22 81.67 468.07 88.11 466.35 95.62 L 433.07 240.13 C 431.57 246.79 432.86 253.87 436.51 259.67 C 437.15 260.31 437.58 260.96 438.01 261.82 L 531.2 377.55 C 536.14 383.56 543.65 387.21 551.38 387.21 L 700.83 387.21 C 708.56 387.21 716.07 383.56 721.01 377.55 L 814.2 261.6 C 818.92 255.59 820.86 247.65 819.14 240.13 L 785.86 95.62 C 784.14 88.11 778.99 81.67 771.9 78.23 L 637.27 14.03 C 633.41 12.1 629.11 11.24 624.82 11.45 Z" fill-opacity="0.5" fill="#00aaff" stroke="none" pointer-events="all"/><path d="M 747.38 127.77 L 747.38 256.63 L 634.58 319.22 L 633.91 161.57 Z M 505.05 127.77 L 505.05 256.63 L 617.84 319.22 L 618.51 161.57 Z M 505.05 114.38 L 626.21 79.23 L 747.38 114.38 L 626.21 149.52 Z" fill-opacity="0.5" fill="#ffffff" stroke="none" pointer-events="all"/><path d="M 625.33 461.35 C 623.18 461.49 621.02 462.03 619.13 462.97 L 534.62 503.27 C 530.17 505.43 526.93 509.47 525.86 514.19 L 504.96 604.91 C 504.02 609.09 504.83 613.53 507.12 617.17 C 507.52 617.58 507.79 617.98 508.06 618.52 L 566.56 691.18 C 569.66 694.95 574.38 697.24 579.23 697.24 L 673.05 697.24 C 677.9 697.24 682.62 694.95 685.72 691.18 L 744.22 618.39 C 747.19 614.61 748.4 609.63 747.32 604.91 L 726.43 514.19 C 725.35 509.47 722.12 505.43 717.67 503.27 L 633.15 462.97 C 630.73 461.76 628.03 461.22 625.33 461.35 Z" fill="#ffffff" stroke="none" pointer-events="all"/><path d="M 625.39 468.43 C 623.36 468.55 621.33 469.06 619.56 469.95 L 540.11 507.83 C 535.93 509.86 532.89 513.66 531.88 518.09 L 512.24 603.37 C 511.35 607.3 512.11 611.48 514.27 614.9 C 514.65 615.28 514.9 615.66 515.15 616.16 L 570.14 684.46 C 573.06 688.01 577.49 690.16 582.05 690.16 L 670.24 690.16 C 674.8 690.16 679.24 688.01 682.15 684.46 L 737.14 616.04 C 739.93 612.49 741.07 607.8 740.05 603.37 L 720.42 518.09 C 719.4 513.66 716.36 509.86 712.18 507.83 L 632.74 469.95 C 630.45 468.81 627.92 468.3 625.39 468.43 Z" fill="#002882" stroke="none" pointer-events="all"/><path d="M 699.52 535.99 L 699.52 613.96 L 631.27 651.84 L 630.87 556.45 Z M 552.9 535.99 L 552.9 613.96 L 621.15 651.84 L 621.55 556.45 Z M 552.9 527.89 L 626.21 506.62 L 699.52 527.89 L 626.21 549.16 Z" fill="#ffffff" stroke="none" pointer-events="all"/><path d="M 976.43 -0.5 C 972.23 -0.23 968.03 0.82 964.35 2.66 L 799.63 81.2 C 790.96 85.41 784.66 93.29 782.55 102.48 L 741.84 279.29 C 740 287.43 741.57 296.1 746.04 303.19 C 746.83 303.98 747.35 304.77 747.88 305.82 L 861.89 447.42 C 867.93 454.77 877.13 459.24 886.59 459.24 L 1069.43 459.24 C 1078.89 459.24 1088.08 454.77 1094.13 447.42 L 1208.14 305.56 C 1213.92 298.2 1216.28 288.48 1214.18 279.29 L 1173.46 102.48 C 1171.36 93.29 1165.06 85.41 1156.39 81.2 L 991.67 2.66 C 986.94 0.29 981.69 -0.76 976.43 -0.5 Z" fill-opacity="0.5" fill="#ffffff" stroke="none" pointer-events="all"/><path d="M 976.53 13.29 C 972.58 13.53 968.63 14.52 965.18 16.25 L 810.34 90.09 C 802.19 94.04 796.27 101.45 794.29 110.09 L 756.01 276.28 C 754.28 283.94 755.77 292.09 759.96 298.75 C 760.71 299.5 761.2 300.24 761.69 301.22 L 868.87 434.33 C 874.55 441.24 883.19 445.44 892.08 445.44 L 1063.95 445.44 C 1072.84 445.44 1081.49 441.24 1087.17 434.33 L 1194.34 300.98 C 1199.77 294.06 1202 284.93 1200.02 276.28 L 1161.74 110.09 C 1159.77 101.45 1153.84 94.04 1145.69 90.09 L 990.86 16.25 C 986.41 14.03 981.47 13.04 976.53 13.29 Z" fill-opacity="0.5" fill="#00aaff" stroke="none" pointer-events="all"/><path d="M 1117.49 147.06 L 1117.49 295.26 L 987.76 367.24 L 986.99 185.93 Z M 838.79 147.06 L 838.79 295.26 L 968.52 367.24 L 969.29 185.93 Z M 838.79 131.66 L 978.14 91.24 L 1117.49 131.66 L 978.14 172.08 Z" fill-opacity="0.5" fill="#ffffff" stroke="none" pointer-events="all"/><path d="M 976.88 60.4 C 973.8 60.59 970.71 61.36 968 62.72 L 846.93 120.45 C 840.56 123.54 835.93 129.33 834.38 136.09 L 804.45 266.04 C 803.1 272.03 804.26 278.4 807.54 283.62 C 808.12 284.2 808.51 284.77 808.89 285.55 L 892.7 389.62 C 897.14 395.03 903.9 398.31 910.85 398.31 L 1045.24 398.31 C 1052.19 398.31 1058.95 395.03 1063.39 389.62 L 1147.19 285.35 C 1151.44 279.95 1153.18 272.8 1151.64 266.04 L 1121.71 136.09 C 1120.16 129.33 1115.53 123.54 1109.15 120.45 L 988.08 62.72 C 984.61 60.98 980.75 60.21 976.88 60.4 Z" fill="#ffffff" stroke="none" pointer-events="all"/><path d="M 976.96 70.53 C 974.06 70.71 971.15 71.44 968.61 72.71 L 854.8 126.98 C 848.82 129.88 844.46 135.33 843.01 141.68 L 814.87 263.84 C 813.6 269.46 814.69 275.45 817.78 280.35 C 818.32 280.9 818.68 281.44 819.05 282.17 L 897.82 380 C 902 385.09 908.35 388.17 914.88 388.17 L 1041.21 388.17 C 1047.75 388.17 1054.1 385.09 1058.28 380 L 1137.05 281.99 C 1141.04 276.91 1142.68 270.19 1141.23 263.84 L 1113.09 141.68 C 1111.64 135.33 1107.28 129.88 1101.29 126.98 L 987.49 72.71 C 984.22 71.08 980.59 70.35 976.96 70.53 Z" fill="#2875e2" stroke="none" pointer-events="all"/><path d="M 1082.65 167.62 L 1082.65 278.77 L 985.36 332.76 L 984.78 196.78 Z M 873.63 167.62 L 873.63 278.77 L 970.92 332.76 L 971.5 196.78 Z M 873.63 156.07 L 978.14 125.76 L 1082.65 156.07 L 978.14 186.39 Z" fill="#ffffff" stroke="none" pointer-events="all"/><path d="M 258.43 -0.5 C 254.23 -0.23 250.03 0.82 246.35 2.66 L 81.63 81.2 C 72.96 85.41 66.66 93.29 64.55 102.48 L 23.84 279.29 C 22 287.43 23.57 296.1 28.04 303.19 C 28.83 303.98 29.35 304.77 29.88 305.82 L 143.89 447.42 C 149.93 454.77 159.13 459.24 168.59 459.24 L 351.43 459.24 C 360.89 459.24 370.08 454.77 376.13 447.42 L 490.14 305.56 C 495.92 298.2 498.28 288.48 496.18 279.29 L 455.46 102.48 C 453.36 93.29 447.06 85.41 438.39 81.2 L 273.67 2.66 C 268.94 0.29 263.69 -0.76 258.43 -0.5 Z" fill-opacity="0.5" fill="#ffffff" stroke="none" pointer-events="all"/><path d="M 258.53 13.29 C 254.58 13.53 250.63 14.52 247.18 16.25 L 92.34 90.09 C 84.19 94.04 78.27 101.45 76.29 110.09 L 38.01 276.28 C 36.28 283.94 37.77 292.09 41.96 298.75 C 42.71 299.5 43.2 300.24 43.69 301.22 L 150.87 434.33 C 156.55 441.24 165.19 445.44 174.08 445.44 L 345.95 445.44 C 354.84 445.44 363.49 441.24 369.17 434.33 L 476.34 300.98 C 481.77 294.06 484 284.93 482.02 276.28 L 443.74 110.09 C 441.77 101.45 435.84 94.04 427.69 90.09 L 272.86 16.25 C 268.41 14.03 263.47 13.04 258.53 13.29 Z" fill-opacity="0.5" fill="#00aaff" stroke="none" pointer-events="all"/><path d="M 399.49 147.06 L 399.49 295.26 L 269.76 367.24 L 268.99 185.93 Z M 120.79 147.06 L 120.79 295.26 L 250.52 367.24 L 251.29 185.93 Z M 120.79 131.66 L 260.14 91.24 L 399.49 131.66 L 260.14 172.08 Z" fill-opacity="0.5" fill="#ffffff" stroke="none" pointer-events="all"/><path d="M 258.86 58.78 C 255.74 58.97 252.62 59.75 249.9 61.12 L 127.67 119.4 C 121.24 122.52 116.56 128.37 115 135.19 L 84.78 266.39 C 83.42 272.43 84.59 278.86 87.9 284.12 C 88.49 284.71 88.88 285.29 89.27 286.07 L 173.87 391.14 C 178.35 396.6 185.18 399.92 192.19 399.92 L 327.87 399.92 C 334.89 399.92 341.71 396.6 346.19 391.14 L 430.8 285.88 C 435.09 280.42 436.84 273.21 435.28 266.39 L 405.07 135.19 C 403.51 128.37 398.83 122.52 392.39 119.4 L 270.17 61.12 C 266.66 59.36 262.76 58.58 258.86 58.78 Z" fill="#ffffff" stroke="none" pointer-events="all"/><path d="M 258.94 69.01 C 256.01 69.19 253.08 69.92 250.51 71.21 L 135.62 125.99 C 129.57 128.93 125.17 134.42 123.71 140.84 L 95.31 264.16 C 94.02 269.84 95.12 275.88 98.24 280.83 C 98.79 281.38 99.15 281.93 99.52 282.66 L 179.05 381.43 C 183.26 386.56 189.67 389.68 196.27 389.68 L 323.81 389.68 C 330.4 389.68 336.82 386.56 341.03 381.43 L 420.56 282.48 C 424.59 277.35 426.24 270.57 424.77 264.16 L 396.37 140.84 C 394.9 134.42 390.51 128.93 384.46 125.99 L 269.57 71.21 C 266.27 69.56 262.6 68.82 258.94 69.01 Z" fill="#2875e2" stroke="none" pointer-events="all"/><path d="M 366.16 166.72 L 366.16 279.48 L 267.45 334.25 L 266.87 196.3 Z M 154.1 166.72 L 154.1 279.48 L 252.81 334.25 L 253.39 196.3 Z M 154.1 155 L 260.13 124.25 L 366.16 155 L 260.13 185.76 Z" fill="#ffffff" stroke="none" pointer-events="all"/><path d="M 281.55 419.42 C 278.63 419.61 275.71 420.34 273.15 421.62 L 158.57 476.26 C 152.54 479.18 148.15 484.66 146.69 491.06 L 118.36 614.05 C 117.08 619.71 118.18 625.74 121.29 630.68 C 121.83 631.22 122.2 631.77 122.57 632.5 L 201.88 731 C 206.08 736.12 212.48 739.23 219.06 739.23 L 346.25 739.23 C 352.83 739.23 359.22 736.12 363.42 731 L 442.74 632.32 C 446.76 627.2 448.4 620.44 446.94 614.05 L 418.61 491.06 C 417.15 484.66 412.77 479.18 406.74 476.26 L 292.15 421.62 C 288.86 419.97 285.21 419.24 281.55 419.42 Z" fill-opacity="0.5" fill="#ffffff" stroke="none" pointer-events="all"/><path d="M 281.63 429.01 C 278.88 429.18 276.13 429.87 273.72 431.07 L 166.02 482.44 C 160.35 485.18 156.23 490.34 154.85 496.35 L 128.23 611.96 C 127.02 617.28 128.05 622.95 130.97 627.59 C 131.49 628.11 131.83 628.62 132.18 629.31 L 206.73 721.9 C 210.68 726.71 216.69 729.63 222.88 729.63 L 342.44 729.63 C 348.62 729.63 354.63 726.71 358.58 721.9 L 433.14 629.14 C 436.92 624.33 438.46 617.97 437.09 611.96 L 410.46 496.35 C 409.09 490.34 404.96 485.18 399.3 482.44 L 291.59 431.07 C 288.5 429.53 285.06 428.84 281.63 429.01 Z" fill-opacity="0.5" fill="#00aaff" stroke="none" pointer-events="all"/><path d="M 379.68 522.06 L 379.68 625.16 L 289.44 675.23 L 288.9 549.11 Z M 185.81 522.06 L 185.81 625.16 L 276.05 675.23 L 276.58 549.11 Z M 185.81 511.35 L 282.74 483.24 L 379.68 511.35 L 282.74 539.47 Z" fill-opacity="0.5" fill="#ffffff" stroke="none" pointer-events="all"/><path d="M 281.8 452.43 C 279.48 452.57 277.16 453.15 275.13 454.17 L 184.2 497.52 C 179.42 499.84 175.94 504.2 174.78 509.27 L 152.3 606.87 C 151.28 611.36 152.15 616.15 154.62 620.06 C 155.05 620.5 155.34 620.93 155.63 621.51 L 218.57 699.67 C 221.91 703.73 226.98 706.2 232.2 706.2 L 333.13 706.2 C 338.35 706.2 343.43 703.73 346.76 699.67 L 409.7 621.37 C 412.89 617.31 414.2 611.94 413.04 606.87 L 390.56 509.27 C 389.4 504.2 385.92 499.84 381.13 497.52 L 290.21 454.17 C 287.6 452.86 284.7 452.28 281.8 452.43 Z" fill="#ffffff" stroke="none" pointer-events="all"/><path d="M 281.85 460.03 C 279.67 460.17 277.49 460.72 275.58 461.67 L 190.12 502.43 C 185.62 504.61 182.35 508.7 181.25 513.47 L 160.13 605.21 C 159.17 609.43 159.99 613.93 162.31 617.61 C 162.72 618.02 162.99 618.43 163.26 618.98 L 222.42 692.45 C 225.56 696.27 230.33 698.58 235.23 698.58 L 330.11 698.58 C 335.02 698.58 339.79 696.27 342.92 692.45 L 402.08 618.84 C 405.08 615.02 406.31 609.98 405.22 605.21 L 384.09 513.47 C 383 508.7 379.73 504.61 375.23 502.43 L 289.76 461.67 C 287.31 460.44 284.58 459.9 281.85 460.03 Z" fill="#2875e2" stroke="none" pointer-events="all"/><path d="M 359.66 533.87 L 359.66 615.68 L 288.05 655.42 L 287.63 555.34 Z M 205.82 533.87 L 205.82 615.68 L 277.43 655.42 L 277.85 555.34 Z M 205.82 525.37 L 282.74 503.06 L 359.66 525.37 L 282.74 547.69 Z" fill="#ffffff" stroke="none" pointer-events="all"/><path d="M 957.1 424.26 C 954.22 424.44 951.34 425.16 948.82 426.42 L 835.97 480.24 C 830.03 483.12 825.71 488.52 824.27 494.82 L 796.37 615.95 C 795.11 621.53 796.19 627.47 799.25 632.33 C 799.79 632.87 800.15 633.41 800.51 634.13 L 878.63 731.14 C 882.76 736.18 889.06 739.24 895.54 739.24 L 1020.82 739.24 C 1027.3 739.24 1033.6 736.18 1037.73 731.14 L 1115.85 633.95 C 1119.81 628.91 1121.43 622.25 1119.99 615.95 L 1092.09 494.82 C 1090.65 488.52 1086.33 483.12 1080.39 480.24 L 967.54 426.42 C 964.3 424.8 960.7 424.08 957.1 424.26 Z" fill-opacity="0.5" fill="#ffffff" stroke="none" pointer-events="all"/><path d="M 957.17 433.7 C 954.46 433.87 951.76 434.55 949.39 435.73 L 843.31 486.32 C 837.72 489.03 833.66 494.1 832.31 500.03 L 806.08 613.89 C 804.9 619.14 805.92 624.72 808.79 629.29 C 809.3 629.79 809.64 630.3 809.98 630.98 L 883.4 722.17 C 887.3 726.91 893.22 729.79 899.31 729.79 L 1017.06 729.79 C 1023.15 729.79 1029.08 726.91 1032.97 722.17 L 1106.4 630.81 C 1110.12 626.07 1111.64 619.81 1110.29 613.89 L 1084.06 500.03 C 1082.71 494.1 1078.65 489.03 1073.06 486.32 L 966.98 435.73 C 963.94 434.21 960.55 433.53 957.17 433.7 Z" fill-opacity="0.5" fill="#00aaff" stroke="none" pointer-events="all"/><path d="M 1053.74 525.35 L 1053.74 626.89 L 964.86 676.21 L 964.34 551.99 Z M 862.8 525.35 L 862.8 626.89 L 951.68 676.21 L 952.2 551.99 Z M 862.8 514.8 L 958.27 487.11 L 1053.74 514.8 L 958.27 542.5 Z" fill-opacity="0.5" fill="#ffffff" stroke="none" pointer-events="all"/><path d="M 957.2 438.57 C 954.58 438.73 951.96 439.38 949.67 440.53 L 847.07 489.46 C 841.67 492.08 837.74 496.99 836.43 502.71 L 811.07 612.84 C 809.92 617.92 810.9 623.32 813.68 627.73 C 814.17 628.23 814.5 628.72 814.83 629.37 L 885.85 717.57 C 889.61 722.16 895.34 724.94 901.23 724.94 L 1015.13 724.94 C 1021.02 724.94 1026.74 722.16 1030.51 717.57 L 1101.53 629.21 C 1105.13 624.63 1106.6 618.57 1105.29 612.84 L 1079.93 502.71 C 1078.62 496.99 1074.69 492.08 1069.29 489.46 L 966.69 440.53 C 963.74 439.06 960.47 438.4 957.2 438.57 Z" fill="#ffffff" stroke="none" pointer-events="all"/><path d="M 957.26 447.15 C 954.8 447.31 952.34 447.92 950.18 449 L 853.74 494.99 C 848.66 497.45 844.97 502.07 843.74 507.45 L 819.9 610.97 C 818.82 615.74 819.74 620.82 822.36 624.97 C 822.82 625.43 823.13 625.89 823.44 626.51 L 890.19 709.42 C 893.73 713.73 899.12 716.34 904.65 716.34 L 1011.71 716.34 C 1017.25 716.34 1022.63 713.73 1026.17 709.42 L 1092.93 626.36 C 1096.32 622.05 1097.7 616.36 1096.47 610.97 L 1072.63 507.45 C 1071.4 502.07 1067.7 497.45 1062.63 494.99 L 966.18 449 C 963.41 447.61 960.34 447 957.26 447.15 Z" fill="#2875e2" stroke="none" pointer-events="all"/><path d="M 1047.26 529.18 L 1047.26 623.84 L 964.41 669.81 L 963.91 554.01 Z M 869.26 529.18 L 869.26 623.84 L 952.11 669.81 L 952.61 554.01 Z M 869.26 519.34 L 958.26 493.53 L 1047.26 519.34 L 958.26 545.16 Z" fill="#ffffff" stroke="none" pointer-events="all"/><path d="M 1144.71 419.31 C 1143.66 419.37 1142.61 419.63 1141.69 420.09 L 1100.51 439.73 C 1098.35 440.78 1096.77 442.75 1096.24 445.05 L 1086.06 489.25 C 1085.6 491.29 1086 493.45 1087.11 495.23 C 1087.31 495.43 1087.44 495.62 1087.57 495.88 L 1116.08 531.28 C 1117.59 533.12 1119.89 534.24 1122.25 534.24 L 1167.96 534.24 C 1170.33 534.24 1172.63 533.12 1174.14 531.28 L 1202.64 495.82 C 1204.08 493.98 1204.68 491.55 1204.15 489.25 L 1193.97 445.05 C 1193.45 442.75 1191.87 440.78 1189.7 439.73 L 1148.52 420.09 C 1147.34 419.5 1146.03 419.24 1144.71 419.31 Z" fill-opacity="0.5" fill="#ffffff" stroke="none" pointer-events="all"/><path d="M 1144.74 422.75 C 1143.75 422.81 1142.76 423.06 1141.9 423.49 L 1103.19 441.95 C 1101.15 442.94 1099.67 444.79 1099.18 446.95 L 1089.61 488.5 C 1089.18 490.41 1089.55 492.45 1090.6 494.12 C 1090.78 494.3 1090.9 494.49 1091.03 494.74 L 1117.82 528.01 C 1119.24 529.74 1121.4 530.79 1123.62 530.79 L 1166.59 530.79 C 1168.82 530.79 1170.98 529.74 1172.4 528.01 L 1199.19 494.67 C 1200.55 492.95 1201.1 490.66 1200.61 488.5 L 1191.04 446.95 C 1190.55 444.79 1189.07 442.94 1187.03 441.95 L 1148.32 423.49 C 1147.21 422.94 1145.97 422.69 1144.74 422.75 Z" fill-opacity="0.5" fill="#00aaff" stroke="none" pointer-events="all"/><path d="M 1179.98 456.19 L 1179.98 493.24 L 1147.55 511.24 L 1147.35 465.91 Z M 1110.3 456.19 L 1110.3 493.24 L 1142.73 511.24 L 1142.93 465.91 Z M 1110.3 452.34 L 1145.14 442.24 L 1179.98 452.34 L 1145.14 462.45 Z" fill-opacity="0.5" fill="#ffffff" stroke="none" pointer-events="all"/><path d="M 1145 457.45 C 1144.64 457.47 1144.29 457.56 1143.98 457.71 L 1130.15 464.31 C 1129.42 464.66 1128.89 465.32 1128.71 466.09 L 1125.29 480.94 C 1125.14 481.63 1125.27 482.36 1125.65 482.95 C 1125.71 483.02 1125.76 483.08 1125.8 483.17 L 1135.38 495.06 C 1135.88 495.68 1136.66 496.06 1137.45 496.06 L 1152.81 496.06 C 1153.6 496.06 1154.37 495.68 1154.88 495.06 L 1164.46 483.15 C 1164.94 482.53 1165.14 481.72 1164.96 480.94 L 1161.54 466.09 C 1161.37 465.32 1160.84 464.66 1160.11 464.31 L 1146.28 457.71 C 1145.88 457.51 1145.44 457.42 1145 457.45 Z" fill="#ffffff" stroke="none" pointer-events="all"/><path d="M 1145.01 458.6 C 1144.67 458.62 1144.34 458.71 1144.05 458.85 L 1131.05 465.05 C 1130.36 465.39 1129.87 466.01 1129.7 466.73 L 1126.49 480.69 C 1126.34 481.33 1126.46 482.02 1126.82 482.58 C 1126.88 482.64 1126.92 482.7 1126.96 482.79 L 1135.96 493.96 C 1136.44 494.54 1137.17 494.9 1137.91 494.9 L 1152.35 494.9 C 1153.09 494.9 1153.82 494.54 1154.3 493.96 L 1163.3 482.76 C 1163.75 482.18 1163.94 481.42 1163.77 480.69 L 1160.56 466.73 C 1160.39 466.01 1159.9 465.39 1159.21 465.05 L 1146.21 458.85 C 1145.83 458.67 1145.42 458.58 1145.01 458.6 Z" fill="#2875e2" stroke="none" pointer-events="all"/><path d="M 1157.14 469.66 L 1157.14 482.43 L 1145.97 488.62 L 1145.9 473.01 Z M 1133.14 469.66 L 1133.14 482.43 L 1144.31 488.62 L 1144.38 473.01 Z M 1133.14 468.34 L 1145.14 464.86 L 1157.14 468.34 L 1145.14 471.82 Z" fill="#ffffff" stroke="none" pointer-events="all"/><path d="M 625.11 49.49 C 622.37 49.66 619.63 50.35 617.23 51.55 L 509.88 102.74 C 504.23 105.48 500.12 110.62 498.75 116.61 L 472.21 231.84 C 471.01 237.14 472.04 242.79 474.95 247.42 C 475.46 247.93 475.81 248.44 476.15 249.13 L 550.46 341.42 C 554.39 346.21 560.39 349.12 566.55 349.12 L 685.72 349.12 C 691.88 349.12 697.87 346.21 701.81 341.42 L 776.12 248.96 C 779.89 244.16 781.43 237.83 780.06 231.84 L 753.52 116.61 C 752.15 110.62 748.04 105.48 742.39 102.74 L 635.04 51.55 C 631.96 50 628.53 49.32 625.11 49.49 Z" fill="#ffffff" stroke="none" pointer-events="all"/><path d="M 625.17 58.47 C 622.6 58.64 620.02 59.28 617.77 60.41 L 516.86 108.53 C 511.55 111.1 507.69 115.93 506.4 121.56 L 481.45 229.88 C 480.32 234.87 481.29 240.18 484.03 244.53 C 484.51 245.01 484.83 245.49 485.15 246.14 L 555 332.88 C 558.7 337.39 564.34 340.13 570.13 340.13 L 682.15 340.13 C 687.94 340.13 693.57 337.39 697.28 332.88 L 767.13 245.97 C 770.67 241.47 772.12 235.51 770.83 229.88 L 745.88 121.56 C 744.59 115.93 740.73 111.1 735.42 108.53 L 634.51 60.41 C 631.61 58.96 628.39 58.31 625.17 58.47 Z" fill="#ff6666" stroke="none" pointer-events="all"/><path d="M 717.04 145.66 L 717.04 242.25 L 632.49 289.16 L 631.99 171 Z M 535.4 145.66 L 535.4 242.25 L 619.95 289.16 L 620.45 171 Z M 535.4 135.62 L 626.22 109.28 L 717.04 135.62 L 626.22 161.96 Z" fill="#ffffff" stroke="none" pointer-events="all"/></g></svg>