<?xml version="1.0" encoding="UTF-8"?>
<!DOCTYPE svg PUBLIC "-//W3C//DTD SVG 1.1//EN" "http://www.w3.org/Graphics/SVG/1.1/DTD/svg11.dtd">
<svg xmlns="http://www.w3.org/2000/svg" xmlns:xlink="http://www.w3.org/1999/xlink" version="1.1" width="1240px" height="742px" viewBox="-0.5 -0.5 1240 742"><defs><style type="text/css">@import url(https://fonts.googleapis.com/css?family=Roboto);&#xa;</style></defs><g><path d="M 620.43 412.82 C 619.01 412.91 617.6 413.27 616.37 413.88 L 561.03 440.27 C 558.12 441.68 556 444.33 555.3 447.42 L 541.62 506.81 C 541 509.55 541.53 512.46 543.03 514.84 C 543.29 515.11 543.47 515.37 543.65 515.73 L 581.95 563.29 C 583.98 565.76 587.07 567.26 590.24 567.26 L 651.67 567.26 C 654.84 567.26 657.93 565.76 659.96 563.29 L 698.26 515.64 C 700.21 513.17 701 509.9 700.29 506.81 L 686.62 447.42 C 685.91 444.33 683.79 441.68 680.88 440.27 L 625.54 413.88 C 623.96 413.09 622.19 412.74 620.43 412.82 Z" fill="#ffffff" stroke="none" pointer-events="all"/><path d="M 620.46 417.45 C 619.13 417.54 617.81 417.87 616.64 418.45 L 564.63 443.25 C 561.89 444.58 559.9 447.07 559.24 449.97 L 546.38 505.8 C 545.8 508.37 546.3 511.11 547.71 513.35 C 547.96 513.6 548.12 513.85 548.29 514.18 L 584.29 558.9 C 586.2 561.22 589.1 562.63 592.09 562.63 L 649.83 562.63 C 652.81 562.63 655.72 561.22 657.63 558.9 L 693.63 514.1 C 695.45 511.78 696.2 508.71 695.54 505.8 L 682.68 449.97 C 682.01 447.07 680.02 444.58 677.29 443.25 L 625.27 418.45 C 623.78 417.7 622.12 417.37 620.46 417.45 Z" fill="#002882" stroke="none" pointer-events="all"/><path d="M 669 461.69 L 669 512.74 L 624.31 537.54 L 624.05 475.08 Z M 573 461.69 L 573 512.74 L 617.69 537.54 L 617.95 475.08 Z M 573 456.39 L 621 442.46 L 669 456.39 L 621 470.31 Z" fill="#ffffff" stroke="none" pointer-events="all"/><path d="M 977.29 0.26 C 973.09 0.53 968.89 1.58 965.21 3.42 L 800.49 81.96 C 791.82 86.17 785.52 94.05 783.41 103.24 L 742.7 280.05 C 740.86 288.19 742.43 296.86 746.9 303.95 C 747.69 304.74 748.21 305.53 748.74 306.58 L 862.75 448.18 C 868.79 455.53 877.99 460 887.45 460 L 1070.29 460 C 1079.75 460 1088.94 455.53 1094.99 448.18 L 1209 306.32 C 1214.78 298.96 1217.14 289.24 1215.04 280.05 L 1174.32 103.24 C 1172.22 94.05 1165.92 86.17 1157.25 81.96 L 992.53 3.42 C 987.8 1.05 982.55 0 977.29 0.26 Z" fill-opacity="0.5" fill="#ffffff" stroke="none" pointer-events="all"/><path d="M 977.39 14.05 C 973.44 14.29 969.49 15.28 966.04 17.01 L 811.2 90.85 C 803.05 94.8 797.13 102.21 795.15 110.85 L 756.87 277.04 C 755.14 284.7 756.63 292.85 760.82 299.51 C 761.57 300.26 762.06 301 762.55 301.98 L 869.73 435.09 C 875.41 442 884.05 446.2 892.94 446.2 L 1064.81 446.2 C 1073.7 446.2 1082.35 442 1088.03 435.09 L 1195.2 301.74 C 1200.63 294.82 1202.86 285.69 1200.88 277.04 L 1162.6 110.85 C 1160.63 102.21 1154.7 94.8 1146.55 90.85 L 991.72 17.01 C 987.27 14.79 982.33 13.8 977.39 14.05 Z" fill-opacity="0.5" fill="#00aaff" stroke="none" pointer-events="all"/><path d="M 1118.35 147.82 L 1118.35 296.02 L 988.62 368 L 987.85 186.69 Z M 839.65 147.82 L 839.65 296.02 L 969.38 368 L 970.15 186.69 Z M 839.65 132.42 L 979 92 L 1118.35 132.42 L 979 172.84 Z" fill-opacity="0.5" fill="#ffffff" stroke="none" pointer-events="all"/><path d="M 978 95.15 C 975.53 95.31 973.06 95.93 970.9 97 L 874.22 143.11 C 869.13 145.58 865.43 150.2 864.2 155.6 L 840.3 259.37 C 839.22 264.15 840.15 269.24 842.77 273.41 C 843.23 273.87 843.54 274.33 843.85 274.95 L 910.77 358.06 C 914.31 362.38 919.71 365 925.26 365 L 1032.58 365 C 1038.13 365 1043.53 362.38 1047.08 358.06 L 1114 274.79 C 1117.39 270.48 1118.78 264.77 1117.55 259.37 L 1093.65 155.6 C 1092.41 150.2 1088.71 145.58 1083.62 143.11 L 986.94 97 C 984.17 95.62 981.08 95 978 95.15 Z" fill="#ffffff" stroke="none" pointer-events="all"/><path d="M 978.06 103.24 C 975.74 103.39 973.42 103.97 971.39 104.98 L 880.51 148.32 C 875.73 150.64 872.25 154.99 871.09 160.06 L 848.62 257.61 C 847.61 262.11 848.48 266.89 850.94 270.8 C 851.38 271.24 851.67 271.67 851.96 272.25 L 914.86 350.38 C 918.2 354.44 923.27 356.9 928.49 356.9 L 1029.37 356.9 C 1034.59 356.9 1039.66 354.44 1042.99 350.38 L 1105.9 272.11 C 1109.09 268.05 1110.39 262.69 1109.23 257.61 L 1086.77 160.06 C 1085.61 154.99 1082.13 150.64 1077.35 148.32 L 986.46 104.98 C 983.86 103.68 980.96 103.1 978.06 103.24 Z" fill="#2875e2" stroke="none" pointer-events="all"/><path d="M 1060.79 181.76 L 1060.79 268.75 L 984.65 311 L 984.2 204.58 Z M 897.21 181.76 L 897.21 268.75 L 973.35 311 L 973.8 204.58 Z M 897.21 172.72 L 979 149 L 1060.79 172.72 L 979 196.45 Z" fill="#ffffff" stroke="none" pointer-events="all"/><path d="M 259.29 0.26 C 255.09 0.53 250.89 1.58 247.21 3.42 L 82.49 81.96 C 73.82 86.17 67.52 94.05 65.41 103.24 L 24.7 280.05 C 22.86 288.19 24.43 296.86 28.9 303.95 C 29.69 304.74 30.21 305.53 30.74 306.58 L 144.75 448.18 C 150.79 455.53 159.99 460 169.45 460 L 352.29 460 C 361.75 460 370.94 455.53 376.99 448.18 L 491 306.32 C 496.78 298.96 499.14 289.24 497.04 280.05 L 456.32 103.24 C 454.22 94.05 447.92 86.17 439.25 81.96 L 274.53 3.42 C 269.8 1.05 264.55 0 259.29 0.26 Z" fill-opacity="0.5" fill="#ffffff" stroke="none" pointer-events="all"/><path d="M 259.39 14.05 C 255.44 14.29 251.49 15.28 248.04 17.01 L 93.2 90.85 C 85.05 94.8 79.13 102.21 77.15 110.85 L 38.87 277.04 C 37.14 284.7 38.63 292.85 42.82 299.51 C 43.57 300.26 44.06 301 44.55 301.98 L 151.73 435.09 C 157.41 442 166.05 446.2 174.94 446.2 L 346.81 446.2 C 355.7 446.2 364.35 442 370.03 435.09 L 477.2 301.74 C 482.63 294.82 484.86 285.69 482.88 277.04 L 444.6 110.85 C 442.63 102.21 436.7 94.8 428.55 90.85 L 273.72 17.01 C 269.27 14.79 264.33 13.8 259.39 14.05 Z" fill-opacity="0.5" fill="#00aaff" stroke="none" pointer-events="all"/><path d="M 400.35 147.82 L 400.35 296.02 L 270.62 368 L 269.85 186.69 Z M 121.65 147.82 L 121.65 296.02 L 251.38 368 L 252.15 186.69 Z M 121.65 132.42 L 261 92 L 400.35 132.42 L 261 172.84 Z" fill-opacity="0.5" fill="#ffffff" stroke="none" pointer-events="all"/><path d="M 260.43 152.82 C 259.01 152.91 257.6 153.27 256.37 153.88 L 201.03 180.27 C 198.12 181.68 196 184.33 195.3 187.42 L 181.62 246.81 C 181 249.55 181.53 252.46 183.03 254.84 C 183.29 255.11 183.47 255.37 183.65 255.73 L 221.95 303.29 C 223.98 305.76 227.07 307.26 230.24 307.26 L 291.67 307.26 C 294.84 307.26 297.93 305.76 299.96 303.29 L 338.26 255.64 C 340.21 253.17 341 249.9 340.29 246.81 L 326.62 187.42 C 325.91 184.33 323.79 181.68 320.88 180.27 L 265.54 153.88 C 263.96 153.09 262.19 152.74 260.43 152.82 Z" fill="#ffffff" stroke="none" pointer-events="all"/><path d="M 260.46 157.45 C 259.13 157.54 257.81 157.87 256.64 158.45 L 204.63 183.25 C 201.89 184.58 199.9 187.07 199.24 189.97 L 186.38 245.8 C 185.8 248.37 186.3 251.11 187.71 253.35 C 187.96 253.6 188.12 253.85 188.29 254.18 L 224.29 298.9 C 226.2 301.22 229.1 302.63 232.09 302.63 L 289.83 302.63 C 292.81 302.63 295.72 301.22 297.63 298.9 L 333.63 254.1 C 335.45 251.78 336.2 248.71 335.54 245.8 L 322.68 189.97 C 322.01 187.07 320.02 184.58 317.29 183.25 L 265.27 158.45 C 263.78 157.7 262.12 157.37 260.46 157.45 Z" fill="#2875e2" stroke="none" pointer-events="all"/><path d="M 309 201.69 L 309 252.74 L 264.31 277.54 L 264.05 215.08 Z M 213 201.69 L 213 252.74 L 257.69 277.54 L 257.95 215.08 Z M 213 196.39 L 261 182.46 L 309 196.39 L 261 210.31 Z" fill="#ffffff" stroke="none" pointer-events="all"/><path d="M 259.96 460.16 C 257.4 460.32 254.84 460.96 252.6 462.08 L 152.34 509.89 C 147.06 512.45 143.23 517.24 141.95 522.84 L 117.16 630.46 C 116.04 635.41 117 640.69 119.72 645.01 C 120.2 645.49 120.52 645.97 120.84 646.61 L 190.24 732.79 C 193.92 737.27 199.51 739.99 205.27 739.99 L 316.56 739.99 C 322.32 739.99 327.91 737.27 331.59 732.79 L 400.99 646.45 C 404.51 641.97 405.95 636.05 404.67 630.46 L 379.88 522.84 C 378.6 517.24 374.76 512.45 369.49 509.89 L 269.23 462.08 C 266.35 460.64 263.15 460 259.96 460.16 Z" fill-opacity="0.5" fill="#ffffff" stroke="none" pointer-events="all"/><path d="M 260.02 468.55 C 257.61 468.7 255.21 469.3 253.1 470.35 L 158.86 515.3 C 153.9 517.7 150.29 522.21 149.09 527.47 L 125.79 628.63 C 124.74 633.29 125.64 638.25 128.2 642.31 C 128.65 642.76 128.95 643.21 129.25 643.81 L 194.48 724.83 C 197.94 729.03 203.2 731.59 208.61 731.59 L 313.23 731.59 C 318.64 731.59 323.9 729.03 327.36 724.83 L 392.59 643.66 C 395.9 639.45 397.25 633.89 396.05 628.63 L 372.75 527.47 C 371.55 522.21 367.94 517.7 362.98 515.3 L 268.74 470.35 C 266.03 469 263.02 468.4 260.02 468.55 Z" fill-opacity="0.5" fill="#00aaff" stroke="none" pointer-events="all"/><path d="M 345.81 549.97 L 345.81 640.18 L 266.85 683.99 L 266.38 573.64 Z M 176.18 549.97 L 176.18 640.18 L 255.14 683.99 L 255.61 573.64 Z M 176.18 540.6 L 260.99 516 L 345.81 540.6 L 260.99 565.2 Z" fill-opacity="0.5" fill="#ffffff" stroke="none" pointer-events="all"/><path d="M 260.39 517.92 C 258.89 518.01 257.38 518.39 256.07 519.05 L 197.22 547.11 C 194.12 548.61 191.87 551.43 191.12 554.71 L 176.57 617.88 C 175.92 620.79 176.48 623.88 178.08 626.42 C 178.36 626.7 178.54 626.98 178.73 627.36 L 219.47 677.94 C 221.62 680.57 224.91 682.17 228.29 682.17 L 293.61 682.17 C 296.99 682.17 300.28 680.57 302.43 677.94 L 343.17 627.26 C 345.23 624.63 346.08 621.16 345.33 617.88 L 330.78 554.71 C 330.03 551.43 327.78 548.61 324.68 547.11 L 265.83 519.05 C 264.14 518.2 262.26 517.83 260.39 517.92 Z" fill="#ffffff" stroke="none" pointer-events="all"/><path d="M 260.42 522.84 C 259.01 522.93 257.6 523.29 256.37 523.9 L 201.05 550.28 C 198.14 551.69 196.02 554.34 195.31 557.43 L 181.64 616.8 C 181.02 619.54 181.55 622.45 183.05 624.83 C 183.32 625.1 183.49 625.36 183.67 625.71 L 221.96 673.27 C 223.99 675.74 227.07 677.24 230.25 677.24 L 291.65 677.24 C 294.83 677.24 297.92 675.74 299.95 673.27 L 338.24 625.63 C 340.18 623.16 340.97 619.89 340.27 616.8 L 326.59 557.43 C 325.89 554.34 323.77 551.69 320.86 550.28 L 265.54 523.9 C 263.95 523.11 262.19 522.76 260.42 522.84 Z" fill="#2875e2" stroke="none" pointer-events="all"/><path d="M 310.78 570.64 L 310.78 623.58 L 264.44 649.3 L 264.16 584.53 Z M 211.21 570.64 L 211.21 623.58 L 257.56 649.3 L 257.83 584.53 Z M 211.21 565.13 L 261 550.69 L 310.78 565.13 L 261 579.57 Z" fill="#ffffff" stroke="none" pointer-events="all"/><path d="M 977.96 460.16 C 975.4 460.32 972.84 460.96 970.6 462.08 L 870.34 509.89 C 865.07 512.45 861.23 517.25 859.95 522.84 L 835.16 630.46 C 834.04 635.42 835 640.7 837.72 645.01 C 838.2 645.49 838.52 645.97 838.84 646.61 L 908.24 732.8 C 911.92 737.28 917.52 740 923.27 740 L 1034.57 740 C 1040.32 740 1045.92 737.28 1049.6 732.8 L 1119 646.45 C 1122.52 641.98 1123.96 636.06 1122.68 630.46 L 1097.89 522.84 C 1096.61 517.25 1092.77 512.45 1087.5 509.89 L 987.24 462.08 C 984.36 460.64 981.16 460 977.96 460.16 Z" fill-opacity="0.5" fill="#ffffff" stroke="none" pointer-events="all"/><path d="M 978.02 468.55 C 975.62 468.7 973.21 469.3 971.11 470.35 L 876.86 515.3 C 871.9 517.7 868.29 522.21 867.09 527.47 L 843.79 628.63 C 842.74 633.29 843.64 638.25 846.2 642.31 C 846.65 642.76 846.95 643.22 847.25 643.82 L 912.49 724.84 C 915.94 729.04 921.2 731.6 926.62 731.6 L 1031.23 731.6 C 1036.65 731.6 1041.91 729.04 1045.36 724.84 L 1110.6 643.67 C 1113.91 639.46 1115.26 633.9 1114.06 628.63 L 1090.76 527.47 C 1089.56 522.21 1085.95 517.7 1080.99 515.3 L 986.74 470.35 C 984.04 469 981.03 468.4 978.02 468.55 Z" fill-opacity="0.5" fill="#00aaff" stroke="none" pointer-events="all"/><path d="M 1063.82 549.97 L 1063.82 640.18 L 984.86 684 L 984.39 573.64 Z M 894.18 549.97 L 894.18 640.18 L 973.14 684 L 973.61 573.64 Z M 894.18 540.6 L 979 516 L 1063.82 540.6 L 979 565.21 Z" fill-opacity="0.5" fill="#ffffff" stroke="none" pointer-events="all"/><path d="M 978.65 553.02 C 977.79 553.08 976.93 553.29 976.18 553.67 L 942.5 569.73 C 940.73 570.59 939.44 572.2 939.01 574.08 L 930.68 610.23 C 930.3 611.9 930.63 613.67 931.54 615.12 C 931.7 615.28 931.81 615.44 931.92 615.66 L 955.23 644.61 C 956.47 646.12 958.35 647.03 960.28 647.03 L 997.67 647.03 C 999.6 647.03 1001.48 646.12 1002.72 644.61 L 1026.03 615.61 C 1027.21 614.1 1027.7 612.11 1027.27 610.23 L 1018.94 574.08 C 1018.51 572.2 1017.22 570.59 1015.45 569.73 L 981.77 553.67 C 980.8 553.18 979.73 552.97 978.65 553.02 Z" fill="#ffffff" stroke="none" pointer-events="all"/><path d="M 978.67 555.84 C 977.86 555.89 977.06 556.09 976.35 556.45 L 944.69 571.55 C 943.02 572.35 941.81 573.87 941.41 575.64 L 933.58 609.62 C 933.23 611.18 933.53 612.85 934.39 614.21 C 934.54 614.37 934.64 614.52 934.74 614.72 L 956.66 641.94 C 957.82 643.35 959.58 644.21 961.4 644.21 L 996.55 644.21 C 998.36 644.21 1000.13 643.35 1001.29 641.94 L 1023.21 614.67 C 1024.32 613.25 1024.77 611.39 1024.37 609.62 L 1016.54 575.64 C 1016.14 573.87 1014.93 572.35 1013.26 571.55 L 981.6 556.45 C 980.69 555.99 979.68 555.79 978.67 555.84 Z" fill="#2875e2" stroke="none" pointer-events="all"/><path d="M 1008.22 582.77 L 1008.22 613.84 L 981.02 628.93 L 980.86 590.92 Z M 949.78 582.77 L 949.78 613.84 L 976.98 628.93 L 977.14 590.92 Z M 949.78 579.54 L 979 571.07 L 1008.22 579.54 L 979 588.01 Z" fill="#ffffff" stroke="none" pointer-events="all"/><path d="M 1145.57 420.07 C 1144.52 420.13 1143.47 420.39 1142.55 420.85 L 1101.37 440.49 C 1099.21 441.54 1097.63 443.51 1097.1 445.81 L 1086.92 490.01 C 1086.46 492.05 1086.86 494.21 1087.97 495.99 C 1088.17 496.19 1088.3 496.38 1088.43 496.64 L 1116.94 532.04 C 1118.45 533.88 1120.75 535 1123.11 535 L 1168.82 535 C 1171.19 535 1173.49 533.88 1175 532.04 L 1203.5 496.58 C 1204.94 494.74 1205.54 492.31 1205.01 490.01 L 1194.83 445.81 C 1194.31 443.51 1192.73 441.54 1190.56 440.49 L 1149.38 420.85 C 1148.2 420.26 1146.89 420 1145.57 420.07 Z" fill-opacity="0.5" fill="#ffffff" stroke="none" pointer-events="all"/><path d="M 1145.6 423.51 C 1144.61 423.57 1143.62 423.82 1142.76 424.25 L 1104.05 442.71 C 1102.01 443.7 1100.53 445.55 1100.04 447.71 L 1090.47 489.26 C 1090.04 491.17 1090.41 493.21 1091.46 494.88 C 1091.64 495.06 1091.76 495.25 1091.89 495.5 L 1118.68 528.77 C 1120.1 530.5 1122.26 531.55 1124.48 531.55 L 1167.45 531.55 C 1169.68 531.55 1171.84 530.5 1173.26 528.77 L 1200.05 495.43 C 1201.41 493.71 1201.96 491.42 1201.47 489.26 L 1191.9 447.71 C 1191.41 445.55 1189.93 443.7 1187.89 442.71 L 1149.18 424.25 C 1148.07 423.7 1146.83 423.45 1145.6 423.51 Z" fill-opacity="0.5" fill="#00aaff" stroke="none" pointer-events="all"/><path d="M 1180.84 456.95 L 1180.84 494 L 1148.41 512 L 1148.21 466.67 Z M 1111.16 456.95 L 1111.16 494 L 1143.59 512 L 1143.79 466.67 Z M 1111.16 453.1 L 1146 443 L 1180.84 453.1 L 1146 463.21 Z" fill-opacity="0.5" fill="#ffffff" stroke="none" pointer-events="all"/><path d="M 1145.86 458.21 C 1145.5 458.23 1145.15 458.32 1144.84 458.47 L 1131.01 465.07 C 1130.28 465.42 1129.75 466.08 1129.57 466.85 L 1126.15 481.7 C 1126 482.39 1126.13 483.12 1126.51 483.71 C 1126.57 483.78 1126.62 483.84 1126.66 483.93 L 1136.24 495.82 C 1136.74 496.44 1137.52 496.82 1138.31 496.82 L 1153.67 496.82 C 1154.46 496.82 1155.23 496.44 1155.74 495.82 L 1165.32 483.91 C 1165.8 483.29 1166 482.48 1165.82 481.7 L 1162.4 466.85 C 1162.23 466.08 1161.7 465.42 1160.97 465.07 L 1147.14 458.47 C 1146.74 458.27 1146.3 458.18 1145.86 458.21 Z" fill="#ffffff" stroke="none" pointer-events="all"/><path d="M 1145.87 459.36 C 1145.53 459.38 1145.2 459.47 1144.91 459.61 L 1131.91 465.81 C 1131.22 466.15 1130.73 466.77 1130.56 467.49 L 1127.35 481.45 C 1127.2 482.09 1127.32 482.78 1127.68 483.34 C 1127.74 483.4 1127.78 483.46 1127.82 483.55 L 1136.82 494.72 C 1137.3 495.3 1138.03 495.66 1138.77 495.66 L 1153.21 495.66 C 1153.95 495.66 1154.68 495.3 1155.16 494.72 L 1164.16 483.52 C 1164.61 482.94 1164.8 482.18 1164.63 481.45 L 1161.42 467.49 C 1161.25 466.77 1160.76 466.15 1160.07 465.81 L 1147.07 459.61 C 1146.69 459.43 1146.28 459.34 1145.87 459.36 Z" fill="#2875e2" stroke="none" pointer-events="all"/><path d="M 1158 470.42 L 1158 483.19 L 1146.83 489.38 L 1146.76 473.77 Z M 1134 470.42 L 1134 483.19 L 1145.17 489.38 L 1145.24 473.77 Z M 1134 469.1 L 1146 465.62 L 1158 469.1 L 1146 472.58 Z" fill="#ffffff" stroke="none" pointer-events="all"/><path d="M 618.65 57.92 C 617.15 58.01 615.64 58.39 614.33 59.05 L 555.48 87.11 C 552.38 88.61 550.13 91.43 549.38 94.71 L 534.83 157.88 C 534.18 160.79 534.74 163.88 536.34 166.42 C 536.62 166.7 536.8 166.98 536.99 167.36 L 577.73 217.94 C 579.88 220.57 583.17 222.17 586.55 222.17 L 651.87 222.17 C 655.25 222.17 658.54 220.57 660.69 217.94 L 701.43 167.26 C 703.49 164.63 704.34 161.16 703.59 157.88 L 689.04 94.71 C 688.29 91.43 686.04 88.61 682.94 87.11 L 624.09 59.05 C 622.4 58.2 620.52 57.83 618.65 57.92 Z" fill="#ffffff" stroke="none" pointer-events="all"/><path d="M 618.68 62.84 C 617.27 62.93 615.86 63.29 614.63 63.9 L 559.31 90.28 C 556.4 91.69 554.28 94.34 553.57 97.43 L 539.9 156.8 C 539.28 159.54 539.81 162.45 541.31 164.83 C 541.58 165.1 541.75 165.36 541.93 165.71 L 580.22 213.27 C 582.25 215.74 585.33 217.24 588.51 217.24 L 649.91 217.24 C 653.09 217.24 656.18 215.74 658.21 213.27 L 696.5 165.63 C 698.44 163.16 699.23 159.89 698.53 156.8 L 684.85 97.43 C 684.15 94.34 682.03 91.69 679.12 90.28 L 623.8 63.9 C 622.21 63.11 620.45 62.76 618.68 62.84 Z" fill="#002882" stroke="none" pointer-events="all"/><path d="M 669.04 110.64 L 669.04 163.58 L 622.7 189.3 L 622.42 124.53 Z M 569.47 110.64 L 569.47 163.58 L 615.82 189.3 L 616.09 124.53 Z M 569.47 105.13 L 619.26 90.69 L 669.04 105.13 L 619.26 119.57 Z" fill="#ffffff" stroke="none" pointer-events="all"/></g></svg>