<?xml version="1.0" encoding="UTF-8"?>
<!DOCTYPE svg PUBLIC "-//W3C//DTD SVG 1.1//EN" "http://www.w3.org/Graphics/SVG/1.1/DTD/svg11.dtd">
<svg xmlns="http://www.w3.org/2000/svg" xmlns:xlink="http://www.w3.org/1999/xlink" version="1.1" width="461px" height="222px" viewBox="-0.5 -0.5 461 222"><defs><style type="text/css">@import url(https://fonts.googleapis.com/css?family=Roboto);&#xa;</style></defs><g><path d="M 113.76 0.13 C 111.75 0.25 109.74 0.75 107.98 1.63 L 29.21 39.2 C 25.06 41.21 22.04 44.98 21.04 49.38 L 1.56 133.93 C 0.69 137.83 1.44 141.98 3.57 145.37 C 3.95 145.75 4.2 146.12 4.45 146.62 L 58.98 214.35 C 61.87 217.86 66.27 220 70.79 220 L 158.24 220 C 162.76 220 167.16 217.86 170.05 214.35 L 224.58 146.5 C 227.34 142.98 228.47 138.33 227.47 133.93 L 208 49.38 C 206.99 44.98 203.97 41.21 199.83 39.2 L 121.05 1.63 C 118.79 0.5 116.28 0 113.76 0.13 Z" fill="#ffffff" stroke="none" pointer-events="all"/><path d="M 113.81 6.72 C 111.92 6.84 110.03 7.31 108.38 8.14 L 34.33 43.45 C 30.43 45.34 27.6 48.88 26.65 53.01 L 8.35 132.5 C 7.52 136.16 8.23 140.06 10.24 143.25 C 10.59 143.6 10.83 143.95 11.06 144.43 L 62.32 208.09 C 65.04 211.39 69.17 213.4 73.42 213.4 L 155.62 213.4 C 159.87 213.4 164.01 211.39 166.72 208.09 L 217.98 144.31 C 220.58 141 221.64 136.63 220.7 132.5 L 202.39 53.01 C 201.45 48.88 198.61 45.34 194.71 43.45 L 120.66 8.14 C 118.54 7.07 116.17 6.6 113.81 6.72 Z" fill="#2875e2" stroke="none" pointer-events="all"/><path d="M 49.7 56.27 C 46.95 56.27 45.96 57.27 45.96 60.01 L 45.96 75.35 L 53.44 75.35 L 53.44 63.75 L 69.64 63.75 L 69.64 56.27 Z M 91.95 56.27 L 91.95 63.75 L 114.27 63.75 L 114.27 56.27 Z M 136.58 56.27 L 136.58 63.75 L 159.02 63.75 L 159.02 56.27 Z M 175.85 61.76 L 175.85 84.07 L 183.33 84.07 L 183.33 61.76 Z M 45.83 88.19 L 45.83 163.6 L 143.81 163.73 L 143.81 156.25 L 123.62 156.25 L 123.62 88.19 Z M 175.85 106.38 L 175.85 128.82 L 183.33 128.82 L 183.33 106.38 Z M 175.85 151.14 L 175.85 156.25 L 166.13 156.25 L 166.13 163.73 L 179.59 163.73 C 182.21 163.73 183.33 162.36 183.33 159.99 L 183.33 151.14 Z" fill="#ffffff" stroke="none" pointer-events="all"/><path d="M 343.6 0.13 C 341.59 0.25 339.58 0.75 337.82 1.63 L 259.05 39.2 C 254.9 41.21 251.88 44.98 250.88 49.38 L 231.4 133.93 C 230.53 137.83 231.28 141.98 233.41 145.37 C 233.79 145.75 234.04 146.12 234.29 146.62 L 288.82 214.35 C 291.71 217.86 296.11 220 300.63 220 L 388.08 220 C 392.6 220 397 217.86 399.89 214.35 L 454.42 146.5 C 457.18 142.98 458.31 138.33 457.31 133.93 L 437.84 49.38 C 436.83 44.98 433.81 41.21 429.67 39.2 L 350.89 1.63 C 348.63 0.5 346.12 0 343.6 0.13 Z" fill="#ffffff" stroke="none" pointer-events="all"/><path d="M 343.65 6.72 C 341.76 6.84 339.87 7.31 338.22 8.14 L 264.17 43.45 C 260.27 45.34 257.44 48.88 256.49 53.01 L 238.19 132.5 C 237.36 136.16 238.07 140.06 240.08 143.25 C 240.43 143.6 240.67 143.95 240.9 144.43 L 292.16 208.09 C 294.88 211.39 299.01 213.4 303.26 213.4 L 385.46 213.4 C 389.71 213.4 393.85 211.39 396.56 208.09 L 447.82 144.31 C 450.42 141 451.48 136.63 450.54 132.5 L 432.23 53.01 C 431.29 48.88 428.45 45.34 424.55 43.45 L 350.5 8.14 C 348.38 7.07 346.01 6.6 343.65 6.72 Z" fill="#2875e2" stroke="none" pointer-events="all"/><path d="M 318.68 44 C 318.55 44 315 45.39 310.69 47.04 C 306.38 48.69 302.7 50.09 302.45 50.09 C 302.32 50.21 302.07 50.34 302.07 50.47 C 302.07 50.47 302.96 52.88 303.97 55.54 C 305.11 58.33 305.87 60.61 305.87 60.74 C 305.87 60.86 304.86 61.37 302.96 62.13 C 301.43 62.64 300.17 63.27 300.17 63.27 C 300.17 63.53 319.69 72.15 319.95 72.15 C 320.2 72.15 321.09 70.12 324.64 62.26 C 327.05 56.93 328.95 52.37 328.95 52.24 C 328.95 52.24 328.95 52.12 328.82 52.12 C 326.54 53.13 323.12 54.27 322.99 54.27 C 322.86 54.27 321.98 51.86 320.83 49.07 C 319.57 45.78 318.81 44 318.68 44 Z M 344.04 69.99 C 318.05 69.99 295.09 86.61 286.98 111.33 C 283.94 120.33 283.18 130.48 284.82 139.99 C 286.98 153.43 293.83 165.86 304.22 174.99 C 304.86 175.49 305.37 176 305.37 176 C 305.37 176 308.15 173.21 311.45 169.91 C 314.88 166.49 317.66 163.7 317.66 163.45 C 318.05 162.43 317.28 160.78 315.76 159.26 C 314.37 157.74 312.72 157.11 311.71 157.36 C 311.45 157.49 310.18 158.5 308.41 160.4 C 306.89 161.93 305.49 163.19 305.37 163.19 C 305.11 163.19 303.59 161.42 302.07 159.14 C 298.39 154.06 295.86 148.23 294.33 142.02 C 293.83 140.24 293.32 137.2 293.32 136.31 C 293.45 136.06 293.83 135.8 294.21 135.68 C 294.21 135.68 294.21 135.68 294.21 135.68 C 294.97 135.68 295.98 135.68 297.63 135.68 C 302.32 135.68 302.58 135.68 303.21 134.92 C 303.72 134.16 304.1 133.14 304.1 131.49 C 304.22 129.84 303.97 128.7 303.46 127.69 C 302.83 126.67 302.83 126.8 297.88 126.67 C 295.47 126.67 293.7 126.67 293.32 126.67 C 293.32 126.55 293.19 126.55 293.19 126.42 C 293.07 126.29 293.07 125.91 293.19 124.39 C 293.45 121.86 293.95 119.45 294.59 116.91 C 295.09 115.39 295.47 113.87 295.98 112.47 C 297.38 108.67 299.15 105.12 301.31 101.82 C 302.32 100.43 303.97 98.27 304.22 98.14 C 304.35 98.14 304.48 98.27 304.73 98.4 C 305.11 98.65 306.25 99.79 308.03 101.57 L 311.58 105.12 L 312.34 104.99 C 314.37 104.74 317.16 102.33 317.66 100.17 C 317.79 99.67 317.79 99.29 317.79 99.03 C 317.66 98.65 316.78 97.64 314.11 95.1 C 310.94 91.8 310.69 91.42 310.82 91.3 C 311.45 90.54 315.13 87.75 317.66 86.35 C 323.75 82.55 331.99 79.76 338.33 79.25 L 339.35 79.25 L 339.47 84.45 L 339.47 89.78 L 339.73 89.9 L 339.73 90.03 L 339.98 90.16 L 340.11 90.28 C 341.63 91.8 346.07 91.8 347.72 90.28 L 348.35 89.9 L 348.35 84.58 L 348.48 81.03 L 348.48 79.38 L 349.49 79.38 C 350.89 79.38 354.06 79.88 356.47 80.52 C 363.57 82.29 370.16 85.59 375.87 90.16 C 376.37 90.54 376.5 90.79 376.75 91.04 C 376.75 91.42 376.75 91.68 376.5 92.06 C 376.12 92.56 375.23 93.58 373.58 95.23 L 370.16 98.65 L 370.16 99.41 C 370.16 101.82 373.33 104.99 375.61 104.99 L 376.5 104.99 L 379.92 101.44 C 381.83 99.54 383.35 98.14 383.47 98.02 C 383.47 98.02 383.6 98.02 383.6 98.02 C 383.73 98.02 384.24 98.65 384.87 99.41 C 389.56 105.75 392.86 113.36 394.25 121.1 C 394.63 123.63 394.89 126.29 394.76 126.55 C 394.63 126.67 393.75 126.67 390.07 126.67 L 385.38 126.67 L 385 127.05 C 384.11 127.82 383.47 130.1 383.73 131.87 C 383.86 133.27 384.24 134.41 384.87 135.04 L 385.25 135.42 L 385.25 135.55 L 385.38 135.55 L 385.38 135.68 L 390.07 135.68 C 394.63 135.68 394.63 135.68 394.63 135.93 C 394.63 136.56 394.13 139.23 393.75 141.26 C 392.35 147.6 389.43 154.19 385.63 159.39 C 384.36 161.29 383.35 162.56 382.84 162.94 C 382.71 162.94 382.46 162.94 382.21 162.94 C 381.95 162.69 380.94 161.8 379.54 160.4 C 376.25 157.11 376.12 157.11 374.98 157.49 C 372.7 158.12 370.29 160.78 370.16 162.81 L 370.03 163.45 L 375.36 168.9 C 381.95 175.75 382.33 176 382.59 175.87 L 382.71 175.87 L 382.71 175.75 C 383.35 175.37 386.52 172.32 388.04 170.8 C 392.1 166.36 395.14 161.93 397.68 156.73 C 404.14 143.92 405.66 129.21 402.11 115.14 C 399.2 103.6 392.6 92.95 383.47 84.96 C 372.57 75.32 358.49 69.99 344.04 69.99 Z M 332.63 94.85 C 330.22 94.85 327.56 96.24 326.79 97.76 C 326.54 98.27 326.54 98.52 326.67 98.9 C 326.79 99.16 329.2 105.63 332.12 113.11 L 337.45 126.67 L 336.94 127.69 C 335.42 130.73 335.92 134.28 338.46 136.69 C 340.62 138.85 343.66 139.61 346.45 138.59 C 347.08 138.47 347.84 137.96 348.35 137.58 C 352.15 135.04 352.92 129.72 350 126.17 C 349.11 125.03 348.1 124.27 346.07 123.5 C 345.81 123.38 345.18 121.86 340.36 109.68 C 337.45 102.07 334.91 95.73 334.91 95.61 C 334.53 94.97 333.9 94.85 332.63 94.85 Z" fill="#ffffff" stroke="none" pointer-events="all"/></g></svg>