<?xml version="1.0" encoding="UTF-8"?>
<!DOCTYPE svg PUBLIC "-//W3C//DTD SVG 1.1//EN" "http://www.w3.org/Graphics/SVG/1.1/DTD/svg11.dtd">
<svg xmlns="http://www.w3.org/2000/svg" xmlns:xlink="http://www.w3.org/1999/xlink" version="1.1" width="1240px" height="742px" viewBox="-0.5 -0.5 1240 742"><defs><style type="text/css">@import url(https://fonts.googleapis.com/css?family=Roboto);&#xa;</style></defs><g><path d="M 615.81 280.26 C 611.61 280.53 607.41 281.58 603.73 283.42 L 439.01 361.96 C 430.34 366.17 424.04 374.05 421.93 383.24 L 381.22 560.05 C 379.38 568.19 380.95 576.86 385.42 583.95 C 386.21 584.74 386.73 585.53 387.26 586.58 L 501.27 728.18 C 507.31 735.53 516.51 740 525.97 740 L 708.81 740 C 718.27 740 727.46 735.53 733.51 728.18 L 847.52 586.32 C 853.3 578.96 855.66 569.24 853.56 560.05 L 812.84 383.24 C 810.74 374.05 804.44 366.17 795.77 361.96 L 631.05 283.42 C 626.32 281.05 621.07 280 615.81 280.26 Z" fill-opacity="0.5" fill="#ffffff" stroke="none" pointer-events="all"/><path d="M 615.91 294.05 C 611.96 294.29 608.01 295.28 604.56 297.01 L 449.72 370.85 C 441.57 374.8 435.65 382.21 433.67 390.85 L 395.39 557.04 C 393.66 564.7 395.15 572.85 399.34 579.51 C 400.09 580.26 400.58 581 401.07 581.98 L 508.25 715.09 C 513.93 722 522.57 726.2 531.46 726.2 L 703.33 726.2 C 712.22 726.2 720.87 722 726.55 715.09 L 833.72 581.74 C 839.15 574.82 841.38 565.69 839.4 557.04 L 801.12 390.85 C 799.15 382.21 793.22 374.8 785.07 370.85 L 630.24 297.01 C 625.79 294.79 620.85 293.8 615.91 294.05 Z" fill-opacity="0.5" fill="#00aaff" stroke="none" pointer-events="all"/><path d="M 756.87 427.82 L 756.87 576.02 L 627.14 648 L 626.37 466.69 Z M 478.17 427.82 L 478.17 576.02 L 607.9 648 L 608.67 466.69 Z M 478.17 412.42 L 617.52 372 L 756.87 412.42 L 617.52 452.84 Z" fill-opacity="0.5" fill="#ffffff" stroke="none" pointer-events="all"/><path d="M 616.21 335.23 C 613.01 335.43 609.82 336.22 607.02 337.62 L 481.71 397.38 C 475.11 400.58 470.32 406.57 468.72 413.57 L 437.74 548.07 C 436.34 554.27 437.54 560.86 440.94 566.26 C 441.54 566.86 441.94 567.46 442.34 568.26 L 529.07 675.98 C 533.67 681.58 540.67 684.97 547.86 684.97 L 686.96 684.97 C 694.16 684.97 701.15 681.58 705.75 675.98 L 792.48 568.06 C 796.88 562.46 798.68 555.07 797.08 548.07 L 766.1 413.57 C 764.5 406.57 759.71 400.58 753.11 397.38 L 627.8 337.62 C 624.21 335.82 620.21 335.03 616.21 335.23 Z" fill="#ffffff" stroke="none" pointer-events="all"/><path d="M 616.29 345.71 C 613.28 345.9 610.28 346.65 607.65 347.97 L 489.86 404.14 C 483.66 407.14 479.15 412.78 477.64 419.36 L 448.53 545.79 C 447.21 551.61 448.34 557.81 451.53 562.88 C 452.09 563.45 452.47 564.01 452.85 564.76 L 534.38 666.02 C 538.7 671.28 545.28 674.48 552.04 674.48 L 682.79 674.48 C 689.56 674.48 696.13 671.28 700.45 666.02 L 781.99 564.57 C 786.12 559.31 787.81 552.36 786.31 545.79 L 757.19 419.36 C 755.68 412.78 751.18 407.14 744.98 404.14 L 627.19 347.97 C 623.8 346.28 620.05 345.52 616.29 345.71 Z" fill="#002882" stroke="none" pointer-events="all"/><path d="M 726.21 445.89 L 726.21 561.5 L 625.02 617.65 L 624.42 476.22 Z M 508.81 445.89 L 508.81 561.5 L 610 617.65 L 610.6 476.22 Z M 508.81 433.88 L 617.51 402.35 L 726.21 433.88 L 617.51 465.41 Z" fill="#ffffff" stroke="none" pointer-events="all"/><path d="M 975.55 0.26 C 971.35 0.53 967.15 1.58 963.47 3.42 L 798.75 81.96 C 790.08 86.17 783.78 94.05 781.67 103.24 L 740.96 280.05 C 739.12 288.19 740.69 296.86 745.16 303.95 C 745.95 304.74 746.47 305.53 747 306.58 L 861.01 448.18 C 867.05 455.53 876.25 460 885.71 460 L 1068.55 460 C 1078.01 460 1087.2 455.53 1093.25 448.18 L 1207.26 306.32 C 1213.04 298.96 1215.4 289.24 1213.3 280.05 L 1172.58 103.24 C 1170.48 94.05 1164.18 86.17 1155.51 81.96 L 990.79 3.42 C 986.06 1.05 980.81 0 975.55 0.26 Z" fill-opacity="0.5" fill="#ffffff" stroke="none" pointer-events="all"/><path d="M 975.65 14.05 C 971.7 14.29 967.75 15.28 964.3 17.01 L 809.46 90.85 C 801.31 94.8 795.39 102.21 793.41 110.85 L 755.13 277.04 C 753.4 284.7 754.89 292.85 759.08 299.51 C 759.83 300.26 760.32 301 760.81 301.98 L 867.99 435.09 C 873.67 442 882.31 446.2 891.2 446.2 L 1063.07 446.2 C 1071.96 446.2 1080.61 442 1086.29 435.09 L 1193.46 301.74 C 1198.89 294.82 1201.12 285.69 1199.14 277.04 L 1160.86 110.85 C 1158.89 102.21 1152.96 94.8 1144.81 90.85 L 989.98 17.01 C 985.53 14.79 980.59 13.8 975.65 14.05 Z" fill-opacity="0.5" fill="#00aaff" stroke="none" pointer-events="all"/><path d="M 1116.61 147.82 L 1116.61 296.02 L 986.88 368 L 986.11 186.69 Z M 837.91 147.82 L 837.91 296.02 L 967.64 368 L 968.41 186.69 Z M 837.91 132.42 L 977.26 92 L 1116.61 132.42 L 977.26 172.84 Z" fill-opacity="0.5" fill="#ffffff" stroke="none" pointer-events="all"/><path d="M 976.26 95.15 C 973.79 95.31 971.32 95.93 969.16 97 L 872.48 143.11 C 867.39 145.58 863.69 150.2 862.46 155.6 L 838.56 259.37 C 837.48 264.15 838.41 269.24 841.03 273.41 C 841.49 273.87 841.8 274.33 842.11 274.95 L 909.03 358.06 C 912.57 362.38 917.97 365 923.52 365 L 1030.84 365 C 1036.39 365 1041.79 362.38 1045.34 358.06 L 1112.26 274.79 C 1115.65 270.48 1117.04 264.77 1115.81 259.37 L 1091.91 155.6 C 1090.67 150.2 1086.97 145.58 1081.88 143.11 L 985.2 97 C 982.43 95.62 979.34 95 976.26 95.15 Z" fill="#ffffff" stroke="none" pointer-events="all"/><path d="M 976.32 103.24 C 974 103.39 971.68 103.97 969.65 104.98 L 878.77 148.32 C 873.99 150.64 870.51 154.99 869.35 160.06 L 846.88 257.61 C 845.87 262.11 846.74 266.89 849.2 270.8 C 849.64 271.24 849.93 271.67 850.22 272.25 L 913.12 350.38 C 916.46 354.44 921.53 356.9 926.75 356.9 L 1027.63 356.9 C 1032.85 356.9 1037.92 354.44 1041.25 350.38 L 1104.16 272.11 C 1107.35 268.05 1108.65 262.69 1107.49 257.61 L 1085.03 160.06 C 1083.87 154.99 1080.39 150.64 1075.61 148.32 L 984.72 104.98 C 982.12 103.68 979.22 103.1 976.32 103.24 Z" fill="#2875e2" stroke="none" pointer-events="all"/><path d="M 1059.05 181.76 L 1059.05 268.75 L 982.91 311 L 982.46 204.58 Z M 895.47 181.76 L 895.47 268.75 L 971.61 311 L 972.06 204.58 Z M 895.47 172.72 L 977.26 149 L 1059.05 172.72 L 977.26 196.45 Z" fill="#ffffff" stroke="none" pointer-events="all"/><path d="M 257.55 0.26 C 253.35 0.53 249.15 1.58 245.47 3.42 L 80.75 81.96 C 72.08 86.17 65.78 94.05 63.67 103.24 L 22.96 280.05 C 21.12 288.19 22.69 296.86 27.16 303.95 C 27.95 304.74 28.47 305.53 29 306.58 L 143.01 448.18 C 149.05 455.53 158.25 460 167.71 460 L 350.55 460 C 360.01 460 369.2 455.53 375.25 448.18 L 489.26 306.32 C 495.04 298.96 497.4 289.24 495.3 280.05 L 454.58 103.24 C 452.48 94.05 446.18 86.17 437.51 81.96 L 272.79 3.42 C 268.06 1.05 262.81 0 257.55 0.26 Z" fill-opacity="0.5" fill="#ffffff" stroke="none" pointer-events="all"/><path d="M 257.65 14.05 C 253.7 14.29 249.75 15.28 246.3 17.01 L 91.46 90.85 C 83.31 94.8 77.39 102.21 75.41 110.85 L 37.13 277.04 C 35.4 284.7 36.89 292.85 41.08 299.51 C 41.83 300.26 42.32 301 42.81 301.98 L 149.99 435.09 C 155.67 442 164.31 446.2 173.2 446.2 L 345.07 446.2 C 353.96 446.2 362.61 442 368.29 435.09 L 475.46 301.74 C 480.89 294.82 483.12 285.69 481.14 277.04 L 442.86 110.85 C 440.89 102.21 434.96 94.8 426.81 90.85 L 271.98 17.01 C 267.53 14.79 262.59 13.8 257.65 14.05 Z" fill-opacity="0.5" fill="#00aaff" stroke="none" pointer-events="all"/><path d="M 398.61 147.82 L 398.61 296.02 L 268.88 368 L 268.11 186.69 Z M 119.91 147.82 L 119.91 296.02 L 249.64 368 L 250.41 186.69 Z M 119.91 132.42 L 259.26 92 L 398.61 132.42 L 259.26 172.84 Z" fill-opacity="0.5" fill="#ffffff" stroke="none" pointer-events="all"/><path d="M 258.69 152.82 C 257.27 152.91 255.86 153.27 254.63 153.88 L 199.29 180.27 C 196.38 181.68 194.26 184.33 193.56 187.42 L 179.88 246.81 C 179.26 249.55 179.79 252.46 181.29 254.84 C 181.55 255.11 181.73 255.37 181.91 255.73 L 220.21 303.29 C 222.24 305.76 225.33 307.26 228.5 307.26 L 289.93 307.26 C 293.1 307.26 296.19 305.76 298.22 303.29 L 336.52 255.64 C 338.47 253.17 339.26 249.9 338.55 246.81 L 324.88 187.42 C 324.17 184.33 322.05 181.68 319.14 180.27 L 263.8 153.88 C 262.22 153.09 260.45 152.74 258.69 152.82 Z" fill="#ffffff" stroke="none" pointer-events="all"/><path d="M 258.72 157.45 C 257.39 157.54 256.07 157.87 254.9 158.45 L 202.89 183.25 C 200.15 184.58 198.16 187.07 197.5 189.97 L 184.64 245.8 C 184.06 248.37 184.56 251.11 185.97 253.35 C 186.22 253.6 186.38 253.85 186.55 254.18 L 222.55 298.9 C 224.46 301.22 227.36 302.63 230.35 302.63 L 288.09 302.63 C 291.07 302.63 293.98 301.22 295.89 298.9 L 331.89 254.1 C 333.71 251.78 334.46 248.71 333.8 245.8 L 320.94 189.97 C 320.27 187.07 318.28 184.58 315.55 183.25 L 263.53 158.45 C 262.04 157.7 260.38 157.37 258.72 157.45 Z" fill="#2875e2" stroke="none" pointer-events="all"/><path d="M 307.26 201.69 L 307.26 252.74 L 262.57 277.54 L 262.31 215.08 Z M 211.26 201.69 L 211.26 252.74 L 255.95 277.54 L 256.21 215.08 Z M 211.26 196.39 L 259.26 182.46 L 307.26 196.39 L 259.26 210.31 Z" fill="#ffffff" stroke="none" pointer-events="all"/><path d="M 258.22 460.16 C 255.66 460.32 253.1 460.96 250.86 462.08 L 150.6 509.89 C 145.32 512.45 141.49 517.24 140.21 522.84 L 115.42 630.46 C 114.3 635.41 115.26 640.69 117.98 645.01 C 118.46 645.49 118.78 645.97 119.1 646.61 L 188.5 732.79 C 192.18 737.27 197.77 739.99 203.53 739.99 L 314.82 739.99 C 320.58 739.99 326.17 737.27 329.85 732.79 L 399.25 646.45 C 402.77 641.97 404.21 636.05 402.93 630.46 L 378.14 522.84 C 376.86 517.24 373.02 512.45 367.75 509.89 L 267.49 462.08 C 264.61 460.64 261.41 460 258.22 460.16 Z" fill-opacity="0.5" fill="#ffffff" stroke="none" pointer-events="all"/><path d="M 258.28 468.55 C 255.87 468.7 253.47 469.3 251.36 470.35 L 157.12 515.3 C 152.16 517.7 148.55 522.21 147.35 527.47 L 124.05 628.63 C 123 633.29 123.9 638.25 126.46 642.31 C 126.91 642.76 127.21 643.21 127.51 643.81 L 192.74 724.83 C 196.2 729.03 201.46 731.59 206.87 731.59 L 311.49 731.59 C 316.9 731.59 322.16 729.03 325.62 724.83 L 390.85 643.66 C 394.16 639.45 395.51 633.89 394.31 628.63 L 371.01 527.47 C 369.81 522.21 366.2 517.7 361.24 515.3 L 267 470.35 C 264.29 469 261.28 468.4 258.28 468.55 Z" fill-opacity="0.5" fill="#00aaff" stroke="none" pointer-events="all"/><path d="M 344.07 549.97 L 344.07 640.18 L 265.11 683.99 L 264.64 573.64 Z M 174.44 549.97 L 174.44 640.18 L 253.4 683.99 L 253.87 573.64 Z M 174.44 540.6 L 259.25 516 L 344.07 540.6 L 259.25 565.2 Z" fill-opacity="0.5" fill="#ffffff" stroke="none" pointer-events="all"/><path d="M 258.65 517.92 C 257.15 518.01 255.64 518.39 254.33 519.05 L 195.48 547.11 C 192.38 548.61 190.13 551.43 189.38 554.71 L 174.83 617.88 C 174.18 620.79 174.74 623.88 176.34 626.42 C 176.62 626.7 176.8 626.98 176.99 627.36 L 217.73 677.94 C 219.88 680.57 223.17 682.17 226.55 682.17 L 291.87 682.17 C 295.25 682.17 298.54 680.57 300.69 677.94 L 341.43 627.26 C 343.49 624.63 344.34 621.16 343.59 617.88 L 329.04 554.71 C 328.29 551.43 326.04 548.61 322.94 547.11 L 264.09 519.05 C 262.4 518.2 260.52 517.83 258.65 517.92 Z" fill="#ffffff" stroke="none" pointer-events="all"/><path d="M 258.68 522.84 C 257.27 522.93 255.86 523.29 254.63 523.9 L 199.31 550.28 C 196.4 551.69 194.28 554.34 193.57 557.43 L 179.9 616.8 C 179.28 619.54 179.81 622.45 181.31 624.83 C 181.58 625.1 181.75 625.36 181.93 625.71 L 220.22 673.27 C 222.25 675.74 225.33 677.24 228.51 677.24 L 289.91 677.24 C 293.09 677.24 296.18 675.74 298.21 673.27 L 336.5 625.63 C 338.44 623.16 339.23 619.89 338.53 616.8 L 324.85 557.43 C 324.15 554.34 322.03 551.69 319.12 550.28 L 263.8 523.9 C 262.21 523.11 260.45 522.76 258.68 522.84 Z" fill="#2875e2" stroke="none" pointer-events="all"/><path d="M 309.04 570.64 L 309.04 623.58 L 262.7 649.3 L 262.42 584.53 Z M 209.47 570.64 L 209.47 623.58 L 255.82 649.3 L 256.09 584.53 Z M 209.47 565.13 L 259.26 550.69 L 309.04 565.13 L 259.26 579.57 Z" fill="#ffffff" stroke="none" pointer-events="all"/><path d="M 976.22 460.16 C 973.66 460.32 971.1 460.96 968.86 462.08 L 868.6 509.89 C 863.33 512.45 859.49 517.25 858.21 522.84 L 833.42 630.46 C 832.3 635.42 833.26 640.7 835.98 645.01 C 836.46 645.49 836.78 645.97 837.1 646.61 L 906.5 732.8 C 910.18 737.28 915.78 740 921.53 740 L 1032.83 740 C 1038.58 740 1044.18 737.28 1047.86 732.8 L 1117.26 646.45 C 1120.78 641.98 1122.22 636.06 1120.94 630.46 L 1096.15 522.84 C 1094.87 517.25 1091.03 512.45 1085.76 509.89 L 985.5 462.08 C 982.62 460.64 979.42 460 976.22 460.16 Z" fill-opacity="0.5" fill="#ffffff" stroke="none" pointer-events="all"/><path d="M 976.28 468.55 C 973.88 468.7 971.47 469.3 969.37 470.35 L 875.12 515.3 C 870.16 517.7 866.55 522.21 865.35 527.47 L 842.05 628.63 C 841 633.29 841.9 638.25 844.46 642.31 C 844.91 642.76 845.21 643.22 845.51 643.82 L 910.75 724.84 C 914.2 729.04 919.46 731.6 924.88 731.6 L 1029.49 731.6 C 1034.91 731.6 1040.17 729.04 1043.62 724.84 L 1108.86 643.67 C 1112.17 639.46 1113.52 633.9 1112.32 628.63 L 1089.02 527.47 C 1087.82 522.21 1084.21 517.7 1079.25 515.3 L 985 470.35 C 982.3 469 979.29 468.4 976.28 468.55 Z" fill-opacity="0.5" fill="#00aaff" stroke="none" pointer-events="all"/><path d="M 1062.08 549.97 L 1062.08 640.18 L 983.12 684 L 982.65 573.64 Z M 892.44 549.97 L 892.44 640.18 L 971.4 684 L 971.87 573.64 Z M 892.44 540.6 L 977.26 516 L 1062.08 540.6 L 977.26 565.21 Z" fill-opacity="0.5" fill="#ffffff" stroke="none" pointer-events="all"/><path d="M 976.91 553.02 C 976.05 553.08 975.19 553.29 974.44 553.67 L 940.76 569.73 C 938.99 570.59 937.7 572.2 937.27 574.08 L 928.94 610.23 C 928.56 611.9 928.89 613.67 929.8 615.12 C 929.96 615.28 930.07 615.44 930.18 615.66 L 953.49 644.61 C 954.73 646.12 956.61 647.03 958.54 647.03 L 995.93 647.03 C 997.86 647.03 999.74 646.12 1000.98 644.61 L 1024.29 615.61 C 1025.47 614.1 1025.96 612.11 1025.53 610.23 L 1017.2 574.08 C 1016.77 572.2 1015.48 570.59 1013.71 569.73 L 980.03 553.67 C 979.06 553.18 977.99 552.97 976.91 553.02 Z" fill="#ffffff" stroke="none" pointer-events="all"/><path d="M 976.93 555.84 C 976.12 555.89 975.32 556.09 974.61 556.45 L 942.95 571.55 C 941.28 572.35 940.07 573.87 939.67 575.64 L 931.84 609.62 C 931.49 611.18 931.79 612.85 932.65 614.21 C 932.8 614.37 932.9 614.52 933 614.72 L 954.92 641.94 C 956.08 643.35 957.84 644.21 959.66 644.21 L 994.81 644.21 C 996.62 644.21 998.39 643.35 999.55 641.94 L 1021.47 614.67 C 1022.58 613.25 1023.03 611.39 1022.63 609.62 L 1014.8 575.64 C 1014.4 573.87 1013.19 572.35 1011.52 571.55 L 979.86 556.45 C 978.95 555.99 977.94 555.79 976.93 555.84 Z" fill="#2875e2" stroke="none" pointer-events="all"/><path d="M 1006.48 582.77 L 1006.48 613.84 L 979.28 628.93 L 979.12 590.92 Z M 948.04 582.77 L 948.04 613.84 L 975.24 628.93 L 975.4 590.92 Z M 948.04 579.54 L 977.26 571.07 L 1006.48 579.54 L 977.26 588.01 Z" fill="#ffffff" stroke="none" pointer-events="all"/><path d="M 1143.83 420.07 C 1142.78 420.13 1141.73 420.39 1140.81 420.85 L 1099.63 440.49 C 1097.47 441.54 1095.89 443.51 1095.36 445.81 L 1085.18 490.01 C 1084.72 492.05 1085.12 494.21 1086.23 495.99 C 1086.43 496.19 1086.56 496.38 1086.69 496.64 L 1115.2 532.04 C 1116.71 533.88 1119.01 535 1121.37 535 L 1167.08 535 C 1169.45 535 1171.75 533.88 1173.26 532.04 L 1201.76 496.58 C 1203.2 494.74 1203.8 492.31 1203.27 490.01 L 1193.09 445.81 C 1192.57 443.51 1190.99 441.54 1188.82 440.49 L 1147.64 420.85 C 1146.46 420.26 1145.15 420 1143.83 420.07 Z" fill-opacity="0.5" fill="#ffffff" stroke="none" pointer-events="all"/><path d="M 1143.86 423.51 C 1142.87 423.57 1141.88 423.82 1141.02 424.25 L 1102.31 442.71 C 1100.27 443.7 1098.79 445.55 1098.3 447.71 L 1088.73 489.26 C 1088.3 491.17 1088.67 493.21 1089.72 494.88 C 1089.9 495.06 1090.02 495.25 1090.15 495.5 L 1116.94 528.77 C 1118.36 530.5 1120.52 531.55 1122.74 531.55 L 1165.71 531.55 C 1167.94 531.55 1170.1 530.5 1171.52 528.77 L 1198.31 495.43 C 1199.67 493.71 1200.22 491.42 1199.73 489.26 L 1190.16 447.71 C 1189.67 445.55 1188.19 443.7 1186.15 442.71 L 1147.44 424.25 C 1146.33 423.7 1145.09 423.45 1143.86 423.51 Z" fill-opacity="0.5" fill="#00aaff" stroke="none" pointer-events="all"/><path d="M 1179.1 456.95 L 1179.1 494 L 1146.67 512 L 1146.47 466.67 Z M 1109.42 456.95 L 1109.42 494 L 1141.85 512 L 1142.05 466.67 Z M 1109.42 453.1 L 1144.26 443 L 1179.1 453.1 L 1144.26 463.21 Z" fill-opacity="0.5" fill="#ffffff" stroke="none" pointer-events="all"/><path d="M 1144.12 458.21 C 1143.76 458.23 1143.41 458.32 1143.1 458.47 L 1129.27 465.07 C 1128.54 465.42 1128.01 466.08 1127.83 466.85 L 1124.41 481.7 C 1124.26 482.39 1124.39 483.12 1124.77 483.71 C 1124.83 483.78 1124.88 483.84 1124.92 483.93 L 1134.5 495.82 C 1135 496.44 1135.78 496.82 1136.57 496.82 L 1151.93 496.82 C 1152.72 496.82 1153.49 496.44 1154 495.82 L 1163.58 483.91 C 1164.06 483.29 1164.26 482.48 1164.08 481.7 L 1160.66 466.85 C 1160.49 466.08 1159.96 465.42 1159.23 465.07 L 1145.4 458.47 C 1145 458.27 1144.56 458.18 1144.12 458.21 Z" fill="#ffffff" stroke="none" pointer-events="all"/><path d="M 1144.13 459.36 C 1143.79 459.38 1143.46 459.47 1143.17 459.61 L 1130.17 465.81 C 1129.48 466.15 1128.99 466.77 1128.82 467.49 L 1125.61 481.45 C 1125.46 482.09 1125.58 482.78 1125.94 483.34 C 1126 483.4 1126.04 483.46 1126.08 483.55 L 1135.08 494.72 C 1135.56 495.3 1136.29 495.66 1137.03 495.66 L 1151.47 495.66 C 1152.21 495.66 1152.94 495.3 1153.42 494.72 L 1162.42 483.52 C 1162.87 482.94 1163.06 482.18 1162.89 481.45 L 1159.68 467.49 C 1159.51 466.77 1159.02 466.15 1158.33 465.81 L 1145.33 459.61 C 1144.95 459.43 1144.54 459.34 1144.13 459.36 Z" fill="#2875e2" stroke="none" pointer-events="all"/><path d="M 1156.26 470.42 L 1156.26 483.19 L 1145.09 489.38 L 1145.02 473.77 Z M 1132.26 470.42 L 1132.26 483.19 L 1143.43 489.38 L 1143.5 473.77 Z M 1132.26 469.1 L 1144.26 465.62 L 1156.26 469.1 L 1144.26 472.58 Z" fill="#ffffff" stroke="none" pointer-events="all"/><path d="M 616.48 0.16 C 613.92 0.32 611.36 0.96 609.12 2.08 L 508.86 49.89 C 503.58 52.45 499.75 57.24 498.47 62.84 L 473.68 170.46 C 472.56 175.41 473.52 180.69 476.24 185.01 C 476.72 185.49 477.04 185.97 477.36 186.61 L 546.76 272.79 C 550.44 277.27 556.03 279.99 561.79 279.99 L 673.08 279.99 C 678.84 279.99 684.43 277.27 688.11 272.79 L 757.51 186.45 C 761.03 181.97 762.47 176.05 761.19 170.46 L 736.4 62.84 C 735.12 57.24 731.28 52.45 726.01 49.89 L 625.75 2.08 C 622.87 0.64 619.67 0 616.48 0.16 Z" fill="#ffffff" stroke="none" pointer-events="all"/><path d="M 616.54 8.55 C 614.13 8.7 611.73 9.3 609.62 10.35 L 515.38 55.3 C 510.42 57.7 506.81 62.21 505.61 67.47 L 482.31 168.63 C 481.26 173.29 482.16 178.25 484.72 182.31 C 485.17 182.76 485.47 183.21 485.77 183.81 L 551 264.83 C 554.46 269.03 559.72 271.59 565.13 271.59 L 669.75 271.59 C 675.16 271.59 680.42 269.03 683.88 264.83 L 749.11 183.66 C 752.42 179.45 753.77 173.89 752.57 168.63 L 729.27 67.47 C 728.07 62.21 724.46 57.7 719.5 55.3 L 625.26 10.35 C 622.55 9 619.54 8.4 616.54 8.55 Z" fill="#ff6666" stroke="none" pointer-events="all"/><path d="M 702.33 89.97 L 702.33 180.18 L 623.37 223.99 L 622.9 113.64 Z M 532.7 89.97 L 532.7 180.18 L 611.66 223.99 L 612.13 113.64 Z M 532.7 80.6 L 617.51 56 L 702.33 80.6 L 617.51 105.2 Z" fill="#ffffff" stroke="none" pointer-events="all"/><path d="M 616.62 20.5 C 614.44 20.63 612.25 21.18 610.34 22.14 L 524.65 63 C 520.14 65.18 516.86 69.28 515.77 74.06 L 494.59 166.03 C 493.63 170.27 494.45 174.78 496.78 178.47 C 497.19 178.88 497.46 179.29 497.73 179.83 L 557.04 253.49 C 560.18 257.32 564.97 259.64 569.89 259.64 L 665 259.64 C 669.92 259.64 674.7 257.32 677.84 253.49 L 737.15 179.7 C 740.16 175.87 741.39 170.82 740.29 166.03 L 719.11 74.06 C 718.02 69.28 714.74 65.18 710.23 63 L 624.55 22.14 C 622.09 20.91 619.35 20.36 616.62 20.5 Z" fill="#ffffff" stroke="none" pointer-events="all"/><path d="M 616.68 27.67 C 614.62 27.8 612.56 28.31 610.77 29.21 L 530.23 67.62 C 525.99 69.67 522.9 73.52 521.88 78.02 L 501.97 164.47 C 501.07 168.45 501.84 172.69 504.02 176.16 C 504.41 176.55 504.66 176.93 504.92 177.44 L 560.67 246.68 C 563.62 250.28 568.12 252.46 572.74 252.46 L 662.15 252.46 C 666.77 252.46 671.27 250.28 674.22 246.68 L 729.97 177.32 C 732.8 173.72 733.95 168.97 732.93 164.47 L 713.02 78.02 C 711.99 73.52 708.91 69.67 704.67 67.62 L 624.13 29.21 C 621.81 28.05 619.24 27.54 616.68 27.67 Z" fill="#002882" stroke="none" pointer-events="all"/><path d="M 689.99 97.25 L 689.99 174.34 L 622.52 211.78 L 622.12 117.47 Z M 545.03 97.25 L 545.03 174.34 L 612.5 211.78 L 612.9 117.47 Z M 545.03 89.24 L 617.51 68.22 L 689.99 89.24 L 617.51 110.27 Z" fill="#ffffff" stroke="none" pointer-events="all"/></g></svg>